<svg width="215" height="198" viewBox="0 0 215 198" fill="none" xmlns="http://www.w3.org/2000/svg">
<path d="M176.851 107.066C175.89 107.066 175.111 106.287 175.111 105.326V98.0962C175.111 97.1353 175.89 96.356 176.851 96.356C177.812 96.3561 178.591 97.1354 178.591 98.0962V105.326C178.591 106.287 177.812 107.066 176.851 107.066Z" stroke="url(#paint0_linear_283_193)" stroke-width="2.2"/>
<path d="M176.851 107.069C175.89 107.069 175.111 106.29 175.111 105.329V104.21C175.111 103.25 175.89 102.471 176.851 102.471C177.812 102.471 178.591 103.25 178.591 104.21V105.329C178.591 106.289 177.812 107.069 176.851 107.069Z" stroke="url(#paint1_linear_283_193)" stroke-width="2.2"/>
<path d="M159.668 107.066C156.683 107.066 154.263 104.646 154.263 101.661V93.3696C154.263 90.3847 156.683 87.9653 159.668 87.9653C162.653 87.9654 165.074 90.3847 165.074 93.3696V101.661C165.074 104.646 162.653 107.066 159.668 107.066Z" stroke="url(#paint2_linear_283_193)" stroke-width="2.2"/>
<path d="M162.775 107.069H156.562C155.293 107.069 154.263 106.039 154.263 104.77C154.263 103.5 155.292 102.471 156.562 102.471H162.775C164.044 102.471 165.074 103.501 165.074 104.77C165.074 106.039 164.044 107.069 162.775 107.069Z" stroke="url(#paint3_linear_283_193)" stroke-width="2.2"/>
<path d="M178.369 195.541H157.071C152.708 195.54 149.171 192.003 149.171 187.64V113.509C149.171 109.146 152.708 105.61 157.071 105.61H178.369C182.732 105.61 186.269 109.146 186.269 113.509V187.64C186.269 192.003 182.732 195.541 178.369 195.541Z" stroke="url(#paint4_linear_283_193)" stroke-width="2.2"/>
<path d="M177.294 119.704C176.858 119.704 176.503 119.349 176.503 118.913V117.75C176.503 117.314 176.858 116.959 177.294 116.959C177.731 116.959 178.085 117.314 178.085 117.75V118.913C178.085 119.349 177.731 119.704 177.294 119.704Z" stroke="url(#paint5_linear_283_193)" stroke-width="2.2"/>
<path d="M177.294 127.146C177.731 127.146 178.085 127.5 178.085 127.937V129.099C178.085 129.536 177.731 129.89 177.294 129.89C176.858 129.89 176.503 129.536 176.503 129.099V127.937C176.503 127.5 176.858 127.146 177.294 127.146Z" stroke="url(#paint6_linear_283_193)" stroke-width="2.2"/>
<path d="M177.294 137.335C177.731 137.335 178.085 137.69 178.085 138.126V139.289C178.085 139.725 177.731 140.08 177.294 140.08C176.858 140.08 176.503 139.725 176.503 139.289V138.126C176.503 137.69 176.858 137.335 177.294 137.335Z" stroke="url(#paint7_linear_283_193)" stroke-width="2.2"/>
<path d="M177.294 147.522C177.731 147.522 178.085 147.877 178.085 148.313V149.476C178.085 149.912 177.731 150.267 177.294 150.267C176.858 150.267 176.503 149.912 176.503 149.476V148.313C176.503 147.877 176.858 147.522 177.294 147.522Z" stroke="url(#paint8_linear_283_193)" stroke-width="2.2"/>
<path d="M177.294 157.709C177.731 157.709 178.085 158.063 178.085 158.5V159.662C178.085 160.099 177.731 160.453 177.294 160.453C176.858 160.453 176.503 160.099 176.503 159.662V158.5C176.503 158.063 176.858 157.709 177.294 157.709Z" stroke="url(#paint9_linear_283_193)" stroke-width="2.2"/>
<path d="M177.294 167.896C177.731 167.896 178.085 168.25 178.085 168.687V169.849C178.085 170.286 177.731 170.64 177.294 170.64C176.858 170.64 176.503 170.286 176.503 169.849V168.687C176.503 168.25 176.858 167.896 177.294 167.896Z" stroke="url(#paint10_linear_283_193)" stroke-width="2.2"/>
<path d="M177.294 178.083C177.731 178.083 178.085 178.437 178.085 178.874V180.036C178.085 180.472 177.731 180.827 177.294 180.827C176.858 180.827 176.503 180.472 176.503 180.036V178.874C176.503 178.437 176.858 178.083 177.294 178.083Z" stroke="url(#paint11_linear_283_193)" stroke-width="2.2"/>
<path d="M166.175 119.703C165.739 119.703 165.384 119.349 165.384 118.912V117.75C165.384 117.313 165.739 116.959 166.175 116.959C166.612 116.959 166.966 117.313 166.966 117.75V118.912C166.966 119.349 166.612 119.703 166.175 119.703Z" stroke="url(#paint12_linear_283_193)" stroke-width="2.2"/>
<path d="M166.173 127.146C166.61 127.146 166.964 127.5 166.964 127.937V129.099C166.964 129.535 166.61 129.89 166.173 129.89C165.736 129.89 165.382 129.535 165.382 129.099V127.937C165.382 127.5 165.736 127.146 166.173 127.146Z" stroke="url(#paint13_linear_283_193)" stroke-width="2.2"/>
<path d="M166.173 137.335C166.61 137.335 166.964 137.689 166.964 138.126V139.288C166.964 139.725 166.61 140.079 166.173 140.079C165.736 140.079 165.382 139.725 165.382 139.288V138.126C165.382 137.689 165.736 137.335 166.173 137.335Z" stroke="url(#paint14_linear_283_193)" stroke-width="2.2"/>
<path d="M166.173 147.522C166.61 147.522 166.964 147.876 166.964 148.313V149.475C166.964 149.912 166.61 150.266 166.173 150.266C165.736 150.266 165.382 149.912 165.382 149.475V148.313C165.382 147.876 165.736 147.522 166.173 147.522Z" stroke="url(#paint15_linear_283_193)" stroke-width="2.2"/>
<path d="M166.173 157.708C166.61 157.709 166.964 158.063 166.964 158.5V159.662C166.964 160.098 166.61 160.453 166.173 160.453C165.736 160.453 165.382 160.098 165.382 159.662V158.5C165.382 158.063 165.736 157.708 166.173 157.708Z" stroke="url(#paint16_linear_283_193)" stroke-width="2.2"/>
<path d="M166.173 167.896C166.61 167.896 166.964 168.25 166.964 168.687V169.849C166.964 170.285 166.61 170.64 166.173 170.64C165.736 170.64 165.382 170.285 165.382 169.849V168.687C165.382 168.25 165.736 167.896 166.173 167.896Z" stroke="url(#paint17_linear_283_193)" stroke-width="2.2"/>
<path d="M166.173 178.082C166.61 178.082 166.964 178.436 166.964 178.873V180.035C166.964 180.472 166.61 180.826 166.173 180.826C165.736 180.826 165.382 180.472 165.382 180.035V178.873C165.382 178.436 165.736 178.082 166.173 178.082Z" stroke="url(#paint18_linear_283_193)" stroke-width="2.2"/>
<path d="M155.058 119.704C154.622 119.704 154.267 119.349 154.267 118.913V117.75C154.267 117.314 154.622 116.959 155.058 116.959C155.495 116.959 155.849 117.314 155.849 117.75V118.913C155.849 119.349 155.495 119.704 155.058 119.704Z" stroke="url(#paint19_linear_283_193)" stroke-width="2.2"/>
<path d="M155.058 127.146C155.494 127.146 155.849 127.5 155.849 127.937V129.099C155.849 129.536 155.494 129.89 155.058 129.89C154.621 129.89 154.267 129.536 154.267 129.099V127.937C154.267 127.5 154.621 127.146 155.058 127.146Z" stroke="url(#paint20_linear_283_193)" stroke-width="2.2"/>
<path d="M155.058 137.335C155.494 137.335 155.849 137.69 155.849 138.126V139.289C155.849 139.725 155.494 140.08 155.058 140.08C154.621 140.08 154.267 139.725 154.267 139.289V138.126C154.267 137.69 154.621 137.335 155.058 137.335Z" stroke="url(#paint21_linear_283_193)" stroke-width="2.2"/>
<path d="M155.058 147.522C155.494 147.522 155.849 147.877 155.849 148.313V149.476C155.849 149.912 155.494 150.267 155.058 150.267C154.621 150.267 154.267 149.912 154.267 149.476V148.313C154.267 147.877 154.621 147.522 155.058 147.522Z" stroke="url(#paint22_linear_283_193)" stroke-width="2.2"/>
<path d="M155.058 157.709C155.494 157.709 155.849 158.063 155.849 158.5V159.662C155.849 160.099 155.494 160.453 155.058 160.453C154.621 160.453 154.267 160.099 154.267 159.662V158.5C154.267 158.063 154.621 157.709 155.058 157.709Z" stroke="url(#paint23_linear_283_193)" stroke-width="2.2"/>
<path d="M155.058 167.896C155.494 167.896 155.849 168.25 155.849 168.687V169.849C155.849 170.286 155.494 170.64 155.058 170.64C154.621 170.64 154.267 170.286 154.267 169.849V168.687C154.267 168.25 154.621 167.896 155.058 167.896Z" stroke="url(#paint24_linear_283_193)" stroke-width="2.2"/>
<path d="M155.058 178.083C155.494 178.083 155.849 178.437 155.849 178.874V180.036C155.849 180.472 155.494 180.827 155.058 180.827C154.621 180.827 154.267 180.472 154.267 180.036V178.874C154.267 178.437 154.621 178.083 155.058 178.083Z" stroke="url(#paint25_linear_283_193)" stroke-width="2.2"/>
<path d="M180.255 57.0405C180.256 51.2468 186.286 47.4243 191.526 49.896L203.173 55.3901C205.586 56.5283 207.125 58.9567 207.125 61.6245C207.125 65.4314 204.04 68.518 200.233 68.5181H188.156C183.793 68.5181 180.255 64.9807 180.255 60.6177V57.0405Z" stroke="url(#paint26_linear_283_193)" stroke-width="2.2"/>
<path d="M181.72 64.7222H205.886C210.249 64.7222 213.786 68.2596 213.786 72.6226V187.984C213.786 192.347 210.249 195.884 205.886 195.884H181.72C177.357 195.884 173.82 192.347 173.82 187.984V72.6226C173.82 68.2595 177.357 64.7222 181.72 64.7222Z" stroke="url(#paint27_linear_283_193)" stroke-width="2.2"/>
<path d="M180.61 61.6006H206.775C206.97 61.6006 207.128 61.7598 207.128 61.9551C207.128 62.1502 206.97 62.3086 206.775 62.3086H180.61C180.415 62.3086 180.256 62.1502 180.255 61.9551C180.255 61.7598 180.415 61.6006 180.61 61.6006Z" stroke="url(#paint28_linear_283_193)" stroke-width="2.2"/>
<path d="M185.362 122.679C185.937 122.679 186.403 123.146 186.403 123.721V126.045C186.403 126.62 185.937 127.086 185.362 127.086C184.787 127.086 184.32 126.62 184.32 126.045V123.721C184.32 123.146 184.787 122.679 185.362 122.679Z" stroke="url(#paint29_linear_283_193)" stroke-width="2.2"/>
<path d="M185.362 111.535C185.937 111.535 186.403 112.002 186.403 112.577V114.901C186.403 115.476 185.937 115.942 185.362 115.942C184.787 115.942 184.32 115.476 184.32 114.901V112.577C184.32 112.002 184.787 111.535 185.362 111.535Z" stroke="url(#paint30_linear_283_193)" stroke-width="2.2"/>
<path d="M185.362 100.39C185.937 100.39 186.403 100.857 186.403 101.432V103.756C186.403 104.331 185.937 104.797 185.362 104.797C184.787 104.797 184.32 104.331 184.32 103.756V101.432C184.32 100.857 184.787 100.39 185.362 100.39Z" stroke="url(#paint31_linear_283_193)" stroke-width="2.2"/>
<path d="M185.362 89.2451C185.937 89.2453 186.403 89.7122 186.403 90.2871V92.6113C186.403 93.1863 185.937 93.6522 185.362 93.6523C184.787 93.6523 184.32 93.1864 184.32 92.6113V90.2871C184.32 89.712 184.787 89.2451 185.362 89.2451Z" stroke="url(#paint32_linear_283_193)" stroke-width="2.2"/>
<path d="M185.362 78.1035C185.937 78.1037 186.403 78.5706 186.403 79.1455V81.4697C186.403 82.0447 185.937 82.5106 185.362 82.5107C184.787 82.5107 184.32 82.0448 184.32 81.4697V79.1455C184.32 78.5704 184.787 78.1035 185.362 78.1035Z" stroke="url(#paint33_linear_283_193)" stroke-width="2.2"/>
<path d="M193.692 122.679C194.267 122.679 194.733 123.146 194.733 123.721V126.045C194.733 126.62 194.267 127.086 193.692 127.086C193.117 127.086 192.65 126.62 192.65 126.045V123.721C192.65 123.146 193.117 122.679 193.692 122.679Z" stroke="url(#paint34_linear_283_193)" stroke-width="2.2"/>
<path d="M193.692 111.535C194.267 111.535 194.733 112.002 194.733 112.577V114.901C194.733 115.476 194.267 115.942 193.692 115.942C193.117 115.942 192.65 115.476 192.65 114.901V112.577C192.65 112.002 193.117 111.535 193.692 111.535Z" stroke="url(#paint35_linear_283_193)" stroke-width="2.2"/>
<path d="M193.692 100.39C194.267 100.39 194.733 100.857 194.733 101.432V103.756C194.733 104.331 194.267 104.797 193.692 104.797C193.117 104.797 192.65 104.331 192.65 103.756V101.432C192.65 100.857 193.117 100.39 193.692 100.39Z" stroke="url(#paint36_linear_283_193)" stroke-width="2.2"/>
<path d="M193.692 89.2451C194.267 89.2453 194.733 89.7122 194.733 90.2871V92.6113C194.733 93.1863 194.267 93.6522 193.692 93.6523C193.117 93.6523 192.65 93.1864 192.65 92.6113V90.2871C192.65 89.712 193.117 89.2451 193.692 89.2451Z" stroke="url(#paint37_linear_283_193)" stroke-width="2.2"/>
<path d="M193.692 78.1035C194.267 78.1037 194.733 78.5706 194.733 79.1455V81.4697C194.733 82.0447 194.267 82.5106 193.692 82.5107C193.117 82.5107 192.65 82.0448 192.65 81.4697V79.1455C192.65 78.5704 193.117 78.1035 193.692 78.1035Z" stroke="url(#paint38_linear_283_193)" stroke-width="2.2"/>
<path d="M202.02 122.679C202.595 122.679 203.061 123.146 203.061 123.721V126.045C203.061 126.62 202.595 127.086 202.02 127.086C201.445 127.086 200.978 126.62 200.978 126.045V123.721C200.978 123.146 201.445 122.679 202.02 122.679Z" stroke="url(#paint39_linear_283_193)" stroke-width="2.2"/>
<path d="M202.02 111.535C202.595 111.535 203.061 112.002 203.061 112.577V114.901C203.061 115.476 202.595 115.942 202.02 115.942C201.445 115.942 200.978 115.476 200.978 114.901V112.577C200.978 112.002 201.445 111.535 202.02 111.535Z" stroke="url(#paint40_linear_283_193)" stroke-width="2.2"/>
<path d="M202.02 100.39C202.595 100.39 203.061 100.857 203.061 101.432V103.756C203.061 104.331 202.595 104.797 202.02 104.797C201.445 104.797 200.978 104.331 200.978 103.756V101.432C200.978 100.857 201.445 100.39 202.02 100.39Z" stroke="url(#paint41_linear_283_193)" stroke-width="2.2"/>
<path d="M202.02 89.2451C202.595 89.2453 203.061 89.7122 203.061 90.2871V92.6113C203.061 93.1863 202.595 93.6522 202.02 93.6523C201.445 93.6523 200.978 93.1864 200.978 92.6113V90.2871C200.978 89.712 201.445 89.2451 202.02 89.2451Z" stroke="url(#paint42_linear_283_193)" stroke-width="2.2"/>
<path d="M202.02 78.1035C202.595 78.1037 203.061 78.5706 203.061 79.1455V81.4697C203.061 82.0447 202.595 82.5106 202.02 82.5107C201.445 82.5107 200.978 82.0448 200.978 81.4697V79.1455C200.978 78.5704 201.445 78.1035 202.02 78.1035Z" stroke="url(#paint43_linear_283_193)" stroke-width="2.2"/>
<path d="M13.5073 8.12207C14.1953 8.12207 14.7534 8.68018 14.7534 9.36816V41.7939C14.7533 42.4818 14.1952 43.0391 13.5073 43.0391C12.8194 43.0391 12.2614 42.4818 12.2612 41.7939V9.36816C12.2612 8.68018 12.8193 8.12208 13.5073 8.12207Z" stroke="url(#paint44_linear_283_193)" stroke-width="2.2"/>
<path d="M12.8813 41.8022H14.1333C14.4756 41.8022 14.7534 42.0801 14.7534 42.4224C14.7534 42.7646 14.4756 43.0425 14.1333 43.0425H12.8813C12.5391 43.0425 12.2612 42.7646 12.2612 42.4224C12.2612 42.0801 12.5391 41.8022 12.8813 41.8022Z" stroke="url(#paint45_linear_283_193)" stroke-width="2.2"/>
<path d="M24.5405 27.7197C26.2919 27.7198 27.7114 29.1402 27.7114 30.8916V44.0664C27.7114 45.8178 26.2919 47.2382 24.5405 47.2383C22.7891 47.2383 21.3687 45.8179 21.3687 44.0664V30.8916C21.3687 29.1401 22.7891 27.7197 24.5405 27.7197Z" stroke="url(#paint46_linear_283_193)" stroke-width="2.2"/>
<path d="M24.9956 195.595H8.99951C4.63666 195.594 1.1001 192.057 1.1001 187.694L1.1001 52.5039C1.10017 48.1411 4.63671 44.6047 8.99951 44.6045H24.9956C29.3586 44.6045 32.8959 48.1409 32.896 52.5039L32.896 187.694C32.896 192.057 29.3587 195.595 24.9956 195.595Z" stroke="url(#paint47_linear_283_193)" stroke-width="2.2"/>
<path d="M21.4478 42.0435H27.6323C27.6759 42.0435 27.7112 42.079 27.7114 42.1226C27.7114 42.1663 27.676 42.2026 27.6323 42.2026H21.4478C21.4042 42.2024 21.3687 42.1661 21.3687 42.1226C21.3689 42.0792 21.4044 42.0437 21.4478 42.0435Z" stroke="url(#paint48_linear_283_193)" stroke-width="2.2"/>
<path d="M23.7749 145.818C24.1264 145.818 24.4115 146.103 24.4116 146.455V148.339C24.4116 148.691 24.1264 148.976 23.7749 148.976C23.4234 148.976 23.1382 148.691 23.1382 148.339V146.455C23.1383 146.103 23.4235 145.818 23.7749 145.818Z" stroke="url(#paint49_linear_283_193)" stroke-width="2.2"/>
<path d="M23.7749 136.779C24.1264 136.779 24.4115 137.065 24.4116 137.416V139.301C24.4116 139.652 24.1264 139.938 23.7749 139.938C23.4234 139.937 23.1382 139.652 23.1382 139.301V137.416C23.1383 137.065 23.4235 136.779 23.7749 136.779Z" stroke="url(#paint50_linear_283_193)" stroke-width="2.2"/>
<path d="M23.7749 109.662C24.1264 109.662 24.4115 109.947 24.4116 110.298V112.183C24.4116 112.535 24.1264 112.82 23.7749 112.82C23.4234 112.82 23.1382 112.535 23.1382 112.183V110.298C23.1383 109.947 23.4235 109.662 23.7749 109.662Z" stroke="url(#paint51_linear_283_193)" stroke-width="2.2"/>
<path d="M23.7749 100.623C24.1264 100.623 24.4115 100.908 24.4116 101.26V103.145C24.4116 103.496 24.1264 103.781 23.7749 103.781C23.4234 103.781 23.1382 103.496 23.1382 103.145V101.26C23.1383 100.908 23.4235 100.623 23.7749 100.623Z" stroke="url(#paint52_linear_283_193)" stroke-width="2.2"/>
<path d="M23.7749 82.5439C24.1264 82.5439 24.4115 82.8292 24.4116 83.1807V85.0654C24.4116 85.417 24.1264 85.7021 23.7749 85.7021C23.4234 85.702 23.1382 85.4169 23.1382 85.0654V83.1807C23.1383 82.8293 23.4235 82.5441 23.7749 82.5439Z" stroke="url(#paint53_linear_283_193)" stroke-width="2.2"/>
<path d="M23.7749 58.5874C23.4234 58.5874 23.1383 58.3021 23.1382 57.9507V56.0659C23.1382 55.7144 23.4234 55.4292 23.7749 55.4292C24.1264 55.4293 24.4116 55.7144 24.4116 56.0659V57.9507C24.4115 58.3021 24.1263 58.5873 23.7749 58.5874Z" stroke="url(#paint54_linear_283_193)" stroke-width="2.2"/>
<path d="M17.021 127.741C17.3725 127.741 17.6576 128.026 17.6577 128.378V130.263C17.6577 130.614 17.3725 130.899 17.021 130.899C16.6695 130.899 16.3843 130.614 16.3843 130.263V128.378C16.3844 128.027 16.6696 127.741 17.021 127.741Z" stroke="url(#paint55_linear_283_193)" stroke-width="2.2"/>
<path d="M17.021 100.623C17.3725 100.623 17.6576 100.908 17.6577 101.26V103.145C17.6577 103.496 17.3725 103.781 17.021 103.781C16.6695 103.781 16.3843 103.496 16.3843 103.145V101.26C16.3844 100.908 16.6696 100.623 17.021 100.623Z" stroke="url(#paint56_linear_283_193)" stroke-width="2.2"/>
<path d="M17.021 91.582C17.3725 91.582 17.6576 91.8673 17.6577 92.2188V94.1035C17.6577 94.4551 17.3725 94.7402 17.021 94.7402C16.6695 94.7401 16.3843 94.455 16.3843 94.1035V92.2188C16.3844 91.8674 16.6696 91.5821 17.021 91.582Z" stroke="url(#paint57_linear_283_193)" stroke-width="2.2"/>
<path d="M17.021 73.5054C17.3725 73.5054 17.6576 73.7906 17.6577 74.1421V76.0269C17.6577 76.3784 17.3725 76.6636 17.021 76.6636C16.6695 76.6635 16.3843 76.3783 16.3843 76.0269V74.1421C16.3844 73.7907 16.6696 73.5055 17.021 73.5054Z" stroke="url(#paint58_linear_283_193)" stroke-width="2.2"/>
<path d="M17.021 64.4668C17.3725 64.4668 17.6576 64.7521 17.6577 65.1035V66.9883C17.6577 67.3398 17.3725 67.625 17.021 67.625C16.6695 67.6249 16.3843 67.3398 16.3843 66.9883V65.1035C16.3844 64.7521 16.6696 64.4669 17.021 64.4668Z" stroke="url(#paint59_linear_283_193)" stroke-width="2.2"/>
<path d="M10.2612 145.818C10.6127 145.818 10.8978 146.103 10.8979 146.455V148.339C10.8979 148.691 10.6128 148.976 10.2612 148.976C9.90978 148.976 9.62451 148.691 9.62451 148.339V146.455C9.62462 146.103 9.90985 145.818 10.2612 145.818Z" stroke="url(#paint60_linear_283_193)" stroke-width="2.2"/>
<path d="M10.2612 127.741C10.6127 127.741 10.8978 128.026 10.8979 128.378V130.263C10.8979 130.614 10.6128 130.899 10.2612 130.899C9.90978 130.899 9.62451 130.614 9.62451 130.263V128.378C9.62462 128.027 9.90985 127.741 10.2612 127.741Z" stroke="url(#paint61_linear_283_193)" stroke-width="2.2"/>
<path d="M10.2612 109.662C10.6127 109.662 10.8978 109.947 10.8979 110.298V112.183C10.8979 112.535 10.6128 112.82 10.2612 112.82C9.90978 112.82 9.62451 112.535 9.62451 112.183V110.298C9.62462 109.947 9.90985 109.662 10.2612 109.662Z" stroke="url(#paint62_linear_283_193)" stroke-width="2.2"/>
<path d="M10.2612 91.582C10.6127 91.582 10.8978 91.8673 10.8979 92.2188V94.1035C10.8979 94.4551 10.6128 94.7402 10.2612 94.7402C9.90978 94.7401 9.62451 94.455 9.62451 94.1035V92.2188C9.62462 91.8674 9.90985 91.5821 10.2612 91.582Z" stroke="url(#paint63_linear_283_193)" stroke-width="2.2"/>
<path d="M10.2612 64.4668C10.6127 64.4668 10.8978 64.7521 10.8979 65.1035V66.9883C10.8979 67.3398 10.6128 67.625 10.2612 67.625C9.90978 67.6249 9.62451 67.3398 9.62451 66.9883V65.1035C9.62462 64.7521 9.90985 64.4669 10.2612 64.4668Z" stroke="url(#paint64_linear_283_193)" stroke-width="2.2"/>
<path d="M32.003 13.6595C32.003 14.0258 31.8944 14.3838 31.6908 14.6883C31.4873 14.9928 31.198 15.2301 30.8595 15.3702C30.521 15.5102 30.1486 15.5467 29.7894 15.4751C29.4302 15.4034 29.1004 15.2268 28.8416 14.9676C28.5827 14.7084 28.4066 14.3782 28.3355 14.0189C28.2644 13.6596 28.3015 13.2873 28.442 12.949C28.5826 12.6108 28.8203 12.3218 29.1251 12.1188C29.43 11.9157 29.7882 11.8076 30.1545 11.8081C30.645 11.8088 31.1152 12.0042 31.4618 12.3513C31.8084 12.6985 32.003 13.1689 32.003 13.6595Z" fill="#B3E2FC"/>
<path d="M21.8819 162.771C21.8825 163.138 21.7744 163.496 21.5713 163.801C21.3682 164.106 21.0792 164.343 20.741 164.484C20.4027 164.624 20.0304 164.661 19.6711 164.59C19.3118 164.519 18.9816 164.343 18.7224 164.084C18.4632 163.826 18.2866 163.496 18.215 163.136C18.1433 162.777 18.1798 162.405 18.3199 162.066C18.4599 161.728 18.6972 161.439 19.0017 161.235C19.3062 161.032 19.6643 160.923 20.0306 160.923C20.5211 160.923 20.9916 161.118 21.3387 161.464C21.6858 161.811 21.8812 162.281 21.8819 162.771Z" fill="#B3E2FC"/>
<path d="M105.31 171.267C107.175 171.236 109.047 171.273 110.556 171.399C111.312 171.462 111.962 171.546 112.468 171.65C112.83 171.724 113.071 171.802 113.217 171.864C113.203 171.891 113.186 171.924 113.163 171.96C112.948 172.304 112.509 172.768 111.892 173.314C110.672 174.394 109.008 175.586 107.762 176.531C106.643 177.38 105.966 177.478 105.441 177.384C105.148 177.332 104.845 177.209 104.484 177.019C104.292 176.918 104.109 176.813 103.913 176.698L103.264 176.32L102.496 175.874C100.753 174.838 99.3652 173.844 98.5083 173.022C98.0062 172.54 97.7581 172.184 97.6782 171.969C97.675 171.961 97.6738 171.952 97.6714 171.945C97.699 171.934 97.7418 171.918 97.8042 171.9C97.9395 171.86 98.1235 171.818 98.356 171.775C98.8198 171.689 99.4343 171.608 100.159 171.538C101.605 171.396 103.446 171.298 105.31 171.267Z" fill="url(#paint65_linear_283_193)" stroke="url(#paint66_linear_283_193)" stroke-width="1.5"/>
<path d="M105.464 193.237C104.889 193.237 104.423 192.771 104.423 192.196V177.954C104.423 177.379 104.889 176.913 105.464 176.913C106.039 176.913 106.505 177.379 106.505 177.954V192.196C106.505 192.771 106.039 193.237 105.464 193.237Z" fill="url(#paint67_linear_283_193)" stroke="url(#paint68_linear_283_193)" stroke-width="1.5"/>
<path d="M104.367 194.731H106.534C106.976 194.731 107.418 194.767 107.854 194.838L115.722 196.113H94.8149L103.103 194.829C103.521 194.764 103.944 194.731 104.367 194.731Z" fill="url(#paint69_linear_283_193)" stroke="url(#paint70_linear_283_193)" stroke-width="1.5"/>
<path d="M97.4773 125.217C106.094 125.217 110.758 130.829 113.521 137.271C114.903 140.491 115.788 143.878 116.436 146.795C116.761 148.256 117.023 149.582 117.262 150.724C117.498 151.846 117.716 152.812 117.948 153.491C118.801 155.982 120.2 161.276 117.841 165.915C115.522 170.472 109.371 174.745 94.2898 174.745C86.7702 174.745 82.1083 173.295 79.3298 171.103C76.5873 168.938 75.5667 165.957 75.5398 162.584C75.5127 159.185 76.499 155.448 77.7224 151.906C78.3321 150.141 78.9942 148.441 79.6091 146.868C80.2209 145.303 80.7909 143.85 81.2019 142.608C82.0271 140.115 82.441 137.72 82.8542 135.605C83.2732 133.462 83.688 131.632 84.49 130.114C85.2728 128.633 86.4357 127.43 88.4099 126.583C90.4137 125.723 93.2807 125.217 97.4773 125.217Z" fill="#001D16" stroke="url(#paint71_linear_283_193)" stroke-width="1.5"/>
<path d="M91.4505 154.921C86.6891 155.814 85.748 161.945 87.8878 175.49C88.6626 180.394 89.1472 183.656 89.4504 185.822C89.8248 188.498 88.6966 191.007 86.3003 192.256C84.5764 193.154 82.5555 193.993 80.9725 194.029C77.5219 194.107 75.931 196.849 81.4935 196.849C87.056 196.849 92.2852 196.67 94.7275 196.67C97.1699 196.67 95.5034 191.326 95.2877 190.055C95.072 188.783 96.254 168.16 96.0467 164.942C95.8395 161.724 95.8311 154.097 91.4505 154.921Z" fill="url(#paint72_linear_283_193)"/>
<path d="M83.2995 194.517C82.5655 194.23 81.7601 194.012 80.9725 194.043V194.043C77.5219 194.124 75.931 196.863 81.4935 196.863C87.056 196.863 92.2852 196.684 94.7275 196.684V196.684C97.3548 196.684 93.5528 193.242 91.0344 193.991C89.2114 194.533 87.3699 194.97 86.1541 194.97C84.8482 194.97 83.9301 194.763 83.2995 194.517Z" fill="#304DD9"/>
<path d="M100.067 154.921C95.3058 155.814 94.3647 161.945 96.5046 175.49C97.2776 180.383 97.7622 183.643 98.066 185.81C98.4424 188.496 97.3097 191.018 94.9032 192.269C93.1824 193.164 91.169 193.999 89.5921 194.035C86.1442 194.113 84.5365 196.855 90.113 196.855C95.6895 196.855 100.905 196.676 103.347 196.676C105.789 196.676 104.123 191.332 103.907 190.06C103.692 188.789 104.871 168.166 104.666 164.948C104.462 161.729 104.456 154.097 100.067 154.921Z" fill="url(#paint73_linear_283_193)"/>
<path d="M91.9114 194.515C91.1789 194.228 90.3756 194.013 89.5894 194.043V194.043C86.1388 194.124 84.5339 196.863 90.1104 196.863C95.6869 196.863 100.902 196.684 103.344 196.684V196.684C105.972 196.684 102.17 193.243 99.6512 193.991C97.8278 194.533 95.9855 194.97 94.7682 194.97C93.46 194.97 92.5417 194.762 91.9114 194.515Z" fill="url(#paint74_linear_283_193)"/>
<path d="M19.6217 146.694H180.511C181.269 146.694 181.883 147.309 181.883 148.066C181.883 148.824 181.269 149.439 180.511 149.439H19.6217C18.8639 149.439 18.2496 148.824 18.2496 148.066C18.2498 147.309 18.864 146.694 19.6217 146.694Z" fill="#020111" stroke="url(#paint75_linear_283_193)" stroke-width="2"/>
<path d="M91.8669 114.978C91.8669 114.978 87.8253 115.515 86.7526 115.992C85.6798 116.468 86.7806 128.035 88.0186 130.556V130.556C89.6918 133.963 91.9876 137.653 95.7832 137.653H97.9461C102.259 137.653 105.437 134.098 106.521 129.923V129.923C106.954 128.254 107.686 124.248 108.165 120.983C108.588 118.103 106.844 115.777 104.041 114.995V114.995C103.299 114.789 102.531 114.694 101.761 114.714L91.8669 114.978Z" fill="#2F7C35"/>
<path d="M105.183 91.6579C102.462 89.6047 98.0418 88.2923 94.655 88.6742C93.4945 88.8051 92.1829 89.2231 90.7609 90.1174C85.3721 93.5064 86.5597 102.136 86.3188 105.867C86.0779 109.597 85.1396 110.292 85.9071 110.754C86.3996 111.051 87.2177 111.474 88.1767 111.414C89.0971 111.356 90.2377 111.677 91.0045 112.19V112.19C91.5227 112.536 92.1382 112.707 92.7607 112.678C93.1062 112.661 93.4502 112.628 93.7915 112.579C95.8483 112.286 97.9536 112.055 100.021 112.26C100.727 112.329 101.406 112.339 101.883 112.216V112.216C103.328 111.845 105.207 110.875 106.698 110.908V110.908C108.314 110.908 108.081 110.298 107.538 105.867C106.995 101.436 108.448 94.1226 105.183 91.6579V91.6579Z" fill="url(#paint76_linear_283_193)"/>
<path d="M10.0181 136.245H190.116C192.017 136.245 193.558 137.786 193.558 139.687V141.252C193.558 143.153 192.017 144.695 190.116 144.695H10.0181C8.11701 144.695 6.57568 143.153 6.57568 141.252V139.687L6.58057 139.509C6.66997 137.75 8.08059 136.339 9.84033 136.25L10.0181 136.245Z" fill="#020111" stroke="url(#paint77_linear_283_193)" stroke-width="2"/>
<path d="M23.3977 146.194C24.9548 146.195 26.0676 147.701 25.6106 149.189L11.6292 194.728C11.3306 195.7 10.4331 196.363 9.41626 196.363C7.85907 196.363 6.74541 194.857 7.20239 193.368L21.1838 147.83C21.4823 146.858 22.3807 146.194 23.3977 146.194Z" fill="#020111" stroke="url(#paint78_linear_283_193)"/>
<path d="M176.737 146.194C177.753 146.194 178.651 146.858 178.949 147.83L192.931 193.368C193.388 194.857 192.275 196.363 190.718 196.363C189.701 196.363 188.803 195.7 188.504 194.728L174.523 149.189C174.066 147.701 175.179 146.194 176.737 146.194Z" fill="#020111" stroke="url(#paint79_linear_283_193)"/>
<path d="M57.0778 188.53C55.1116 188.253 53.3168 189.703 53.2953 191.688C53.2824 192.877 53.3114 194.099 53.4406 194.923C53.7739 197.046 54.5217 197.043 58.0956 197.043C61.6695 197.043 66.8287 196.864 68.5736 196.864C70.3186 196.864 71.7358 194.923 67.9098 193.503C65.3491 192.552 62.5274 191.412 60.8169 190.342C59.6789 189.629 58.4073 188.716 57.0778 188.53V188.53Z" fill="url(#paint80_linear_283_193)"/>
<path d="M75.2387 187.729C73.8867 187.897 72.8413 188.999 72.796 190.36C72.7455 191.88 72.7325 193.784 72.9113 194.922C73.2446 197.046 73.9924 197.043 77.5691 197.043C81.1458 197.043 86.2994 196.863 88.0471 196.863C89.7949 196.863 91.3746 194.343 87.3805 193.502C83.3598 192.663 80.5758 190.891 79.0325 189.38C78.0353 188.405 76.6231 187.557 75.2387 187.729V187.729Z" fill="url(#paint81_linear_283_193)"/>
<path d="M52.8645 170.437C51.0706 171.345 50.0193 173.259 50.2368 175.258C50.5463 178.101 51.0223 182.248 51.5013 185.547C51.8126 187.691 53.7271 189.165 55.8899 189.038V189.038C58.2216 188.901 60.0363 186.96 60.016 184.625L59.93 174.737C59.8986 171.127 56.0855 168.806 52.8645 170.437V170.437Z" fill="url(#paint82_linear_283_193)"/>
<path d="M67.9084 193.508C67.1284 193.219 66.3245 192.913 65.5353 192.596C62.4805 191.369 59.2576 192.094 56.1784 193.258V193.258C55.6702 193.449 55.1415 193.573 54.6053 193.63C53.9258 193.702 53.3363 194.246 53.4335 194.922V194.922C53.764 197.042 54.5147 197.042 58.0886 197.042C61.6625 197.042 66.8216 196.863 68.5666 196.863C70.3115 196.863 71.7343 194.922 67.9084 193.508Z" fill="url(#paint83_linear_283_193)"/>
<path d="M159.581 188.735C158.372 188.733 157.193 189.1 156.167 189.742C154.458 190.812 151.704 192.416 149.8 192.934C146.857 193.735 142.894 194.25 143.686 195.651C144.479 197.051 146.187 196.872 149.408 196.872H160.668C163.726 196.872 165.785 196.872 165.429 192.81V192.81C165.225 190.506 163.296 188.739 160.982 188.736L159.581 188.735Z" fill="url(#paint84_linear_283_193)"/>
<path d="M152.39 193.794C150.475 193.496 148.498 193.226 146.618 193.698C144.684 194.184 143.168 194.725 143.686 195.642C144.479 197.043 146.187 196.863 149.408 196.863H160.668C163.726 196.863 165.785 196.863 165.429 192.802V192.802C165.372 192.177 164.751 191.769 164.152 191.957C161.678 192.735 157.583 193.869 154.531 193.945C153.813 193.954 153.096 193.904 152.39 193.794Z" fill="url(#paint85_linear_283_193)"/>
<path d="M36.7246 103.315C39.4036 103.548 41.6088 105.641 41.9233 108.312C42.0611 109.481 42.0704 110.666 41.9483 111.846C41.489 116.126 40.8784 118.263 40.1138 118.568C39.3491 118.873 37.2121 118.568 37.058 119.943C37.019 120.292 36.9998 120.738 36.9928 121.21C36.9677 122.903 35.7486 124.373 34.0673 124.568V124.568C32.1623 124.79 30.49 123.301 30.49 121.383V117.211C30.49 116.486 30.3736 115.77 30.2006 115.066C29.415 111.873 27.8582 102.546 36.7246 103.315Z" fill="url(#paint86_linear_283_193)"/>
<path d="M34.5198 113.618C34.4839 114.16 34.4593 114.709 34.3079 115.231C34.0745 116.036 33.609 117.216 32.8176 117.591C31.8551 118.047 28.5921 118.456 27.45 114.407C26.6528 111.58 24.7254 108.284 25.6334 105.491V105.491C26.3148 103.395 29.0481 101.17 33.3995 100.569C36.0745 100.2 38.6466 98.927 41.2854 98.3543C41.8831 98.2246 42.4982 98.2257 43.0827 98.4527C43.4298 98.5875 43.6755 98.8393 43.8437 99.1478C44.4083 100.183 45.7417 102.084 45.7939 103.262V103.262C45.8479 104.479 45.7018 106.084 42.663 107.042C40.0078 107.88 36.4039 108.244 35.2192 110.764C34.8617 111.524 34.5963 112.463 34.5198 113.618Z" fill="url(#paint87_linear_283_193)"/>
<path d="M35.5935 112.429C36.0451 111.598 36.203 110.605 35.7403 109.78C35.2894 108.976 34.5385 108.129 33.3969 108.213C31.7998 108.331 31.196 111.741 32.5118 113.466C33.3667 114.587 34.9202 113.668 35.5935 112.429V112.429Z" fill="url(#paint88_linear_283_193)"/>
<path d="M36.9291 107.601C36.1047 107.498 35.3809 108.141 35.4558 108.968C35.5931 110.484 35.9676 112.573 36.9898 112.686C37.4221 112.734 37.8532 110.618 38.0997 109.148C38.2265 108.392 37.6897 107.696 36.9291 107.601V107.601Z" fill="url(#paint89_linear_283_193)"/>
<path d="M21.7203 136.702C21.6488 135.989 21.5055 135.293 21.3796 134.588C21.0772 132.895 20.8482 129.472 23.1082 126.735C26.2395 122.943 42.9354 121.094 45.7951 124.988C48.6548 128.881 50.7974 135.306 50.7974 140.91C50.7974 143.466 51.0718 147.085 51.3703 150.266C51.7553 154.367 49.4162 158.256 45.4242 159.272C42.3772 160.047 38.4615 160.86 34.0427 161.348C24.8538 162.364 22.22 141.679 21.7203 136.702Z" fill="url(#paint90_linear_283_193)"/>
<path d="M44.2584 123.853C40.6789 123.125 39.0656 130.528 42.0429 135.191C45.0202 139.854 50.1878 145.4 56.8678 143.005C62.5519 140.968 66.8772 135.919 68.8086 132.362C69.357 131.352 69.0777 130.134 68.2649 129.321V129.321C67.0704 128.126 65.1159 128.171 63.9161 129.36C61.5862 131.669 57.9422 134.939 55.9855 134.939C52.9606 134.939 49.0646 124.825 44.2584 123.853Z" fill="url(#paint91_linear_283_193)"/>
<path d="M52.1176 157.229C55.0893 156.385 58.1212 155.768 61.1867 155.386C66.5252 154.688 71.9756 154.573 74.1799 163.158C75.6507 168.886 77.4831 177.819 78.5397 183.129C79.0301 185.594 78.1963 187.851 75.7253 188.308V188.308C73.7816 188.668 71.2896 187.569 70.6137 185.711C68.9008 181.003 65.7664 172.29 65.0211 169.544C64.6752 168.269 63.64 167.965 62.4127 168.127C58.9681 168.581 55.122 168.358 53.1297 165.512L50.5774 161.865C49.4077 160.194 50.1804 157.868 52.1176 157.229V157.229Z" fill="url(#paint92_linear_283_193)"/>
<path d="M88.195 196.849C89.8755 196.712 91.2591 194.328 87.3799 193.508C86.2681 193.276 85.2515 192.972 84.3298 192.623C81.335 191.487 78.102 191.808 75.1066 192.942V192.942C74.8486 193.039 74.5854 193.121 74.3185 193.186C73.4902 193.388 72.792 194.078 72.9107 194.922V194.922C73.2328 196.981 73.9554 197.04 77.2632 197.042C80.9296 197.04 86.0635 196.869 88.195 196.849Z" fill="url(#paint93_linear_283_193)"/>
<path d="M66.0686 127.125C66.0686 127.125 65.0575 125.988 65.3376 122.828C65.6177 119.669 67.2982 118.551 67.4775 120.134C67.6567 121.716 67.2926 123.38 68.0376 122.828C68.7827 122.276 70.5584 118.924 71.76 119.019C72.9615 119.114 74.9249 121.26 74.2807 124.509C74.0292 125.777 73.1496 126.88 72.1707 127.753C70.3929 129.339 67.7557 128.807 66.0686 127.125V127.125Z" fill="url(#paint94_linear_283_193)"/>
<path d="M97.5185 92.1226C91.9168 91.6409 89.6761 97.4807 90.5164 103.25C91.3566 109.02 95.5327 110.051 97.5185 110.051C99.5043 110.051 102.669 108.471 103.221 103.388C103.773 98.3041 102.328 92.5344 97.5185 92.1226Z" fill="url(#paint95_linear_283_193)"/>
<path d="M91.5526 103.064C91.4154 102.041 90.8975 100.977 89.8767 100.819C89.4832 100.758 89.0668 100.802 88.7056 101.074C87.6328 101.881 87.8485 104.396 89.1341 105.415C89.2906 105.539 89.4496 105.633 89.608 105.703C90.9438 106.286 91.7463 104.509 91.5526 103.064V103.064Z" fill="url(#paint96_linear_283_193)"/>
<path d="M102.197 103.342C102.335 102.318 102.853 101.255 103.874 101.097C104.267 101.037 104.684 101.081 105.044 101.351C106.117 102.155 105.902 104.676 104.616 105.692C104.46 105.816 104.301 105.91 104.142 105.979C102.807 106.561 102.004 104.786 102.197 103.342V103.342Z" fill="url(#paint97_linear_283_193)"/>
<path d="M97.1346 107.997C95.4228 108.06 94.181 109.613 94.2028 111.326C94.2136 112.178 94.1465 112.986 93.9113 113.437C93.6924 113.82 93.3984 114.155 93.0471 114.421V114.421C92.4558 114.87 91.9759 115.557 92.2319 116.254C92.8152 117.842 94.2099 120.361 97.1883 120.361C99.4906 120.361 100.96 118.773 101.834 117.278C102.647 115.886 101.405 114.611 100.53 113.258V113.258C100.344 112.971 100.232 111.916 100.164 110.816C100.065 109.215 98.738 107.938 97.1346 107.997V107.997Z" fill="url(#paint98_linear_283_193)"/>
<path d="M86.7539 115.992C83.376 115.297 78.6846 128.36 80.2251 132.122C81.7655 135.883 83.0259 138.704 90.3474 139.216C94.5937 139.513 97.4098 138.939 99.0264 138.404C100.141 138.036 100.739 136.947 100.739 135.773V135.773C100.739 133.875 99.2414 132.315 97.3543 132.113C94.4783 131.804 90.6568 131.169 89.6275 129.92C87.919 127.848 93.1118 117.302 86.7539 115.992Z" fill="#2F7C35"/>
<path d="M108.611 116.266C112.446 116.546 114.588 123.744 115.527 126.565C116.465 129.385 118.863 135.026 114.843 135.967C110.824 136.908 105.953 127.195 105.354 123.803C104.755 120.411 105.799 116.053 108.611 116.266Z" fill="#2F7C35"/>
<path d="M100.738 136.132C100.738 134.375 102.031 132.877 103.784 132.745C105.108 132.645 106.555 132.6 107.435 132.766C109.387 133.133 110.765 136.127 111.143 136.79C111.521 137.454 110.362 138.449 109.143 137.65C107.925 136.852 106.426 135.754 105.191 136.303C104.356 136.674 103.207 137.718 102.149 137.978C101.208 138.21 100.738 137.101 100.738 136.132V136.132Z" fill="url(#paint99_linear_283_193)"/>
<path d="M115.081 116.585C115.476 115.171 116.83 114.232 118.289 114.392V114.392C119.748 114.553 120.86 115.76 120.837 117.227C120.754 122.535 120.079 134.365 115.743 135.614C110.133 137.231 110.822 128.273 112.463 124.459C113.458 122.146 114.452 118.834 115.081 116.585Z" fill="#2F7C35"/>
<path d="M118.015 114.252C117.412 114.161 116.838 113.916 116.417 113.475C115.745 112.773 114.809 111.575 114.77 110.311C114.708 108.331 114.585 106.477 115.33 106.847C116.075 107.216 116.641 108.827 117.097 108.827C117.554 108.827 117.377 104.743 118.175 104.189C118.974 103.634 122.01 104.435 122.506 106.539C122.781 107.706 122.232 110.087 121.69 111.974C121.234 113.562 119.648 114.501 118.015 114.252V114.252Z" fill="url(#paint100_linear_283_193)"/>
<path d="M89.9476 98.1161C90.106 99.7843 91.3966 101.104 92.9885 100.581C93.7767 100.322 94.7228 99.8679 95.8029 99.0936C97.3034 98.018 99.0103 97.3888 100.203 98.798V98.798C101.196 99.9714 103.753 99.9725 104.236 98.5134L104.437 97.9083C104.655 97.2494 104.656 96.535 104.344 95.9147C103.499 94.231 101.349 90.9629 97.3962 90.9629C92.0718 90.9629 90.2064 94.8533 89.9432 96.1053C89.8454 96.5702 89.8735 97.3365 89.9476 98.1161Z" fill="url(#paint101_linear_283_193)"/>
<path d="M160.109 130.631C162.822 130.631 165.211 132.429 165.665 135.104C166.002 137.092 166.298 139.548 166.298 142.056C166.298 143.315 166.217 144.303 166.107 145.064C165.888 146.578 165.448 148.092 165.37 149.619C165.061 155.71 164.316 172.412 164.864 182.715C165.031 185.846 162.571 188.732 159.435 188.732V188.732C156.798 188.732 154.621 186.676 154.486 184.043C154.039 175.303 153.175 156.669 153.472 148.47C153.659 143.318 153.949 139.052 154.204 135.985C154.458 132.922 157.035 130.631 160.109 130.631V130.631Z" fill="url(#paint102_linear_283_193)"/>
<path d="M143.953 188.735C142.743 188.733 141.564 189.1 140.538 189.742C138.829 190.812 136.075 192.416 134.172 192.934C131.228 193.735 127.265 194.25 128.057 195.651C128.85 197.051 130.558 196.872 133.779 196.872H145.039C148.095 196.872 150.156 196.872 149.8 192.81V192.81C149.596 190.506 147.667 188.739 145.353 188.736L143.953 188.735Z" fill="url(#paint103_linear_283_193)"/>
<path d="M136.761 193.794C134.846 193.497 132.869 193.225 130.99 193.698C129.055 194.184 127.539 194.725 128.057 195.642C128.85 197.043 130.558 196.863 133.779 196.863H145.039C148.095 196.863 150.156 196.863 149.8 192.802V192.802C149.744 192.179 149.12 191.769 148.523 191.957C146.048 192.735 141.954 193.869 138.899 193.945C138.182 193.954 137.466 193.904 136.761 193.794Z" fill="url(#paint104_linear_283_193)"/>
<path d="M131.693 137.295C130.115 137.168 128.569 137.711 127.254 138.592C126.687 138.973 126.049 139.356 125.413 139.648C123.517 140.519 120.545 141.227 121.937 142.113C123.329 142.998 126.651 142.051 128.561 141.166C130.471 140.281 133.062 140.471 133.507 140.659C133.953 140.847 134.835 142.059 135.782 142.059C136.728 142.059 137.742 142.076 136.034 139.791L135.91 139.626C134.904 138.279 133.368 137.43 131.693 137.295V137.295Z" fill="#FBB773"/>
<path d="M147.927 129.201C145.41 130.418 143.607 132.734 143.092 135.482C141.921 141.728 139.86 153.419 139.142 161.923C138.528 169.196 138.231 177.374 138.091 182.764C138.005 186.069 138.97 188.76 142.276 188.78V188.78C145.385 188.798 149.591 186.368 149.816 183.267C150.307 176.498 151.182 165.218 151.908 159.959C152.449 156.116 153.244 152.314 154.289 148.578C154.759 146.897 155.857 145.485 156.856 144.054C157.09 143.72 157.303 143.37 157.494 143.008C158.103 141.854 158.477 140.591 158.594 139.292C158.801 136.38 158.815 133.458 158.636 130.545C158.61 130.127 158.518 129.716 158.369 129.324V129.324C157.475 126.976 154.761 125.897 152.499 126.991L147.927 129.201Z" fill="url(#paint105_linear_283_193)"/>
<path d="M145.793 110.543C149.706 105.093 143.22 98.6434 139.534 104.249C139.147 104.837 138.791 105.468 138.465 106.147C136.469 110.298 132.02 125.603 129.804 132.917C129.14 135.11 129.092 137.261 131.316 137.81V137.81C132.96 138.214 135.475 137.012 135.983 135.398C137.885 129.35 142.667 114.715 145.554 110.869C145.634 110.762 145.714 110.653 145.793 110.543Z" fill="url(#paint106_linear_283_193)"/>
<path d="M159.222 106.297C158.211 101.408 163.543 98.974 165.82 103.417C166.441 104.629 166.883 105.861 167.065 106.953C167.565 109.96 171.924 123.883 173.882 130.693C174.429 132.598 174.189 134.307 172.288 134.867V134.867C170.655 135.348 168.472 134.286 168.001 132.65C166.218 126.463 161.825 111.554 160.088 108.665C159.681 107.988 159.404 107.174 159.222 106.297Z" fill="url(#paint107_linear_283_193)"/>
<path d="M163.886 106.147C163.766 99.4723 160.55 97.6629 159.486 97.296C158.422 96.9291 155.845 96.3129 151.91 97.296C145.58 98.8701 141.152 105.486 141.115 109.34C141.079 113.194 143.107 118.554 143.107 121C143.107 121.77 143.01 123.123 142.877 124.615C142.517 128.656 145.192 132.416 149.227 132.83C151.169 133.029 153.118 133.153 155.071 133.201C155.459 133.21 155.796 132.932 155.869 132.551V132.551C156.037 131.685 157.288 131.668 157.435 132.539V132.539C157.5 132.925 157.839 133.207 158.231 133.194C160.524 133.119 162.144 132.878 163.281 132.596C165.066 132.153 165.631 130.374 165.414 128.548C164.74 122.895 163.987 111.582 163.886 106.147Z" fill="url(#paint108_linear_283_193)"/>
<path d="M144.338 13.4629C144.571 13.5065 144.725 13.7304 144.681 13.9629L142.776 24.126C141.642 30.1756 146.329 35.75 152.483 35.6719L174.212 35.3945C174.449 35.3916 174.643 35.5812 174.646 35.8174C174.649 36.0536 174.459 36.248 174.223 36.251L149.619 36.5654C144.411 36.6319 140.446 31.9159 141.405 26.7969L143.838 13.8047C143.882 13.5725 144.106 13.4195 144.338 13.4629Z" stroke="url(#paint109_linear_283_193)" stroke-width="1.5"/>
<path d="M140.206 36.9987C140.438 36.9549 140.662 37.1076 140.705 37.3398L145.515 62.8453C145.559 63.0774 145.407 63.302 145.175 63.3458C144.942 63.3896 144.719 63.2359 144.675 63.0038L139.865 37.4983C139.821 37.2662 139.974 37.0425 140.206 36.9987Z" stroke="url(#paint110_linear_283_193)" stroke-width="1.5"/>
<path d="M91.7395 59.3936C95.0373 58.0029 98.8563 58.897 101.194 61.6074L121.049 84.6318C121.203 84.8108 121.183 85.0812 121.004 85.2354C120.825 85.3895 120.555 85.3692 120.401 85.1904L101.662 63.4648C98.8999 60.262 94.3877 59.2049 90.4905 60.8486L53.1008 76.6191C52.8826 76.711 52.6315 76.6087 52.5393 76.3906C52.4473 76.1722 52.5494 75.9202 52.7678 75.8281L91.7395 59.3936Z" stroke="url(#paint111_linear_283_193)" stroke-width="1.5"/>
<path d="M61.5493 38.6504C64.2164 37.2418 67.4402 37.4018 69.9556 39.0664L96.4048 56.5693C96.6018 56.6999 96.6561 56.9659 96.5259 57.1631C96.3954 57.3606 96.1286 57.4148 95.9312 57.2842L70.6489 40.5518C67.6763 38.5844 63.8665 38.3959 60.7144 40.0605L32.6353 54.8906C32.4263 55.0007 32.1676 54.9207 32.0571 54.7119C31.9466 54.5027 32.0266 54.2433 32.2358 54.1328L61.5493 38.6504Z" stroke="url(#paint112_linear_283_193)" stroke-width="1.5"/>
<path d="M29.2844 15.1777C29.4049 14.9745 29.6673 14.9075 29.8705 15.028L65.0598 35.8969C65.263 36.0174 65.33 36.2798 65.2095 36.483C65.089 36.6862 64.8266 36.7532 64.6234 36.6327L29.4341 15.7638C29.231 15.6433 29.1639 15.3809 29.2844 15.1777Z" stroke="url(#paint113_linear_283_193)" stroke-width="1.5"/>
<path d="M103.396 10.3721C103.63 10.4033 103.795 10.6182 103.764 10.8525L100.083 38.6748C99.0593 46.4146 107.094 52.1585 114.086 48.6855L138.823 36.3994C139.034 36.2945 139.291 36.3806 139.396 36.5918C139.501 36.8031 139.415 37.0599 139.203 37.165L110.501 51.4219C104.585 54.3608 97.786 49.5005 98.6526 42.9512L102.914 10.7402C102.945 10.5056 103.161 10.3409 103.396 10.3721Z" stroke="url(#paint114_linear_283_193)" stroke-width="1.5"/>
<path d="M97.0903 36.4697C101.072 36.4698 104.89 38.0518 107.706 40.8672C110.433 43.5946 112.003 47.263 112.098 51.1094L112.103 51.4824C112.09 54.2824 111.306 57.0246 109.838 59.4092C109.11 60.5715 108.233 61.635 107.23 62.5713L107.223 62.5781C106.891 62.895 106.469 63.1406 105.883 63.5332C105.428 63.8383 104.872 64.2367 104.456 64.792L104.287 65.0381C104.062 65.4005 103.931 65.9185 103.84 66.3418C103.74 66.8113 103.655 67.3555 103.579 67.877C103.5 68.4133 103.432 68.9147 103.362 69.3545C103.288 69.8158 103.228 70.0957 103.187 70.2119L103.186 70.2129C103.035 70.637 102.757 71.0042 102.389 71.2637C102.021 71.5231 101.582 71.6623 101.132 71.6621H93.0601L92.8911 71.6553C92.4988 71.6246 92.1211 71.4885 91.7983 71.2598C91.4294 70.9982 91.1504 70.6288 91.0005 70.2021L90.9995 70.1992C90.9433 70.0408 90.8803 69.732 90.8071 69.2559C90.7724 69.0302 90.7382 68.7866 90.7017 68.5273C90.6655 68.2705 90.6269 67.9993 90.5854 67.7285C90.5033 67.1924 90.404 66.6254 90.269 66.125C90.144 65.6612 89.9504 65.1005 89.6021 64.6992C89.089 64.1074 88.4838 63.6407 87.9575 63.2393C87.4056 62.8183 86.9398 62.4679 86.5464 62.0518L86.5396 62.0449L86.2007 61.6826C85.4215 60.8275 84.727 59.8977 84.1294 58.9062C82.8017 56.6564 82.094 54.0948 82.0776 51.4824C82.0776 47.5009 83.6597 43.6826 86.4751 40.8672C89.2905 38.0518 93.1088 36.4697 97.0903 36.4697Z" fill="#020111" stroke="url(#paint115_linear_283_193)" stroke-width="2"/>
<path d="M101.91 41.486C101.739 41.4866 101.571 41.4523 101.414 41.3852C101.048 41.2265 100.674 41.0881 100.294 40.9706C99.9885 40.8624 99.7368 40.6405 99.5911 40.3513C99.4453 40.0621 99.4168 39.7279 99.5114 39.4181C99.6059 39.1084 99.8164 38.8471 100.099 38.6887C100.381 38.5302 100.714 38.4868 101.028 38.5675C101.498 38.7114 101.961 38.8807 102.414 39.0745C102.679 39.1894 102.897 39.3922 103.03 39.6487C103.163 39.9053 103.204 40.1999 103.146 40.483C103.087 40.7661 102.933 41.0204 102.709 41.2031C102.485 41.3858 102.204 41.4857 101.915 41.486H101.91Z" fill="url(#paint116_linear_283_193)"/>
<path d="M109.333 52.7396C108.999 52.7396 108.679 52.6071 108.443 52.3713C108.208 52.1354 108.075 51.8155 108.075 51.482C108.08 49.9875 107.777 48.508 107.185 47.1357C106.594 45.7633 105.726 44.5275 104.636 43.5052C104.516 43.3917 104.42 43.2558 104.353 43.1051C104.285 42.9545 104.249 42.7921 104.244 42.6272C104.24 42.4623 104.268 42.2981 104.327 42.1441C104.386 41.99 104.475 41.8492 104.588 41.7294C104.702 41.6097 104.837 41.5135 104.988 41.4463C105.139 41.3791 105.301 41.3423 105.466 41.3379C105.631 41.3334 105.795 41.3615 105.949 41.4205C106.103 41.4796 106.244 41.5683 106.364 41.6818C107.695 42.9446 108.756 44.4647 109.482 46.1498C110.208 47.8349 110.584 49.6499 110.588 51.4848C110.588 51.8176 110.455 52.1368 110.22 52.3721C109.985 52.6074 109.666 52.7396 109.333 52.7396Z" fill="url(#paint117_linear_283_193)"/>
<path d="M103.723 53.2468C103.635 53.2316 103.544 53.234 103.457 53.254C103.369 53.274 103.287 53.3111 103.214 53.3632C103.141 53.4153 103.079 53.4813 103.032 53.5575C102.985 53.6337 102.953 53.7184 102.939 53.8069V53.8069C102.897 54.0482 102.758 54.2618 102.555 54.397L101.561 55.0561C101.299 55.2287 100.991 55.3177 100.678 55.3112C100.365 55.3047 100.061 55.203 99.8072 55.0197L98.8157 54.3027C98.3267 53.9511 97.7402 53.7605 97.1379 53.7575C96.5356 53.7545 95.9473 53.9392 95.4547 54.2859L94.3904 55.0365C94.1358 55.2156 93.8331 55.3138 93.5218 55.3183C93.2106 55.3227 92.9052 55.2334 92.6455 55.0617L91.875 54.5451C91.607 54.3653 91.4247 54.0832 91.3711 53.7649V53.7649C91.3414 53.5874 91.2423 53.4289 91.0958 53.3244C90.9492 53.2199 90.7672 53.1778 90.5896 53.2076C90.4121 53.2373 90.2536 53.3363 90.1491 53.4828C90.0446 53.6294 90.0025 53.8115 90.0323 53.989L92.9031 73.3345C92.9309 73.4918 93.0132 73.6342 93.1357 73.7367C93.2581 73.8392 93.4129 73.8951 93.5725 73.8947C93.6098 73.8987 93.6473 73.8987 93.6846 73.8947C93.7728 73.8804 93.8573 73.8488 93.9333 73.8018C94.0092 73.7547 94.0751 73.6931 94.1272 73.6205C94.1793 73.5478 94.2164 73.4656 94.2366 73.3786C94.2568 73.2915 94.2596 73.2014 94.2448 73.1132L91.7884 56.263C91.7798 56.2039 91.8453 56.1627 91.8948 56.1961V56.1961C92.3836 56.518 92.9578 56.6858 93.543 56.6778C94.1282 56.6698 94.6976 56.4864 95.1774 56.1513L96.2418 55.3978C96.5034 55.2112 96.8167 55.1109 97.138 55.1109C97.4594 55.1109 97.7727 55.2112 98.0343 55.3978L99.0258 56.1148C99.5044 56.4584 100.076 56.6488 100.665 56.6608C101.254 56.6728 101.833 56.5059 102.325 56.1821V56.1821C102.419 56.1197 102.542 56.198 102.525 56.3092L99.9753 73.102C99.9601 73.1904 99.9625 73.2808 99.9825 73.3682C100.003 73.4556 100.04 73.5381 100.092 73.6111C100.144 73.684 100.21 73.7459 100.286 73.7931C100.362 73.8403 100.447 73.872 100.535 73.8863C100.575 73.8904 100.614 73.8904 100.653 73.8863C100.812 73.8866 100.967 73.8306 101.089 73.728C101.211 73.6255 101.293 73.4831 101.32 73.3261L104.275 54.0282C104.305 53.8515 104.264 53.67 104.16 53.5235C104.057 53.3771 103.899 53.2776 103.723 53.2468Z" fill="url(#paint118_linear_283_193)"/>
<path d="M92.5435 73.415H101.647C101.71 73.414 101.774 73.4257 101.833 73.4492C101.891 73.4728 101.945 73.5082 101.991 73.5527C102.036 73.5973 102.073 73.6504 102.097 73.709C102.122 73.7677 102.134 73.831 102.134 73.8945V78.3135C102.134 78.3765 102.122 78.4388 102.098 78.4971C102.074 78.5553 102.039 78.6087 101.995 78.6533C101.95 78.698 101.897 78.7336 101.838 78.7578C101.78 78.7819 101.718 78.7939 101.655 78.7939C100.628 78.7939 99.8738 79.5005 99.4468 80.1455C99.2732 80.4077 99.0551 80.6404 98.8013 80.833C98.3106 81.2054 97.7112 81.4065 97.0952 81.4053C96.4792 81.404 95.8803 81.2006 95.3911 80.8262C95.1382 80.6325 94.922 80.3986 94.7495 80.1357C94.3248 79.4886 93.5713 78.7803 92.5435 78.7803C92.4804 78.7803 92.4181 78.7673 92.3599 78.7432C92.3016 78.719 92.2481 78.6843 92.2036 78.6396C92.1591 78.595 92.1241 78.5417 92.1001 78.4834C92.0761 78.4252 92.0639 78.3627 92.064 78.2998V73.8945C92.064 73.7674 92.1147 73.6456 92.2046 73.5557C92.2945 73.4658 92.4163 73.4151 92.5435 73.415Z" fill="#020111" stroke="url(#paint119_linear_283_193)" stroke-width="1.5"/>
<path d="M112.532 0H94.4582C92.7226 0 91.3157 1.40697 91.3157 3.14256V16.1133C91.3157 17.8489 92.7226 19.2559 94.4582 19.2559H112.532C114.268 19.2559 115.675 17.8489 115.675 16.1133V3.14256C115.675 1.40697 114.268 0 112.532 0Z" fill="#38EF61"/>
<path d="M149.859 24.2349H130.3C128.565 24.2349 127.158 25.6418 127.158 27.3774V45.1881C127.158 46.9236 128.565 48.3306 130.3 48.3306H149.859C151.594 48.3306 153.001 46.9236 153.001 45.1881V27.3774C153.001 25.6418 151.594 24.2349 149.859 24.2349Z" fill="#44E5C8"/>
<path d="M140.683 7.64355H148.271C149.454 7.64377 150.414 8.60297 150.414 9.78613V15.6621C150.414 16.8453 149.454 17.8045 148.271 17.8047H140.683C139.5 17.8047 138.541 16.8454 138.541 15.6621V9.78613C138.541 8.60283 139.5 7.64355 140.683 7.64355Z" fill="#020111" stroke="url(#paint120_linear_283_193)" stroke-width="2"/>
<path d="M179.574 28.4902H171.222C169.487 28.4902 168.08 29.8972 168.08 31.6328V39.9849C168.08 41.7205 169.487 43.1275 171.222 43.1275H179.574C181.31 43.1275 182.717 41.7205 182.717 39.9849V31.6328C182.717 29.8972 181.31 28.4902 179.574 28.4902Z" fill="#38EF61"/>
<path d="M147.361 58.8906H143.269C141.533 58.8906 140.126 60.2976 140.126 62.0332V66.1252C140.126 67.8608 141.533 69.2678 143.269 69.2678H147.361C149.097 69.2678 150.504 67.8608 150.504 66.1252V62.0332C150.504 60.2976 149.097 58.8906 147.361 58.8906Z" fill="#38EF61"/>
<path d="M116.246 78.9131H126.741C127.648 78.9133 128.383 79.6486 128.383 80.5557V91.0508C128.383 91.9577 127.648 92.6932 126.741 92.6934H116.246C115.339 92.6934 114.603 91.9578 114.603 91.0508V80.5557C114.603 79.6485 115.338 78.9131 116.246 78.9131Z" fill="#020111" stroke="url(#paint121_linear_283_193)" stroke-width="3"/>
<path d="M60.4259 65.6709H43.2903C41.5547 65.6709 40.1477 67.0779 40.1477 68.8135V84.5991C40.1477 86.3347 41.5547 87.7416 43.2903 87.7416H60.4259C62.1615 87.7416 63.5685 86.3347 63.5685 84.5991V68.8135C63.5685 67.0779 62.1615 65.6709 60.4259 65.6709Z" fill="#38EF61"/>
<path d="M34.3718 49.8833H28.4172C26.6816 49.8833 25.2747 51.2903 25.2747 53.0259V57.1011C25.2747 58.8367 26.6816 60.2437 28.4172 60.2437H34.3718C36.1074 60.2437 37.5144 58.8367 37.5144 57.1011V53.0259C37.5144 51.2903 36.1074 49.8833 34.3718 49.8833Z" fill="#44E5C8"/>
<path d="M58.8179 28.1865H72.8833C73.7905 28.1865 74.5259 28.9219 74.5259 29.8291V43.8945C74.5259 44.8017 73.7905 45.5371 72.8833 45.5371H58.8179C57.9107 45.5371 57.1753 44.8017 57.1753 43.8945V29.8291C57.1753 28.9219 57.9107 28.1865 58.8179 28.1865Z" fill="#020111" stroke="url(#paint122_linear_283_193)" stroke-width="3"/>
<path d="M24.1069 8.12256H33.1646C34.3479 8.12256 35.3071 9.08183 35.3071 10.2651V19.3228C35.3071 20.5061 34.3479 21.4653 33.1646 21.4653H24.1069C22.9236 21.4653 21.9644 20.5061 21.9644 19.3228V10.2651C21.9644 9.08183 22.9236 8.12256 24.1069 8.12256Z" fill="#020111" stroke="url(#paint123_linear_283_193)" stroke-width="2"/>
<path d="M28.0269 129.21C33.318 128.979 36.6834 131.257 38.8374 134.366C41.0211 137.518 41.9709 141.551 42.2798 144.752C42.9121 151.306 44.6842 157.573 50.1821 160.508C51.4699 161.196 52.7758 161.809 53.8735 162.366C55.001 162.937 55.9313 163.46 56.605 164.009C57.2749 164.556 57.6087 165.064 57.689 165.588C57.7694 166.115 57.6211 166.833 56.939 167.856C55.6124 169.845 52.4781 171.676 48.3979 172.982C44.3606 174.274 39.5586 175 35.0894 174.897C30.6174 174.794 26.2403 173.863 22.688 171.421C19.1566 168.994 16.3578 165.017 15.1265 158.652C13.8891 152.255 14.5262 144.937 16.8101 139.186C19.1031 133.412 22.9516 129.431 28.0269 129.21Z" fill="#001D16" stroke="url(#paint124_linear_283_193)" stroke-width="1.5"/>
<path d="M36.4907 172.838C38.3549 172.869 40.1964 172.967 41.6431 173.109C42.3676 173.18 42.9819 173.26 43.4458 173.346C43.6783 173.389 43.8622 173.431 43.9976 173.471C44.0594 173.489 44.1017 173.506 44.1294 173.516C44.127 173.523 44.1267 173.532 44.1235 173.541C44.0437 173.756 43.7955 174.111 43.2935 174.593C42.3141 175.533 40.6415 176.697 38.5376 177.891C38.0501 178.168 37.7011 178.389 37.3179 178.59C36.9561 178.781 36.6529 178.903 36.3599 178.956C35.8339 179.05 35.1575 178.952 34.0396 178.103C32.7943 177.157 31.1329 175.968 29.9136 174.889C29.2974 174.344 28.8589 173.881 28.6431 173.537C28.6187 173.498 28.5994 173.464 28.5845 173.435C28.7306 173.374 28.9708 173.296 29.3325 173.221C29.8388 173.117 30.4888 173.033 31.2446 172.97C32.754 172.845 34.6253 172.808 36.4907 172.838Z" fill="url(#paint125_linear_283_193)" stroke="url(#paint126_linear_283_193)" stroke-width="1.5"/>
<path d="M36.3491 178.483C36.9241 178.483 37.3901 178.949 37.3901 179.524V192.198C37.3901 192.773 36.9241 193.239 36.3491 193.239C35.7742 193.239 35.3081 192.773 35.3081 192.198V179.524C35.3082 178.95 35.7742 178.483 36.3491 178.483Z" fill="url(#paint127_linear_283_193)" stroke="url(#paint128_linear_283_193)" stroke-width="1.5"/>
<path d="M35.2798 194.731H37.4497C37.871 194.731 38.2921 194.764 38.7085 194.828L47.0386 196.113H26.0913L33.9595 194.838C34.396 194.767 34.8376 194.731 35.2798 194.731Z" fill="url(#paint129_linear_283_193)" stroke="url(#paint130_linear_283_193)" stroke-width="1.5"/>
<path d="M178.803 129.21C183.884 129.431 187.737 133.412 190.032 139.186C192.318 144.937 192.955 152.255 191.717 158.652C190.486 165.017 187.685 168.994 184.151 171.421C180.596 173.863 176.216 174.794 171.744 174.897C167.274 175 162.473 174.274 158.436 172.982C154.356 171.676 151.222 169.845 149.894 167.856C149.211 166.833 149.062 166.115 149.142 165.588C149.222 165.064 149.556 164.556 150.226 164.009C150.9 163.46 151.829 162.937 152.957 162.366C154.054 161.809 155.36 161.196 156.648 160.508C162.146 157.573 163.918 151.306 164.55 144.752C164.859 141.551 165.809 137.518 167.993 134.366C170.147 131.257 173.512 128.979 178.803 129.21Z" fill="#001D16" stroke="url(#paint131_linear_283_193)" stroke-width="1.5"/>
<path d="M170.338 172.838C172.204 172.808 174.075 172.845 175.584 172.97C176.34 173.033 176.99 173.117 177.497 173.221C177.862 173.296 178.103 173.375 178.249 173.437C178.234 173.465 178.217 173.499 178.193 173.538C177.978 173.881 177.54 174.343 176.922 174.888C175.701 175.967 174.037 177.156 172.79 178.102C171.67 178.951 170.994 179.05 170.468 178.956C170.176 178.903 169.873 178.781 169.511 178.59C169.319 178.489 169.136 178.384 168.94 178.269L168.292 177.891L167.523 177.445C165.78 176.409 164.393 175.415 163.536 174.593C163.034 174.111 162.785 173.756 162.706 173.541C162.702 173.532 162.701 173.523 162.699 173.516C162.726 173.505 162.769 173.49 162.832 173.471C162.967 173.431 163.151 173.389 163.383 173.346C163.847 173.26 164.461 173.18 165.186 173.109C166.633 172.967 168.474 172.869 170.338 172.838Z" fill="url(#paint132_linear_283_193)" stroke="url(#paint133_linear_283_193)" stroke-width="1.5"/>
<path d="M170.494 193.237C169.919 193.237 169.453 192.771 169.453 192.196V179.522C169.453 178.947 169.919 178.481 170.494 178.481C171.069 178.481 171.535 178.947 171.535 179.522V192.196C171.535 192.771 171.069 193.237 170.494 193.237Z" fill="url(#paint134_linear_283_193)" stroke="url(#paint135_linear_283_193)" stroke-width="1.5"/>
<path d="M169.391 194.731H171.558C172 194.731 172.442 194.767 172.878 194.838L180.75 196.113H159.802L168.132 194.828C168.549 194.764 168.97 194.731 169.391 194.731Z" fill="url(#paint136_linear_283_193)" stroke="url(#paint137_linear_283_193)" stroke-width="1.5"/>
<path d="M143.94 90.2913C143.411 90.1997 142.89 90.0653 142.411 89.8236C140.854 89.0377 137.414 86.8019 138.068 82.6249C138.218 81.6618 138.444 80.8519 138.712 80.1712C139.861 77.2586 142.608 74.2755 145.544 73.1881C145.907 73.0536 146.303 72.9517 146.733 72.8948C147.759 72.7696 148.799 72.8497 149.794 73.1306V73.1306C151.64 73.652 153.642 74.0173 155.561 74.0294C156.855 74.0376 158.304 74.3701 159.346 75.5332C161.71 78.1716 160.802 82.4233 160.984 84.0254C161.166 85.6275 162.712 87.2436 164.44 89.2546V89.2546C165.915 90.9711 166.362 96.8781 165.723 99.0493C165.561 99.5976 165.245 100.142 164.712 100.654C163.382 101.931 161.977 102.693 160.538 103.068C157.495 103.861 155.153 100.881 154.866 97.749V97.749C154.559 94.4128 152.052 91.6972 148.751 91.1251L143.94 90.2913Z" fill="url(#paint138_linear_283_193)"/>
<path d="M144.375 95.4525C145.697 95.4525 147.899 94.4666 148.339 96.5028V96.5028C148.514 97.3037 149.319 97.8257 150.118 97.6446C150.708 97.5109 151.302 97.3945 151.898 97.2954C152.359 97.1774 152.823 97.0791 153.291 97.0007C154.663 96.7708 155.711 95.5223 155.708 94.1305V94.1305C155.708 91.0495 161.211 72.7655 145.795 77.3926C141.264 78.751 140.729 83.3388 141.28 87.5232C141.832 91.7077 143.053 95.4525 144.375 95.4525Z" fill="url(#paint139_linear_283_193)"/>
<path d="M143.253 78.5259C141.524 79.4732 139.815 81.0994 140.481 82.9543C140.933 84.2136 142.138 85.3476 144.695 85.5404C147.443 85.7477 148.213 86.5788 148.378 87.2364C148.518 87.7992 148.213 88.3689 148.14 88.9445C147.991 90.129 148.021 92.2021 149.865 92.901C152.503 93.901 153.411 95.265 153.139 98.2675C152.868 101.27 153.699 103.631 156.696 102.813C159.054 102.17 158.654 98.1489 158.376 96.4635C158.294 95.9664 158.219 95.4687 158.188 94.9658L157.376 81.6024C157.285 80.102 156.607 78.6979 155.489 77.6936V77.6936C154.726 77.0089 153.794 76.5417 152.789 76.3407L151.921 76.1671C149.855 75.7539 147.709 76.0827 145.862 77.0956L143.253 78.5259Z" fill="url(#paint140_linear_283_193)"/>
<path d="M145.062 86.845C144.83 85.9942 144.778 85.0018 145.443 84.4225C145.836 84.0793 146.403 83.8643 147.174 84.1737C148.955 84.8879 149.025 86.5936 148.314 88.0949V88.0949C147.483 89.8484 145.61 88.86 145.101 86.9877L145.062 86.845Z" fill="url(#paint141_linear_283_193)"/>
<path d="M109.764 156.835C112.444 157.471 114.66 157.157 114.083 159.85V159.85C113.097 164.451 102.277 162.581 97.5841 162.243C96.965 162.199 96.2942 162.175 95.5675 162.175C94.6455 162.175 93.8077 162.195 93.0465 162.232C91.2403 162.319 85.2833 158.268 85.1985 156.462V156.462C85.1613 155.671 85.697 154.967 86.4695 154.792L92.0683 153.524C93.3312 153.238 94.6428 153.244 95.9027 153.544L109.764 156.835Z" fill="url(#paint142_linear_283_193)"/>
<path d="M102.897 78.0277C102.903 78.1388 102.953 78.243 103.035 78.3175C103.118 78.3919 103.227 78.4306 103.338 78.4248C103.449 78.4191 103.553 78.3695 103.628 78.2869C103.702 78.2043 103.741 78.0955 103.735 77.9845C103.732 77.9295 103.718 77.8756 103.695 77.8259C103.671 77.7762 103.638 77.7316 103.597 77.6947C103.556 77.6578 103.508 77.6294 103.456 77.611C103.405 77.5925 103.35 77.5845 103.295 77.5874C103.24 77.5902 103.186 77.6038 103.136 77.6275C103.086 77.6512 103.042 77.6844 103.005 77.7253C102.968 77.7662 102.94 77.8139 102.921 77.8658C102.903 77.9177 102.895 77.9727 102.897 78.0277Z" fill="#020111"/>
<path d="M106.404 77.9732C106.421 78.0543 106.463 78.1282 106.523 78.1857C106.583 78.2431 106.658 78.2815 106.74 78.296C106.822 78.3104 106.906 78.3003 106.982 78.2668C107.058 78.2334 107.122 78.1782 107.166 78.1082C107.211 78.0381 107.234 77.9565 107.232 77.8735C107.23 77.7906 107.203 77.7101 107.156 77.6422C107.108 77.5744 107.041 77.5222 106.964 77.4924C106.886 77.4625 106.802 77.4563 106.721 77.4746C106.667 77.4863 106.616 77.5085 106.571 77.54C106.526 77.5714 106.488 77.6115 106.458 77.6579C106.429 77.7042 106.409 77.756 106.399 77.8101C106.39 77.8642 106.391 77.9197 106.404 77.9732Z" fill="#020111"/>
<path d="M106.587 76.7305L107.689 76.9281C107.705 76.8569 107.707 76.7832 107.694 76.7113C107.681 76.6395 107.654 76.571 107.614 76.51C107.574 76.4491 107.521 76.3969 107.461 76.3566C107.4 76.3164 107.331 76.2889 107.259 76.2758C107.11 76.2513 106.958 76.2848 106.833 76.3693C106.708 76.4539 106.62 76.5832 106.587 76.7305Z" fill="#020111"/>
<defs>
<linearGradient id="paint0_linear_283_193" x1="176.851" y1="108.166" x2="176.851" y2="95.2564" gradientUnits="userSpaceOnUse">
<stop stop-color="#38EF61"/>
<stop offset="1" stop-color="#44E5C8"/>
</linearGradient>
<linearGradient id="paint1_linear_283_193" x1="176.851" y1="108.168" x2="176.851" y2="101.371" gradientUnits="userSpaceOnUse">
<stop stop-color="#38EF61"/>
<stop offset="1" stop-color="#44E5C8"/>
</linearGradient>
<linearGradient id="paint2_linear_283_193" x1="159.668" y1="108.166" x2="159.668" y2="86.865" gradientUnits="userSpaceOnUse">
<stop stop-color="#38EF61"/>
<stop offset="1" stop-color="#44E5C8"/>
</linearGradient>
<linearGradient id="paint3_linear_283_193" x1="159.668" y1="108.168" x2="159.668" y2="101.371" gradientUnits="userSpaceOnUse">
<stop stop-color="#38EF61"/>
<stop offset="1" stop-color="#44E5C8"/>
</linearGradient>
<linearGradient id="paint4_linear_283_193" x1="167.72" y1="196.64" x2="167.72" y2="104.509" gradientUnits="userSpaceOnUse">
<stop stop-color="#38EF61"/>
<stop offset="1" stop-color="#44E5C8"/>
</linearGradient>
<linearGradient id="paint5_linear_283_193" x1="177.294" y1="120.803" x2="177.294" y2="115.86" gradientUnits="userSpaceOnUse">
<stop stop-color="#38EF61"/>
<stop offset="1" stop-color="#44E5C8"/>
</linearGradient>
<linearGradient id="paint6_linear_283_193" x1="177.294" y1="126.046" x2="177.294" y2="130.99" gradientUnits="userSpaceOnUse">
<stop stop-color="#38EF61"/>
<stop offset="1" stop-color="#44E5C8"/>
</linearGradient>
<linearGradient id="paint7_linear_283_193" x1="177.294" y1="136.236" x2="177.294" y2="141.179" gradientUnits="userSpaceOnUse">
<stop stop-color="#38EF61"/>
<stop offset="1" stop-color="#44E5C8"/>
</linearGradient>
<linearGradient id="paint8_linear_283_193" x1="177.294" y1="146.423" x2="177.294" y2="151.366" gradientUnits="userSpaceOnUse">
<stop stop-color="#38EF61"/>
<stop offset="1" stop-color="#44E5C8"/>
</linearGradient>
<linearGradient id="paint9_linear_283_193" x1="177.294" y1="156.609" x2="177.294" y2="161.553" gradientUnits="userSpaceOnUse">
<stop stop-color="#38EF61"/>
<stop offset="1" stop-color="#44E5C8"/>
</linearGradient>
<linearGradient id="paint10_linear_283_193" x1="177.294" y1="166.796" x2="177.294" y2="171.74" gradientUnits="userSpaceOnUse">
<stop stop-color="#38EF61"/>
<stop offset="1" stop-color="#44E5C8"/>
</linearGradient>
<linearGradient id="paint11_linear_283_193" x1="177.294" y1="176.983" x2="177.294" y2="181.926" gradientUnits="userSpaceOnUse">
<stop stop-color="#38EF61"/>
<stop offset="1" stop-color="#44E5C8"/>
</linearGradient>
<linearGradient id="paint12_linear_283_193" x1="166.175" y1="120.803" x2="166.175" y2="115.859" gradientUnits="userSpaceOnUse">
<stop stop-color="#38EF61"/>
<stop offset="1" stop-color="#44E5C8"/>
</linearGradient>
<linearGradient id="paint13_linear_283_193" x1="166.173" y1="126.046" x2="166.173" y2="130.989" gradientUnits="userSpaceOnUse">
<stop stop-color="#38EF61"/>
<stop offset="1" stop-color="#44E5C8"/>
</linearGradient>
<linearGradient id="paint14_linear_283_193" x1="166.173" y1="136.235" x2="166.173" y2="141.179" gradientUnits="userSpaceOnUse">
<stop stop-color="#38EF61"/>
<stop offset="1" stop-color="#44E5C8"/>
</linearGradient>
<linearGradient id="paint15_linear_283_193" x1="166.173" y1="146.422" x2="166.173" y2="151.366" gradientUnits="userSpaceOnUse">
<stop stop-color="#38EF61"/>
<stop offset="1" stop-color="#44E5C8"/>
</linearGradient>
<linearGradient id="paint16_linear_283_193" x1="166.173" y1="156.609" x2="166.173" y2="161.552" gradientUnits="userSpaceOnUse">
<stop stop-color="#38EF61"/>
<stop offset="1" stop-color="#44E5C8"/>
</linearGradient>
<linearGradient id="paint17_linear_283_193" x1="166.173" y1="166.796" x2="166.173" y2="171.739" gradientUnits="userSpaceOnUse">
<stop stop-color="#38EF61"/>
<stop offset="1" stop-color="#44E5C8"/>
</linearGradient>
<linearGradient id="paint18_linear_283_193" x1="166.173" y1="176.982" x2="166.173" y2="181.926" gradientUnits="userSpaceOnUse">
<stop stop-color="#38EF61"/>
<stop offset="1" stop-color="#44E5C8"/>
</linearGradient>
<linearGradient id="paint19_linear_283_193" x1="155.058" y1="120.803" x2="155.058" y2="115.86" gradientUnits="userSpaceOnUse">
<stop stop-color="#38EF61"/>
<stop offset="1" stop-color="#44E5C8"/>
</linearGradient>
<linearGradient id="paint20_linear_283_193" x1="155.058" y1="126.046" x2="155.058" y2="130.99" gradientUnits="userSpaceOnUse">
<stop stop-color="#38EF61"/>
<stop offset="1" stop-color="#44E5C8"/>
</linearGradient>
<linearGradient id="paint21_linear_283_193" x1="155.058" y1="136.236" x2="155.058" y2="141.179" gradientUnits="userSpaceOnUse">
<stop stop-color="#38EF61"/>
<stop offset="1" stop-color="#44E5C8"/>
</linearGradient>
<linearGradient id="paint22_linear_283_193" x1="155.058" y1="146.423" x2="155.058" y2="151.366" gradientUnits="userSpaceOnUse">
<stop stop-color="#38EF61"/>
<stop offset="1" stop-color="#44E5C8"/>
</linearGradient>
<linearGradient id="paint23_linear_283_193" x1="155.058" y1="156.609" x2="155.058" y2="161.553" gradientUnits="userSpaceOnUse">
<stop stop-color="#38EF61"/>
<stop offset="1" stop-color="#44E5C8"/>
</linearGradient>
<linearGradient id="paint24_linear_283_193" x1="155.058" y1="166.796" x2="155.058" y2="171.74" gradientUnits="userSpaceOnUse">
<stop stop-color="#38EF61"/>
<stop offset="1" stop-color="#44E5C8"/>
</linearGradient>
<linearGradient id="paint25_linear_283_193" x1="155.058" y1="176.983" x2="155.058" y2="181.926" gradientUnits="userSpaceOnUse">
<stop stop-color="#38EF61"/>
<stop offset="1" stop-color="#44E5C8"/>
</linearGradient>
<linearGradient id="paint26_linear_283_193" x1="193.691" y1="42.8442" x2="193.691" y2="69.6176" gradientUnits="userSpaceOnUse">
<stop stop-color="#38EF61"/>
<stop offset="1" stop-color="#44E5C8"/>
</linearGradient>
<linearGradient id="paint27_linear_283_193" x1="193.803" y1="63.6226" x2="193.803" y2="196.984" gradientUnits="userSpaceOnUse">
<stop stop-color="#38EF61"/>
<stop offset="1" stop-color="#44E5C8"/>
</linearGradient>
<linearGradient id="paint28_linear_283_193" x1="193.692" y1="60.501" x2="193.692" y2="63.4083" gradientUnits="userSpaceOnUse">
<stop stop-color="#38EF61"/>
<stop offset="1" stop-color="#44E5C8"/>
</linearGradient>
<linearGradient id="paint29_linear_283_193" x1="185.361" y1="121.58" x2="185.361" y2="128.187" gradientUnits="userSpaceOnUse">
<stop stop-color="#38EF61"/>
<stop offset="1" stop-color="#44E5C8"/>
</linearGradient>
<linearGradient id="paint30_linear_283_193" x1="185.361" y1="110.435" x2="185.361" y2="117.042" gradientUnits="userSpaceOnUse">
<stop stop-color="#38EF61"/>
<stop offset="1" stop-color="#44E5C8"/>
</linearGradient>
<linearGradient id="paint31_linear_283_193" x1="185.361" y1="99.29" x2="185.361" y2="105.897" gradientUnits="userSpaceOnUse">
<stop stop-color="#38EF61"/>
<stop offset="1" stop-color="#44E5C8"/>
</linearGradient>
<linearGradient id="paint32_linear_283_193" x1="185.361" y1="88.1455" x2="185.361" y2="94.7527" gradientUnits="userSpaceOnUse">
<stop stop-color="#38EF61"/>
<stop offset="1" stop-color="#44E5C8"/>
</linearGradient>
<linearGradient id="paint33_linear_283_193" x1="185.361" y1="77.0039" x2="185.361" y2="83.6111" gradientUnits="userSpaceOnUse">
<stop stop-color="#38EF61"/>
<stop offset="1" stop-color="#44E5C8"/>
</linearGradient>
<linearGradient id="paint34_linear_283_193" x1="193.692" y1="121.58" x2="193.692" y2="128.187" gradientUnits="userSpaceOnUse">
<stop stop-color="#38EF61"/>
<stop offset="1" stop-color="#44E5C8"/>
</linearGradient>
<linearGradient id="paint35_linear_283_193" x1="193.692" y1="110.435" x2="193.692" y2="117.042" gradientUnits="userSpaceOnUse">
<stop stop-color="#38EF61"/>
<stop offset="1" stop-color="#44E5C8"/>
</linearGradient>
<linearGradient id="paint36_linear_283_193" x1="193.692" y1="99.29" x2="193.692" y2="105.897" gradientUnits="userSpaceOnUse">
<stop stop-color="#38EF61"/>
<stop offset="1" stop-color="#44E5C8"/>
</linearGradient>
<linearGradient id="paint37_linear_283_193" x1="193.692" y1="88.1455" x2="193.692" y2="94.7527" gradientUnits="userSpaceOnUse">
<stop stop-color="#38EF61"/>
<stop offset="1" stop-color="#44E5C8"/>
</linearGradient>
<linearGradient id="paint38_linear_283_193" x1="193.692" y1="77.0039" x2="193.692" y2="83.6111" gradientUnits="userSpaceOnUse">
<stop stop-color="#38EF61"/>
<stop offset="1" stop-color="#44E5C8"/>
</linearGradient>
<linearGradient id="paint39_linear_283_193" x1="202.02" y1="121.58" x2="202.02" y2="128.187" gradientUnits="userSpaceOnUse">
<stop stop-color="#38EF61"/>
<stop offset="1" stop-color="#44E5C8"/>
</linearGradient>
<linearGradient id="paint40_linear_283_193" x1="202.02" y1="110.435" x2="202.02" y2="117.042" gradientUnits="userSpaceOnUse">
<stop stop-color="#38EF61"/>
<stop offset="1" stop-color="#44E5C8"/>
</linearGradient>
<linearGradient id="paint41_linear_283_193" x1="202.02" y1="99.29" x2="202.02" y2="105.897" gradientUnits="userSpaceOnUse">
<stop stop-color="#38EF61"/>
<stop offset="1" stop-color="#44E5C8"/>
</linearGradient>
<linearGradient id="paint42_linear_283_193" x1="202.02" y1="88.1455" x2="202.02" y2="94.7527" gradientUnits="userSpaceOnUse">
<stop stop-color="#38EF61"/>
<stop offset="1" stop-color="#44E5C8"/>
</linearGradient>
<linearGradient id="paint43_linear_283_193" x1="202.02" y1="77.0039" x2="202.02" y2="83.6111" gradientUnits="userSpaceOnUse">
<stop stop-color="#38EF61"/>
<stop offset="1" stop-color="#44E5C8"/>
</linearGradient>
<linearGradient id="paint44_linear_283_193" x1="13.5073" y1="7.02246" x2="13.5073" y2="44.1394" gradientUnits="userSpaceOnUse">
<stop stop-color="#30EF5B"/>
<stop offset="1" stop-color="#A2FBC1"/>
</linearGradient>
<linearGradient id="paint45_linear_283_193" x1="13.5073" y1="40.7026" x2="13.5073" y2="44.1421" gradientUnits="userSpaceOnUse">
<stop stop-color="#30EF5B"/>
<stop offset="1" stop-color="#A2FBC1"/>
</linearGradient>
<linearGradient id="paint46_linear_283_193" x1="24.5403" y1="26.6201" x2="24.5403" y2="48.3379" gradientUnits="userSpaceOnUse">
<stop stop-color="#30EF5B"/>
<stop offset="1" stop-color="#A2FBC1"/>
</linearGradient>
<linearGradient id="paint47_linear_283_193" x1="16.9978" y1="196.694" x2="16.9978" y2="43.5041" gradientUnits="userSpaceOnUse">
<stop stop-color="#30EF5B"/>
<stop offset="1" stop-color="#A2FBC1"/>
</linearGradient>
<linearGradient id="paint48_linear_283_193" x1="24.5403" y1="40.9438" x2="24.5403" y2="43.3022" gradientUnits="userSpaceOnUse">
<stop stop-color="#30EF5B"/>
<stop offset="1" stop-color="#A2FBC1"/>
</linearGradient>
<linearGradient id="paint49_linear_283_193" x1="23.7751" y1="144.718" x2="23.7751" y2="150.076" gradientUnits="userSpaceOnUse">
<stop stop-color="#30EF5B"/>
<stop offset="1" stop-color="#A2FBC1"/>
</linearGradient>
<linearGradient id="paint50_linear_283_193" x1="23.7751" y1="135.68" x2="23.7751" y2="141.038" gradientUnits="userSpaceOnUse">
<stop stop-color="#30EF5B"/>
<stop offset="1" stop-color="#A2FBC1"/>
</linearGradient>
<linearGradient id="paint51_linear_283_193" x1="23.7751" y1="108.562" x2="23.7751" y2="113.92" gradientUnits="userSpaceOnUse">
<stop stop-color="#30EF5B"/>
<stop offset="1" stop-color="#A2FBC1"/>
</linearGradient>
<linearGradient id="paint52_linear_283_193" x1="23.7751" y1="99.5234" x2="23.7751" y2="104.881" gradientUnits="userSpaceOnUse">
<stop stop-color="#30EF5B"/>
<stop offset="1" stop-color="#A2FBC1"/>
</linearGradient>
<linearGradient id="paint53_linear_283_193" x1="23.7751" y1="81.4443" x2="23.7751" y2="86.8024" gradientUnits="userSpaceOnUse">
<stop stop-color="#30EF5B"/>
<stop offset="1" stop-color="#A2FBC1"/>
</linearGradient>
<linearGradient id="paint54_linear_283_193" x1="23.7747" y1="59.687" x2="23.7747" y2="54.329" gradientUnits="userSpaceOnUse">
<stop stop-color="#30EF5B"/>
<stop offset="1" stop-color="#A2FBC1"/>
</linearGradient>
<linearGradient id="paint55_linear_283_193" x1="17.0212" y1="126.642" x2="17.0212" y2="132" gradientUnits="userSpaceOnUse">
<stop stop-color="#30EF5B"/>
<stop offset="1" stop-color="#A2FBC1"/>
</linearGradient>
<linearGradient id="paint56_linear_283_193" x1="17.0212" y1="99.5234" x2="17.0212" y2="104.881" gradientUnits="userSpaceOnUse">
<stop stop-color="#30EF5B"/>
<stop offset="1" stop-color="#A2FBC1"/>
</linearGradient>
<linearGradient id="paint57_linear_283_193" x1="17.0212" y1="90.4824" x2="17.0212" y2="95.8405" gradientUnits="userSpaceOnUse">
<stop stop-color="#30EF5B"/>
<stop offset="1" stop-color="#A2FBC1"/>
</linearGradient>
<linearGradient id="paint58_linear_283_193" x1="17.0212" y1="72.4058" x2="17.0212" y2="77.7638" gradientUnits="userSpaceOnUse">
<stop stop-color="#30EF5B"/>
<stop offset="1" stop-color="#A2FBC1"/>
</linearGradient>
<linearGradient id="paint59_linear_283_193" x1="17.0212" y1="63.3672" x2="17.0212" y2="68.7252" gradientUnits="userSpaceOnUse">
<stop stop-color="#30EF5B"/>
<stop offset="1" stop-color="#A2FBC1"/>
</linearGradient>
<linearGradient id="paint60_linear_283_193" x1="10.2614" y1="144.718" x2="10.2614" y2="150.076" gradientUnits="userSpaceOnUse">
<stop stop-color="#30EF5B"/>
<stop offset="1" stop-color="#A2FBC1"/>
</linearGradient>
<linearGradient id="paint61_linear_283_193" x1="10.2614" y1="126.642" x2="10.2614" y2="132" gradientUnits="userSpaceOnUse">
<stop stop-color="#30EF5B"/>
<stop offset="1" stop-color="#A2FBC1"/>
</linearGradient>
<linearGradient id="paint62_linear_283_193" x1="10.2614" y1="108.562" x2="10.2614" y2="113.92" gradientUnits="userSpaceOnUse">
<stop stop-color="#30EF5B"/>
<stop offset="1" stop-color="#A2FBC1"/>
</linearGradient>
<linearGradient id="paint63_linear_283_193" x1="10.2614" y1="90.4824" x2="10.2614" y2="95.8405" gradientUnits="userSpaceOnUse">
<stop stop-color="#30EF5B"/>
<stop offset="1" stop-color="#A2FBC1"/>
</linearGradient>
<linearGradient id="paint64_linear_283_193" x1="10.2614" y1="63.3672" x2="10.2614" y2="68.7252" gradientUnits="userSpaceOnUse">
<stop stop-color="#30EF5B"/>
<stop offset="1" stop-color="#A2FBC1"/>
</linearGradient>
<linearGradient id="paint65_linear_283_193" x1="96.9058" y1="174.339" x2="114.023" y2="174.339" gradientUnits="userSpaceOnUse">
<stop stop-color="#188C2B"/>
<stop offset="1" stop-color="#001333"/>
<stop offset="1"/>
</linearGradient>
<linearGradient id="paint66_linear_283_193" x1="105.465" y1="170.507" x2="105.465" y2="178.164" gradientUnits="userSpaceOnUse">
<stop stop-color="#38EF61"/>
<stop offset="1" stop-color="#44E5C8"/>
</linearGradient>
<linearGradient id="paint67_linear_283_193" x1="107.255" y1="185.066" x2="103.673" y2="185.066" gradientUnits="userSpaceOnUse">
<stop stop-color="#188C2B"/>
<stop offset="1" stop-color="#001333"/>
<stop offset="1"/>
</linearGradient>
<linearGradient id="paint68_linear_283_193" x1="105.464" y1="193.987" x2="105.464" y2="176.162" gradientUnits="userSpaceOnUse">
<stop stop-color="#38EF61"/>
<stop offset="1" stop-color="#44E5C8"/>
</linearGradient>
<linearGradient id="paint69_linear_283_193" x1="93.4976" y1="195.424" x2="117.005" y2="195.424" gradientUnits="userSpaceOnUse">
<stop stop-color="#188C2B"/>
<stop offset="1" stop-color="#001333"/>
<stop offset="1"/>
</linearGradient>
<linearGradient id="paint70_linear_283_193" x1="105.251" y1="193.981" x2="105.251" y2="196.864" gradientUnits="userSpaceOnUse">
<stop stop-color="#38EF61"/>
<stop offset="1" stop-color="#44E5C8"/>
</linearGradient>
<linearGradient id="paint71_linear_283_193" x1="97.3415" y1="124.467" x2="97.3415" y2="175.496" gradientUnits="userSpaceOnUse">
<stop stop-color="#38EF61"/>
<stop offset="1" stop-color="#44E5C8"/>
</linearGradient>
<linearGradient id="paint72_linear_283_193" x1="86.0645" y1="157.932" x2="87.7646" y2="201.3" gradientUnits="userSpaceOnUse">
<stop stop-color="#FBB773"/>
<stop offset="1" stop-color="#FA6C69"/>
</linearGradient>
<linearGradient id="paint73_linear_283_193" x1="94.6812" y1="157.932" x2="96.3814" y2="201.3" gradientUnits="userSpaceOnUse">
<stop stop-color="#FBB773"/>
<stop offset="1" stop-color="#FA6C69"/>
</linearGradient>
<linearGradient id="paint74_linear_283_193" x1="86.4586" y1="194.627" x2="104.662" y2="194.627" gradientUnits="userSpaceOnUse">
<stop stop-color="#07530A"/>
<stop offset="1" stop-color="#0E2B04"/>
</linearGradient>
<linearGradient id="paint75_linear_283_193" x1="100.067" y1="145.694" x2="100.067" y2="150.439" gradientUnits="userSpaceOnUse">
<stop stop-color="#38EF61"/>
<stop offset="1" stop-color="#44E5C8"/>
</linearGradient>
<linearGradient id="paint76_linear_283_193" x1="96.7776" y1="88.627" x2="96.7776" y2="112.681" gradientUnits="userSpaceOnUse">
<stop stop-color="#38EF61"/>
<stop offset="1" stop-color="#44E5C8"/>
</linearGradient>
<linearGradient id="paint77_linear_283_193" x1="100.067" y1="135.245" x2="100.067" y2="145.695" gradientUnits="userSpaceOnUse">
<stop stop-color="#38EF61"/>
<stop offset="1" stop-color="#44E5C8"/>
</linearGradient>
<linearGradient id="paint78_linear_283_193" x1="16.4068" y1="145.694" x2="16.4068" y2="196.863" gradientUnits="userSpaceOnUse">
<stop stop-color="#38EF61"/>
<stop offset="1" stop-color="#44E5C8"/>
</linearGradient>
<linearGradient id="paint79_linear_283_193" x1="183.727" y1="145.694" x2="183.727" y2="196.863" gradientUnits="userSpaceOnUse">
<stop stop-color="#38EF61"/>
<stop offset="1" stop-color="#44E5C8"/>
</linearGradient>
<linearGradient id="paint80_linear_283_193" x1="61.8152" y1="184.372" x2="61.8152" y2="198.665" gradientUnits="userSpaceOnUse">
<stop stop-color="#FBB773"/>
<stop offset="1" stop-color="#FA6C69"/>
</linearGradient>
<linearGradient id="paint81_linear_283_193" x1="81.3223" y1="184.372" x2="81.3223" y2="198.664" gradientUnits="userSpaceOnUse">
<stop stop-color="#FBB773"/>
<stop offset="1" stop-color="#FA6C69"/>
</linearGradient>
<linearGradient id="paint82_linear_283_193" x1="54.9701" y1="166.894" x2="54.9701" y2="189.259" gradientUnits="userSpaceOnUse">
<stop stop-color="#308C18"/>
<stop offset="1" stop-color="#0C3304"/>
</linearGradient>
<linearGradient id="paint83_linear_283_193" x1="53.3215" y1="193.645" x2="70.3395" y2="193.645" gradientUnits="userSpaceOnUse">
<stop stop-color="#07530A"/>
<stop offset="1" stop-color="#0E2B04"/>
</linearGradient>
<linearGradient id="paint84_linear_283_193" x1="154.526" y1="183.237" x2="154.526" y2="205.504" gradientUnits="userSpaceOnUse">
<stop stop-color="#FBB773"/>
<stop offset="1" stop-color="#FA6C69"/>
</linearGradient>
<linearGradient id="paint85_linear_283_193" x1="143.591" y1="194.224" x2="165.473" y2="194.224" gradientUnits="userSpaceOnUse">
<stop stop-color="#07530A"/>
<stop offset="1" stop-color="#0E2B04"/>
</linearGradient>
<linearGradient id="paint86_linear_283_193" x1="35.005" y1="73.858" x2="37.2905" y2="177.201" gradientUnits="userSpaceOnUse">
<stop stop-color="#FBB773"/>
<stop offset="1" stop-color="#FA6C69"/>
</linearGradient>
<linearGradient id="paint87_linear_283_193" x1="35.6184" y1="98.2671" x2="35.6184" y2="117.87" gradientUnits="userSpaceOnUse">
<stop stop-color="#38EF61"/>
<stop offset="1" stop-color="#44E5C8"/>
</linearGradient>
<linearGradient id="paint88_linear_283_193" x1="33.2232" y1="73.9" x2="35.5059" y2="177.24" gradientUnits="userSpaceOnUse">
<stop stop-color="#FBB773"/>
<stop offset="1" stop-color="#FA6C69"/>
</linearGradient>
<linearGradient id="paint89_linear_283_193" x1="36.8427" y1="107.407" x2="36.8427" y2="112.687" gradientUnits="userSpaceOnUse">
<stop stop-color="#38EF61"/>
<stop offset="1" stop-color="#44E5C8"/>
</linearGradient>
<linearGradient id="paint90_linear_283_193" x1="21.1896" y1="142.106" x2="52.1166" y2="142.106" gradientUnits="userSpaceOnUse">
<stop stop-color="#1A8C18"/>
<stop offset="1" stop-color="#00330B"/>
</linearGradient>
<linearGradient id="paint91_linear_283_193" x1="55.2685" y1="122.825" x2="54.5767" y2="144.983" gradientUnits="userSpaceOnUse">
<stop stop-color="#378A3D"/>
<stop offset="1" stop-color="#1B5A21"/>
</linearGradient>
<linearGradient id="paint92_linear_283_193" x1="63.8153" y1="155.096" x2="63.8153" y2="188.8" gradientUnits="userSpaceOnUse">
<stop stop-color="#3A8F40"/>
<stop offset="1" stop-color="#1B5A21"/>
</linearGradient>
<linearGradient id="paint93_linear_283_193" x1="72.7903" y1="193.48" x2="89.881" y2="193.48" gradientUnits="userSpaceOnUse">
<stop stop-color="#07530A"/>
<stop offset="1" stop-color="#0E2B04"/>
</linearGradient>
<linearGradient id="paint94_linear_283_193" x1="68.7295" y1="73.113" x2="71.0149" y2="176.456" gradientUnits="userSpaceOnUse">
<stop stop-color="#FBB773"/>
<stop offset="1" stop-color="#FA6C69"/>
</linearGradient>
<linearGradient id="paint95_linear_283_193" x1="97.5017" y1="91.4924" x2="92.617" y2="162.819" gradientUnits="userSpaceOnUse">
<stop stop-color="#FBB773"/>
<stop offset="1" stop-color="#FA6C69"/>
</linearGradient>
<linearGradient id="paint96_linear_283_193" x1="90.837" y1="91.0357" x2="85.9495" y2="162.362" gradientUnits="userSpaceOnUse">
<stop stop-color="#FBB773"/>
<stop offset="1" stop-color="#FA6C69"/>
</linearGradient>
<linearGradient id="paint97_linear_283_193" x1="104.661" y1="91.9822" x2="99.7761" y2="163.309" gradientUnits="userSpaceOnUse">
<stop stop-color="#FBB773"/>
<stop offset="1" stop-color="#FA6C69"/>
</linearGradient>
<linearGradient id="paint98_linear_283_193" x1="98.9865" y1="91.5933" x2="94.1018" y2="162.92" gradientUnits="userSpaceOnUse">
<stop stop-color="#FBB773"/>
<stop offset="1" stop-color="#FA6C69"/>
</linearGradient>
<linearGradient id="paint99_linear_283_193" x1="102.063" y1="131.141" x2="110.107" y2="143.538" gradientUnits="userSpaceOnUse">
<stop stop-color="#FBB773"/>
<stop offset="1" stop-color="#FA6C69"/>
</linearGradient>
<linearGradient id="paint100_linear_283_193" x1="117.853" y1="72.0293" x2="120.139" y2="175.37" gradientUnits="userSpaceOnUse">
<stop stop-color="#FBB773"/>
<stop offset="1" stop-color="#FA6C69"/>
</linearGradient>
<linearGradient id="paint101_linear_283_193" x1="97.327" y1="90.9629" x2="97.327" y2="101.245" gradientUnits="userSpaceOnUse">
<stop stop-color="#38EF61"/>
<stop offset="1" stop-color="#44E5C8"/>
</linearGradient>
<linearGradient id="paint102_linear_283_193" x1="153.416" y1="159.682" x2="166.298" y2="159.682" gradientUnits="userSpaceOnUse">
<stop stop-color="#011D07"/>
<stop offset="1" stop-color="#003305"/>
</linearGradient>
<linearGradient id="paint103_linear_283_193" x1="138.894" y1="183.237" x2="138.894" y2="205.504" gradientUnits="userSpaceOnUse">
<stop stop-color="#FBB773"/>
<stop offset="1" stop-color="#FA6C69"/>
</linearGradient>
<linearGradient id="paint104_linear_283_193" x1="127.962" y1="194.224" x2="149.844" y2="194.224" gradientUnits="userSpaceOnUse">
<stop stop-color="#07530A"/>
<stop offset="1" stop-color="#0E2B04"/>
</linearGradient>
<linearGradient id="paint105_linear_283_193" x1="137.974" y1="156.876" x2="158.768" y2="156.876" gradientUnits="userSpaceOnUse">
<stop stop-color="#188C1D"/>
<stop offset="1" stop-color="#001805"/>
</linearGradient>
<linearGradient id="paint106_linear_283_193" x1="140.123" y1="95.4669" x2="140.322" y2="133.497" gradientUnits="userSpaceOnUse">
<stop stop-color="#439F49"/>
<stop offset="1" stop-color="#1B5A21"/>
</linearGradient>
<linearGradient id="paint107_linear_283_193" x1="166.726" y1="95.3269" x2="166.928" y2="133.357" gradientUnits="userSpaceOnUse">
<stop stop-color="#57C15C"/>
<stop offset="1" stop-color="#124A18"/>
</linearGradient>
<linearGradient id="paint108_linear_283_193" x1="153.347" y1="95.3998" x2="153.548" y2="133.427" gradientUnits="userSpaceOnUse">
<stop stop-color="#4CAE51"/>
<stop offset="1" stop-color="#17531D"/>
</linearGradient>
<linearGradient id="paint109_linear_283_193" x1="157.027" y1="12.5088" x2="157.027" y2="37.456" gradientUnits="userSpaceOnUse">
<stop stop-color="#38EF61"/>
<stop offset="1" stop-color="#44E5C8"/>
</linearGradient>
<linearGradient id="paint110_linear_283_193" x1="140.067" y1="36.2617" x2="145.313" y2="64.0823" gradientUnits="userSpaceOnUse">
<stop stop-color="#38EF61"/>
<stop offset="1" stop-color="#44E5C8"/>
</linearGradient>
<linearGradient id="paint111_linear_283_193" x1="86.8879" y1="56.1572" x2="86.8879" y2="86.5717" gradientUnits="userSpaceOnUse">
<stop stop-color="#38EF61"/>
<stop offset="1" stop-color="#44E5C8"/>
</linearGradient>
<linearGradient id="paint112_linear_283_193" x1="64.3219" y1="35.4951" x2="64.3219" y2="58.5602" gradientUnits="userSpaceOnUse">
<stop stop-color="#38EF61"/>
<stop offset="1" stop-color="#44E5C8"/>
</linearGradient>
<linearGradient id="paint113_linear_283_193" x1="28.6393" y1="14.7951" x2="65.8547" y2="36.8656" gradientUnits="userSpaceOnUse">
<stop stop-color="#38EF61"/>
<stop offset="1" stop-color="#44E5C8"/>
</linearGradient>
<linearGradient id="paint114_linear_283_193" x1="118.141" y1="9.47266" x2="118.141" y2="59.6164" gradientUnits="userSpaceOnUse">
<stop stop-color="#38EF61"/>
<stop offset="1" stop-color="#44E5C8"/>
</linearGradient>
<linearGradient id="paint115_linear_283_193" x1="97.0901" y1="35.4697" x2="97.0901" y2="72.6623" gradientUnits="userSpaceOnUse">
<stop stop-color="#38EF61"/>
<stop offset="1" stop-color="#44E5C8"/>
</linearGradient>
<linearGradient id="paint116_linear_283_193" x1="101.314" y1="38.5278" x2="101.314" y2="41.486" gradientUnits="userSpaceOnUse">
<stop stop-color="#38EF61"/>
<stop offset="1" stop-color="#44E5C8"/>
</linearGradient>
<linearGradient id="paint117_linear_283_193" x1="107.416" y1="41.3374" x2="107.416" y2="52.7396" gradientUnits="userSpaceOnUse">
<stop stop-color="#38EF61"/>
<stop offset="1" stop-color="#44E5C8"/>
</linearGradient>
<linearGradient id="paint118_linear_283_193" x1="97.1536" y1="53.1982" x2="97.1536" y2="73.8977" gradientUnits="userSpaceOnUse">
<stop stop-color="#38EF61"/>
<stop offset="1" stop-color="#44E5C8"/>
</linearGradient>
<linearGradient id="paint119_linear_283_193" x1="97.0991" y1="72.665" x2="97.0991" y2="82.1555" gradientUnits="userSpaceOnUse">
<stop stop-color="#38EF61"/>
<stop offset="1" stop-color="#44E5C8"/>
</linearGradient>
<linearGradient id="paint120_linear_283_193" x1="144.477" y1="6.64355" x2="144.477" y2="18.8049" gradientUnits="userSpaceOnUse">
<stop stop-color="#38EF61"/>
<stop offset="1" stop-color="#44E5C8"/>
</linearGradient>
<linearGradient id="paint121_linear_283_193" x1="121.493" y1="77.4131" x2="121.493" y2="94.193" gradientUnits="userSpaceOnUse">
<stop stop-color="#38EF61"/>
<stop offset="1" stop-color="#44E5C8"/>
</linearGradient>
<linearGradient id="paint122_linear_283_193" x1="65.8508" y1="26.6865" x2="65.8508" y2="47.0375" gradientUnits="userSpaceOnUse">
<stop stop-color="#38EF61"/>
<stop offset="1" stop-color="#44E5C8"/>
</linearGradient>
<linearGradient id="paint123_linear_283_193" x1="28.6359" y1="7.12256" x2="28.6359" y2="22.4656" gradientUnits="userSpaceOnUse">
<stop stop-color="#38EF61"/>
<stop offset="1" stop-color="#44E5C8"/>
</linearGradient>
<linearGradient id="paint124_linear_283_193" x1="36.1071" y1="128.444" x2="36.1071" y2="175.657" gradientUnits="userSpaceOnUse">
<stop stop-color="#38EF61"/>
<stop offset="1" stop-color="#44E5C8"/>
</linearGradient>
<linearGradient id="paint125_linear_283_193" x1="27.7808" y1="175.91" x2="44.8958" y2="175.91" gradientUnits="userSpaceOnUse">
<stop stop-color="#188C2B"/>
<stop offset="1" stop-color="#001333"/>
<stop offset="1"/>
</linearGradient>
<linearGradient id="paint126_linear_283_193" x1="36.3383" y1="172.079" x2="36.3383" y2="179.735" gradientUnits="userSpaceOnUse">
<stop stop-color="#38EF61"/>
<stop offset="1" stop-color="#44E5C8"/>
</linearGradient>
<linearGradient id="paint127_linear_283_193" x1="34.5581" y1="185.869" x2="38.1404" y2="185.869" gradientUnits="userSpaceOnUse">
<stop stop-color="#188C2B"/>
<stop offset="1" stop-color="#001333"/>
<stop offset="1"/>
</linearGradient>
<linearGradient id="paint128_linear_283_193" x1="36.3492" y1="177.733" x2="36.3492" y2="193.99" gradientUnits="userSpaceOnUse">
<stop stop-color="#38EF61"/>
<stop offset="1" stop-color="#44E5C8"/>
</linearGradient>
<linearGradient id="paint129_linear_283_193" x1="24.8081" y1="195.424" x2="48.3157" y2="195.424" gradientUnits="userSpaceOnUse">
<stop stop-color="#188C2B"/>
<stop offset="1" stop-color="#001333"/>
<stop offset="1"/>
</linearGradient>
<linearGradient id="paint130_linear_283_193" x1="36.5619" y1="193.981" x2="36.5619" y2="196.864" gradientUnits="userSpaceOnUse">
<stop stop-color="#38EF61"/>
<stop offset="1" stop-color="#44E5C8"/>
</linearGradient>
<linearGradient id="paint131_linear_283_193" x1="170.731" y1="128.444" x2="170.731" y2="175.657" gradientUnits="userSpaceOnUse">
<stop stop-color="#38EF61"/>
<stop offset="1" stop-color="#44E5C8"/>
</linearGradient>
<linearGradient id="paint132_linear_283_193" x1="161.933" y1="175.91" x2="179.053" y2="175.91" gradientUnits="userSpaceOnUse">
<stop stop-color="#188C2B"/>
<stop offset="1" stop-color="#001333"/>
<stop offset="1"/>
</linearGradient>
<linearGradient id="paint133_linear_283_193" x1="170.493" y1="172.079" x2="170.493" y2="179.735" gradientUnits="userSpaceOnUse">
<stop stop-color="#38EF61"/>
<stop offset="1" stop-color="#44E5C8"/>
</linearGradient>
<linearGradient id="paint134_linear_283_193" x1="172.285" y1="185.851" x2="168.702" y2="185.851" gradientUnits="userSpaceOnUse">
<stop stop-color="#188C2B"/>
<stop offset="1" stop-color="#001333"/>
<stop offset="1"/>
</linearGradient>
<linearGradient id="paint135_linear_283_193" x1="170.494" y1="193.987" x2="170.494" y2="177.731" gradientUnits="userSpaceOnUse">
<stop stop-color="#38EF61"/>
<stop offset="1" stop-color="#44E5C8"/>
</linearGradient>
<linearGradient id="paint136_linear_283_193" x1="158.525" y1="195.424" x2="182.033" y2="195.424" gradientUnits="userSpaceOnUse">
<stop stop-color="#188C2B"/>
<stop offset="1" stop-color="#001333"/>
<stop offset="1"/>
</linearGradient>
<linearGradient id="paint137_linear_283_193" x1="170.279" y1="193.981" x2="170.279" y2="196.864" gradientUnits="userSpaceOnUse">
<stop stop-color="#38EF61"/>
<stop offset="1" stop-color="#44E5C8"/>
</linearGradient>
<linearGradient id="paint138_linear_283_193" x1="151.922" y1="72.8374" x2="151.922" y2="103.356" gradientUnits="userSpaceOnUse">
<stop stop-color="#38EF61"/>
<stop offset="1" stop-color="#44E5C8"/>
</linearGradient>
<linearGradient id="paint139_linear_283_193" x1="151.882" y1="99.0404" x2="146.134" y2="72.5107" gradientUnits="userSpaceOnUse">
<stop stop-color="#FBB773"/>
<stop offset="1" stop-color="#FA6C69"/>
</linearGradient>
<linearGradient id="paint140_linear_283_193" x1="149.423" y1="75.5273" x2="149.423" y2="102.977" gradientUnits="userSpaceOnUse">
<stop stop-color="#38EF61"/>
<stop offset="1" stop-color="#44E5C8"/>
</linearGradient>
<linearGradient id="paint141_linear_283_193" x1="149.686" y1="99.5168" x2="143.939" y2="72.9871" gradientUnits="userSpaceOnUse">
<stop stop-color="#FBB773"/>
<stop offset="1" stop-color="#FA6C69"/>
</linearGradient>
<linearGradient id="paint142_linear_283_193" x1="99.8375" y1="152.366" x2="99.7183" y2="165.404" gradientUnits="userSpaceOnUse">
<stop stop-color="#2C8216"/>
<stop offset="1" stop-color="#072701"/>
</linearGradient>
</defs>
</svg>
