<svg 
  viewBox="0 0 1001 757" 
  fill="none" 
  xmlns="http://www.w3.org/2000/svg" 
  width="100%" 
  height="auto" 
  preserveAspectRatio="xMidYMid meet"
>
<g filter="url(#filter0_d_462_10008)">
<path d="M52.3691 -68.2695C146.891 45.8957 362.122 286.803 466.877 337.109C571.631 387.416 636.132 440.532 655.288 460.801C725.687 529.448 919.987 671.121 1133.99 688.643C1348 706.166 1370.71 700.111 1355.32 694.894" stroke="url(#paint0_linear_462_10008)"/>
<path d="M45.7539 -56.8086C142.254 55.6896 361.657 292.804 467.273 341.274C572.89 389.745 638.308 441.727 657.814 461.659C729.401 529.067 926.144 667.328 1140.42 681.112C1354.71 694.897 1377.31 688.447 1361.82 683.499" stroke="url(#paint1_linear_462_10008)"/>
<path d="M39.3379 -45.2334C137.786 65.5635 361.294 298.812 467.741 345.433C574.187 392.053 640.502 442.885 660.354 462.474C733.106 528.621 932.232 663.428 1146.72 673.47C1361.21 683.513 1383.69 676.67 1368.12 671.993" stroke="url(#paint2_linear_462_10008)"/>
<path d="M33.125 -33.5488C133.492 75.513 361.037 304.826 468.28 349.581C575.524 394.336 642.716 444.003 662.907 463.243C736.802 528.111 938.251 659.421 1152.88 665.719C1367.51 672.017 1389.87 664.782 1374.23 660.378" stroke="url(#paint3_linear_462_10008)"/>
<path d="M27.1191 -21.7568C129.374 85.5368 360.886 310.843 468.895 353.72C576.903 396.597 644.952 445.084 665.475 463.968C740.492 527.536 944.201 655.311 1158.91 657.862C1373.62 660.413 1395.85 652.789 1380.13 648.658" stroke="url(#paint4_linear_462_10008)"/>
<path d="M21.3184 -9.8623C125.43 95.6304 360.839 316.862 469.58 357.847C578.32 398.833 647.205 446.125 668.054 464.647C744.169 526.897 950.077 651.097 1164.8 649.9C1379.52 648.704 1401.61 640.693 1385.82 636.838" stroke="url(#paint5_linear_462_10008)"/>
</g>
<defs>
<filter id="filter0_d_462_10008" x="16.9629" y="-68.5889" width="1377.4" height="777.385" filterUnits="userSpaceOnUse" color-interpolation-filters="sRGB">
<feFlood flood-opacity="0" result="BackgroundImageFix"/>
<feColorMatrix in="SourceAlpha" type="matrix" values="0 0 0 0 0 0 0 0 0 0 0 0 0 0 0 0 0 0 127 0" result="hardAlpha"/>
<feOffset dy="4"/>
<feGaussianBlur stdDeviation="2"/>
<feComposite in2="hardAlpha" operator="out"/>
<feColorMatrix type="matrix" values="0 0 0 0 0 0 0 0 0 0 0 0 0 0 0 0 0 0 0.25 0"/>
<feBlend mode="normal" in2="BackgroundImageFix" result="effect1_dropShadow_462_10008"/>
<feBlend mode="normal" in="SourceGraphic" in2="effect1_dropShadow_462_10008" result="shape"/>
</filter>
<linearGradient id="paint0_linear_462_10008" x1="52.3691" y1="-68.2695" x2="1389.05" y2="-12.0534" gradientUnits="userSpaceOnUse">
<stop stop-color="#3BE8E8"/>
<stop offset="1" stop-color="#AFE639"/>
</linearGradient>
<linearGradient id="paint1_linear_462_10008" x1="45.7539" y1="-56.8086" x2="1383.21" y2="-23.9292" gradientUnits="userSpaceOnUse">
<stop stop-color="#3BE8E8"/>
<stop offset="1" stop-color="#AFE639"/>
</linearGradient>
<linearGradient id="paint2_linear_462_10008" x1="39.3379" y1="-45.2334" x2="1377.16" y2="-35.7008" gradientUnits="userSpaceOnUse">
<stop stop-color="#3BE8E8"/>
<stop offset="1" stop-color="#AFE639"/>
</linearGradient>
<linearGradient id="paint3_linear_462_10008" x1="33.125" y1="-33.5488" x2="1370.91" y2="-47.366" gradientUnits="userSpaceOnUse">
<stop stop-color="#3BE8E8"/>
<stop offset="1" stop-color="#AFE639"/>
</linearGradient>
<linearGradient id="paint4_linear_462_10008" x1="27.1191" y1="-21.7568" x2="1364.46" y2="-58.9195" gradientUnits="userSpaceOnUse">
<stop stop-color="#3BE8E8"/>
<stop offset="1" stop-color="#AFE639"/>
</linearGradient>
<linearGradient id="paint5_linear_462_10008" x1="21.3184" y1="-9.8623" x2="1357.81" y2="-70.3591" gradientUnits="userSpaceOnUse">
<stop stop-color="#3BE8E8"/>
<stop offset="1" stop-color="#AFE639"/>
</linearGradient>
</defs>
</svg>
