<svg 
  viewBox="0 0 1440 614" 
  fill="none" 
  xmlns="http://www.w3.org/2000/svg" 
  width="100%" 
  height="auto" 
  preserveAspectRatio="xMidYMid meet"
><path d="M-54.4563 499.08C170.514 548.544 708.401 581.815 1060.19 319.194C1411.98 56.5733 1786.84 132.274 1930.29 202.952" stroke="url(#paint0_linear_462_10001)"/>
<path d="M-51.5887 517.119C174.184 562.478 712.568 585.954 1059.92 316.981C1407.28 48.0078 1783.36 116.871 1927.98 184.924" stroke="url(#paint1_linear_462_10001)"/>
<path d="M-48.4171 535.102C178.089 576.343 716.806 590.015 1059.62 314.772C1402.44 39.5288 1779.63 101.534 1925.37 166.942" stroke="url(#paint2_linear_462_10001)"/>
<path d="M-44.9474 553.023C182.224 590.134 721.109 593.999 1059.28 312.569C1397.45 31.1395 1775.64 86.2678 1922.46 149.011" stroke="url(#paint3_linear_462_10001)"/>
<path d="M-41.1758 570.877C186.591 603.846 725.481 597.902 1058.9 310.372C1392.33 22.8422 1771.4 71.0767 1919.25 131.135" stroke="url(#paint4_linear_462_10001)"/>
<path d="M-37.1084 588.66C191.185 617.477 729.915 601.726 1058.49 308.183C1387.06 14.64 1766.9 55.966 1915.74 113.322" stroke="url(#paint5_linear_462_10001)"/>
<defs>
<linearGradient id="paint0_linear_462_10001" x1="-43.1582" y1="89.8438" x2="1942.66" y2="213.507" gradientUnits="userSpaceOnUse">
<stop stop-color="#3BE8E8"/>
<stop offset="1" stop-color="#AFE639"/>
</linearGradient>
<linearGradient id="paint1_linear_462_10001" x1="-47.1406" y1="107.756" x2="1940.4" y2="198.165" gradientUnits="userSpaceOnUse">
<stop stop-color="#3BE8E8"/>
<stop offset="1" stop-color="#AFE639"/>
</linearGradient>
<linearGradient id="paint2_linear_462_10001" x1="-50.8203" y1="125.736" x2="1937.92" y2="182.872" gradientUnits="userSpaceOnUse">
<stop stop-color="#3BE8E8"/>
<stop offset="1" stop-color="#AFE639"/>
</linearGradient>
<linearGradient id="paint3_linear_462_10001" x1="-54.2012" y1="143.78" x2="1935.24" y2="167.628" gradientUnits="userSpaceOnUse">
<stop stop-color="#3BE8E8"/>
<stop offset="1" stop-color="#AFE639"/>
</linearGradient>
<linearGradient id="paint4_linear_462_10001" x1="-57.2773" y1="161.882" x2="1932.36" y2="152.432" gradientUnits="userSpaceOnUse">
<stop stop-color="#3BE8E8"/>
<stop offset="1" stop-color="#AFE639"/>
</linearGradient>
<linearGradient id="paint5_linear_462_10001" x1="-60.0527" y1="180.036" x2="1929.26" y2="137.285" gradientUnits="userSpaceOnUse">
<stop stop-color="#3BE8E8"/>
<stop offset="1" stop-color="#AFE639"/>
</linearGradient>
</defs>
</svg>
