<svg 
  viewBox="0 0 1335 212" 
  fill="none" 
  xmlns="http://www.w3.org/2000/svg" 
  width="100%" 
  height="auto" 
  preserveAspectRatio="xMidYMid meet"
>
<path d="M1459.82 516.08C1455.49 269.413 1382.32 -143.92 1124.32 176.08C801.82 576.08 991.82 885.58 603.821 731.08C215.821 576.58 124.962 974.08 235.82 1097.58C346.679 1221.08 505.32 1240.58 711.32 1147.58C917.32 1054.58 1071.82 1238.58 776.32 1558.58C480.82 1878.58 111.82 2065.58 111.82 1985.08C111.82 1904.58 665.32 2002.08 800.82 2400.58C936.321 2799.08 1583.49 2689.75 1589.32 2628.08" stroke="url(#paint0_linear_462_9991)"/>
<path d="M1444.75 505.578C1436.11 259.024 1355.74 -152.969 1103.36 171.485C787.893 577.053 983.266 883.189 592.629 735.484C201.992 587.78 118.084 986.805 231.081 1108.35C344.078 1229.9 503.035 1246.63 707.381 1150.04C911.726 1053.46 1069.41 1234.74 779.544 1559.85C489.674 1884.96 123.993 2078.37 122.589 1997.88C121.184 1917.39 676.301 2005.22 818.735 2401.29C961.17 2797.37 1606.33 2676.76 1611.09 2615" stroke="url(#paint1_linear_462_9991)"/>
<path d="M1429.49 495.341C1416.55 248.976 1329 -161.552 1082.33 167.257C773.981 578.268 974.667 880.949 581.512 740.084C188.356 599.219 111.426 999.648 226.526 1119.2C341.627 1238.76 500.853 1252.71 703.482 1152.58C906.11 1052.45 1066.94 1230.94 782.786 1561.06C498.634 1891.18 136.384 2090.94 133.575 2010.49C130.766 1930.04 687.331 2008.16 836.656 2401.69C985.982 2795.22 1628.94 2663.37 1632.62 2601.53" stroke="url(#paint2_linear_462_9991)"/>
<path d="M1414.05 485.371C1396.82 239.269 1302.12 -169.669 1061.22 163.395C760.094 579.726 966.032 878.858 570.478 744.876C174.924 610.894 104.994 1012.6 222.163 1130.13C339.333 1247.66 498.778 1258.83 699.628 1155.18C900.479 1051.52 1064.4 1227.19 786.05 1562.21C507.702 1897.24 148.994 2103.3 144.781 2022.91C140.568 1942.52 698.412 2010.92 854.583 2401.78C1010.75 2792.64 1651.31 2649.59 1653.91 2587.7" stroke="url(#paint3_linear_462_9991)"/>
<path d="M1398.45 475.673C1376.92 229.909 1275.1 -177.313 1040.05 159.904C746.235 581.426 957.362 876.919 559.53 749.86C161.698 622.802 98.7891 1025.67 217.992 1141.14C337.195 1256.6 496.811 1264.99 695.822 1157.85C894.832 1050.7 1061.79 1223.48 789.333 1563.31C516.875 1903.15 161.818 2115.43 156.203 2035.13C150.588 1954.82 709.54 2013.47 872.509 2401.55C1035.48 2789.63 1673.44 2635.42 1674.96 2573.49" stroke="url(#paint4_linear_462_9991)"/>
<path d="M1382.67 466.247C1356.86 220.897 1247.95 -184.487 1018.82 156.782C732.408 583.368 948.659 875.13 548.67 755.035C148.682 634.939 92.8131 1038.85 214.013 1152.21C335.213 1265.58 494.951 1271.18 692.062 1160.58C889.172 1049.98 1059.12 1219.81 792.635 1564.35C526.15 1908.89 174.852 2127.34 167.836 2047.14C160.82 1966.95 720.711 2015.84 890.427 2401.01C1060.14 2786.19 1695.32 2620.86 1695.75 2558.92" stroke="url(#paint5_linear_462_9991)"/>
<path d="M1474.71 526.844C1474.69 280.139 1408.74 -134.409 1145.2 181.04C815.766 575.351 1000.34 888.12 615.091 726.872C229.847 565.624 132.065 961.477 240.751 1086.89C349.437 1212.31 507.714 1234.57 715.306 1145.18C922.897 1055.79 1074.16 1242.46 773.123 1557.26C472.083 1872.05 99.8757 2052.58 101.281 1972.09C102.686 1891.61 654.399 1998.75 782.924 2399.56C911.449 2800.36 1560.42 2702.34 1567.33 2640.78" stroke="url(#paint6_linear_462_9991)"/>
<defs>
<linearGradient id="paint0_linear_462_9991" x1="850.57" y1="59.3809" x2="850.57" y2="2689.9" gradientUnits="userSpaceOnUse">
<stop stop-color="#F10CFF"/>
<stop offset="0.171875" stop-color="#602ECA"/>
<stop offset="0.333333" stop-color="#D707FF"/>
<stop offset="0.494792" stop-color="#5C2CC0"/>
<stop offset="0.65625" stop-color="#FF11F7"/>
<stop offset="0.843027" stop-color="#5E2EC4"/>
<stop offset="1" stop-color="#F000FF"/>
</linearGradient>
<linearGradient id="paint1_linear_462_9991" x1="827.618" y1="59.5816" x2="873.527" y2="2689.7" gradientUnits="userSpaceOnUse">
<stop stop-color="#F10CFF"/>
<stop offset="0.171875" stop-color="#602ECA"/>
<stop offset="0.333333" stop-color="#D707FF"/>
<stop offset="0.494792" stop-color="#5C2CC0"/>
<stop offset="0.65625" stop-color="#FF11F7"/>
<stop offset="0.843027" stop-color="#5E2EC4"/>
<stop offset="1" stop-color="#F000FF"/>
</linearGradient>
<linearGradient id="paint2_linear_462_9991" x1="804.669" y1="60.1828" x2="896.473" y2="2689.1" gradientUnits="userSpaceOnUse">
<stop stop-color="#F10CFF"/>
<stop offset="0.171875" stop-color="#602ECA"/>
<stop offset="0.333333" stop-color="#D707FF"/>
<stop offset="0.494792" stop-color="#5C2CC0"/>
<stop offset="0.65625" stop-color="#FF11F7"/>
<stop offset="0.843027" stop-color="#5E2EC4"/>
<stop offset="1" stop-color="#F000FF"/>
</linearGradient>
<linearGradient id="paint3_linear_462_9991" x1="781.736" y1="61.1835" x2="919.406" y2="2688.1" gradientUnits="userSpaceOnUse">
<stop stop-color="#F10CFF"/>
<stop offset="0.171875" stop-color="#602ECA"/>
<stop offset="0.333333" stop-color="#D707FF"/>
<stop offset="0.494792" stop-color="#5C2CC0"/>
<stop offset="0.65625" stop-color="#FF11F7"/>
<stop offset="0.843027" stop-color="#5E2EC4"/>
<stop offset="1" stop-color="#F000FF"/>
</linearGradient>
<linearGradient id="paint4_linear_462_9991" x1="758.823" y1="62.5856" x2="942.319" y2="2686.7" gradientUnits="userSpaceOnUse">
<stop stop-color="#F10CFF"/>
<stop offset="0.171875" stop-color="#602ECA"/>
<stop offset="0.333333" stop-color="#D707FF"/>
<stop offset="0.494792" stop-color="#5C2CC0"/>
<stop offset="0.65625" stop-color="#FF11F7"/>
<stop offset="0.843027" stop-color="#5E2EC4"/>
<stop offset="1" stop-color="#F000FF"/>
</linearGradient>
<linearGradient id="paint5_linear_462_9991" x1="735.939" y1="64.3862" x2="965.204" y2="2684.9" gradientUnits="userSpaceOnUse">
<stop stop-color="#F10CFF"/>
<stop offset="0.171875" stop-color="#602ECA"/>
<stop offset="0.333333" stop-color="#D707FF"/>
<stop offset="0.494792" stop-color="#5C2CC0"/>
<stop offset="0.65625" stop-color="#FF11F7"/>
<stop offset="0.843027" stop-color="#5E2EC4"/>
<stop offset="1" stop-color="#F000FF"/>
</linearGradient>
<linearGradient id="paint6_linear_462_9991" x1="873.526" y1="59.5814" x2="827.617" y2="2689.7" gradientUnits="userSpaceOnUse">
<stop stop-color="#F10CFF"/>
<stop offset="0.171875" stop-color="#602ECA"/>
<stop offset="0.333333" stop-color="#D707FF"/>
<stop offset="0.494792" stop-color="#5C2CC0"/>
<stop offset="0.65625" stop-color="#FF11F7"/>
<stop offset="0.843027" stop-color="#5E2EC4"/>
<stop offset="1" stop-color="#F000FF"/>
</linearGradient>
</defs>
</svg>
