<svg 
  viewBox="0 0 1440 4008" 
  fill="none" 
  xmlns="http://www.w3.org/2000/svg"
  class="w-full h-auto"
  preserveAspectRatio="xMidYMid meet"
><g clip-path="url(#clip0_848_3545)">
<path d="M1573 1785.5C1568.67 1538.83 1495.5 1125.5 1237.5 1445.5C915 1845.5 1105 2155 717 2000.5C329.001 1846 238.142 2243.5 349 2367C459.858 2490.5 618.5 2510 824.5 2417C1030.5 2324 1185 2508 889.5 2828C594 3148 225 3335 225 3254.5C225 3174 778.5 3271.5 914 3670C1049.5 4068.5 1696.67 3959.17 1702.5 3897.5" stroke="url(#paint0_linear_848_3545)"/>
<path d="M1557.92 1775C1549.29 1528.44 1468.92 1116.45 1216.54 1440.9C901.071 1846.47 1096.44 2152.61 705.806 2004.9C315.169 1857.2 231.262 2256.22 344.259 2377.77C457.255 2499.32 616.213 2516.05 820.559 2419.46C1024.9 2322.88 1182.59 2504.16 892.722 2829.27C602.851 3154.38 237.171 3347.79 235.766 3267.3C234.361 3186.81 789.478 3274.64 931.913 3670.71C1074.35 4066.79 1719.51 3946.18 1724.26 3884.42" stroke="url(#paint1_linear_848_3545)"/>
<path d="M1542.67 1764.76C1529.73 1518.4 1442.18 1107.87 1195.5 1436.68C887.16 1847.69 1087.85 2150.37 694.69 2009.5C301.535 1868.64 224.604 2269.07 339.705 2388.62C454.806 2508.18 614.031 2522.13 816.66 2422C1019.29 2321.87 1180.12 2500.36 895.964 2830.48C611.812 3160.6 249.563 3360.36 246.754 3279.91C243.944 3199.46 800.509 3277.58 949.835 3671.11C1099.16 4064.64 1742.12 3932.79 1745.79 3870.95" stroke="url(#paint2_linear_848_3545)"/>
<path d="M1527.23 1754.79C1509.99 1508.69 1415.3 1099.75 1174.4 1432.82C873.273 1849.15 1079.21 2148.28 683.657 2014.3C288.103 1880.31 218.172 2282.02 335.342 2399.55C452.512 2517.08 611.957 2528.25 812.807 2424.6C1013.66 2320.94 1177.58 2496.61 899.228 2831.63C620.881 3166.66 262.173 3372.72 257.96 3292.33C253.747 3211.94 811.591 3280.34 967.761 3671.2C1123.93 4062.06 1764.49 3919.01 1767.09 3857.12" stroke="url(#paint3_linear_848_3545)"/>
<path d="M1511.63 1745.09C1490.1 1499.33 1388.28 1092.11 1153.23 1429.32C859.414 1850.85 1070.54 2146.34 672.709 2019.28C274.877 1892.22 211.968 2295.09 331.171 2410.56C450.374 2526.02 609.989 2534.41 809 2427.27C1008.01 2320.12 1174.97 2492.9 902.512 2832.73C630.054 3172.57 274.997 3384.85 269.382 3304.55C263.766 3224.24 822.719 3282.89 985.687 3670.97C1148.66 4059.05 1786.62 3904.84 1788.14 3842.91" stroke="url(#paint4_linear_848_3545)"/>
<path d="M1495.85 1735.67C1470.04 1490.32 1361.13 1084.93 1132 1426.2C845.586 1852.79 1061.84 2144.55 661.849 2024.45C261.86 1904.36 205.992 2308.27 327.192 2421.63C448.392 2535 608.13 2540.6 805.24 2430C1002.35 2319.4 1172.3 2489.23 905.814 2833.77C639.328 3178.31 288.03 3396.76 281.014 3316.56C273.998 3236.37 833.889 3285.26 1003.61 3670.43C1173.32 4055.61 1808.5 3890.28 1808.93 3828.34" stroke="url(#paint5_linear_848_3545)"/>
<path d="M1587.89 1796.26C1587.86 1549.56 1521.92 1135.01 1258.38 1450.46C928.945 1844.77 1113.51 2157.54 728.27 1996.29C343.026 1835.04 245.244 2230.9 353.93 2356.31C462.616 2481.73 620.893 2503.99 828.484 2414.6C1036.08 2325.21 1187.34 2511.88 886.302 2826.68C585.262 3141.47 213.054 3322 214.459 3241.51C215.864 3161.03 767.578 3268.17 896.103 3668.98C1024.63 4069.78 1673.6 3971.76 1680.51 3910.2" stroke="url(#paint6_linear_848_3545)"/>
<path d="M1542.5 839.5C1496.33 889.333 1354.7 903.7 1157.5 562.5C911 136 856 25 256 193.5C-224 328.3 117.333 -110 348 -346" stroke="url(#paint7_linear_848_3545)" stroke-width="1.5"/>
<path d="M1552.5 826.068C1507.21 876.699 1365.84 893.536 1162.72 555.829C908.814 133.696 851.885 23.6731 254.917 202.619C-222.657 345.776 110.975 -98.4148 337.488 -338.405" stroke="url(#paint8_linear_848_3545)" stroke-width="1.5"/>
<path d="M1562.26 812.463C1517.86 863.877 1376.81 883.178 1167.82 549.068C906.589 131.431 847.748 22.4179 253.994 211.755C-221.009 363.225 104.82 -86.7208 327.11 -330.627" stroke="url(#paint9_linear_848_3545)" stroke-width="1.5"/>
<path d="M1532.27 852.756C1485.24 901.776 1343.38 913.669 1152.16 569.079C913.144 138.342 860.09 26.399 257.24 184.402C-225.039 310.804 123.892 -121.472 358.642 -353.41" stroke="url(#paint10_linear_848_3545)" stroke-width="1.5"/>
<path d="M1521.81 865.831C1473.93 914.023 1331.89 923.438 1146.71 575.564C915.248 140.721 864.156 27.8689 258.641 175.327C-225.771 293.293 130.65 -132.828 369.413 -360.634" stroke="url(#paint11_linear_848_3545)" stroke-width="1.5"/>
<path d="M1511.13 878.722C1462.41 926.071 1320.22 933.005 1141.15 581.952C917.31 143.136 868.195 29.4093 260.198 166.277C-226.199 275.771 137.606 -144.064 380.308 -367.669" stroke="url(#paint12_linear_848_3545)" stroke-width="1.5"/>
<path d="M1500.22 891.424C1450.69 937.916 1308.4 942.367 1135.48 588.243C919.33 145.586 872.207 31.0203 261.914 157.256C-226.32 258.244 144.757 -155.178 391.324 -374.512" stroke="url(#paint13_linear_848_3545)" stroke-width="1.5"/>
<path d="M1546.38 832.523C1027.05 784.69 -11.6172 767.623 -11.6172 1082.02C-11.6172 1396.42 965.383 1578.02 1453.88 1629.52" stroke="url(#paint14_linear_848_3545)"/>
<path d="M1539.54 818.986C1019.45 780.224 -19.353 781.287 -13.8659 1095.64C-8.37891 1409.99 971.642 1574.51 1460.97 1617.48" stroke="url(#paint15_linear_848_3545)"/>
<path d="M1532.47 805.571C1011.78 775.891 -26.8493 795.084 -15.8769 1109.29C-4.90451 1423.5 977.838 1570.89 1467.84 1605.31" stroke="url(#paint16_linear_848_3545)"/>
<path d="M1525.16 792.281C1004.03 771.693 -34.104 809.01 -17.6496 1122.98C-1.19518 1436.95 983.97 1567.17 1474.5 1593.03" stroke="url(#paint17_linear_848_3545)"/>
<path d="M1517.62 779.121C996.212 767.631 -41.115 823.06 -19.1835 1136.69C2.7479 1450.33 990.036 1563.33 1480.94 1580.63" stroke="url(#paint18_linear_848_3545)"/>
<path d="M1509.85 766.095C988.323 763.707 -47.879 837.231 -20.4772 1150.43C6.92453 1463.64 996.034 1559.4 1487.16 1568.12" stroke="url(#paint19_linear_848_3545)"/>
<path d="M1501.85 753.205C980.366 759.919 -54.395 851.516 -21.5312 1164.19C11.3325 1476.87 1001.96 1555.35 1493.17 1555.51" stroke="url(#paint20_linear_848_3545)"/>
<path d="M1493.64 740.458C972.344 756.272 -60.6607 865.914 -22.3449 1177.97C15.9708 1490.03 1007.82 1551.21 1498.95 1542.79" stroke="url(#paint21_linear_848_3545)"/>
</g>
<defs>
<linearGradient id="paint0_linear_848_3545" x1="963.75" y1="1328.8" x2="963.75" y2="3959.32" gradientUnits="userSpaceOnUse">
<stop stop-color="#F10CFF"/>
<stop offset="0.171875" stop-color="#602ECA"/>
<stop offset="0.333333" stop-color="#D707FF"/>
<stop offset="0.494792" stop-color="#5C2CC0"/>
<stop offset="0.65625" stop-color="#FF11F7"/>
<stop offset="0.843027" stop-color="#5E2EC4"/>
<stop offset="1" stop-color="#F000FF"/>
</linearGradient>
<linearGradient id="paint1_linear_848_3545" x1="940.796" y1="1329" x2="986.705" y2="3959.12" gradientUnits="userSpaceOnUse">
<stop stop-color="#F10CFF"/>
<stop offset="0.171875" stop-color="#602ECA"/>
<stop offset="0.333333" stop-color="#D707FF"/>
<stop offset="0.494792" stop-color="#5C2CC0"/>
<stop offset="0.65625" stop-color="#FF11F7"/>
<stop offset="0.843027" stop-color="#5E2EC4"/>
<stop offset="1" stop-color="#F000FF"/>
</linearGradient>
<linearGradient id="paint2_linear_848_3545" x1="917.848" y1="1329.6" x2="1009.65" y2="3958.52" gradientUnits="userSpaceOnUse">
<stop stop-color="#F10CFF"/>
<stop offset="0.171875" stop-color="#602ECA"/>
<stop offset="0.333333" stop-color="#D707FF"/>
<stop offset="0.494792" stop-color="#5C2CC0"/>
<stop offset="0.65625" stop-color="#FF11F7"/>
<stop offset="0.843027" stop-color="#5E2EC4"/>
<stop offset="1" stop-color="#F000FF"/>
</linearGradient>
<linearGradient id="paint3_linear_848_3545" x1="894.914" y1="1330.6" x2="1032.59" y2="3957.52" gradientUnits="userSpaceOnUse">
<stop stop-color="#F10CFF"/>
<stop offset="0.171875" stop-color="#602ECA"/>
<stop offset="0.333333" stop-color="#D707FF"/>
<stop offset="0.494792" stop-color="#5C2CC0"/>
<stop offset="0.65625" stop-color="#FF11F7"/>
<stop offset="0.843027" stop-color="#5E2EC4"/>
<stop offset="1" stop-color="#F000FF"/>
</linearGradient>
<linearGradient id="paint4_linear_848_3545" x1="872.002" y1="1332.01" x2="1055.5" y2="3956.12" gradientUnits="userSpaceOnUse">
<stop stop-color="#F10CFF"/>
<stop offset="0.171875" stop-color="#602ECA"/>
<stop offset="0.333333" stop-color="#D707FF"/>
<stop offset="0.494792" stop-color="#5C2CC0"/>
<stop offset="0.65625" stop-color="#FF11F7"/>
<stop offset="0.843027" stop-color="#5E2EC4"/>
<stop offset="1" stop-color="#F000FF"/>
</linearGradient>
<linearGradient id="paint5_linear_848_3545" x1="849.117" y1="1333.81" x2="1078.38" y2="3954.32" gradientUnits="userSpaceOnUse">
<stop stop-color="#F10CFF"/>
<stop offset="0.171875" stop-color="#602ECA"/>
<stop offset="0.333333" stop-color="#D707FF"/>
<stop offset="0.494792" stop-color="#5C2CC0"/>
<stop offset="0.65625" stop-color="#FF11F7"/>
<stop offset="0.843027" stop-color="#5E2EC4"/>
<stop offset="1" stop-color="#F000FF"/>
</linearGradient>
<linearGradient id="paint6_linear_848_3545" x1="986.705" y1="1329" x2="940.796" y2="3959.12" gradientUnits="userSpaceOnUse">
<stop stop-color="#F10CFF"/>
<stop offset="0.171875" stop-color="#602ECA"/>
<stop offset="0.333333" stop-color="#D707FF"/>
<stop offset="0.494792" stop-color="#5C2CC0"/>
<stop offset="0.65625" stop-color="#FF11F7"/>
<stop offset="0.843027" stop-color="#5E2EC4"/>
<stop offset="1" stop-color="#F000FF"/>
</linearGradient>
<linearGradient id="paint7_linear_848_3545" x1="474.596" y1="-346" x2="474.596" y2="866.132" gradientUnits="userSpaceOnUse">
<stop offset="0.272156" stop-color="#CE3FDA"/>
<stop offset="0.475731" stop-color="#7137EC"/>
<stop offset="0.666667" stop-color="#CB3FDB"/>
<stop offset="1" stop-color="#7137EC"/>
</linearGradient>
<linearGradient id="paint8_linear_848_3545" x1="464.065" y1="-340.614" x2="485.22" y2="871.333" gradientUnits="userSpaceOnUse">
<stop offset="0.272156" stop-color="#CE3FDA"/>
<stop offset="0.475731" stop-color="#7137EC"/>
<stop offset="0.666667" stop-color="#CB3FDB"/>
<stop offset="1" stop-color="#7137EC"/>
</linearGradient>
<linearGradient id="paint9_linear_848_3545" x1="453.63" y1="-335.045" x2="495.932" y2="876.348" gradientUnits="userSpaceOnUse">
<stop offset="0.272156" stop-color="#CE3FDA"/>
<stop offset="0.475731" stop-color="#7137EC"/>
<stop offset="0.666667" stop-color="#CB3FDB"/>
<stop offset="1" stop-color="#7137EC"/>
</linearGradient>
<linearGradient id="paint10_linear_848_3545" x1="485.219" y1="-351.201" x2="464.065" y2="860.746" gradientUnits="userSpaceOnUse">
<stop offset="0.272156" stop-color="#CE3FDA"/>
<stop offset="0.475731" stop-color="#7137EC"/>
<stop offset="0.666667" stop-color="#CB3FDB"/>
<stop offset="1" stop-color="#7137EC"/>
</linearGradient>
<linearGradient id="paint11_linear_848_3545" x1="495.932" y1="-356.216" x2="453.63" y2="855.177" gradientUnits="userSpaceOnUse">
<stop offset="0.272156" stop-color="#CE3FDA"/>
<stop offset="0.475731" stop-color="#7137EC"/>
<stop offset="0.666667" stop-color="#CB3FDB"/>
<stop offset="1" stop-color="#7137EC"/>
</linearGradient>
<linearGradient id="paint12_linear_848_3545" x1="506.731" y1="-361.043" x2="443.293" y2="849.427" gradientUnits="userSpaceOnUse">
<stop offset="0.272156" stop-color="#CE3FDA"/>
<stop offset="0.475731" stop-color="#7137EC"/>
<stop offset="0.666667" stop-color="#CB3FDB"/>
<stop offset="1" stop-color="#7137EC"/>
</linearGradient>
<linearGradient id="paint13_linear_848_3545" x1="517.612" y1="-365.681" x2="433.058" y2="843.498" gradientUnits="userSpaceOnUse">
<stop offset="0.272156" stop-color="#CE3FDA"/>
<stop offset="0.475731" stop-color="#7137EC"/>
<stop offset="0.666667" stop-color="#CB3FDB"/>
<stop offset="1" stop-color="#7137EC"/>
</linearGradient>
<linearGradient id="paint14_linear_848_3545" x1="523.883" y1="539.366" x2="1315.38" y2="1770.37" gradientUnits="userSpaceOnUse">
<stop stop-color="#F10CFF"/>
<stop offset="0.427083" stop-color="#602ECA"/>
<stop offset="0.536458" stop-color="#5E2EC4"/>
<stop offset="1" stop-color="#F000FF"/>
</linearGradient>
<linearGradient id="paint15_linear_848_3545" x1="512.082" y1="543.719" x2="1324.95" y2="1760.72" gradientUnits="userSpaceOnUse">
<stop stop-color="#F10CFF"/>
<stop offset="0.427083" stop-color="#602ECA"/>
<stop offset="0.536458" stop-color="#5E2EC4"/>
<stop offset="1" stop-color="#F000FF"/>
</linearGradient>
<linearGradient id="paint16_linear_848_3545" x1="500.358" y1="548.277" x2="1334.34" y2="1750.9" gradientUnits="userSpaceOnUse">
<stop stop-color="#F10CFF"/>
<stop offset="0.427083" stop-color="#602ECA"/>
<stop offset="0.536458" stop-color="#5E2EC4"/>
<stop offset="1" stop-color="#F000FF"/>
</linearGradient>
<linearGradient id="paint17_linear_848_3545" x1="488.716" y1="553.04" x2="1343.56" y2="1740.93" gradientUnits="userSpaceOnUse">
<stop stop-color="#F10CFF"/>
<stop offset="0.427083" stop-color="#602ECA"/>
<stop offset="0.536458" stop-color="#5E2EC4"/>
<stop offset="1" stop-color="#F000FF"/>
</linearGradient>
<linearGradient id="paint18_linear_848_3545" x1="477.158" y1="558.005" x2="1352.6" y2="1730.79" gradientUnits="userSpaceOnUse">
<stop stop-color="#F10CFF"/>
<stop offset="0.427083" stop-color="#602ECA"/>
<stop offset="0.536458" stop-color="#5E2EC4"/>
<stop offset="1" stop-color="#F000FF"/>
</linearGradient>
<linearGradient id="paint19_linear_848_3545" x1="465.689" y1="563.17" x2="1361.47" y2="1720.5" gradientUnits="userSpaceOnUse">
<stop stop-color="#F10CFF"/>
<stop offset="0.427083" stop-color="#602ECA"/>
<stop offset="0.536458" stop-color="#5E2EC4"/>
<stop offset="1" stop-color="#F000FF"/>
</linearGradient>
<linearGradient id="paint20_linear_848_3545" x1="454.312" y1="568.535" x2="1370.15" y2="1710.06" gradientUnits="userSpaceOnUse">
<stop stop-color="#F10CFF"/>
<stop offset="0.427083" stop-color="#602ECA"/>
<stop offset="0.536458" stop-color="#5E2EC4"/>
<stop offset="1" stop-color="#F000FF"/>
</linearGradient>
<linearGradient id="paint21_linear_848_3545" x1="443.03" y1="574.098" x2="1378.65" y2="1699.46" gradientUnits="userSpaceOnUse">
<stop stop-color="#F10CFF"/>
<stop offset="0.427083" stop-color="#602ECA"/>
<stop offset="0.536458" stop-color="#5E2EC4"/>
<stop offset="1" stop-color="#F000FF"/>
</linearGradient>
<clipPath id="clip0_848_3545">
<rect width="1440" height="4008" fill="white"/>
</clipPath>
</defs>
</svg>
