<svg viewBox="0 0 1439 790" fill="none" xmlns="http://www.w3.org/2000/svg" preserveAspectRatio="xMidYMid slice">
<path d="M1590.38 118.523C1071.05 70.6898 32.3828 53.6231 32.3828 368.023C32.3828 682.423 1009.38 864.023 1497.88 915.523" stroke="url(#paint0_linear_462_2807)"/>
<path d="M1583.54 104.986C1063.45 66.224 24.647 67.2872 30.1341 381.639C35.6211 695.991 1015.64 860.513 1504.97 903.479" stroke="url(#paint1_linear_462_2807)"/>
<path d="M1576.47 91.571C1055.78 61.8913 17.1497 81.0839 28.1221 395.292C39.0945 709.501 1021.84 856.893 1511.84 891.314" stroke="url(#paint2_linear_462_2807)"/>
<path d="M1569.16 78.2812C1048.03 57.6932 9.89695 95.0095 26.3514 408.979C42.8058 722.948 1027.97 853.167 1518.5 879.03" stroke="url(#paint3_linear_462_2807)"/>
<path d="M1561.62 65.1214C1040.21 53.6314 2.88503 109.06 24.8165 422.694C46.7479 736.328 1034.04 849.334 1524.94 866.632" stroke="url(#paint4_linear_462_2807)"/>
<path d="M1553.85 52.095C1032.32 49.7065 -3.87998 123.231 23.5218 436.434C50.9236 749.638 1040.03 845.396 1531.16 854.124" stroke="url(#paint5_linear_462_2807)"/>
<path d="M1545.85 39.2054C1024.36 45.9192 -10.3959 137.516 22.4678 450.194C55.3316 762.872 1045.96 841.352 1537.17 841.508" stroke="url(#paint6_linear_462_2807)"/>
<path d="M1537.64 26.4579C1016.34 42.2719 -16.6607 151.914 21.6551 463.971C59.9708 776.027 1051.82 837.207 1542.95 828.79" stroke="url(#paint7_linear_462_2807)"/>
<defs>
<linearGradient id="paint0_linear_462_2807" x1="567.883" y1="-174.634" x2="1359.38" y2="1056.37" gradientUnits="userSpaceOnUse">
<stop stop-color="#F10CFF"/>
<stop offset="0.427083" stop-color="#602ECA"/>
<stop offset="0.536458" stop-color="#5E2EC4"/>
<stop offset="1" stop-color="#F000FF"/>
</linearGradient>
<linearGradient id="paint1_linear_462_2807" x1="556.082" y1="-170.281" x2="1368.95" y2="1046.72" gradientUnits="userSpaceOnUse">
<stop stop-color="#F10CFF"/>
<stop offset="0.427083" stop-color="#602ECA"/>
<stop offset="0.536458" stop-color="#5E2EC4"/>
<stop offset="1" stop-color="#F000FF"/>
</linearGradient>
<linearGradient id="paint2_linear_462_2807" x1="544.357" y1="-165.723" x2="1378.34" y2="1036.9" gradientUnits="userSpaceOnUse">
<stop stop-color="#F10CFF"/>
<stop offset="0.427083" stop-color="#602ECA"/>
<stop offset="0.536458" stop-color="#5E2EC4"/>
<stop offset="1" stop-color="#F000FF"/>
</linearGradient>
<linearGradient id="paint3_linear_462_2807" x1="532.717" y1="-160.96" x2="1387.56" y2="1026.93" gradientUnits="userSpaceOnUse">
<stop stop-color="#F10CFF"/>
<stop offset="0.427083" stop-color="#602ECA"/>
<stop offset="0.536458" stop-color="#5E2EC4"/>
<stop offset="1" stop-color="#F000FF"/>
</linearGradient>
<linearGradient id="paint4_linear_462_2807" x1="521.158" y1="-155.995" x2="1396.6" y2="1016.79" gradientUnits="userSpaceOnUse">
<stop stop-color="#F10CFF"/>
<stop offset="0.427083" stop-color="#602ECA"/>
<stop offset="0.536458" stop-color="#5E2EC4"/>
<stop offset="1" stop-color="#F000FF"/>
</linearGradient>
<linearGradient id="paint5_linear_462_2807" x1="509.688" y1="-150.83" x2="1405.47" y2="1006.5" gradientUnits="userSpaceOnUse">
<stop stop-color="#F10CFF"/>
<stop offset="0.427083" stop-color="#602ECA"/>
<stop offset="0.536458" stop-color="#5E2EC4"/>
<stop offset="1" stop-color="#F000FF"/>
</linearGradient>
<linearGradient id="paint6_linear_462_2807" x1="498.311" y1="-145.465" x2="1414.15" y2="996.057" gradientUnits="userSpaceOnUse">
<stop stop-color="#F10CFF"/>
<stop offset="0.427083" stop-color="#602ECA"/>
<stop offset="0.536458" stop-color="#5E2EC4"/>
<stop offset="1" stop-color="#F000FF"/>
</linearGradient>
<linearGradient id="paint7_linear_462_2807" x1="487.03" y1="-139.902" x2="1422.65" y2="985.462" gradientUnits="userSpaceOnUse">
<stop stop-color="#F10CFF"/>
<stop offset="0.427083" stop-color="#602ECA"/>
<stop offset="0.536458" stop-color="#5E2EC4"/>
<stop offset="1" stop-color="#F000FF"/>
</linearGradient>
</defs>
</svg>
