<svg viewBox="0 0 1439 922" fill="none" xmlns="http://www.w3.org/2000/svg" preserveAspectRatio="xMidYMid slice">
<path d="M1569.59 843.359C1523.42 893.193 1381.79 907.559 1184.59 566.359C938.089 139.859 883.089 28.8594 283.089 197.359C-196.911 332.159 144.423 -106.141 375.089 -342.141" stroke="url(#paint0_linear_462_2790)" stroke-width="1.5"/>
<path d="M1579.59 829.926C1534.3 880.558 1392.93 897.394 1189.81 559.688C935.904 137.555 878.975 27.5315 282.007 206.477C-195.567 349.634 138.065 -94.5564 364.578 -334.546" stroke="url(#paint1_linear_462_2790)" stroke-width="1.5"/>
<path d="M1589.35 816.322C1544.95 867.736 1403.9 887.037 1194.91 552.927C933.679 135.29 874.838 26.2768 281.084 215.614C-193.919 367.083 131.91 -82.8619 354.2 -326.768" stroke="url(#paint2_linear_462_2790)" stroke-width="1.5"/>
<path d="M1559.36 856.615C1512.33 905.635 1370.47 917.528 1179.25 572.938C940.234 142.201 887.18 30.2578 284.33 188.261C-197.949 314.663 150.981 -117.613 385.732 -349.551" stroke="url(#paint3_linear_462_2790)" stroke-width="1.5"/>
<path d="M1548.9 869.69C1501.02 917.881 1358.98 927.296 1173.8 579.422C942.338 144.579 891.246 31.7273 285.73 179.185C-198.682 297.151 157.74 -128.97 396.503 -356.776" stroke="url(#paint4_linear_462_2790)" stroke-width="1.5"/>
<path d="M1538.22 882.581C1489.51 929.93 1347.31 936.864 1168.24 585.811C944.401 146.995 895.285 33.2682 287.289 170.136C-199.108 279.63 164.696 -140.206 407.398 -363.81" stroke="url(#paint5_linear_462_2790)" stroke-width="1.5"/>
<path d="M1527.31 895.283C1477.78 941.774 1335.49 946.226 1162.57 592.101C946.421 149.445 899.298 34.8792 289.005 161.115C-199.229 262.103 171.847 -151.319 418.415 -370.653" stroke="url(#paint6_linear_462_2790)" stroke-width="1.5"/>
<defs>
<linearGradient id="paint0_linear_462_2790" x1="501.686" y1="-342.141" x2="501.686" y2="869.991" gradientUnits="userSpaceOnUse">
<stop offset="0.272156" stop-color="#CE3FDA"/>
<stop offset="0.475731" stop-color="#7137EC"/>
<stop offset="0.666667" stop-color="#CB3FDB"/>
<stop offset="1" stop-color="#7137EC"/>
</linearGradient>
<linearGradient id="paint1_linear_462_2790" x1="491.155" y1="-336.756" x2="512.309" y2="875.192" gradientUnits="userSpaceOnUse">
<stop offset="0.272156" stop-color="#CE3FDA"/>
<stop offset="0.475731" stop-color="#7137EC"/>
<stop offset="0.666667" stop-color="#CB3FDB"/>
<stop offset="1" stop-color="#7137EC"/>
</linearGradient>
<linearGradient id="paint2_linear_462_2790" x1="480.719" y1="-331.186" x2="523.022" y2="880.207" gradientUnits="userSpaceOnUse">
<stop offset="0.272156" stop-color="#CE3FDA"/>
<stop offset="0.475731" stop-color="#7137EC"/>
<stop offset="0.666667" stop-color="#CB3FDB"/>
<stop offset="1" stop-color="#7137EC"/>
</linearGradient>
<linearGradient id="paint3_linear_462_2790" x1="512.309" y1="-347.342" x2="491.154" y2="864.605" gradientUnits="userSpaceOnUse">
<stop offset="0.272156" stop-color="#CE3FDA"/>
<stop offset="0.475731" stop-color="#7137EC"/>
<stop offset="0.666667" stop-color="#CB3FDB"/>
<stop offset="1" stop-color="#7137EC"/>
</linearGradient>
<linearGradient id="paint4_linear_462_2790" x1="523.022" y1="-352.357" x2="480.719" y2="859.036" gradientUnits="userSpaceOnUse">
<stop offset="0.272156" stop-color="#CE3FDA"/>
<stop offset="0.475731" stop-color="#7137EC"/>
<stop offset="0.666667" stop-color="#CB3FDB"/>
<stop offset="1" stop-color="#7137EC"/>
</linearGradient>
<linearGradient id="paint5_linear_462_2790" x1="533.821" y1="-357.184" x2="470.383" y2="853.286" gradientUnits="userSpaceOnUse">
<stop offset="0.272156" stop-color="#CE3FDA"/>
<stop offset="0.475731" stop-color="#7137EC"/>
<stop offset="0.666667" stop-color="#CB3FDB"/>
<stop offset="1" stop-color="#7137EC"/>
</linearGradient>
<linearGradient id="paint6_linear_462_2790" x1="544.703" y1="-361.822" x2="460.149" y2="847.357" gradientUnits="userSpaceOnUse">
<stop offset="0.272156" stop-color="#CE3FDA"/>
<stop offset="0.475731" stop-color="#7137EC"/>
<stop offset="0.666667" stop-color="#CB3FDB"/>
<stop offset="1" stop-color="#7137EC"/>
</linearGradient>
</defs>
</svg>
