<svg width="1288" height="1075" viewBox="0 0 1288 1075" fill="none" xmlns="http://www.w3.org/2000/svg">
<path d="M1459.82 -1130.92C1455.49 -1377.59 1382.32 -1790.92 1124.32 -1470.92C801.82 -1070.92 991.82 -761.42 603.821 -915.92C215.821 -1070.42 124.962 -672.92 235.82 -549.42C346.679 -425.92 505.32 -406.42 711.32 -499.42C917.32 -592.42 1071.82 -408.42 776.32 -88.4204C480.82 231.58 111.82 418.58 111.82 338.08C111.82 257.58 665.32 355.08 800.82 753.58C936.321 1152.08 1583.49 1042.75 1589.32 981.08" stroke="url(#paint0_linear_462_86)"/>
<path d="M1444.75 -1141.42C1436.11 -1387.98 1355.74 -1799.97 1103.36 -1475.51C787.893 -1069.95 983.266 -763.811 592.629 -911.516C201.992 -1059.22 118.084 -660.195 231.081 -538.649C344.078 -417.102 503.035 -400.374 707.381 -496.955C911.726 -593.536 1069.41 -412.261 779.544 -87.1521C489.674 237.956 123.993 431.368 122.589 350.88C121.184 270.392 676.301 358.218 818.735 754.292C961.17 1150.37 1606.33 1029.76 1611.09 967.996" stroke="url(#paint1_linear_462_86)"/>
<path d="M1429.49 -1151.66C1416.55 -1398.02 1329 -1808.55 1082.33 -1479.74C773.981 -1068.73 974.667 -766.051 581.512 -906.916C188.356 -1047.78 111.426 -647.352 226.526 -527.796C341.627 -408.241 500.853 -394.289 703.482 -494.422C906.11 -594.554 1066.94 -416.058 782.786 -85.9404C498.634 244.177 136.384 443.941 133.575 363.491C130.766 283.04 687.331 361.163 836.656 754.692C985.982 1148.22 1628.94 1016.37 1632.62 954.535" stroke="url(#paint2_linear_462_86)"/>
<path d="M1414.05 -1161.63C1396.82 -1407.73 1302.12 -1816.67 1061.22 -1483.6C760.094 -1067.27 966.032 -768.142 570.478 -902.124C174.924 -1036.11 104.994 -634.396 222.163 -516.867C339.333 -399.338 498.778 -388.168 699.628 -491.821C900.479 -595.475 1064.4 -419.813 786.05 -84.7864C507.702 250.24 148.994 456.296 144.781 375.906C140.568 295.517 698.412 363.915 854.583 754.777C1010.75 1145.64 1651.31 1002.59 1653.91 940.699" stroke="url(#paint3_linear_462_86)"/>
<path d="M1398.45 -1171.33C1376.92 -1417.09 1275.1 -1824.31 1040.05 -1487.1C746.235 -1065.57 957.362 -770.081 559.53 -897.14C161.698 -1024.2 98.7891 -621.328 217.992 -505.862C337.195 -390.396 496.811 -382.01 695.822 -489.153C894.832 -596.296 1061.79 -423.522 789.333 -83.6882C516.875 256.145 161.818 468.43 156.203 388.126C150.588 307.822 709.54 366.474 872.509 754.552C1035.48 1142.63 1673.44 988.418 1674.96 926.495" stroke="url(#paint4_linear_462_86)"/>
<path d="M1382.67 -1180.75C1356.86 -1426.1 1247.95 -1831.49 1018.82 -1490.22C732.408 -1063.63 948.659 -771.87 548.67 -891.965C148.682 -1012.06 92.8131 -608.155 214.013 -494.787C335.213 -381.419 494.951 -375.819 692.062 -486.42C889.172 -597.02 1059.12 -427.186 792.635 -82.6487C526.15 261.888 174.852 480.337 167.836 400.143C160.82 319.95 720.711 368.838 890.427 754.012C1060.14 1139.19 1695.32 973.864 1695.75 911.924" stroke="url(#paint5_linear_462_86)"/>
<path d="M1474.71 -1120.16C1474.69 -1366.86 1408.74 -1781.41 1145.2 -1465.96C815.766 -1071.65 1000.34 -758.88 615.091 -920.128C229.847 -1081.38 132.065 -685.523 240.751 -560.107C349.437 -434.691 507.714 -412.425 715.306 -501.816C922.897 -591.206 1074.16 -404.538 773.123 -89.744C472.083 225.05 99.8757 405.582 101.281 325.094C102.686 244.606 654.399 351.751 782.924 752.555C911.449 1153.36 1560.42 1055.34 1567.33 993.782" stroke="url(#paint6_linear_462_86)"/>
<defs>
<linearGradient id="paint0_linear_462_86" x1="850.57" y1="-1587.62" x2="850.57" y2="1042.9" gradientUnits="userSpaceOnUse">
<stop stop-color="#F10CFF"/>
<stop offset="0.171875" stop-color="#602ECA"/>
<stop offset="0.333333" stop-color="#D707FF"/>
<stop offset="0.494792" stop-color="#5C2CC0"/>
<stop offset="0.65625" stop-color="#FF11F7"/>
<stop offset="0.843027" stop-color="#5E2EC4"/>
<stop offset="1" stop-color="#F000FF"/>
</linearGradient>
<linearGradient id="paint1_linear_462_86" x1="827.618" y1="-1587.42" x2="873.527" y2="1042.7" gradientUnits="userSpaceOnUse">
<stop stop-color="#F10CFF"/>
<stop offset="0.171875" stop-color="#602ECA"/>
<stop offset="0.333333" stop-color="#D707FF"/>
<stop offset="0.494792" stop-color="#5C2CC0"/>
<stop offset="0.65625" stop-color="#FF11F7"/>
<stop offset="0.843027" stop-color="#5E2EC4"/>
<stop offset="1" stop-color="#F000FF"/>
</linearGradient>
<linearGradient id="paint2_linear_462_86" x1="804.669" y1="-1586.82" x2="896.473" y2="1042.1" gradientUnits="userSpaceOnUse">
<stop stop-color="#F10CFF"/>
<stop offset="0.171875" stop-color="#602ECA"/>
<stop offset="0.333333" stop-color="#D707FF"/>
<stop offset="0.494792" stop-color="#5C2CC0"/>
<stop offset="0.65625" stop-color="#FF11F7"/>
<stop offset="0.843027" stop-color="#5E2EC4"/>
<stop offset="1" stop-color="#F000FF"/>
</linearGradient>
<linearGradient id="paint3_linear_462_86" x1="781.736" y1="-1585.82" x2="919.406" y2="1041.1" gradientUnits="userSpaceOnUse">
<stop stop-color="#F10CFF"/>
<stop offset="0.171875" stop-color="#602ECA"/>
<stop offset="0.333333" stop-color="#D707FF"/>
<stop offset="0.494792" stop-color="#5C2CC0"/>
<stop offset="0.65625" stop-color="#FF11F7"/>
<stop offset="0.843027" stop-color="#5E2EC4"/>
<stop offset="1" stop-color="#F000FF"/>
</linearGradient>
<linearGradient id="paint4_linear_462_86" x1="758.823" y1="-1584.41" x2="942.319" y2="1039.7" gradientUnits="userSpaceOnUse">
<stop stop-color="#F10CFF"/>
<stop offset="0.171875" stop-color="#602ECA"/>
<stop offset="0.333333" stop-color="#D707FF"/>
<stop offset="0.494792" stop-color="#5C2CC0"/>
<stop offset="0.65625" stop-color="#FF11F7"/>
<stop offset="0.843027" stop-color="#5E2EC4"/>
<stop offset="1" stop-color="#F000FF"/>
</linearGradient>
<linearGradient id="paint5_linear_462_86" x1="735.939" y1="-1582.61" x2="965.204" y2="1037.9" gradientUnits="userSpaceOnUse">
<stop stop-color="#F10CFF"/>
<stop offset="0.171875" stop-color="#602ECA"/>
<stop offset="0.333333" stop-color="#D707FF"/>
<stop offset="0.494792" stop-color="#5C2CC0"/>
<stop offset="0.65625" stop-color="#FF11F7"/>
<stop offset="0.843027" stop-color="#5E2EC4"/>
<stop offset="1" stop-color="#F000FF"/>
</linearGradient>
<linearGradient id="paint6_linear_462_86" x1="873.526" y1="-1587.42" x2="827.617" y2="1042.7" gradientUnits="userSpaceOnUse">
<stop stop-color="#F10CFF"/>
<stop offset="0.171875" stop-color="#602ECA"/>
<stop offset="0.333333" stop-color="#D707FF"/>
<stop offset="0.494792" stop-color="#5C2CC0"/>
<stop offset="0.65625" stop-color="#FF11F7"/>
<stop offset="0.843027" stop-color="#5E2EC4"/>
<stop offset="1" stop-color="#F000FF"/>
</linearGradient>
</defs>
</svg>
