<svg width="1440" height="3544" viewBox="0 0 1440 3544" fill="none" xmlns="http://www.w3.org/2000/svg">
<g clip-path="url(#clip0_845_2)">
<path d="M1619.38 199.523C1100.05 151.69 61.3828 134.623 61.3828 449.023C61.3828 763.423 1038.38 945.023 1526.88 996.523" stroke="url(#paint0_linear_845_2)"/>
<path d="M1612.54 185.987C1092.45 147.224 53.647 148.287 59.1341 462.64C64.6211 776.992 1044.64 941.513 1533.97 984.48" stroke="url(#paint1_linear_845_2)"/>
<path d="M1605.47 172.571C1084.78 142.892 46.1497 162.084 57.1221 476.293C68.0945 790.501 1050.84 937.894 1540.84 972.314" stroke="url(#paint2_linear_845_2)"/>
<path d="M1598.16 159.282C1077.03 138.694 38.8969 176.01 55.3514 489.979C71.8058 803.948 1056.97 934.167 1547.5 960.03" stroke="url(#paint3_linear_845_2)"/>
<path d="M1590.62 146.121C1069.21 134.631 31.885 190.06 53.8165 503.694C75.7479 817.328 1063.04 930.334 1553.94 947.632" stroke="url(#paint4_linear_845_2)"/>
<path d="M1582.85 133.095C1061.32 130.706 25.12 204.23 52.5218 517.434C79.9236 830.638 1069.03 926.395 1560.16 935.124" stroke="url(#paint5_linear_845_2)"/>
<path d="M1574.85 120.206C1053.36 126.92 18.6041 218.517 51.4678 531.194C84.3316 843.872 1074.96 922.353 1566.17 922.509" stroke="url(#paint6_linear_845_2)"/>
<path d="M1566.64 107.458C1045.34 123.272 12.3393 232.914 50.6551 544.971C88.9708 857.027 1080.82 918.208 1571.95 909.79" stroke="url(#paint7_linear_845_2)"/>
<path d="M1557.82 1272.08C1553.49 1025.41 1480.32 612.08 1222.32 932.08C899.82 1332.08 1089.82 1641.58 701.821 1487.08C313.821 1332.58 222.962 1730.08 333.82 1853.58C444.679 1977.08 603.32 1996.58 809.32 1903.58C1015.32 1810.58 1169.82 1994.58 874.32 2314.58C578.82 2634.58 209.82 2821.58 209.82 2741.08C209.82 2660.58 763.32 2758.08 898.82 3156.58C1034.32 3555.08 1681.49 3445.75 1687.32 3384.08" stroke="url(#paint8_linear_845_2)"/>
<path d="M1542.75 1261.58C1534.11 1015.02 1453.74 603.031 1201.36 927.485C885.893 1333.05 1081.27 1639.19 690.629 1491.48C299.992 1343.78 216.084 1742.8 329.081 1864.35C442.078 1985.9 601.035 2002.63 805.381 1906.04C1009.73 1809.46 1167.41 1990.74 877.544 2315.85C587.674 2640.96 221.993 2834.37 220.589 2753.88C219.184 2673.39 774.301 2761.22 916.735 3157.29C1059.17 3553.37 1704.33 3432.76 1709.09 3371" stroke="url(#paint9_linear_845_2)"/>
<path d="M1527.49 1251.34C1514.55 1004.98 1427 594.447 1180.33 923.257C871.981 1334.27 1072.67 1636.95 679.512 1496.08C286.356 1355.22 209.426 1755.65 324.526 1875.2C439.627 1994.76 598.853 2008.71 801.482 1908.58C1004.11 1808.45 1164.94 1986.94 880.786 2317.06C596.634 2647.18 234.384 2846.94 231.575 2766.49C228.766 2686.04 785.331 2764.16 934.656 3157.69C1083.98 3551.22 1726.94 3419.37 1730.62 3357.53" stroke="url(#paint10_linear_845_2)"/>
<path d="M1512.05 1241.37C1494.82 995.269 1400.12 586.332 1159.22 919.396C858.094 1335.73 1064.03 1634.86 668.478 1500.88C272.924 1366.89 202.994 1768.6 320.163 1886.13C437.333 2003.66 596.778 2014.83 797.628 1911.18C998.479 1807.53 1162.4 1983.19 884.05 2318.21C605.702 2653.24 246.994 2859.3 242.781 2778.91C238.568 2698.52 796.412 2766.92 952.583 3157.78C1108.75 3548.64 1749.31 3405.59 1751.91 3343.7" stroke="url(#paint11_linear_845_2)"/>
<path d="M1496.45 1231.67C1474.92 985.909 1373.1 578.686 1138.05 915.904C844.235 1337.43 1055.36 1632.92 657.53 1505.86C259.698 1378.8 196.789 1781.67 315.992 1897.14C435.195 2012.6 594.811 2020.99 793.822 1913.85C992.832 1806.7 1159.79 1979.48 887.333 2319.31C614.875 2659.14 259.818 2871.43 254.203 2791.13C248.588 2710.82 807.54 2769.47 970.509 3157.55C1133.48 3545.63 1771.44 3391.42 1772.96 3329.49" stroke="url(#paint12_linear_845_2)"/>
<path d="M1480.67 1222.25C1454.86 976.897 1345.95 571.514 1116.82 912.782C830.408 1339.37 1046.66 1631.13 646.67 1511.03C246.682 1390.94 190.813 1794.85 312.013 1908.21C433.213 2021.58 592.951 2027.18 790.062 1916.58C987.172 1805.98 1157.12 1975.81 890.635 2320.35C624.15 2664.89 272.852 2883.34 265.836 2803.14C258.82 2722.95 818.711 2771.84 988.427 3157.01C1158.14 3542.19 1793.32 3376.86 1793.75 3314.92" stroke="url(#paint13_linear_845_2)"/>
<path d="M1572.71 1282.84C1572.69 1036.14 1506.74 621.592 1243.2 937.04C913.766 1331.35 1098.34 1644.12 713.091 1482.87C327.847 1321.62 230.065 1717.48 338.751 1842.89C447.437 1968.31 605.714 1990.58 813.306 1901.18C1020.9 1811.79 1172.16 1998.46 871.123 2313.26C570.083 2628.05 197.876 2808.58 199.281 2728.09C200.686 2647.61 752.399 2754.75 880.924 3155.56C1009.45 3556.36 1658.42 3458.34 1665.33 3396.78" stroke="url(#paint14_linear_845_2)"/>
</g>
<defs>
<linearGradient id="paint0_linear_845_2" x1="596.883" y1="-93.6334" x2="1388.38" y2="1137.37" gradientUnits="userSpaceOnUse">
<stop stop-color="#F10CFF"/>
<stop offset="0.427083" stop-color="#602ECA"/>
<stop offset="0.536458" stop-color="#5E2EC4"/>
<stop offset="1" stop-color="#F000FF"/>
</linearGradient>
<linearGradient id="paint1_linear_845_2" x1="585.082" y1="-89.2805" x2="1397.95" y2="1127.72" gradientUnits="userSpaceOnUse">
<stop stop-color="#F10CFF"/>
<stop offset="0.427083" stop-color="#602ECA"/>
<stop offset="0.536458" stop-color="#5E2EC4"/>
<stop offset="1" stop-color="#F000FF"/>
</linearGradient>
<linearGradient id="paint2_linear_845_2" x1="573.357" y1="-84.7222" x2="1407.34" y2="1117.9" gradientUnits="userSpaceOnUse">
<stop stop-color="#F10CFF"/>
<stop offset="0.427083" stop-color="#602ECA"/>
<stop offset="0.536458" stop-color="#5E2EC4"/>
<stop offset="1" stop-color="#F000FF"/>
</linearGradient>
<linearGradient id="paint3_linear_845_2" x1="561.717" y1="-79.96" x2="1416.56" y2="1107.93" gradientUnits="userSpaceOnUse">
<stop stop-color="#F10CFF"/>
<stop offset="0.427083" stop-color="#602ECA"/>
<stop offset="0.536458" stop-color="#5E2EC4"/>
<stop offset="1" stop-color="#F000FF"/>
</linearGradient>
<linearGradient id="paint4_linear_845_2" x1="550.158" y1="-74.9953" x2="1425.6" y2="1097.79" gradientUnits="userSpaceOnUse">
<stop stop-color="#F10CFF"/>
<stop offset="0.427083" stop-color="#602ECA"/>
<stop offset="0.536458" stop-color="#5E2EC4"/>
<stop offset="1" stop-color="#F000FF"/>
</linearGradient>
<linearGradient id="paint5_linear_845_2" x1="538.688" y1="-69.8297" x2="1434.47" y2="1087.5" gradientUnits="userSpaceOnUse">
<stop stop-color="#F10CFF"/>
<stop offset="0.427083" stop-color="#602ECA"/>
<stop offset="0.536458" stop-color="#5E2EC4"/>
<stop offset="1" stop-color="#F000FF"/>
</linearGradient>
<linearGradient id="paint6_linear_845_2" x1="527.311" y1="-64.4648" x2="1443.15" y2="1077.06" gradientUnits="userSpaceOnUse">
<stop stop-color="#F10CFF"/>
<stop offset="0.427083" stop-color="#602ECA"/>
<stop offset="0.536458" stop-color="#5E2EC4"/>
<stop offset="1" stop-color="#F000FF"/>
</linearGradient>
<linearGradient id="paint7_linear_845_2" x1="516.03" y1="-58.9021" x2="1451.65" y2="1066.46" gradientUnits="userSpaceOnUse">
<stop stop-color="#F10CFF"/>
<stop offset="0.427083" stop-color="#602ECA"/>
<stop offset="0.536458" stop-color="#5E2EC4"/>
<stop offset="1" stop-color="#F000FF"/>
</linearGradient>
<linearGradient id="paint8_linear_845_2" x1="948.57" y1="815.381" x2="948.57" y2="3445.9" gradientUnits="userSpaceOnUse">
<stop stop-color="#F10CFF"/>
<stop offset="0.171875" stop-color="#602ECA"/>
<stop offset="0.333333" stop-color="#D707FF"/>
<stop offset="0.494792" stop-color="#5C2CC0"/>
<stop offset="0.65625" stop-color="#FF11F7"/>
<stop offset="0.843027" stop-color="#5E2EC4"/>
<stop offset="1" stop-color="#F000FF"/>
</linearGradient>
<linearGradient id="paint9_linear_845_2" x1="925.618" y1="815.582" x2="971.527" y2="3445.7" gradientUnits="userSpaceOnUse">
<stop stop-color="#F10CFF"/>
<stop offset="0.171875" stop-color="#602ECA"/>
<stop offset="0.333333" stop-color="#D707FF"/>
<stop offset="0.494792" stop-color="#5C2CC0"/>
<stop offset="0.65625" stop-color="#FF11F7"/>
<stop offset="0.843027" stop-color="#5E2EC4"/>
<stop offset="1" stop-color="#F000FF"/>
</linearGradient>
<linearGradient id="paint10_linear_845_2" x1="902.669" y1="816.183" x2="994.473" y2="3445.1" gradientUnits="userSpaceOnUse">
<stop stop-color="#F10CFF"/>
<stop offset="0.171875" stop-color="#602ECA"/>
<stop offset="0.333333" stop-color="#D707FF"/>
<stop offset="0.494792" stop-color="#5C2CC0"/>
<stop offset="0.65625" stop-color="#FF11F7"/>
<stop offset="0.843027" stop-color="#5E2EC4"/>
<stop offset="1" stop-color="#F000FF"/>
</linearGradient>
<linearGradient id="paint11_linear_845_2" x1="879.736" y1="817.184" x2="1017.41" y2="3444.1" gradientUnits="userSpaceOnUse">
<stop stop-color="#F10CFF"/>
<stop offset="0.171875" stop-color="#602ECA"/>
<stop offset="0.333333" stop-color="#D707FF"/>
<stop offset="0.494792" stop-color="#5C2CC0"/>
<stop offset="0.65625" stop-color="#FF11F7"/>
<stop offset="0.843027" stop-color="#5E2EC4"/>
<stop offset="1" stop-color="#F000FF"/>
</linearGradient>
<linearGradient id="paint12_linear_845_2" x1="856.823" y1="818.585" x2="1040.32" y2="3442.7" gradientUnits="userSpaceOnUse">
<stop stop-color="#F10CFF"/>
<stop offset="0.171875" stop-color="#602ECA"/>
<stop offset="0.333333" stop-color="#D707FF"/>
<stop offset="0.494792" stop-color="#5C2CC0"/>
<stop offset="0.65625" stop-color="#FF11F7"/>
<stop offset="0.843027" stop-color="#5E2EC4"/>
<stop offset="1" stop-color="#F000FF"/>
</linearGradient>
<linearGradient id="paint13_linear_845_2" x1="833.939" y1="820.386" x2="1063.2" y2="3440.9" gradientUnits="userSpaceOnUse">
<stop stop-color="#F10CFF"/>
<stop offset="0.171875" stop-color="#602ECA"/>
<stop offset="0.333333" stop-color="#D707FF"/>
<stop offset="0.494792" stop-color="#5C2CC0"/>
<stop offset="0.65625" stop-color="#FF11F7"/>
<stop offset="0.843027" stop-color="#5E2EC4"/>
<stop offset="1" stop-color="#F000FF"/>
</linearGradient>
<linearGradient id="paint14_linear_845_2" x1="971.526" y1="815.582" x2="925.617" y2="3445.7" gradientUnits="userSpaceOnUse">
<stop stop-color="#F10CFF"/>
<stop offset="0.171875" stop-color="#602ECA"/>
<stop offset="0.333333" stop-color="#D707FF"/>
<stop offset="0.494792" stop-color="#5C2CC0"/>
<stop offset="0.65625" stop-color="#FF11F7"/>
<stop offset="0.843027" stop-color="#5E2EC4"/>
<stop offset="1" stop-color="#F000FF"/>
</linearGradient>
<clipPath id="clip0_845_2">
<rect width="1440" height="3544" fill="white"/>
</clipPath>
</defs>
</svg>
