<svg width="1440" height="941" viewBox="0 0 1440 941" fill="none" xmlns="http://www.w3.org/2000/svg">
<path d="M6.37097 89.0983C365.871 42.1662 1086.87 167.1 1153.87 410.427C1220.87 653.755 998.37 884.051 572.87 974.102C147.37 1064.15 -19.1279 1434.27 -19.1289 1867.45C-19.1299 2300.63 563.371 2981.55 1513.37 3373.52" stroke="url(#paint0_linear_454_9053)" stroke-width="1.5"/>
<path d="M-12.6391 102.032C345.971 48.9514 1069.08 161.52 1140.4 403.663C1211.72 645.806 993.349 879.877 569.516 977.201C145.682 1074.52 -14.2069 1447.43 -6.50263 1880.55C1.20163 2313.66 595.726 2984.51 1552.55 3360.15" stroke="url(#paint1_linear_454_9053)" stroke-width="1.5"/>
<path d="M-31.4149 115.46C326.197 56.2469 1051.2 156.417 1126.81 397.301C1202.43 638.186 988.256 875.961 566.219 980.527C144.181 1085.09 -9.05101 1460.68 6.35614 1893.6C21.7633 2326.52 628.13 2987.08 1591.49 3346.28" stroke="url(#paint2_linear_454_9053)" stroke-width="1.5"/>
<path d="M-49.9484 129.38C306.555 64.052 1033.23 151.792 1113.12 391.345C1193.01 630.898 983.095 872.304 562.981 984.082C142.868 1095.86 -3.65982 1474.01 19.4455 1906.6C42.5509 2339.19 660.575 2989.27 1630.18 3331.92" stroke="url(#paint3_linear_454_9053)" stroke-width="1.5"/>
<path d="M-68.2321 143.785C287.055 72.3626 1015.18 147.646 1099.32 385.794C1183.45 623.943 977.869 868.907 559.807 987.861C141.746 1106.82 1.96719 1487.42 32.7637 1919.55C63.5602 2351.67 693.053 2991.07 1668.61 3317.07" stroke="url(#paint4_linear_454_9053)" stroke-width="1.5"/>
<path d="M-86.2523 158.673C267.711 81.177 997.064 143.98 1085.42 380.652C1173.78 617.324 972.587 865.771 556.706 991.866C140.824 1117.96 7.83631 1500.9 46.3146 1932.43C84.7929 2363.97 725.563 2992.49 1706.77 3301.73" stroke="url(#paint5_linear_454_9053)" stroke-width="1.5"/>
<path d="M-104.003 174.038C248.528 90.4931 978.887 140.798 1071.44 375.921C1164 611.043 967.253 862.898 553.677 996.094C140.102 1129.29 13.9461 1514.45 60.0945 1945.26C106.243 2376.07 758.096 2993.52 1744.65 3285.91" stroke="url(#paint6_linear_454_9053)" stroke-width="1.5"/>
<path d="M-121.479 189.877C229.512 100.308 960.655 138.099 1057.38 371.601C1154.1 605.103 961.867 860.288 550.724 1000.55C139.581 1140.8 20.2952 1528.07 74.0996 1958.02C127.904 2387.97 790.64 2994.17 1782.25 3269.62" stroke="url(#paint7_linear_454_9053)" stroke-width="1.5"/>
<defs>
<linearGradient id="paint0_linear_454_9053" x1="443.154" y1="79.3457" x2="443.154" y2="3373.52" gradientUnits="userSpaceOnUse">
<stop stop-color="#FFC601"/>
<stop offset="0.328125" stop-color="#FFAE01"/>
<stop offset="0.666667" stop-color="#FFE501"/>
<stop offset="1" stop-color="#FFAE01"/>
</linearGradient>
<linearGradient id="paint1_linear_454_9053" x1="423.904" y1="84.8018" x2="480.313" y2="3378.52" gradientUnits="userSpaceOnUse">
<stop stop-color="#FFC601"/>
<stop offset="0.328125" stop-color="#FFAE01"/>
<stop offset="0.666667" stop-color="#FFE501"/>
<stop offset="1" stop-color="#FFAE01"/>
</linearGradient>
<linearGradient id="paint2_linear_454_9053" x1="404.755" y1="90.7575" x2="517.559" y2="3383.08" gradientUnits="userSpaceOnUse">
<stop stop-color="#FFC601"/>
<stop offset="0.328125" stop-color="#FFAE01"/>
<stop offset="0.666667" stop-color="#FFE501"/>
<stop offset="1" stop-color="#FFAE01"/>
</linearGradient>
<linearGradient id="paint3_linear_454_9053" x1="385.716" y1="97.212" x2="554.889" y2="3387.21" gradientUnits="userSpaceOnUse">
<stop stop-color="#FFC601"/>
<stop offset="0.328125" stop-color="#FFAE01"/>
<stop offset="0.666667" stop-color="#FFE501"/>
<stop offset="1" stop-color="#FFAE01"/>
</linearGradient>
<linearGradient id="paint4_linear_454_9053" x1="366.794" y1="104.162" x2="592.295" y2="3390.91" gradientUnits="userSpaceOnUse">
<stop stop-color="#FFC601"/>
<stop offset="0.328125" stop-color="#FFAE01"/>
<stop offset="0.666667" stop-color="#FFE501"/>
<stop offset="1" stop-color="#FFAE01"/>
</linearGradient>
<linearGradient id="paint5_linear_454_9053" x1="348.002" y1="111.606" x2="629.779" y2="3394.18" gradientUnits="userSpaceOnUse">
<stop stop-color="#FFC601"/>
<stop offset="0.328125" stop-color="#FFAE01"/>
<stop offset="0.666667" stop-color="#FFE501"/>
<stop offset="1" stop-color="#FFAE01"/>
</linearGradient>
<linearGradient id="paint6_linear_454_9053" x1="329.348" y1="119.543" x2="667.333" y2="3397.01" gradientUnits="userSpaceOnUse">
<stop stop-color="#FFC601"/>
<stop offset="0.328125" stop-color="#FFAE01"/>
<stop offset="0.666667" stop-color="#FFE501"/>
<stop offset="1" stop-color="#FFAE01"/>
</linearGradient>
<linearGradient id="paint7_linear_454_9053" x1="310.837" y1="127.969" x2="704.951" y2="3399.41" gradientUnits="userSpaceOnUse">
<stop stop-color="#FFC601"/>
<stop offset="0.328125" stop-color="#FFAE01"/>
<stop offset="0.666667" stop-color="#FFE501"/>
<stop offset="1" stop-color="#FFAE01"/>
</linearGradient>
</defs>
</svg>
