<svg viewBox="0 0 521 496" fill="none" xmlns="http://www.w3.org/2000/svg" class="w-full h-auto">
<path opacity="0.3" d="M435.854 429.468C425.732 439.645 416.153 446.209 408.585 451.393C319.626 512.348 214.364 494.581 191.992 490.242C158.963 483.835 95.1004 471.448 48.9337 419.602C-20.9135 341.163 -10.0373 217.584 44.1419 136.007C54.0505 121.085 106.398 38.2667 212.794 24.9837C277.184 16.9467 352.242 33.1673 406.597 76.6428C520.691 167.931 512.57 352.342 435.854 429.468Z" fill="url(#paint0_radial_454_9083)"/>
<path d="M255.536 374.895C216.072 377.976 178.921 381.06 147.949 384.327C116.955 387.596 92.1961 391.044 77.5016 394.843C65.483 397.95 55.2975 400.397 46.9209 402.684C38.5415 404.971 32.0596 407.074 27.4593 409.466C22.8586 411.859 20.2795 414.469 19.4652 417.702C18.6437 420.965 19.558 425.086 22.5118 430.641C24.4018 434.17 27.8035 436.527 31.3477 438.626C40.358 443.891 49.8845 448.112 59.7574 451.213L59.7623 451.214C77.072 456.769 95.0796 459.431 113.098 461.34L116.702 461.712C136.877 463.751 156.726 466.739 176.988 467.74C218.629 469.798 260.793 466.749 300.676 453.882L302.573 453.263C313.171 449.752 323.558 445.564 334.078 441.644C344.582 437.73 355.191 434.094 366.154 431.726C386.095 427.417 406.837 427.382 427.188 426.468C447.258 425.567 466.98 423.813 485.445 416.349L486.322 415.99C488.744 414.983 491.24 413.676 493.19 411.975C495.135 410.279 496.496 408.23 496.757 405.72C497.165 401.804 496.925 398.25 494.858 395.539C492.801 392.84 488.777 390.782 481.132 390.247C464.612 389.09 430.307 384.11 391.608 380.047C352.853 375.977 309.617 372.816 275.045 375.261L275.012 375.263L274.978 375.263L255.536 374.895Z" fill="#020111" fill-opacity="0.8" stroke="url(#paint1_linear_454_9083)" stroke-width="1.5"/>
<path d="M58.4668 45.7109C60.5508 37.5973 71.5837 34.6079 77.8848 40.5088H77.8857C126.636 86.1208 163.998 152.36 189.178 207.23C201.765 234.66 211.303 259.237 217.694 276.955C220.89 285.814 223.298 292.958 224.907 297.887C225.712 300.351 226.317 302.261 226.721 303.555C226.875 304.051 226.999 304.456 227.095 304.768C175.027 296.917 137.558 280.419 110.859 259.216C84.0296 237.908 68.0501 211.83 59.0713 184.945C41.1064 131.154 51.1654 74.1333 58.4668 45.7109Z" fill="#020111" stroke="url(#paint2_linear_454_9083)"/>
<path opacity="0.5" d="M79.3184 96.7666C91.3045 129.781 133.574 234.285 207.928 295.335C207.923 295.334 207.913 295.332 207.897 295.322C188.29 283.213 112.119 222.882 79.3184 96.7666Z" fill="#020111" stroke="url(#paint3_linear_454_9083)"/>
<path d="M134.165 8.28516C136.537 1.49387 145.148 0.0886254 149.323 5.71973H149.324C182.267 50.0579 204.495 111.126 218.487 161.146C225.482 186.149 230.415 208.378 233.6 224.356C235.192 232.345 236.348 238.772 237.104 243.199C237.483 245.413 237.761 247.127 237.945 248.287C238.007 248.676 238.057 249.004 238.098 249.267C199.076 237.294 172.032 219.313 153.664 198.343C135.177 177.235 125.455 153.074 121.173 128.901C112.606 80.5377 125.824 32.1656 134.165 8.28516Z" fill="#020111" stroke="url(#paint4_linear_454_9083)"/>
<path opacity="0.5" d="M145.516 57.1709C148.677 72.4163 155.325 100.69 166.658 132.457C179.257 167.773 197.659 207.441 223.518 238.329C208.425 224.183 158.659 165.397 145.516 57.1709Z" fill="#020111" stroke="url(#paint5_linear_454_9083)"/>
<path d="M257.577 102.764C257.22 102.764 256.877 102.631 256.621 102.394C256.365 102.156 256.215 101.833 256.204 101.493C256.204 101.268 255.548 78.6207 262.434 55.1709C266.499 41.3329 272.355 29.9086 279.838 21.206C289.261 10.2496 301.282 3.63355 315.567 1.52209C328.114 -0.331105 339.271 2.50034 348.728 9.9413C361.707 20.1542 371.353 38.6721 377.419 64.9815C381.904 84.473 382.626 101.23 382.632 101.397C382.645 101.573 382.621 101.748 382.561 101.914C382.501 102.08 382.407 102.233 382.284 102.364C382.161 102.494 382.012 102.6 381.845 102.675C381.679 102.749 381.499 102.791 381.315 102.798C381.131 102.805 380.948 102.776 380.776 102.714C380.604 102.652 380.447 102.558 380.314 102.437C380.181 102.316 380.074 102.17 380.001 102.009C379.928 101.848 379.889 101.675 379.888 101.499C379.86 100.842 376.865 35.4713 346.982 11.9698C338.158 5.02814 327.731 2.38608 315.995 4.12189C291.229 7.77976 274.103 25.1942 265.089 55.8799C258.313 78.9478 258.947 101.192 258.955 101.413C258.966 101.761 258.832 102.099 258.583 102.352C258.333 102.606 257.988 102.754 257.624 102.765L257.577 102.764Z" fill="url(#paint6_linear_454_9083)"/>
<path d="M421.776 400.661H157.933C155.787 400.661 153.667 400.219 151.718 399.367C149.769 398.515 148.036 397.273 146.638 395.727C145.24 394.18 144.208 392.366 143.612 390.408C143.053 388.572 142.889 386.65 143.128 384.755L143.181 384.377L189.981 81.458L365.199 78.6924L421.776 400.661Z" fill="url(#paint7_linear_454_9083)" stroke="url(#paint8_linear_454_9083)"/>
<path d="M399.403 81.4316L466.445 388.796C466.757 390.227 466.731 391.707 466.369 393.128C466.007 394.549 465.317 395.876 464.348 397.014C463.379 398.151 462.155 399.07 460.765 399.701C459.374 400.333 457.852 400.661 456.31 400.661H422.791L366.223 78.7354L399.403 81.4316Z" fill="#0A0801" stroke="url(#paint9_linear_454_9083)"/>
<path d="M219.746 102.07C219.39 102.07 219.047 101.937 218.791 101.7C218.535 101.463 218.385 101.14 218.374 100.799C218.374 100.572 217.718 77.927 224.604 54.4693C228.67 40.6314 234.525 29.207 242.009 20.5045C251.433 9.54811 263.454 2.93044 277.737 0.820553C290.286 -1.03421 301.443 1.7988 310.897 9.2382C323.877 19.4511 333.522 37.969 339.589 64.2784C344.074 83.7699 344.797 100.528 344.804 100.694C344.818 101.042 344.687 101.381 344.439 101.636C344.192 101.892 343.848 102.043 343.484 102.056C343.12 102.07 342.765 101.944 342.498 101.708C342.23 101.472 342.072 101.144 342.058 100.796C342.031 100.139 339.036 34.7682 309.153 11.2667C300.326 4.3313 289.9 1.6908 278.16 3.42505C253.395 7.08448 236.268 24.4989 227.254 55.1831C220.478 78.2525 221.114 100.496 221.12 100.718C221.131 101.065 220.997 101.403 220.748 101.656C220.498 101.91 220.153 102.058 219.789 102.069L219.746 102.07Z" fill="url(#paint10_linear_454_9083)"/>
<path d="M349.098 379.837L436.821 219.392H418.849C415.533 219.392 413.712 215.713 415.814 213.267L509.309 104.478C513.362 99.7621 521.366 102.753 520.989 108.834L514.419 215.218C514.33 216.66 513.933 218.07 513.254 219.361C512.574 220.653 511.626 221.798 510.467 222.727C509.308 223.657 507.963 224.351 506.513 224.767C505.064 225.183 503.541 225.313 502.037 225.148L489.505 223.781L402.465 403.75C401.356 406.045 399.582 407.988 397.352 409.349C395.122 410.711 392.531 411.435 389.884 411.435H359.717L349.098 379.837Z" fill="url(#paint11_linear_454_9083)"/>
<path d="M393.904 399.229C394.713 400.744 395.944 402.012 397.456 402.896C398.726 403.639 400.154 404.084 401.627 404.209L400.908 405.448C399.945 407.106 398.533 408.491 396.816 409.456C395.1 410.421 393.142 410.931 391.146 410.932H359.211C354.927 410.931 350.737 409.75 347.143 407.532C343.549 405.314 340.706 402.154 338.952 398.436L277.207 267.493L311.644 245.349L393.904 399.229Z" fill="#020111" stroke="url(#paint12_linear_454_9083)"/>
<path d="M320.153 260.232C318.685 259.125 316.992 258.32 315.181 257.869C313.371 257.418 311.482 257.329 309.634 257.61C307.786 257.89 306.019 258.533 304.444 259.498C302.87 260.463 301.521 261.729 300.485 263.216L209.422 393.822C205.832 398.972 200.964 403.196 195.251 406.118C189.539 409.039 183.159 410.568 176.678 410.568H163.871L153.443 381.891C153.443 381.891 238.095 257.975 259.914 239.231C259.914 239.231 281.641 220.535 303.065 234.67C308.722 238.404 313.022 243.729 315.646 249.806L320.153 260.232Z" fill="url(#paint13_linear_454_9083)"/>
<path d="M54.4062 304.764C54.4062 304.764 69.6496 286.575 99.1857 283.746C99.1857 283.746 113.214 288.309 141.158 336.118C169.103 383.928 187.657 405.73 209.424 393.822L207.623 396.679C204.703 401.308 200.579 405.137 195.652 407.795C190.725 410.453 185.161 411.85 179.501 411.85H167.457C160.925 411.85 154.487 410.367 148.674 407.522C142.861 404.678 137.839 400.555 134.025 395.493C112.274 366.626 67.7682 309.247 54.4062 304.764Z" fill="url(#paint14_linear_454_9083)"/>
<path d="M510.442 142.526H510.338C510.218 142.514 510.102 142.479 509.996 142.423C509.89 142.368 509.797 142.292 509.722 142.202C509.647 142.112 509.591 142.008 509.558 141.897C509.525 141.786 509.516 141.67 509.53 141.556L510.147 136.362C510.16 136.248 510.197 136.137 510.256 136.036C510.314 135.936 510.393 135.847 510.487 135.775C510.581 135.703 510.689 135.65 510.805 135.618C510.921 135.586 511.043 135.577 511.162 135.59C511.282 135.602 511.398 135.638 511.504 135.694C511.609 135.749 511.702 135.824 511.777 135.914C511.853 136.004 511.908 136.108 511.942 136.218C511.975 136.329 511.985 136.445 511.972 136.559L511.355 141.754C511.329 141.968 511.222 142.165 511.054 142.307C510.885 142.449 510.667 142.528 510.442 142.526Z" fill="white"/>
<path d="M432.394 208.101C432.222 208.104 432.052 208.059 431.905 207.973C431.758 207.888 431.64 207.764 431.563 207.616C431.487 207.469 431.456 207.304 431.474 207.14C431.491 206.977 431.557 206.821 431.664 206.692L508.877 110.916C509.314 110.371 509.926 109.979 510.62 109.798C511.313 109.618 512.049 109.659 512.715 109.916C513.381 110.173 513.941 110.631 514.308 111.221C514.675 111.811 514.83 112.499 514.748 113.181L513.387 124.66C513.359 124.891 513.237 125.102 513.046 125.247C512.856 125.392 512.613 125.459 512.371 125.433C512.129 125.407 511.908 125.29 511.756 125.108C511.604 124.926 511.534 124.694 511.562 124.463L512.925 112.982C512.954 112.684 512.881 112.384 512.718 112.128C512.555 111.872 512.309 111.673 512.018 111.561C511.727 111.449 511.406 111.429 511.102 111.505C510.798 111.581 510.528 111.748 510.332 111.982L433.122 207.753C433.037 207.861 432.927 207.948 432.801 208.009C432.675 208.069 432.535 208.101 432.394 208.101Z" fill="white"/>
<path d="M257.245 308.498C257.078 308.499 256.913 308.457 256.769 308.376C256.625 308.294 256.508 308.177 256.429 308.036C256.351 307.895 256.314 307.736 256.324 307.576C256.333 307.417 256.389 307.263 256.484 307.132L296.413 250.629C297.112 249.639 298.074 248.843 299.2 248.323C300.326 247.802 301.576 247.576 302.824 247.666C304.071 247.756 305.271 248.16 306.303 248.836C307.334 249.513 308.159 250.438 308.694 251.517C308.746 251.621 308.775 251.734 308.781 251.849C308.787 251.964 308.769 252.078 308.729 252.187C308.688 252.295 308.626 252.395 308.545 252.48C308.464 252.565 308.366 252.634 308.257 252.684C308.148 252.733 308.03 252.761 307.91 252.767C307.79 252.772 307.669 252.755 307.556 252.716C307.442 252.678 307.338 252.618 307.249 252.541C307.159 252.464 307.087 252.37 307.035 252.266C306.639 251.466 306.027 250.781 305.263 250.28C304.499 249.778 303.61 249.479 302.685 249.412C301.761 249.345 300.835 249.513 300 249.899C299.166 250.284 298.453 250.874 297.935 251.608L258.006 308.104C257.923 308.224 257.81 308.324 257.677 308.392C257.544 308.461 257.396 308.497 257.245 308.498Z" fill="white"/>
<path d="M246.868 323.181C246.701 323.182 246.537 323.14 246.393 323.058C246.249 322.977 246.132 322.859 246.054 322.718C245.975 322.577 245.939 322.418 245.949 322.259C245.959 322.1 246.014 321.946 246.109 321.815L248.664 318.191C248.8 317.999 249.011 317.866 249.249 317.822C249.488 317.777 249.736 317.826 249.937 317.956C250.139 318.086 250.278 318.287 250.324 318.515C250.371 318.743 250.32 318.979 250.184 319.172L247.629 322.794C247.545 322.913 247.432 323.011 247.299 323.079C247.167 323.146 247.018 323.181 246.868 323.181Z" fill="white"/>
<path d="M50.377 122.712H50.3799L219.485 123.483C226.222 123.515 231.588 128.782 231.52 135.187L228.524 417.292C228.464 422.968 223.339 427.649 216.979 427.663L57.668 427.993C51.2551 428.007 46.0127 423.323 45.8633 417.624L38.4395 134.345V134.341L38.4336 134.057C38.424 132.637 38.6967 131.227 39.2373 129.901C39.814 128.488 40.6841 127.198 41.7979 126.11C42.9118 125.023 44.2462 124.161 45.7207 123.576C47.1952 122.992 48.7792 122.698 50.377 122.712Z" fill="#0A0801" stroke="url(#paint15_linear_454_9083)"/>
<path d="M68.3232 139.501L202.54 140.064C209.205 140.093 214.514 145.179 214.469 151.346L212.706 391.378C212.664 396.934 207.582 401.527 201.237 401.536L73.7256 401.73C67.3387 401.74 62.1483 397.141 62.0195 391.564L56.5029 150.71C56.3609 144.528 61.6166 139.474 68.3232 139.501Z" fill="#191501" stroke="url(#paint16_linear_454_9083)"/>
<path d="M118.011 128.644H118.012L152.98 128.799V128.8C153.488 128.804 153.969 129 154.319 129.337C154.625 129.63 154.809 130.01 154.852 130.41L154.854 130.597C154.855 130.824 154.81 131.051 154.719 131.263C154.628 131.475 154.493 131.669 154.321 131.834C154.149 131.999 153.943 132.13 153.715 132.22C153.487 132.31 153.241 132.355 152.993 132.354L118.073 132.198H118.074C117.564 132.193 117.08 131.998 116.725 131.66C116.37 131.323 116.173 130.871 116.166 130.404V130.402L116.172 130.232C116.186 130.063 116.227 129.896 116.294 129.736C116.383 129.524 116.517 129.33 116.688 129.165C116.858 129 117.063 128.868 117.291 128.778C117.519 128.688 117.763 128.642 118.011 128.644Z" fill="#0A0801" stroke="url(#paint17_linear_454_9083)"/>
<path d="M50.7637 139.689H69.9658C62.5729 154.738 55.1875 170.123 47.8027 183.976H20.0977C29.7426 170.038 39.3931 154.994 49.0264 140.479L49.0273 140.479C49.3742 139.96 50.0019 139.689 50.7637 139.689Z" fill="#020111" stroke="url(#paint18_linear_454_9083)"/>
<path d="M77.0619 184.819H48.1035L70.7679 139.294H92.1781L77.0619 184.819Z" fill="url(#paint19_linear_454_9083)"/>
<path d="M112.983 139.794L105.595 184.319H77.7529L92.5371 139.794H112.983Z" fill="#020111" stroke="url(#paint20_linear_454_9083)"/>
<path d="M134.978 184.819H106.02L113.574 139.297H134.978V184.819Z" fill="url(#paint21_linear_454_9083)"/>
<path d="M155.958 139.794L163.347 184.319H135.479V139.794H155.958Z" fill="#020111" stroke="url(#paint22_linear_454_9083)"/>
<path d="M192.894 184.819H163.936L156.381 139.294H177.786C182.822 154.469 187.858 169.644 192.894 184.819Z" fill="url(#paint23_linear_454_9083)"/>
<path d="M198.881 139.797C206.268 154.637 213.659 169.478 221.054 184.319H193.256C188.33 169.479 183.404 154.639 178.479 139.797H198.881Z" fill="#020111" stroke="url(#paint24_linear_454_9083)"/>
<path d="M221.344 140.202C220.877 139.499 220.065 139.189 219.191 139.189H199.189C206.743 154.555 214.297 170.324 221.852 184.475H250.811C240.988 170.324 231.166 155 221.344 140.202Z" fill="url(#paint25_linear_454_9083)"/>
<path d="M47.876 184.976V192.361C47.8758 198.552 41.8178 203.384 34.0039 203.384H33.6934C29.8043 203.384 26.1709 202.176 23.5205 200.188C20.872 198.2 19.2286 195.457 19.2285 192.361V184.976H47.876Z" fill="#020111" stroke="url(#paint26_linear_454_9083)"/>
<path d="M48.375 184.476V192.361C48.375 198.935 54.5395 203.884 62.3812 203.884H62.6862C70.5262 203.884 76.7514 198.93 76.7514 192.361V184.476H48.375Z" fill="url(#paint27_linear_454_9083)"/>
<path d="M105.476 184.976V192.361C105.475 198.563 99.6672 203.384 91.8662 203.384H91.5566C87.6678 203.384 84.0751 202.177 81.4658 200.19C78.8591 198.206 77.252 195.461 77.252 192.361V184.976H105.476Z" fill="#020111" stroke="url(#paint28_linear_454_9083)"/>
<path d="M105.977 184.476V192.361C105.977 198.935 112.403 203.884 120.24 203.884H120.545C128.387 203.884 134.773 198.93 134.773 192.361V184.476H105.977Z" fill="url(#paint29_linear_454_9083)"/>
<path d="M163.073 184.976V192.361C163.073 198.574 157.512 203.384 149.725 203.384H149.42C141.593 203.384 135.278 198.547 135.277 192.361V184.976H163.073Z" fill="#020111" stroke="url(#paint30_linear_454_9083)"/>
<path d="M163.578 184.476V192.361C163.578 198.935 170.267 203.884 178.107 203.884H178.416C186.257 203.884 192.804 198.93 192.804 192.361V184.476H163.578Z" fill="url(#paint31_linear_454_9083)"/>
<path d="M221.521 184.976V192.361C221.521 198.55 215.409 203.384 207.594 203.384H207.282C199.464 203.384 193.301 198.553 193.301 192.361V184.976H221.521Z" fill="#020111" stroke="url(#paint32_linear_454_9083)"/>
<path d="M222.027 184.476V192.361C222.027 198.935 228.133 203.884 235.973 203.884H236.278C244.12 203.884 250.405 198.93 250.405 192.361V184.476H222.027Z" fill="url(#paint33_linear_454_9083)"/>
<path d="M180.579 238.946C180.04 238.319 179.195 238.05 178.3 238.069L96.7272 239.702L94.6664 233.453C94.5235 233.03 94.2396 232.664 93.858 232.409C93.4764 232.155 93.0181 232.027 92.5531 232.045L81.3537 232.326C80.1519 232.356 79.1797 233.153 79.1797 234.297C79.1797 235.441 80.1519 236.192 81.3537 236.166L90.925 235.95L108.245 288.786C108.393 289.222 108.681 289.603 109.068 289.874C109.455 290.146 109.922 290.295 110.402 290.3L167.657 291.034C169.001 291.051 170.091 290.251 170.091 289.032C170.091 287.813 169.001 286.997 167.657 286.975L112.078 286.404L107.617 272.687L168.699 272.774C169.299 272.777 169.883 272.598 170.369 272.264C170.855 271.929 171.217 271.455 171.403 270.912L181.038 241.152C181.161 240.777 181.184 240.379 181.104 239.993C181.023 239.607 180.843 239.247 180.579 238.946Z" fill="url(#paint34_linear_454_9083)"/>
<path d="M118.775 293.559C114.065 293.488 110.25 296.99 110.25 301.361C110.25 305.733 114.062 309.386 118.775 309.5C123.515 309.619 127.393 306.121 127.393 301.701C127.393 297.281 123.515 293.629 118.775 293.559ZM118.775 305.252C116.574 305.202 114.788 303.498 114.788 301.452C114.788 299.406 116.574 297.772 118.775 297.811C120.977 297.85 122.786 299.555 122.786 301.612C122.786 303.668 120.984 305.301 118.775 305.252Z" fill="url(#paint35_linear_454_9083)"/>
<path d="M156.938 294.125C151.993 294.052 147.994 297.636 147.994 302.108C147.994 306.579 151.993 310.331 156.938 310.455C161.913 310.58 165.983 306.997 165.983 302.472C165.983 297.947 161.918 294.199 156.938 294.125ZM156.938 306.105C154.628 306.054 152.752 304.305 152.752 302.209C152.752 300.114 154.628 298.44 156.938 298.481C159.248 298.522 161.146 300.27 161.146 302.377C161.146 304.484 159.261 306.157 156.938 306.105Z" fill="url(#paint36_linear_454_9083)"/>
<path opacity="0.7" d="M187.635 329.318H84.2957C83.3903 329.318 82.6562 330.019 82.6562 330.884V359.234C82.6562 360.098 83.3903 360.799 84.2957 360.799H187.635C188.54 360.799 189.274 360.098 189.274 359.234V330.884C189.274 330.019 188.54 329.318 187.635 329.318Z" fill="#332C08"/>
<path opacity="0.7" d="M182.139 369.192H87.5946C86.6891 369.192 85.9551 369.893 85.9551 370.758V382.318C85.9551 383.183 86.6891 383.883 87.5946 383.883H182.139C183.045 383.883 183.779 383.183 183.779 382.318V370.758C183.779 369.893 183.045 369.192 182.139 369.192Z" fill="#332C08"/>
<path d="M331.136 177.438C331.136 177.438 325.188 180.202 324.092 183.367C323.215 185.915 316.637 186.241 315.986 191.25C315.651 193.837 313.646 195.909 310.948 196.302C304.228 197.287 293.872 200.614 292.216 211.752C290.952 220.255 295.491 223.478 300.256 224.594C303.754 225.413 306.089 228.663 305.372 232.035C304.693 235.269 305.705 239.009 311.582 241.966C324.736 248.594 337.873 226.268 337.873 226.268L340.566 187.283L331.136 177.438Z" fill="url(#paint37_linear_454_9083)"/>
<path d="M404.788 159.915C404.788 159.915 378.523 199.577 347.291 207.238C347.291 207.238 353.377 223.785 358.074 225.679C358.074 225.679 396.498 195.071 406.372 165.551L404.788 159.915Z" fill="url(#paint38_linear_454_9083)"/>
<path d="M279.139 413.59L278.289 420.271C278.211 420.887 277.919 421.46 277.459 421.898C276.999 422.336 276.398 422.613 275.752 422.685C273.509 422.93 269.909 423.181 266.386 422.825C266.024 422.785 265.675 422.668 265.365 422.484C265.055 422.3 264.792 422.052 264.594 421.759C264.396 421.466 264.269 421.135 264.221 420.79C264.173 420.444 264.205 420.093 264.316 419.761C265.175 417.181 266.746 413.309 269.01 411.031H276.763C277.101 411.031 277.436 411.099 277.745 411.232C278.054 411.364 278.33 411.558 278.554 411.8C278.779 412.041 278.947 412.326 279.048 412.635C279.149 412.943 279.18 413.269 279.139 413.59Z" fill="url(#paint39_linear_454_9083)"/>
<path d="M339.94 335.329L341.257 342.695C341.257 342.695 336.871 385.125 336.09 402.099C335.971 404.759 336.692 407.393 338.16 409.657L345.788 421.485L326.406 410.561L326.029 408.302L329.202 404.136L325.045 356.604C324.801 353.811 325.404 351.011 326.784 348.537L330.794 341.351L339.94 335.329Z" fill="url(#paint40_linear_454_9083)"/>
<path d="M347.049 423.199H340.861C340.29 423.2 339.727 423.076 339.214 422.836C338.702 422.595 338.254 422.246 337.905 421.814C335.976 419.421 331.979 414.752 330.067 414.628C327.495 414.463 327.824 423.196 327.824 423.196H326.383L324.556 412.345C324.332 411.013 324.553 409.649 325.186 408.444C325.82 407.239 326.834 406.255 328.086 405.631C328.086 405.631 328.675 409.783 331.863 411.621C335.05 413.458 344.847 420.034 344.847 420.034C345.684 419.94 346.531 419.962 347.361 420.098C349.307 420.429 349.034 423.199 347.049 423.199Z" fill="url(#paint41_linear_454_9083)"/>
<path d="M313.384 338.823C313.384 338.823 287.678 385.373 283.593 396.001C279.507 406.63 278.075 415.495 278.021 416.334C277.934 417.648 276.226 418.905 271.513 418.905C269.082 418.905 267.891 417.975 267.308 417.075C267.066 416.694 266.93 416.262 266.912 415.817C266.894 415.373 266.995 414.931 267.204 414.534C268.691 411.66 273.414 402.481 275.157 398.317C277.244 393.346 281.732 370.814 284.189 362.981C286.647 355.148 289.434 346.651 300.153 338.823C300.157 338.823 307.514 331.935 313.384 338.823Z" fill="url(#paint42_linear_454_9083)"/>
<path d="M329.621 262.548C336.25 235.724 319.459 220.554 319.459 220.554C330.057 210.84 349.38 206.421 349.38 206.421C349.38 206.421 367.806 219.282 365.62 229.35C364.338 235.25 352.667 264.69 352.667 264.69C352.667 264.69 341.86 269.567 329.621 262.548Z" fill="url(#paint43_linear_454_9083)"/>
<path d="M314.919 275.828C317.618 268.067 329.62 262.548 329.62 262.548C341.852 269.567 352.652 264.689 352.652 264.689C352.652 264.689 355.072 273.521 353.404 281.729C351.737 289.938 341.252 342.686 341.252 342.686C324.737 345.88 299.344 339.481 299.344 339.481C309.857 321.643 312.221 283.589 314.919 275.828Z" fill="url(#paint44_linear_454_9083)"/>
<path d="M337.317 188.694L331.926 211.812C331.41 213.849 333.354 213.515 335.501 213.127C339.033 212.491 343.593 211.183 345.098 208.558C345.245 208.286 345.339 207.991 345.375 207.687L347.69 191.658C347.78 191.039 347.657 190.408 347.338 189.862C347.02 189.316 346.523 188.884 345.924 188.631L341.455 186.739C341.052 186.57 340.615 186.487 340.175 186.497C339.735 186.506 339.303 186.608 338.908 186.794C338.514 186.981 338.167 187.247 337.892 187.575C337.617 187.904 337.421 188.285 337.317 188.694Z" fill="url(#paint45_linear_454_9083)"/>
<path d="M345.563 175.903C345.563 175.903 351.302 179.611 353.767 189.057C356.233 198.503 352.226 201.89 348.122 201.683C344.018 201.477 338.058 200.262 332.896 193.486C327.735 186.709 338.041 171.37 345.563 175.903Z" fill="url(#paint46_linear_454_9083)"/>
<path d="M338.1 189.677C338.1 189.677 335.996 176.141 347.767 178.211L350.144 180.577C350.144 180.577 355.904 174.383 349.528 169.701C343.153 165.019 334.306 166.217 329.412 174.742C324.517 183.266 322.739 189.256 326.843 194.552C330.947 199.848 334.032 195.307 334.032 195.307C334.032 195.307 332.15 190.722 333.712 188.755C335.274 186.788 337.287 189.899 337.287 189.899L338.1 189.677Z" fill="url(#paint47_linear_454_9083)"/>
<path d="M337.535 192.039C337.535 192.039 336.496 185.075 332.77 187.066C329.044 189.056 334.114 193.571 336.146 195.107L337.535 192.039Z" fill="url(#paint48_linear_454_9083)"/>
<path d="M404.608 168.081C404.688 168.9 401.501 169.464 400.486 165.977C400.765 164.462 401.262 157.831 402.477 156.802C408.954 151.315 420.505 145.143 420.505 145.143C421.796 147.025 420.102 148.265 420.102 148.265L414.336 151.98C414.937 153.883 415.816 155.562 415.915 157.729C415.974 159.383 415.363 160.994 414.21 162.229C413.062 163.487 411.517 165.104 410.127 166.325C407.49 168.652 404.608 168.081 404.608 168.081Z" fill="url(#paint49_linear_454_9083)"/>
<path d="M407.737 165.379L406.854 165.032C406.973 164.759 409.739 158.342 411.077 157.005C411.585 156.5 411.83 156.066 411.809 155.715C411.783 155.499 411.678 155.299 411.512 155.149L406.847 157.532L404.786 160.611L403.984 160.12L406.177 156.84L411.634 154.052L411.88 154.242C412.434 154.673 412.72 155.14 412.752 155.66C412.793 156.283 412.468 156.928 411.76 157.636C410.763 158.642 408.52 163.566 407.737 165.379Z" fill="#CE644E"/>
<path d="M383.9 272.777H383.906C384.166 272.77 384.425 272.813 384.667 272.902C384.909 272.992 385.129 273.126 385.314 273.298C385.5 273.469 385.646 273.675 385.746 273.9C385.846 274.126 385.898 274.369 385.898 274.613C385.898 274.858 385.846 275.1 385.746 275.326C385.646 275.552 385.5 275.757 385.314 275.929C385.129 276.1 384.909 276.235 384.667 276.325C384.425 276.415 384.166 276.458 383.906 276.45H383.9L335.739 276.498L335.729 276.499C335.7 276.5 335.671 276.5 335.642 276.499V276.497C335.133 276.477 334.654 276.266 334.309 275.914C333.963 275.562 333.778 275.096 333.79 274.617C333.803 274.139 334.012 273.682 334.375 273.347C334.739 273.011 335.229 272.823 335.738 272.827H335.739L383.9 272.777Z" fill="#191501" stroke="url(#paint50_linear_454_9083)" stroke-width="0.4"/>
<path d="M387.086 235.595H427.197C427.686 235.589 428.168 235.699 428.602 235.913C429.035 236.127 429.405 236.44 429.681 236.821C429.956 237.203 430.129 237.643 430.185 238.102C430.233 238.503 430.19 238.909 430.06 239.293L429.998 239.456L415.62 273.822C415.289 274.607 414.717 275.28 413.979 275.754C413.24 276.227 412.369 276.479 411.478 276.476H361.956L380.351 239.615C380.96 238.409 381.916 237.392 383.107 236.68C384.225 236.012 385.507 235.639 386.822 235.599L387.086 235.595Z" fill="#191501" stroke="url(#paint51_linear_454_9083)" stroke-width="0.4"/>
<path d="M399.129 254.45C399.558 253.207 400.271 252.194 401.067 251.558C401.864 250.92 402.721 250.677 403.462 250.909C404.202 251.143 404.74 251.825 404.984 252.79C405.228 253.754 405.17 254.973 404.741 256.216C404.312 257.459 403.599 258.472 402.803 259.108C402.005 259.746 401.149 259.989 400.408 259.756C399.667 259.522 399.13 258.841 398.886 257.876C398.642 256.912 398.7 255.693 399.129 254.45Z" fill="#191501" stroke="url(#paint52_linear_454_9083)" stroke-width="0.4"/>
<path d="M319.384 220.607C312.813 226.938 304.477 254.998 308.613 259.686C312.256 265.142 324.657 272.569 336.464 272.579H353.887C346.565 265.152 341.524 263.27 335.521 268.462C330.756 266.52 324.58 258.99 320.466 255.631C319.683 254.988 319.161 254.103 318.993 253.13C318.825 252.157 319.022 251.158 319.548 250.31C322.822 245.015 326.93 239.573 328.236 234.302C328.513 228.124 323.722 221.055 319.384 220.607Z" fill="url(#paint53_linear_454_9083)"/>
<path d="M346.29 195.017L351.248 192.853C351.414 193.159 351.513 193.494 351.539 193.837C351.565 194.18 351.518 194.525 351.399 194.851C351.281 195.176 351.094 195.475 350.85 195.73C350.607 195.985 350.311 196.191 349.981 196.334C349.306 196.61 348.545 196.627 347.857 196.382C347.168 196.136 346.607 195.647 346.29 195.017Z" fill="#9A4A4D"/>
<path d="M350.916 195.596C350.452 195.146 349.82 194.888 349.157 194.875C348.494 194.862 347.852 195.097 347.369 195.528C347.249 195.645 347.139 195.769 347.038 195.9C347.44 196.226 347.93 196.437 348.453 196.51C348.976 196.583 349.51 196.514 349.993 196.312C350.358 196.149 350.675 195.903 350.916 195.596Z" fill="#F28F8F"/>
<path d="M348.214 180.406L345.271 180.89C345.228 180.708 345.225 180.521 345.261 180.338C345.297 180.156 345.371 179.982 345.48 179.828C345.589 179.673 345.73 179.541 345.894 179.44C346.058 179.339 346.242 179.271 346.435 179.239C346.832 179.184 347.236 179.273 347.566 179.49C347.897 179.706 348.128 180.034 348.214 180.406Z" fill="#020111"/>
<path d="M339.123 183.339L337.24 185.543C337.084 185.433 336.952 185.294 336.853 185.134C336.755 184.975 336.691 184.798 336.666 184.614C336.642 184.43 336.656 184.244 336.71 184.066C336.763 183.888 336.854 183.722 336.976 183.578C337.234 183.285 337.6 183.098 338 183.053C338.399 183.009 338.801 183.111 339.123 183.339Z" fill="#020111"/>
<path d="M344.776 185.174L346.707 190.846L349.837 189.448L344.776 185.174Z" fill="#FA846F"/>
<path d="M347.67 183.824C347.797 184.141 348.05 184.398 348.375 184.538C348.7 184.679 349.07 184.692 349.405 184.575C349.569 184.522 349.719 184.437 349.847 184.328C349.976 184.218 350.08 184.086 350.154 183.937C350.228 183.789 350.27 183.628 350.278 183.465C350.286 183.301 350.259 183.137 350.2 182.983C350.068 182.668 349.814 182.413 349.49 182.272C349.166 182.13 348.797 182.112 348.46 182.222C348.295 182.275 348.143 182.359 348.014 182.469C347.884 182.579 347.779 182.713 347.705 182.863C347.632 183.012 347.59 183.175 347.584 183.34C347.578 183.505 347.607 183.669 347.67 183.824Z" fill="#020111"/>
<path d="M339.421 187.357C339.552 187.67 339.806 187.924 340.129 188.064C340.453 188.204 340.821 188.22 341.156 188.109C341.32 188.056 341.471 187.972 341.601 187.863C341.73 187.754 341.835 187.621 341.909 187.472C341.983 187.324 342.025 187.163 342.032 186.998C342.039 186.834 342.012 186.67 341.951 186.516C341.824 186.199 341.571 185.942 341.246 185.801C340.921 185.661 340.55 185.647 340.215 185.764C340.05 185.816 339.898 185.898 339.768 186.007C339.638 186.116 339.532 186.25 339.458 186.398C339.384 186.547 339.342 186.709 339.336 186.874C339.329 187.039 339.358 187.203 339.421 187.357Z" fill="#020111"/>
<defs>
<radialGradient id="paint0_radial_454_9083" cx="0" cy="0" r="1" gradientUnits="userSpaceOnUse" gradientTransform="translate(246.5 259.5) rotate(90) scale(236.5 246.5)">
<stop offset="0.567708" stop-color="#FDF53F"/>
<stop offset="1" stop-color="#FBE842" stop-opacity="0"/>
</radialGradient>
<linearGradient id="paint1_linear_454_9083" x1="256.174" y1="374.112" x2="260.832" y2="466.555" gradientUnits="userSpaceOnUse">
<stop stop-color="#FFE501"/>
<stop offset="1" stop-color="#FFA901"/>
</linearGradient>
<linearGradient id="paint2_linear_454_9083" x1="138.145" y1="36.918" x2="138.145" y2="305.381" gradientUnits="userSpaceOnUse">
<stop stop-color="#FFE501"/>
<stop offset="1" stop-color="#FFA901"/>
</linearGradient>
<linearGradient id="paint3_linear_454_9083" x1="143.287" y1="93.6572" x2="143.287" y2="295.836" gradientUnits="userSpaceOnUse">
<stop stop-color="#FFE501"/>
<stop offset="1" stop-color="#FFA901"/>
</linearGradient>
<linearGradient id="paint4_linear_454_9083" x1="178.304" y1="1.72461" x2="178.304" y2="249.98" gradientUnits="userSpaceOnUse">
<stop stop-color="#FFE501"/>
<stop offset="1" stop-color="#FFA901"/>
</linearGradient>
<linearGradient id="paint5_linear_454_9083" x1="184.648" y1="51.7871" x2="184.648" y2="239.74" gradientUnits="userSpaceOnUse">
<stop stop-color="#FFE501"/>
<stop offset="1" stop-color="#FFA901"/>
</linearGradient>
<linearGradient id="paint6_linear_454_9083" x1="319.412" y1="0.97168" x2="319.412" y2="102.799" gradientUnits="userSpaceOnUse">
<stop stop-color="#FFE501"/>
<stop offset="1" stop-color="#FFA901"/>
</linearGradient>
<linearGradient id="paint7_linear_454_9083" x1="282.446" y1="78.1865" x2="282.446" y2="401.161" gradientUnits="userSpaceOnUse">
<stop stop-color="#030212"/>
<stop offset="1" stop-color="#12111E"/>
</linearGradient>
<linearGradient id="paint8_linear_454_9083" x1="282.446" y1="78.1865" x2="282.446" y2="401.161" gradientUnits="userSpaceOnUse">
<stop stop-color="#FFE501"/>
<stop offset="1" stop-color="#FFA901"/>
</linearGradient>
<linearGradient id="paint9_linear_454_9083" x1="416.39" y1="78.1855" x2="416.39" y2="401.161" gradientUnits="userSpaceOnUse">
<stop stop-color="#FFE501"/>
<stop offset="1" stop-color="#FFA901"/>
</linearGradient>
<linearGradient id="paint10_linear_454_9083" x1="281.581" y1="0.269531" x2="281.581" y2="102.07" gradientUnits="userSpaceOnUse">
<stop stop-color="#FFE501"/>
<stop offset="1" stop-color="#FFA901"/>
</linearGradient>
<linearGradient id="paint11_linear_454_9083" x1="527.858" y1="125.017" x2="336.942" y2="448.874" gradientUnits="userSpaceOnUse">
<stop stop-color="#FDF53F"/>
<stop offset="1" stop-color="#EC9C52"/>
</linearGradient>
<linearGradient id="paint12_linear_454_9083" x1="339.522" y1="244.635" x2="339.522" y2="411.432" gradientUnits="userSpaceOnUse">
<stop stop-color="#FFE501"/>
<stop offset="1" stop-color="#FFA901"/>
</linearGradient>
<linearGradient id="paint13_linear_454_9083" x1="330.515" y1="318.16" x2="141.847" y2="321.948" gradientUnits="userSpaceOnUse">
<stop stop-color="#FDF53F"/>
<stop offset="1" stop-color="#F4C649"/>
</linearGradient>
<linearGradient id="paint14_linear_454_9083" x1="181.923" y1="415.249" x2="117.328" y2="321.768" gradientUnits="userSpaceOnUse">
<stop stop-color="#FDF53F"/>
<stop offset="0.28" stop-color="#F3C14A"/>
<stop offset="1" stop-color="#D93C65"/>
</linearGradient>
<linearGradient id="paint15_linear_454_9083" x1="134.977" y1="122.211" x2="134.977" y2="428.493" gradientUnits="userSpaceOnUse">
<stop stop-color="#FFE501"/>
<stop offset="1" stop-color="#FFA901"/>
</linearGradient>
<linearGradient id="paint16_linear_454_9083" x1="135.484" y1="139.001" x2="135.484" y2="402.23" gradientUnits="userSpaceOnUse">
<stop stop-color="#FFE501"/>
<stop offset="1" stop-color="#FFA901"/>
</linearGradient>
<linearGradient id="paint17_linear_454_9083" x1="135.514" y1="128.144" x2="135.514" y2="132.855" gradientUnits="userSpaceOnUse">
<stop stop-color="#FFE501"/>
<stop offset="1" stop-color="#FFA901"/>
</linearGradient>
<linearGradient id="paint18_linear_454_9083" x1="44.9559" y1="139.189" x2="44.9559" y2="184.475" gradientUnits="userSpaceOnUse">
<stop stop-color="#FFE501"/>
<stop offset="1" stop-color="#FFA901"/>
</linearGradient>
<linearGradient id="paint19_linear_454_9083" x1="70.176" y1="163.375" x2="71.5613" y2="216.534" gradientUnits="userSpaceOnUse">
<stop stop-color="#FDF53F"/>
<stop offset="1" stop-color="#D93C65"/>
</linearGradient>
<linearGradient id="paint20_linear_454_9083" x1="95.3171" y1="139.294" x2="95.3171" y2="184.819" gradientUnits="userSpaceOnUse">
<stop stop-color="#FFE501"/>
<stop offset="1" stop-color="#FFA901"/>
</linearGradient>
<linearGradient id="paint21_linear_454_9083" x1="120.537" y1="163.385" x2="121.936" y2="217.003" gradientUnits="userSpaceOnUse">
<stop stop-color="#FDF53F"/>
<stop offset="1" stop-color="#D93C65"/>
</linearGradient>
<linearGradient id="paint22_linear_454_9083" x1="149.458" y1="139.294" x2="149.458" y2="184.819" gradientUnits="userSpaceOnUse">
<stop stop-color="#FFE501"/>
<stop offset="1" stop-color="#FFA901"/>
</linearGradient>
<linearGradient id="paint23_linear_454_9083" x1="174.673" y1="163.296" x2="176.083" y2="217.374" gradientUnits="userSpaceOnUse">
<stop stop-color="#FDF53F"/>
<stop offset="1" stop-color="#D93C65"/>
</linearGradient>
<linearGradient id="paint24_linear_454_9083" x1="199.824" y1="139.297" x2="199.824" y2="184.819" gradientUnits="userSpaceOnUse">
<stop stop-color="#FFE501"/>
<stop offset="1" stop-color="#FFA901"/>
</linearGradient>
<linearGradient id="paint25_linear_454_9083" x1="225.036" y1="163.079" x2="226.451" y2="217.339" gradientUnits="userSpaceOnUse">
<stop stop-color="#FDF53F"/>
<stop offset="1" stop-color="#D93C65"/>
</linearGradient>
<linearGradient id="paint26_linear_454_9083" x1="33.552" y1="184.476" x2="33.552" y2="203.884" gradientUnits="userSpaceOnUse">
<stop stop-color="#FFE501"/>
<stop offset="1" stop-color="#FFA901"/>
</linearGradient>
<linearGradient id="paint27_linear_454_9083" x1="90.4526" y1="43.6734" x2="48.2255" y2="284.939" gradientUnits="userSpaceOnUse">
<stop stop-color="#FDF53F"/>
<stop offset="1" stop-color="#D93C65"/>
</linearGradient>
<linearGradient id="paint28_linear_454_9083" x1="91.364" y1="184.476" x2="91.364" y2="203.884" gradientUnits="userSpaceOnUse">
<stop stop-color="#FFE501"/>
<stop offset="1" stop-color="#FFA901"/>
</linearGradient>
<linearGradient id="paint29_linear_454_9083" x1="146.385" y1="53.4621" x2="104.156" y2="294.728" gradientUnits="userSpaceOnUse">
<stop stop-color="#FDF53F"/>
<stop offset="1" stop-color="#D93C65"/>
</linearGradient>
<linearGradient id="paint30_linear_454_9083" x1="149.175" y1="184.476" x2="149.175" y2="203.884" gradientUnits="userSpaceOnUse">
<stop stop-color="#FFE501"/>
<stop offset="1" stop-color="#FFA901"/>
</linearGradient>
<linearGradient id="paint31_linear_454_9083" x1="202.314" y1="63.2524" x2="160.087" y2="304.519" gradientUnits="userSpaceOnUse">
<stop stop-color="#FDF53F"/>
<stop offset="1" stop-color="#D93C65"/>
</linearGradient>
<linearGradient id="paint32_linear_454_9083" x1="207.411" y1="184.476" x2="207.411" y2="203.884" gradientUnits="userSpaceOnUse">
<stop stop-color="#FFE501"/>
<stop offset="1" stop-color="#FFA901"/>
</linearGradient>
<linearGradient id="paint33_linear_454_9083" x1="258.457" y1="73.0772" x2="216.228" y2="314.343" gradientUnits="userSpaceOnUse">
<stop stop-color="#FDF53F"/>
<stop offset="1" stop-color="#D93C65"/>
</linearGradient>
<linearGradient id="paint34_linear_454_9083" x1="130.165" y1="232.043" x2="130.165" y2="291.034" gradientUnits="userSpaceOnUse">
<stop stop-color="#FFE501"/>
<stop offset="1" stop-color="#FFA901"/>
</linearGradient>
<linearGradient id="paint35_linear_454_9083" x1="118.821" y1="293.558" x2="118.821" y2="309.503" gradientUnits="userSpaceOnUse">
<stop stop-color="#FFE501"/>
<stop offset="1" stop-color="#FFA901"/>
</linearGradient>
<linearGradient id="paint36_linear_454_9083" x1="156.988" y1="294.124" x2="156.988" y2="310.458" gradientUnits="userSpaceOnUse">
<stop stop-color="#FFE501"/>
<stop offset="1" stop-color="#FFA901"/>
</linearGradient>
<linearGradient id="paint37_linear_454_9083" x1="316.284" y1="177.438" x2="316.284" y2="243.196" gradientUnits="userSpaceOnUse">
<stop stop-color="#FFE501"/>
<stop offset="1" stop-color="#FFA901"/>
</linearGradient>
<linearGradient id="paint38_linear_454_9083" x1="376.832" y1="159.915" x2="376.832" y2="225.679" gradientUnits="userSpaceOnUse">
<stop stop-color="#FBA173"/>
<stop offset="1" stop-color="#FB866F"/>
</linearGradient>
<linearGradient id="paint39_linear_454_9083" x1="279.156" y1="417.015" x2="264.19" y2="417.015" gradientUnits="userSpaceOnUse">
<stop stop-color="#DCB503"/>
<stop offset="1" stop-color="#6C5102"/>
</linearGradient>
<linearGradient id="paint40_linear_454_9083" x1="335.39" y1="335.329" x2="335.39" y2="421.485" gradientUnits="userSpaceOnUse">
<stop stop-color="#FBA173"/>
<stop offset="1" stop-color="#FB866F"/>
</linearGradient>
<linearGradient id="paint41_linear_454_9083" x1="348.687" y1="414.413" x2="324.456" y2="414.413" gradientUnits="userSpaceOnUse">
<stop stop-color="#DCB503"/>
<stop offset="1" stop-color="#6C5102"/>
</linearGradient>
<linearGradient id="paint42_linear_454_9083" x1="290.147" y1="335.762" x2="290.147" y2="418.905" gradientUnits="userSpaceOnUse">
<stop stop-color="#FBA173"/>
<stop offset="1" stop-color="#FB866F"/>
</linearGradient>
<linearGradient id="paint43_linear_454_9083" x1="342.63" y1="206.421" x2="342.63" y2="266.339" gradientUnits="userSpaceOnUse">
<stop stop-color="#FFE501"/>
<stop offset="1" stop-color="#FFA901"/>
</linearGradient>
<linearGradient id="paint44_linear_454_9083" x1="326.667" y1="262.548" x2="326.667" y2="343.579" gradientUnits="userSpaceOnUse">
<stop stop-color="#FFE501"/>
<stop offset="1" stop-color="#FFA901"/>
</linearGradient>
<linearGradient id="paint45_linear_454_9083" x1="339.78" y1="186.496" x2="339.78" y2="213.419" gradientUnits="userSpaceOnUse">
<stop stop-color="#FBA173"/>
<stop offset="1" stop-color="#FB866F"/>
</linearGradient>
<linearGradient id="paint46_linear_454_9083" x1="343.132" y1="177.094" x2="343.024" y2="201.692" gradientUnits="userSpaceOnUse">
<stop stop-color="#FBA173"/>
<stop offset="1" stop-color="#FF866F"/>
</linearGradient>
<linearGradient id="paint47_linear_454_9083" x1="338.546" y1="166.99" x2="338.546" y2="197.119" gradientUnits="userSpaceOnUse">
<stop stop-color="#FFE501"/>
<stop offset="1" stop-color="#FFA901"/>
</linearGradient>
<linearGradient id="paint48_linear_454_9083" x1="337.525" y1="195.478" x2="321.528" y2="145.566" gradientUnits="userSpaceOnUse">
<stop stop-color="#FC9071"/>
<stop offset="1" stop-color="#F47960"/>
</linearGradient>
<linearGradient id="paint49_linear_454_9083" x1="410.738" y1="145.143" x2="410.738" y2="168.698" gradientUnits="userSpaceOnUse">
<stop stop-color="#FBA173"/>
<stop offset="1" stop-color="#FB866F"/>
</linearGradient>
<linearGradient id="paint50_linear_454_9083" x1="359.844" y1="272.576" x2="359.844" y2="276.7" gradientUnits="userSpaceOnUse">
<stop stop-color="#FFE501"/>
<stop offset="1" stop-color="#FFA901"/>
</linearGradient>
<linearGradient id="paint51_linear_454_9083" x1="396.018" y1="235.395" x2="396.018" y2="276.675" gradientUnits="userSpaceOnUse">
<stop stop-color="#FFE501"/>
<stop offset="1" stop-color="#FFA901"/>
</linearGradient>
<linearGradient id="paint52_linear_454_9083" x1="398.938" y1="254.39" x2="404.876" y2="256.44" gradientUnits="userSpaceOnUse">
<stop stop-color="#FFE501"/>
<stop offset="1" stop-color="#FFA901"/>
</linearGradient>
<linearGradient id="paint53_linear_454_9083" x1="330.698" y1="220.607" x2="330.698" y2="272.579" gradientUnits="userSpaceOnUse">
<stop stop-color="#FBA173"/>
<stop offset="1" stop-color="#FB866F"/>
</linearGradient>
</defs>
</svg>
