<svg
  viewBox="0 0 1760 3022"
  fill="none"
  xmlns="http://www.w3.org/2000/svg"
  preserveAspectRatio="xMidYMid meet"
  style="width: 100%; height: auto;"
>
  <defs>
    <linearGradient id="pinkBlueGradient" x1="0" y1="3022" x2="0" y2="0" gradientUnits="userSpaceOnUse">
      <stop offset="0%" stop-color="#ff66cc"/> <!-- bottom = pink -->
      <stop offset="100%" stop-color="#3399ff"/> 
    </linearGradient>
  </defs>

  <!-- Paths using the same vertical gradient -->
  <path d="M1612.72 68.6677C1601.22 381.334 1453.12 1026.37 952.718 1105.17C327.218 1203.67 31.2178 1423.17 859.718 1655.17C1688.22 1887.17 1276.72 2003.17 859.718 2136.17C442.718 2269.17 506.718 2466.67 518.218 2501.17C529.718 2535.67 802.218 2831.17 147.718 2952.67" stroke="url(#pinkBlueGradient)" stroke-width="2" />
  <path d="M1637.77 81.6713C1620.82 394.09 1461.48 1036.44 959.784 1106.49C332.66 1194.06 32.8741 1408.36 857.199 1654.79C1681.52 1901.21 1268.06 2010.01 848.804 2135.71C429.547 2261.42 490.09 2460 500.986 2494.7C511.882 2529.39 779.184 2829.61 122.663 2939.66" stroke="url(#pinkBlueGradient)" stroke-width="2" />
  <path d="M1662.6 95.1102C1640.19 407.185 1469.67 1046.66 966.825 1107.95C338.269 1184.56 34.7887 1393.59 854.687 1654.36C1674.59 1915.14 1259.29 2016.71 837.901 2135.07C416.513 2253.44 473.581 2453.05 483.87 2487.93C494.159 2522.81 756.18 2827.64 97.8389 2926.23" stroke="url(#pinkBlueGradient)" stroke-width="2" />
  <path d="M1687.18 108.98C1659.33 420.616 1477.68 1057.01 973.841 1109.52C344.043 1175.15 36.9606 1378.85 852.183 1653.9C1667.41 1928.94 1250.4 2023.24 827.01 2134.24C403.62 2245.23 457.196 2445.81 466.875 2480.86C476.554 2515.92 733.215 2825.28 73.253 2912.36" stroke="url(#pinkBlueGradient)" stroke-width="2" />
  <path d="M1711.52 123.277C1678.24 434.38 1485.51 1067.51 980.827 1111.21C349.98 1165.84 39.3895 1364.16 849.688 1653.39C1659.99 1942.61 1241.4 2029.63 816.135 2133.21C390.873 2236.8 440.94 2438.28 450.006 2473.5C459.071 2508.72 710.294 2822.51 48.9131 2898.06" stroke="url(#pinkBlueGradient)" stroke-width="2" />
  <path d="M1735.61 137.997C1696.9 448.471 1493.15 1078.14 987.783 1113.03C356.078 1156.64 42.074 1349.51 847.201 1652.83C1652.33 1956.16 1232.28 2035.85 805.279 2132C378.274 2228.15 424.818 2430.48 433.267 2465.85C441.716 2501.22 687.425 2819.34 24.8259 2883.34" stroke="url(#pinkBlueGradient)" stroke-width="2" />
  <path d="M1759.43 153.134C1715.32 462.886 1500.6 1088.91 994.706 1114.97C362.337 1147.55 45.0144 1334.9 844.725 1652.23C1644.44 1969.56 1223.07 2041.92 794.447 2130.6C365.829 2219.28 408.834 2422.39 416.665 2457.9C424.496 2493.42 664.615 2815.78 0.99987 2868.2" stroke="url(#pinkBlueGradient)" stroke-width="2" />
</svg>
