<svg width="754" height="653" viewBox="0 0 754 653" fill="none" xmlns="http://www.w3.org/2000/svg">
<g id="Hero Illlustration">
<g id="SEO Hero 1" clip-path="url(#clip0_450_6233)">
<g id="Layer 2">
<g id="Character">
<g id="rocket">
<g id="Back lite">
<g id="Glow and shine">
<g id="Shine" opacity="0.8">
<path id="Vector" opacity="0.7" d="M293.866 426.748C275.076 422.987 254.633 437.323 251.757 456.26C250.616 463.733 251.76 471.902 247.873 478.392C241.973 488.319 227.799 489.055 218.47 495.93C207.535 504 205.241 521.516 213.702 532.136C217.534 536.919 223.377 540.948 223.774 547.043C224.283 554.837 215.447 560.586 215.034 568.392C214.658 575.426 221.802 581.114 228.843 581.501C235.884 581.888 242.54 578.375 248.373 574.423C254.206 570.471 259.814 565.908 266.474 563.622C273.832 561.131 281.845 561.687 289.483 560.359C307.942 557.205 323.187 543.359 331.877 526.791C340.567 510.223 343.527 491.325 344.818 472.686" fill="url(#paint0_linear_450_6233)"/>
<g id="Shine_2">
<ellipse id="Hero Shine" cx="400.262" cy="374.124" rx="284.604" ry="129.79" transform="rotate(135.335 400.262 374.124)" fill="url(#paint1_radial_450_6233)" fill-opacity="0.5"/>
<ellipse id="Rocket Particles" cx="297.953" cy="542.974" rx="17.7843" ry="17.5233" transform="rotate(135.335 297.953 542.974)" fill="url(#paint2_radial_450_6233)" fill-opacity="0.56"/>
<ellipse id="Rocket Particles_2" cx="243.028" cy="582.392" rx="14.7841" ry="14.5671" transform="rotate(135.335 243.028 582.392)" fill="url(#paint3_radial_450_6233)" fill-opacity="0.56"/>
<ellipse id="Rocket Particles_3" cx="205.307" cy="541.99" rx="17.7843" ry="17.5233" transform="rotate(135.335 205.307 541.99)" fill="url(#paint4_radial_450_6233)" fill-opacity="0.56"/>
<ellipse id="Rocket Particles_4" cx="254.588" cy="492.708" rx="17.7843" ry="17.5233" transform="rotate(135.335 254.588 492.708)" fill="url(#paint5_radial_450_6233)" fill-opacity="0.56"/>
<ellipse id="Rocket Particles_5" cx="222.385" cy="508.996" rx="13.7985" ry="13.596" transform="rotate(135.335 222.385 508.996)" fill="url(#paint6_radial_450_6233)" fill-opacity="0.56"/>
<ellipse id="Rocket Particles_6" cx="259.516" cy="551.845" rx="17.7843" ry="17.5233" transform="rotate(135.335 259.516 551.845)" fill="url(#paint7_radial_450_6233)" fill-opacity="0.56"/>
<ellipse id="Rocket Particles_7" cx="201.825" cy="580.425" rx="16.7553" ry="16.5094" transform="rotate(135.335 201.825 580.425)" fill="url(#paint8_radial_450_6233)" fill-opacity="0.56"/>
</g>
</g>
</g>
<path id="Vector_2" d="M302.244 444.64C287.426 441.282 271.111 453.046 269.652 468.116C268.753 477.328 271.959 488.657 264.773 494.482C259.904 498.446 252.463 497.524 247.36 501.221C240.597 506.12 241.598 517.413 247.642 523.175C253.685 528.938 262.797 530.182 271.119 529.514C299.989 527.174 325.705 503.28 330.144 474.646" fill="url(#paint9_linear_450_6233)"/>
</g>
<g id="rocket ">
<g id="Group">
<path id="Vector_3" d="M551.364 323.266L527.36 312.94L536.801 290.855L563.071 307.442L552.039 322.623" fill="url(#paint10_linear_450_6233)"/>
<g id="Group_2">
<g id="Group_3">
<path id="Vector_4" d="M560.371 304.608L579.514 315.425C579.514 315.425 596.937 299.607 600.676 301.27L581.026 339.133L550.507 323.487L560.371 304.608Z" fill="url(#paint11_linear_450_6233)"/>
</g>
</g>
<path id="Vector_5" d="M464.136 287.723L542.456 325.95L555.181 297.741L472.123 244.765" fill="#263238"/>
<path id="Vector_6" d="M458.919 271.998C459.133 271.974 459.505 275.244 461.008 278.965C462.511 282.686 464.441 285.335 464.271 285.455C460.89 281.762 458.977 276.96 458.892 271.954L458.919 271.998Z" fill="#455A64"/>
<path id="Vector_7" d="M454.934 274.687C455.112 274.578 456.622 277.44 459.119 280.49C461.616 283.54 464.059 285.631 463.904 285.802C459.865 283.084 456.732 279.217 454.912 274.701L454.934 274.687Z" fill="#455A64"/>
</g>
<g id="Group_4">
<path id="Vector_8" d="M308.203 384.039L377.232 442.386L368.265 492.181C333.946 494.589 309.448 484.773 294.357 466.883C279.242 448.965 273.404 422.762 276.83 392.091L308.203 384.039Z" fill="#020111" stroke="url(#paint12_linear_450_6233)" stroke-width="2"/>
<g id="Group_5">
<path id="Vector_9" d="M465.451 217.205C477.453 205.175 493.629 198.232 510.618 197.818C527.606 197.404 544.102 203.551 556.676 214.983C563.447 221.14 568.864 228.638 572.586 236.999C576.307 245.361 578.251 254.404 578.294 263.557C578.337 272.709 576.477 281.77 572.835 290.166C569.192 298.562 563.845 306.11 557.132 312.331L392.207 465.189C360.945 475.845 332.387 462.899 316.127 441.562C301.296 422.094 296.909 395.715 307.85 375.201L465.451 217.205Z" fill="url(#paint13_linear_450_6233)" stroke="url(#paint14_linear_450_6233)" stroke-width="2"/>
</g>
<path id="Vector_10" d="M469.163 396.594C479.186 410.935 480.295 426.627 476.212 442.233C472.034 458.206 462.422 474.048 451.403 488.107C440.392 502.155 428.024 514.361 418.401 523.059C413.591 527.406 409.47 530.874 406.554 533.254C405.184 534.372 404.078 535.249 403.293 535.864L393.792 466.448L469.163 396.594Z" fill="#020111" stroke="url(#paint15_linear_450_6233)" stroke-width="2"/>
<path id="Vector_11" d="M236.97 345.303C265.34 312.91 301.416 301.492 330.574 298.209C345.309 296.55 358.262 296.97 367.528 297.805C372.16 298.222 375.869 298.744 378.416 299.159C379.241 299.294 379.944 299.42 380.517 299.525L306.795 373.428L236.97 345.303Z" fill="#020111" stroke="url(#paint16_linear_450_6233)" stroke-width="2"/>
<path id="Vector_12" d="M480.396 204.594C486.353 199.921 495.105 193.849 506.273 188.265C528.491 177.156 560.248 167.989 598.593 175.585C598.61 175.642 598.629 175.703 598.647 175.768C598.79 176.268 598.992 177.013 599.232 177.985C599.71 179.931 600.333 182.787 600.907 186.411C602.056 193.66 603.008 203.974 602.215 216.213C600.659 240.241 592.377 271.694 565.63 301.974C564.574 294.849 560.738 286.321 555.135 277.441C548.902 267.564 540.415 257.14 530.897 247.547C521.379 237.954 510.807 229.17 500.394 222.589C490.807 216.53 481.283 212.294 472.799 211.066C473.041 210.839 473.311 210.586 473.61 210.312C475.141 208.914 477.419 206.929 480.396 204.594Z" fill="#020111" stroke="url(#paint17_linear_450_6233)" stroke-width="2"/>
<path id="Vector_13" d="M341.73 461.899C341.913 461.924 340.914 468.738 339.484 477.114C338.054 485.49 336.757 492.241 336.541 492.237C336.324 492.232 337.367 485.392 338.787 477.022C340.206 468.653 341.546 461.798 341.73 461.899Z" fill="#455A64"/>
<path id="Vector_14" d="M394.224 358.277C395.655 356.944 397.52 356.173 399.475 356.106C401.428 356.039 403.34 356.679 404.859 357.909L404.86 357.91C405.757 358.642 406.485 359.561 406.993 360.602C407.501 361.642 407.779 362.781 407.805 363.939C407.831 365.097 407.607 366.248 407.146 367.31C406.743 368.241 406.168 369.085 405.452 369.799L405.138 370.097C392.489 381.398 366.662 404.458 343.687 424.869C332.199 435.075 321.425 444.618 313.369 451.697C309.341 455.237 305.994 458.159 303.578 460.239C302.369 461.28 301.397 462.107 300.69 462.695C300.337 462.989 300.053 463.219 299.842 463.385C299.736 463.468 299.653 463.532 299.591 463.578C299.549 463.608 299.525 463.623 299.516 463.63C299.471 463.655 299.365 463.7 299.087 463.602C298.789 463.496 298.399 463.257 297.928 462.857C296.991 462.06 295.953 460.814 294.965 459.456C293.985 458.11 293.092 456.707 292.442 455.636C292.175 455.197 291.951 454.816 291.779 454.519L394.223 358.277L394.224 358.277Z" fill="#020111" stroke="url(#paint18_linear_450_6233)" stroke-width="2"/>
</g>
<g id="Group_6">
<path id="Vector_15" d="M449.879 307.942C441.343 293.981 446.555 275.103 461.732 265.824C476.908 256.545 496.086 260.512 504.622 274.472C513.158 288.434 507.946 307.312 492.77 316.591C477.593 325.87 458.414 321.903 449.879 307.942Z" fill="#020111" stroke="url(#paint19_linear_450_6233)" stroke-width="2"/>
<path id="Vector_16" d="M505.476 273.946C505.368 273.809 505.277 273.66 505.204 273.502C505.013 273.191 504.692 272.792 504.314 272.276C504.137 271.987 503.947 271.676 503.669 271.373C503.392 271.07 503.098 270.715 502.8 270.379C502.502 270.042 502.12 269.62 501.757 269.201C501.393 268.783 500.905 268.41 500.452 267.97C499.427 267.037 498.34 266.172 497.2 265.383C495.811 264.463 494.354 263.652 492.84 262.955C489.141 261.276 485.154 260.32 481.095 260.14C476.172 259.886 471.254 260.732 466.699 262.616C465.449 263.113 464.232 263.691 463.056 264.346C462.479 264.7 461.85 264.994 461.302 265.421L459.563 266.595L458.653 267.153L457.836 267.838L456.172 269.209L454.618 270.758L453.844 271.538L453.129 272.389C449.046 277.125 446.406 282.931 445.521 289.121C444.531 295.778 445.917 302.571 449.436 308.308C452.954 314.045 458.381 318.36 464.763 320.495C470.63 322.505 476.948 322.805 482.979 321.359L484.061 321.107L485.108 320.771L487.189 320.105L489.166 319.244L490.157 318.819L491.056 318.268L492.904 317.272C493.493 316.911 494.081 316.551 494.628 316.123C495.749 315.38 496.82 314.564 497.835 313.683C501.581 310.481 504.574 306.492 506.6 302C508.284 298.303 509.246 294.317 509.433 290.259C509.513 288.596 509.456 286.93 509.264 285.276C509.086 283.899 508.812 282.537 508.443 281.198C508.267 280.588 508.123 280.004 507.948 279.47C507.773 278.936 507.545 278.465 507.371 278.007C507.197 277.548 507.028 277.148 506.89 276.774C506.753 276.401 506.482 276.108 506.371 275.779C506.038 275.235 505.85 274.755 505.682 274.43C505.575 274.293 505.484 274.144 505.409 273.986C505.515 274.125 505.606 274.274 505.682 274.43L506.478 275.729C506.655 276.017 506.852 276.339 507.064 276.683C507.275 277.027 507.402 277.484 507.567 277.902C507.731 278.32 507.958 278.838 508.173 279.363C508.388 279.888 508.521 280.478 508.707 281.082C509.109 282.44 509.413 283.826 509.616 285.228C509.827 286.9 509.901 288.586 509.837 290.27C509.69 294.384 508.749 298.431 507.066 302.187C505.037 306.762 502.018 310.83 498.228 314.099C497.206 315.008 496.123 315.846 494.986 316.607C494.397 316.967 493.839 317.401 493.24 317.769L491.365 318.796L490.444 319.361L489.452 319.786L487.442 320.668L485.317 321.361L484.248 321.71L483.147 321.958C476.955 323.481 470.456 323.189 464.425 321.115C457.888 318.946 452.328 314.537 448.728 308.666C445.127 302.795 443.717 295.84 444.747 289.03C445.66 282.729 448.37 276.824 452.554 272.024L453.284 271.149L454.08 270.355L455.657 268.792L457.354 267.4L458.193 266.702L459.115 266.137L460.869 264.939C461.468 264.571 462.102 264.259 462.704 263.921C463.897 263.252 465.135 262.666 466.409 262.167C471.045 260.28 476.044 259.447 481.042 259.73C485.155 259.946 489.189 260.952 492.923 262.691C494.447 263.408 495.911 264.247 497.301 265.198C498.457 266.016 499.551 266.917 500.574 267.895C501.027 268.335 501.489 268.739 501.875 269.144C502.26 269.549 502.573 269.984 502.891 270.353C503.21 270.723 503.503 271.078 503.738 271.361C503.973 271.645 504.154 272.038 504.331 272.327C504.664 272.871 504.93 273.303 505.12 273.614C505.249 273.713 505.368 273.824 505.476 273.946Z" fill="#263238"/>
</g>
</g>
</g>
<g id="Character ">
<g id="Group_7">
<path id="Vector_17" d="M529.547 385.932L508.194 370.865L521.994 351.206L544.264 372.874L530.335 385.449" fill="url(#paint20_linear_450_6233)"/>
<g id="Group_8">
<g id="Group_9">
<path id="Vector_18" d="M542.194 369.499L558.674 384.043C558.674 384.043 578.998 372.158 582.304 374.56L555.258 407.535L528.7 385.946L542.194 369.499Z" fill="url(#paint21_linear_450_6233)"/>
</g>
</g>
<path id="Vector_19" d="M388.536 278.573L467.955 293.164L537.908 361.82L520.177 386.019L451.844 332.749L451.729 332.66L451.583 332.645L451.573 332.755C451.582 332.659 451.583 332.647 451.583 332.646C451.582 332.646 451.581 332.645 451.58 332.645C451.578 332.645 451.575 332.645 451.57 332.644C451.561 332.643 451.547 332.643 451.529 332.641C451.493 332.637 451.44 332.633 451.369 332.626C451.227 332.612 451.016 332.592 450.741 332.566C450.191 332.514 449.381 332.438 448.346 332.34C446.274 332.145 443.296 331.866 439.675 331.528C432.432 330.851 422.614 329.94 412.308 329.003C391.702 327.129 369.132 325.148 361.331 324.724C357.683 324.526 354.665 321.902 352.176 317.875C349.695 313.859 347.812 308.557 346.405 303.245C345 297.94 344.079 292.656 343.509 288.697C343.224 286.718 343.027 285.071 342.901 283.92C342.84 283.361 342.795 282.919 342.766 282.612L388.536 278.573Z" fill="url(#paint22_linear_450_6233)" stroke="#020111"/>
</g>
<path id="Vector_20" d="M368.639 280.158L402.839 265.323L421.487 259.521L404.261 280.991L368.639 280.158Z" fill="#263238"/>
<g id="Group_10">
<path id="Vector_21" d="M433.031 263.749C433.031 263.749 439.001 263.164 441.566 262.948C442.387 262.869 443.132 262.459 443.985 262.396C447.596 261.871 451.084 260.71 454.29 258.968C456.399 257.34 457.451 260.353 455.287 262.462C454.227 263.582 452.979 264.508 451.6 265.198L459.368 268.224C459.772 268.382 460.099 268.691 460.278 269.085L465.277 279.526C465.513 279.945 465.586 280.436 465.481 280.905C465.375 281.374 465.1 281.787 464.707 282.064C464.522 282.223 464.284 282.306 464.04 282.296C463.797 282.286 463.566 282.185 463.394 282.011L464.027 283.423C464.27 283.9 464.314 284.455 464.149 284.965C463.983 285.474 463.622 285.897 463.145 286.141C462.667 286.384 462.113 286.428 461.603 286.263C461.093 286.097 460.67 285.736 460.427 285.259C460.427 285.259 460.427 285.259 460.4 285.172L458.614 287.094C458.614 287.094 457.655 289.045 455.453 287.456C453.674 286.13 447.655 280.537 447.655 280.537C447.655 280.537 429.104 278.756 428.481 275.936L433.031 263.749Z" fill="url(#paint23_linear_450_6233)"/>
<path id="Vector_22" d="M460.424 285.247C459.935 284.446 459.512 283.606 459.161 282.736C458.395 281.202 457.224 279.072 456.123 276.688C455.499 275.52 454.856 274.425 454.275 273.529C453.975 273.151 453.551 272.893 453.078 272.798L451.706 272.423C450.781 272.238 449.882 271.942 449.029 271.541C449.972 271.566 450.908 271.704 451.818 271.951C452.26 272.058 452.724 272.145 453.204 272.24C453.806 272.344 454.353 272.656 454.748 273.121C455.464 274.166 456.121 275.249 456.718 276.366C457.831 278.746 458.928 280.899 459.589 282.534C460.014 283.386 460.296 284.303 460.424 285.247Z" fill="#84422E"/>
<path id="Vector_23" d="M463.391 281.999C463.142 282.076 461.504 278.278 459.005 273.822C458.542 272.772 457.853 271.837 456.988 271.083C456.152 270.594 455.281 270.169 454.381 269.811C453.782 269.56 453.163 269.362 452.531 269.217C452.096 269.135 451.84 269.147 451.825 269.097C451.809 269.047 452.098 269.011 452.56 268.962C453.24 269.003 453.911 269.137 454.554 269.362C455.508 269.668 456.432 270.064 457.311 270.545C458.299 271.327 459.082 272.336 459.596 273.487C460.671 275.401 461.631 277.379 462.471 279.408C462.873 280.235 463.181 281.104 463.391 281.999Z" fill="#84422E"/>
<path id="Vector_24" d="M446.758 275.839C447.591 275.834 448.42 275.947 449.222 276.173L450.449 276.43C450.958 276.501 451.449 276.667 451.897 276.918C452.366 277.24 452.756 277.664 453.036 278.158C453.353 278.605 453.677 279.076 454.006 279.56C455.693 281.823 457.195 284.218 458.497 286.722C456.639 284.603 454.954 282.338 453.459 279.949C453.135 279.478 452.81 279.007 452.501 278.544C452.263 278.129 451.945 277.764 451.566 277.472C451.184 277.248 450.766 277.093 450.331 277.013L449.122 276.682C448.301 276.504 447.506 276.221 446.758 275.839Z" fill="#84422E"/>
<path id="Vector_25" d="M443.5 263.898C443.506 263.61 446.101 263.794 449.147 264.505C452.193 265.217 454.613 266.151 454.527 266.355C454.441 266.56 452.039 265.77 448.999 265.165L445.099 264.298C444.554 264.217 444.019 264.083 443.5 263.898Z" fill="#84422E"/>
</g>
<g id="Group_11">
<path id="Vector_26" d="M329.636 238.495L338.835 291.711C338.835 291.711 360.966 283.178 378.547 283.476C396.129 283.774 405.89 280.57 405.89 280.57L392.625 249.852L396.341 220.043L411.127 248.907L428.769 251.777L439.794 241.177L433.067 235.359L403.994 182.631C401.556 178.246 397.694 174.825 393.048 172.932L392.468 172.691L364.272 166.806L356.283 169.482C349.518 171.751 342.949 174.568 336.641 177.905C332.709 179.991 329.519 183.243 327.508 187.214C325.785 191.046 324.991 195.229 325.19 199.426L329.636 238.495Z" fill="url(#paint24_linear_450_6233)"/>
<path id="Vector_27" d="M399.12 193.255C399.148 193.863 399.124 194.473 399.049 195.078C398.922 196.373 398.775 198.042 398.59 200.023C398.191 204.24 397.607 209.961 396.871 216.33C396.135 222.699 395.463 228.312 394.967 232.614L394.405 237.577C394.346 238.181 394.251 238.78 394.121 239.372C394.056 238.765 394.066 238.152 394.151 237.548C394.222 236.38 394.38 234.748 394.551 232.594C394.938 228.38 395.535 222.655 396.271 216.286C397.007 209.917 397.661 204.161 398.204 200.008L398.847 195.086C398.875 194.468 398.967 193.855 399.12 193.255Z" fill="#020111"/>
<g id="Group_12">
<path id="Vector_28" d="M328.62 205.596C337.362 217.144 355.663 244.077 363.621 254.165C366.043 257.234 369.25 259.592 372.903 260.987L432.087 280.11L438.718 262.061L391.437 238.383L353.76 186.491C348.576 179.601 335.822 178.993 329.997 185.358C325.524 190.25 324.605 200.305 328.62 205.596Z" fill="url(#paint25_linear_450_6233)"/>
<path id="Vector_29" d="M355.356 188.625C355.356 188.625 355.61 188.914 356.056 189.511C356.502 190.108 357.164 191.006 358.008 192.133L365.383 202.104L391.665 238.149L391.63 238.037L438.924 261.67L439.197 261.803L439.097 262.093L434.318 275.074L432.441 280.149L432.333 280.456L432.026 280.348L386.426 265.27L376.223 261.873L373.768 261.045C372.944 260.798 372.14 260.489 371.364 260.119C369.831 259.386 368.399 258.458 367.104 257.359C365.873 256.298 364.756 255.111 363.772 253.818L360.903 250.227C359.028 247.84 357.255 245.543 355.583 243.338C348.895 234.517 343.715 227.203 340.181 222.142C338.441 219.631 337.085 217.654 336.143 216.298C335.706 215.643 335.381 215.172 335.121 214.776C334.861 214.38 334.789 214.239 334.789 214.239C334.926 214.396 335.055 214.561 335.176 214.732L336.256 216.222C337.223 217.57 338.664 219.561 340.394 221.994C344.007 227.002 349.217 234.239 355.955 243.044C357.64 245.246 359.421 247.539 361.304 249.897C362.25 251.088 363.212 252.288 364.194 253.508C365.156 254.775 366.254 255.932 367.469 256.958C368.729 258.006 370.119 258.887 371.604 259.58C372.366 259.937 373.153 260.238 373.959 260.48L376.423 261.291L386.618 264.664L432.16 279.774L431.713 279.913C432.318 278.36 432.948 276.58 433.577 274.842C435.229 270.397 436.842 266.004 438.369 261.857L438.505 262.292L391.249 238.565L391.226 238.49C380.411 223.499 371.414 211.048 365.108 202.313C362.001 197.964 359.529 194.509 357.847 192.184C357.035 191.074 356.402 190.139 355.948 189.517C355.495 188.895 355.356 188.625 355.356 188.625Z" fill="#020111"/>
</g>
<path id="Vector_30" d="M348.516 182.988C348.456 183.102 347.38 182.498 345.483 182.014C343.037 181.368 340.465 181.364 338.017 182.003C335.569 182.642 333.328 183.903 331.509 185.662C330.101 187.003 329.447 188.053 329.358 187.985C329.759 186.974 330.377 186.063 331.17 185.318C332.979 183.398 335.29 182.023 337.84 181.349C340.4 180.681 343.096 180.756 345.615 181.563C346.674 181.82 347.665 182.307 348.516 182.988Z" fill="#020111"/>
<path id="Vector_31" d="M434.352 235.762C434.415 235.961 432.054 236.481 429.577 237.938C428.136 238.93 426.749 239.997 425.42 241.134C426.28 239.52 427.609 238.205 429.233 237.363C430.743 236.334 432.525 235.776 434.352 235.762Z" fill="#020111"/>
<g id="Group_13" opacity="0.4">
<path id="Vector_32" d="M336.172 216.22C336.172 216.22 343.498 235.277 347.745 243.797C351.993 252.317 357.716 260.581 366.138 264.958C374.56 269.335 384.75 269.38 394.301 268.425C390.725 267.143 387.179 265.779 383.662 264.332C379.134 262.461 372.94 261.193 368.911 258.429C361.116 253.092 357.132 244.544 351.592 236.905C346.485 229.868 341.27 223.273 336.172 216.22Z" fill="black"/>
</g>
<g id="Group_14" opacity="0.4">
<path id="Vector_33" d="M404.308 235.612C403.614 224.67 400.732 213.54 397.805 202.874C398.076 206.881 396.803 210.704 396.507 214.643C396.373 216.527 396.266 219.889 396.266 219.889L404.197 235.387" fill="black"/>
</g>
</g>
<g id="Group_15">
<g id="Group_16">
<path id="Vector_34" d="M350.458 121.036C350.614 122.017 350.498 123.022 350.121 123.941C349.745 124.86 349.123 125.657 348.323 126.247C347.409 126.901 346.291 127.251 345.401 127.938C344.929 128.249 344.577 128.712 344.403 129.25C344.229 129.788 344.244 130.369 344.444 130.898C344.851 131.63 345.728 131.86 346.507 132.258C347.286 132.655 348.081 133.279 347.975 134.117C347.869 134.956 346.719 135.465 346.325 136.298C346.173 136.766 346.184 137.272 346.356 137.733C346.527 138.194 346.849 138.584 347.27 138.84C348.125 139.317 349.047 139.663 350.006 139.867C350.972 140.078 351.816 140.662 352.355 141.491" fill="url(#paint26_linear_450_6233)"/>
<g id="Group_17">
<path id="Vector_35" d="M392.36 125.647C393.29 119.027 389.047 112.442 383.293 109.004C377.538 105.565 370.598 104.79 363.904 104.933C362.944 104.961 361.78 105.12 361.385 105.994C361.251 106.397 361.262 106.833 361.415 107.228C361.569 107.623 361.855 107.953 362.226 108.159C362.985 108.548 363.824 108.752 364.677 108.757C361.793 108.224 358.828 108.332 355.991 109.073C354.993 109.306 354.084 109.822 353.373 110.56C353.026 110.937 352.807 111.414 352.748 111.922C352.689 112.431 352.793 112.945 353.045 113.391C353.186 113.596 353.374 113.765 353.594 113.884C353.813 114.003 354.057 114.069 354.306 114.076C354.555 114.083 354.803 114.031 355.028 113.925C355.254 113.818 355.451 113.66 355.604 113.464C352.859 114.005 350.381 115.469 348.581 117.612C347.301 119.144 346.407 121.347 347.372 123.078C348.096 123.992 348.878 124.859 349.712 125.675C350.96 127.398 350.645 129.748 350.506 131.878C350.182 135.184 350.726 138.517 352.085 141.547C352.786 143.057 353.812 144.393 355.089 145.46C356.366 146.528 357.863 147.3 359.473 147.721" fill="url(#paint27_linear_450_6233)"/>
<g id="Group_18">
<path id="Vector_36" d="M369.506 186.285C367.73 186.36 365.956 186.078 364.29 185.456C362.624 184.835 361.1 183.886 359.807 182.666C358.513 181.445 357.477 179.978 356.76 178.351C356.043 176.724 355.658 174.97 355.63 173.192L354.939 130.997C354.832 128.444 355.237 125.895 356.131 123.501C357.026 121.108 358.391 118.917 360.145 117.06C361.9 115.202 364.01 113.715 366.349 112.687C368.688 111.658 371.21 111.109 373.765 111.071L374.761 111.114C379.595 111.323 384.174 113.345 387.584 116.779C390.994 120.212 392.985 124.804 393.161 129.64C393.502 138.973 393.768 149.285 393.482 154.258C392.903 164.574 382.505 165.74 382.505 165.74L382.272 173.411C382.165 176.774 380.79 179.972 378.423 182.362C376.056 184.752 372.872 186.158 369.51 186.298L369.506 186.285Z" fill="url(#paint28_linear_450_6233)"/>
<path id="Vector_37" d="M382.533 165.568C377.763 165.453 373.136 163.917 369.244 161.158C369.244 161.158 372.101 168.722 382.38 168.262L382.533 165.568Z" fill="#B55E4C"/>
</g>
<path id="Vector_38" d="M366.215 119.598C364.936 118.17 362.841 114.829 361.14 113.928C359.44 113.028 357.476 114.12 355.867 115.169C355.041 115.714 354.357 116.449 353.872 117.313C353.388 118.176 353.117 119.143 353.082 120.133C352.688 127.595 354.398 133.976 354.64 141.117C354.615 141.591 354.72 142.063 354.944 142.481C355.642 143.491 356.996 143.504 358.19 143.307C361.18 142.836 361.984 140.306 362.541 137.376C362.518 135.723 362.363 134.075 362.077 132.447C361.559 130.222 361.629 127.9 362.282 125.711C362.934 123.522 364.145 121.54 365.797 119.961L366.215 119.598Z" fill="url(#paint29_linear_450_6233)"/>
<g id="Group_19">
<path id="Vector_39" d="M358.216 135.81C358.04 135.728 351.215 133.403 351.133 140.467C351.051 147.532 358.155 146.169 358.171 145.959C358.187 145.75 358.216 135.81 358.216 135.81Z" fill="#FB936F"/>
</g>
<path id="Vector_40" d="M364.193 121.813C366.672 118.664 370.262 118.714 372.829 119.289C375.396 119.864 377.811 121.086 380.36 121.558C382.908 122.029 386.002 121.498 387.504 119.323C388.007 118.476 388.33 117.535 388.452 116.558C388.573 115.581 388.491 114.589 388.211 113.645C387.794 111.812 387.017 110.079 385.927 108.547C384.837 107.015 383.454 105.714 381.858 104.719C381.019 104.218 379.87 103.813 379.133 104.467C378.224 105.269 378.864 106.747 379.545 107.748C379.545 107.748 367.529 107.142 361.621 111.5C355.714 115.858 364.193 121.813 364.193 121.813Z" fill="url(#paint30_linear_450_6233)"/>
</g>
</g>
<g id="Group_20">
<g id="Group_21">
<g id="Group_22">
<path id="Vector_41" d="M388.377 136.02C388.367 136.438 388.195 136.836 387.898 137.13C387.6 137.424 387.201 137.591 386.783 137.596C386.578 137.605 386.374 137.573 386.182 137.502C385.99 137.431 385.814 137.322 385.665 137.182C385.515 137.042 385.395 136.873 385.312 136.686C385.229 136.499 385.184 136.297 385.18 136.093C385.187 135.677 385.357 135.28 385.654 134.989C385.95 134.697 386.349 134.533 386.765 134.533C386.97 134.521 387.174 134.55 387.367 134.619C387.56 134.688 387.737 134.795 387.887 134.934C388.037 135.073 388.158 135.241 388.242 135.427C388.326 135.614 388.372 135.816 388.377 136.02Z" fill="#020111"/>
<path id="Vector_42" d="M390.869 134.354C390.672 134.552 389.479 133.615 387.758 133.567C386.038 133.518 384.738 134.334 384.561 134.117C384.384 133.9 384.689 133.654 385.252 133.273C386.002 132.799 386.877 132.558 387.764 132.583C388.66 132.608 389.524 132.915 390.235 133.461C390.8 133.87 390.974 134.253 390.869 134.354Z" fill="#020111"/>
</g>
<g id="Group_23">
<path id="Vector_43" d="M371.614 136.38C371.607 136.797 371.437 137.194 371.142 137.487C370.847 137.781 370.449 137.948 370.032 137.953C369.827 137.963 369.622 137.933 369.429 137.862C369.236 137.792 369.058 137.684 368.908 137.544C368.757 137.404 368.636 137.236 368.552 137.048C368.468 136.861 368.422 136.658 368.417 136.453C368.427 136.035 368.6 135.638 368.898 135.346C369.197 135.054 369.598 134.89 370.015 134.889C370.219 134.879 370.423 134.909 370.614 134.979C370.806 135.049 370.981 135.157 371.13 135.296C371.279 135.435 371.399 135.603 371.482 135.789C371.565 135.975 371.61 136.176 371.614 136.38Z" fill="#020111"/>
<path id="Vector_44" d="M373.914 134.146C373.717 134.344 372.524 133.407 370.803 133.359C369.083 133.31 367.787 134.139 367.61 133.921C367.433 133.704 367.734 133.446 368.297 133.065C369.047 132.591 369.922 132.35 370.809 132.375C371.708 132.398 372.576 132.71 373.284 133.265C373.845 133.662 374.019 134.045 373.914 134.146Z" fill="#020111"/>
</g>
<path id="Vector_45" d="M379.747 147.122C380.666 146.874 381.612 146.734 382.563 146.705C383.004 146.676 383.43 146.598 383.514 146.299C383.56 145.855 383.472 145.407 383.262 145.013C382.92 143.92 382.488 142.8 382.065 141.623C380.943 138.747 380.057 135.785 379.417 132.766C380.762 135.546 381.883 138.43 382.769 141.389C383.142 142.582 383.525 143.717 383.916 144.795C384.171 145.335 384.233 145.947 384.09 146.528C384.021 146.681 383.918 146.817 383.789 146.926C383.66 147.035 383.509 147.113 383.345 147.156C383.099 147.212 382.847 147.241 382.594 147.241C381.644 147.325 380.687 147.285 379.747 147.122Z" fill="#020111"/>
<path id="Vector_46" d="M374.619 148.167C374.903 148.16 374.847 150.033 376.407 151.4C377.967 152.767 379.959 152.636 379.974 152.904C379.99 153.171 379.511 153.253 378.712 153.23C377.616 153.213 376.562 152.809 375.736 152.088C374.945 151.396 374.455 150.424 374.37 149.378C374.314 148.59 374.603 148.118 374.619 148.167Z" fill="#020111"/>
</g>
<path id="Vector_47" d="M374.577 127.405C374.391 127.859 372.683 127.588 370.604 127.788C368.525 127.989 366.914 128.465 366.597 128.06C366.527 127.836 366.777 127.417 367.461 126.985C368.355 126.455 369.357 126.135 370.393 126.047C371.428 125.959 372.47 126.107 373.441 126.478C374.291 126.798 374.675 127.238 374.577 127.405Z" fill="#020111"/>
<path id="Vector_48" d="M390.393 129.345C390.073 129.718 388.899 129.28 387.475 129.221C386.052 129.162 384.804 129.402 384.56 128.973C384.494 128.762 384.65 128.386 385.196 128.038C385.917 127.615 386.749 127.416 387.585 127.469C388.42 127.521 389.221 127.821 389.884 128.331C390.371 128.752 390.483 129.112 390.393 129.345Z" fill="#020111"/>
</g>
</g>
</g>
</g>
</g>
<path id="Vector_49" d="M425.566 77.827L425.781 78.5591C426.037 79.375 426.521 80.1009 427.175 80.6522L427.748 81.1471L427.029 81.3648C426.212 81.6157 425.482 82.0941 424.926 82.7441L424.442 83.3335L424.214 82.5987C423.962 81.7847 423.483 81.0596 422.833 80.5083L422.257 80.0263L422.979 79.7957C423.792 79.5431 424.517 79.0638 425.068 78.4138L425.566 77.827Z" fill="url(#paint31_radial_450_6233)"/>
</g>
<g id="Layer 2_2">
<g id="Background Complete">
<path id="Vector_50" d="M501.565 102.754L502.192 104.284C502.882 106.02 504.08 107.587 505.64 108.794L507.006 109.865L505.421 110.273C503.619 110.724 502.051 111.664 500.903 112.98L499.878 114.139L499.25 112.609C498.554 110.879 497.357 109.318 495.801 108.112L494.435 107.042L496.02 106.634C497.826 106.182 499.396 105.237 500.539 103.913L501.565 102.754Z" fill="url(#paint32_radial_450_6233)"/>
<path id="Vector_51" d="M277.288 92.9725L277.741 94.539C278.267 96.316 279.303 97.9695 280.73 99.3073L281.981 100.491L280.359 100.751C278.511 101.039 276.846 101.83 275.56 103.033L274.433 104.092L273.966 102.521C273.447 100.739 272.41 99.0797 270.98 97.7394L269.729 96.5561L271.351 96.2953C273.195 96.0079 274.858 95.2214 276.146 94.027L277.288 92.9725Z" fill="url(#paint33_radial_450_6233)"/>
<path id="Vector_52" d="M438.702 171.607L440.348 174.083C442.2 176.863 444.689 179.089 447.522 180.496L450.055 181.821L447.952 183.359C445.59 185.089 443.808 187.579 442.818 190.536L441.939 193.168L440.293 190.692C438.452 187.892 435.968 185.64 433.135 184.203L430.613 182.953L432.705 181.341C435.063 179.607 436.844 177.117 437.839 174.164L438.702 171.607Z" fill="url(#paint34_radial_450_6233)"/>
<path id="Vector_53" d="M257.161 267.626L254.662 266.117C251.845 264.4 248.691 263.498 245.575 263.518L242.778 263.49L243.987 261.078C245.344 258.367 245.867 255.227 245.494 252.03L245.16 249.186L247.716 250.659C250.526 252.352 253.665 253.233 256.763 253.196L259.519 253.161L258.35 255.635C256.999 258.349 256.476 261.487 256.844 264.683L257.161 267.626Z" fill="url(#paint35_radial_450_6233)"/>
</g>
<g id="Starts">
<g id="Group_24">
<path id="Vector_54" d="M627.167 121.241C625.367 107.905 634.746 96.973 648.095 96.806C661.444 96.639 673.737 107.3 675.538 120.636C677.338 133.972 667.959 144.904 654.61 145.071C641.261 145.238 628.967 134.577 627.167 121.241Z" fill="url(#paint36_linear_450_6233)" stroke="url(#paint37_linear_450_6233)"/>
<path id="Vector_55" d="M661.833 107.671C662.337 107.398 662.92 107.312 663.512 107.421C664.105 107.53 664.692 107.831 665.196 108.302C665.702 108.773 666.099 109.39 666.33 110.078C666.56 110.766 666.611 111.485 666.478 112.144C666.345 112.803 666.035 113.364 665.599 113.763C665.165 114.161 664.623 114.383 664.043 114.41L664.04 114.41C663.65 114.43 663.246 114.36 662.852 114.204C662.458 114.048 662.079 113.806 661.74 113.49C661.4 113.173 661.107 112.789 660.882 112.357C660.684 111.979 660.543 111.574 660.465 111.16L660.434 110.98C660.329 110.273 660.411 109.58 660.664 108.99C660.917 108.401 661.327 107.946 661.833 107.671Z" fill="#020111" stroke="url(#paint38_linear_450_6233)"/>
<path id="Vector_56" d="M669.545 117.533C669.799 117.397 670.09 117.357 670.386 117.414C670.682 117.472 670.981 117.627 671.241 117.874C671.502 118.121 671.708 118.448 671.826 118.814C671.945 119.18 671.967 119.562 671.892 119.908C671.817 120.253 671.651 120.54 671.425 120.739C671.201 120.937 670.927 121.04 670.639 121.048C670.252 121.055 669.839 120.891 669.491 120.56C669.141 120.228 668.893 119.76 668.816 119.255C668.761 118.879 668.806 118.514 668.941 118.206C669.075 117.899 669.289 117.669 669.545 117.533Z" fill="#020111" stroke="url(#paint39_linear_450_6233)"/>
<path id="Vector_57" d="M652.703 213.723C652.802 213.72 652.903 213.739 653.001 213.779C653.098 213.819 653.191 213.88 653.272 213.957C653.354 214.035 653.423 214.128 653.476 214.231C653.528 214.334 653.563 214.444 653.579 214.557C653.596 214.669 653.594 214.782 653.572 214.887C653.55 214.993 653.509 215.089 653.45 215.172C653.392 215.254 653.319 215.32 653.234 215.367C653.148 215.413 653.053 215.439 652.954 215.442C652.85 215.444 652.743 215.422 652.641 215.378C652.538 215.334 652.441 215.269 652.356 215.186C652.272 215.103 652.2 215.004 652.146 214.895C652.092 214.786 652.057 214.669 652.042 214.551C652.021 214.328 652.078 214.116 652.202 213.962C652.325 213.807 652.505 213.722 652.703 213.723Z" fill="#263238"/>
</g>
<path id="Vector_58" d="M201.552 322.83C198.581 321.036 195.258 320.101 191.977 320.135L191.976 320.134L189.983 320.144L190.841 318.395C192.276 315.524 192.828 312.201 192.434 308.82L192.21 306.794L193.999 307.857C196.965 309.679 200.29 310.644 203.581 310.636L205.569 310.631L204.716 312.38L204.717 312.38C203.28 315.255 202.727 318.582 203.123 321.968L203.121 321.968L203.335 323.884L201.552 322.83Z" fill="#020111" stroke="url(#paint40_linear_450_6233)"/>
<path id="Vector_59" d="M232.639 93.2373L232.692 93.4207C233.049 94.6794 233.776 95.8496 234.781 96.7914L234.781 96.7923L234.897 96.9015L234.741 96.9281C233.444 97.1305 232.275 97.6912 231.377 98.5451L231.253 98.6618L231.205 98.4896C230.851 97.2271 230.125 96.0519 229.119 95.1061L229.117 95.1037L229.006 95L229.136 94.9787C230.433 94.7774 231.602 94.2174 232.501 93.3642L232.501 93.3654L232.639 93.2373Z" fill="#020111" stroke="url(#paint41_linear_450_6233)"/>
<path id="Vector_60" d="M357.925 535.294C358.228 535.661 358.587 535.974 358.986 536.215C358.664 536.498 358.405 536.849 358.218 537.246C357.915 536.881 357.557 536.568 357.158 536.328C357.477 536.041 357.735 535.69 357.925 535.294Z" fill="#020111" stroke="url(#paint42_linear_450_6233)"/>
<path id="Vector_61" d="M568.926 502.37L568.926 502.371C569.678 503.508 570.701 504.426 571.875 505.005L571.875 505.004L572.076 505.103L571.909 505.23C570.99 505.897 570.291 506.841 569.878 507.952L569.798 508.177L569.778 508.239L569.739 508.18L569.738 508.18C569.032 507.114 568.09 506.241 567.008 505.659L566.791 505.547L566.588 505.443L566.758 505.321L566.756 505.32C567.721 504.616 568.444 503.61 568.846 502.423L568.846 502.422L568.884 502.308L568.926 502.37Z" fill="#020111" stroke="url(#paint43_linear_450_6233)"/>
<path id="Vector_62" d="M557.828 54.5855C559.093 57.7442 561.27 60.5925 564.098 62.7953L564.098 62.7944L565.767 64.119L563.826 64.6327C560.547 65.4678 557.693 67.191 555.606 69.6015L554.312 71.066L553.522 69.1334C552.263 65.9737 550.092 63.1223 547.269 60.9149L545.589 59.5878L547.544 59.0763L547.543 59.0751C550.815 58.2393 553.662 56.5202 555.746 54.1153L555.746 54.1141L557.039 52.6435L557.828 54.5855Z" fill="#020111" stroke="url(#paint44_linear_450_6233)"/>
<path id="Vector_63" d="M214.174 162.606C210.094 164.332 206.534 166.916 203.752 170.198C200.132 174.467 197.973 179.745 197.521 185.431C197.07 191.117 198.345 196.98 201.198 202.352C204.05 207.724 208.365 212.389 213.652 215.816C218.706 219.103 224.443 221.111 230.248 221.668C227.278 222.073 224.206 222.062 221.129 221.628C216.643 220.995 212.249 219.479 208.237 217.18C204.226 214.882 200.689 211.853 197.863 208.296C195.036 204.739 192.983 200.734 191.84 196.549C190.698 192.365 190.491 188.095 191.232 184.022C191.973 179.949 193.646 176.166 196.14 172.923C198.634 169.679 201.892 167.05 205.7 165.21C208.335 163.937 211.191 163.061 214.174 162.606Z" fill="url(#paint45_linear_450_6233)" stroke="url(#paint46_linear_450_6233)"/>
<path id="Vector_64" d="M578.321 356.27L579.922 356.059C581.738 355.809 583.358 355.083 584.596 353.966L585.706 352.992L586.185 354.486C586.719 356.184 587.759 357.782 589.184 359.094L590.445 360.243L588.841 360.466C587.026 360.716 585.405 361.442 584.167 362.559L583.071 363.537L582.578 362.039C582.044 360.341 581.004 358.743 579.58 357.431L578.321 356.27Z" fill="url(#paint47_radial_450_6233)"/>
<path id="Vector_65" d="M612.494 469.325C614.446 469.065 616.199 468.29 617.542 467.085L617.541 467.084L618.07 466.622L618.311 467.337C618.895 469.174 620.024 470.893 621.561 472.296L622.07 472.767L621.422 472.862L621.423 472.861C619.474 473.118 617.725 473.887 616.381 475.085L616.381 475.084L615.838 475.551L615.603 474.832L615.602 474.833C615.014 473.001 613.884 471.287 612.349 469.889L611.843 469.415L612.494 469.325Z" fill="#020111" stroke="url(#paint48_linear_450_6233)"/>
<path id="Vector_66" d="M613.145 372.411C613.572 372.308 613.964 372.129 614.301 371.882C614.47 372.297 614.72 372.686 615.036 373.031C614.608 373.132 614.216 373.311 613.881 373.561C613.71 373.147 613.46 372.757 613.145 372.411Z" fill="#020111" stroke="url(#paint49_linear_450_6233)"/>
<path id="Vector_67" d="M459.52 561.938L459.503 563.543C459.466 565.357 459.98 567.199 460.982 568.843L461.838 570.31L460.18 570.109C458.296 569.862 456.437 570.144 454.827 570.921L453.398 571.598L453.428 570.002C453.44 568.184 452.916 566.343 451.916 564.696L451.053 563.241L452.719 563.43C454.602 563.673 456.46 563.391 458.071 562.618L459.52 561.938Z" fill="url(#paint50_radial_450_6233)"/>
<path id="Vector_68" d="M528.513 479.759L528.492 480.553C528.471 481.461 528.723 482.385 529.218 483.212L529.654 483.934L528.821 483.839C527.88 483.717 526.952 483.859 526.149 484.249L525.447 484.596L525.456 483.794C525.479 482.892 525.229 481.975 524.735 481.155L524.307 480.421L525.133 480.528C526.074 480.643 526.999 480.494 527.799 480.098L528.513 479.759Z" fill="url(#paint51_radial_450_6233)"/>
<path id="Vector_69" d="M526.495 530.151L526.494 530.156C526.472 531.428 526.829 532.719 527.521 533.877L527.52 533.877L527.612 534.034L527.441 534.014C526.195 533.856 524.966 534.027 523.885 534.507L523.672 534.607L523.533 534.674L523.536 534.518C523.567 533.24 523.212 531.94 522.514 530.777L522.514 530.776L522.424 530.627L522.604 530.648L522.603 530.646C523.925 530.812 525.228 530.611 526.357 530.066L526.362 530.064L526.499 529.995L526.495 530.151Z" fill="#020111" stroke="url(#paint52_linear_450_6233)"/>
</g>
</g>
</g>
<defs>
<linearGradient id="paint0_linear_450_6233" x1="236.528" y1="451.498" x2="301.379" y2="557.239" gradientUnits="userSpaceOnUse">
<stop stop-color="#25CDDA"/>
<stop offset="0.520833" stop-color="#01A3FF"/>
<stop offset="1" stop-color="#1EC5E1"/>
</linearGradient>
<radialGradient id="paint1_radial_450_6233" cx="0" cy="0" r="1" gradientUnits="userSpaceOnUse" gradientTransform="translate(400.262 374.124) rotate(90) scale(129.79 284.604)">
<stop stop-color="#00DCFF"/>
<stop offset="1" stop-color="#00DCFF" stop-opacity="0"/>
</radialGradient>
<radialGradient id="paint2_radial_450_6233" cx="0" cy="0" r="1" gradientUnits="userSpaceOnUse" gradientTransform="translate(297.953 542.974) rotate(90) scale(17.5233 17.7843)">
<stop stop-color="#00DCFF"/>
<stop offset="0.489583" stop-color="#0EDDFF" stop-opacity="0.49"/>
<stop offset="1" stop-color="#00DCFF" stop-opacity="0"/>
</radialGradient>
<radialGradient id="paint3_radial_450_6233" cx="0" cy="0" r="1" gradientUnits="userSpaceOnUse" gradientTransform="translate(243.028 582.392) rotate(90) scale(14.5671 14.7841)">
<stop stop-color="#00DCFF"/>
<stop offset="0.489583" stop-color="#0EDDFF" stop-opacity="0.49"/>
<stop offset="1" stop-color="#00DCFF" stop-opacity="0"/>
</radialGradient>
<radialGradient id="paint4_radial_450_6233" cx="0" cy="0" r="1" gradientUnits="userSpaceOnUse" gradientTransform="translate(205.307 541.99) rotate(90) scale(17.5233 17.7843)">
<stop stop-color="#00DCFF"/>
<stop offset="0.489583" stop-color="#0EDDFF" stop-opacity="0.49"/>
<stop offset="1" stop-color="#00DCFF" stop-opacity="0"/>
</radialGradient>
<radialGradient id="paint5_radial_450_6233" cx="0" cy="0" r="1" gradientUnits="userSpaceOnUse" gradientTransform="translate(254.588 492.708) rotate(90) scale(17.5233 17.7843)">
<stop stop-color="#00DCFF"/>
<stop offset="0.489583" stop-color="#0EDDFF" stop-opacity="0.49"/>
<stop offset="1" stop-color="#00DCFF" stop-opacity="0"/>
</radialGradient>
<radialGradient id="paint6_radial_450_6233" cx="0" cy="0" r="1" gradientUnits="userSpaceOnUse" gradientTransform="translate(222.385 508.996) rotate(90) scale(13.596 13.7985)">
<stop stop-color="#00DCFF"/>
<stop offset="0.489583" stop-color="#0EDDFF" stop-opacity="0.49"/>
<stop offset="1" stop-color="#00DCFF" stop-opacity="0"/>
</radialGradient>
<radialGradient id="paint7_radial_450_6233" cx="0" cy="0" r="1" gradientUnits="userSpaceOnUse" gradientTransform="translate(259.516 551.845) rotate(90) scale(17.5233 17.7843)">
<stop stop-color="#00DCFF"/>
<stop offset="0.489583" stop-color="#0EDDFF" stop-opacity="0.49"/>
<stop offset="1" stop-color="#00DCFF" stop-opacity="0"/>
</radialGradient>
<radialGradient id="paint8_radial_450_6233" cx="0" cy="0" r="1" gradientUnits="userSpaceOnUse" gradientTransform="translate(201.825 580.425) rotate(90) scale(16.5094 16.7553)">
<stop stop-color="#00DCFF"/>
<stop offset="0.489583" stop-color="#0EDDFF" stop-opacity="0.49"/>
<stop offset="1" stop-color="#00DCFF" stop-opacity="0"/>
</radialGradient>
<linearGradient id="paint9_linear_450_6233" x1="264.431" y1="459.495" x2="300.919" y2="518.989" gradientUnits="userSpaceOnUse">
<stop stop-color="#25CDDA"/>
<stop offset="0.520833" stop-color="#01A3FF"/>
<stop offset="1" stop-color="#1EC5E1"/>
</linearGradient>
<linearGradient id="paint10_linear_450_6233" x1="534.298" y1="292.39" x2="552.723" y2="322.433" gradientUnits="userSpaceOnUse">
<stop stop-color="#FBAE72"/>
<stop offset="1" stop-color="#FA7A6B"/>
</linearGradient>
<linearGradient id="paint11_linear_450_6233" x1="567.968" y1="299.948" x2="589" y2="334.242" gradientUnits="userSpaceOnUse">
<stop stop-color="#20608D"/>
<stop offset="1" stop-color="#202850"/>
</linearGradient>
<linearGradient id="paint12_linear_450_6233" x1="290.927" y1="382.085" x2="361.784" y2="497.618" gradientUnits="userSpaceOnUse">
<stop stop-color="#25CDDA"/>
<stop offset="0.520833" stop-color="#01A3FF"/>
<stop offset="1" stop-color="#1EC5E1"/>
</linearGradient>
<linearGradient id="paint13_linear_450_6233" x1="472.495" y1="225.891" x2="375.614" y2="459.69" gradientUnits="userSpaceOnUse">
<stop stop-color="#0189A5"/>
<stop offset="1" stop-color="#043846"/>
</linearGradient>
<linearGradient id="paint14_linear_450_6233" x1="394.32" y1="257.501" x2="486.838" y2="408.352" gradientUnits="userSpaceOnUse">
<stop stop-color="#25CDDA"/>
<stop offset="0.520833" stop-color="#01A3FF"/>
<stop offset="1" stop-color="#1EC5E1"/>
</linearGradient>
<linearGradient id="paint15_linear_450_6233" x1="413.35" y1="429.413" x2="458.662" y2="503.294" gradientUnits="userSpaceOnUse">
<stop stop-color="#25CDDA"/>
<stop offset="0.520833" stop-color="#01A3FF"/>
<stop offset="1" stop-color="#1EC5E1"/>
</linearGradient>
<linearGradient id="paint16_linear_450_6233" x1="295.754" y1="300.837" x2="331.712" y2="359.468" gradientUnits="userSpaceOnUse">
<stop stop-color="#25CDDA"/>
<stop offset="0.520833" stop-color="#01A3FF"/>
<stop offset="1" stop-color="#1EC5E1"/>
</linearGradient>
<linearGradient id="paint17_linear_450_6233" x1="524.082" y1="175.489" x2="592.647" y2="287.285" gradientUnits="userSpaceOnUse">
<stop stop-color="#25CDDA"/>
<stop offset="0.520833" stop-color="#01A3FF"/>
<stop offset="1" stop-color="#1EC5E1"/>
</linearGradient>
<linearGradient id="paint18_linear_450_6233" x1="339.078" y1="390.737" x2="361.274" y2="426.927" gradientUnits="userSpaceOnUse">
<stop stop-color="#25CDDA"/>
<stop offset="0.520833" stop-color="#01A3FF"/>
<stop offset="1" stop-color="#1EC5E1"/>
</linearGradient>
<linearGradient id="paint19_linear_450_6233" x1="449.026" y1="308.464" x2="505.475" y2="273.951" gradientUnits="userSpaceOnUse">
<stop stop-color="#25CDDA"/>
<stop offset="0.520833" stop-color="#01A3FF"/>
<stop offset="1" stop-color="#1EC5E1"/>
</linearGradient>
<linearGradient id="paint20_linear_450_6233" x1="515.863" y1="354.967" x2="533.403" y2="383.567" gradientUnits="userSpaceOnUse">
<stop stop-color="#FBAE72"/>
<stop offset="1" stop-color="#FA7A6B"/>
</linearGradient>
<linearGradient id="paint21_linear_450_6233" x1="547.072" y1="366.508" x2="567.594" y2="399.969" gradientUnits="userSpaceOnUse">
<stop stop-color="#20608D"/>
<stop offset="1" stop-color="#202850"/>
</linearGradient>
<linearGradient id="paint22_linear_450_6233" x1="386.313" y1="271.45" x2="502.865" y2="376.902" gradientUnits="userSpaceOnUse">
<stop stop-color="#1FC6E1"/>
<stop offset="1" stop-color="#085B72"/>
</linearGradient>
<linearGradient id="paint23_linear_450_6233" x1="441.68" y1="261.044" x2="450.777" y2="290.124" gradientUnits="userSpaceOnUse">
<stop stop-color="#FBAE72"/>
<stop offset="1" stop-color="#FA7A6B"/>
</linearGradient>
<linearGradient id="paint24_linear_450_6233" x1="358.691" y1="168.552" x2="394.817" y2="284.034" gradientUnits="userSpaceOnUse">
<stop stop-color="#1F9CCF"/>
<stop offset="1" stop-color="#201D44"/>
</linearGradient>
<linearGradient id="paint25_linear_450_6233" x1="364.255" y1="172.858" x2="400.862" y2="289.878" gradientUnits="userSpaceOnUse">
<stop stop-color="#1F96C8"/>
<stop offset="1" stop-color="#202F58"/>
</linearGradient>
<linearGradient id="paint26_linear_450_6233" x1="346.21" y1="122.365" x2="352.207" y2="141.538" gradientUnits="userSpaceOnUse">
<stop stop-color="#25CDDA"/>
<stop offset="0.520833" stop-color="#01A3FF"/>
<stop offset="1" stop-color="#1EC5E1"/>
</linearGradient>
<linearGradient id="paint27_linear_450_6233" x1="363.806" y1="104.716" x2="375.674" y2="142.653" gradientUnits="userSpaceOnUse">
<stop stop-color="#25CDDA"/>
<stop offset="0.520833" stop-color="#01A3FF"/>
<stop offset="1" stop-color="#1EC5E1"/>
</linearGradient>
<linearGradient id="paint28_linear_450_6233" x1="362.672" y1="113.713" x2="384.099" y2="182.209" gradientUnits="userSpaceOnUse">
<stop stop-color="#FBAE72"/>
<stop offset="1" stop-color="#FA7A6B"/>
</linearGradient>
<linearGradient id="paint29_linear_450_6233" x1="355.462" y1="114.758" x2="363.857" y2="141.595" gradientUnits="userSpaceOnUse">
<stop stop-color="#25CDDA"/>
<stop offset="0.520833" stop-color="#01A3FF"/>
<stop offset="1" stop-color="#1EC5E1"/>
</linearGradient>
<linearGradient id="paint30_linear_450_6233" x1="371.416" y1="106.76" x2="376.749" y2="123.808" gradientUnits="userSpaceOnUse">
<stop stop-color="#25CDDA"/>
<stop offset="0.520833" stop-color="#01A3FF"/>
<stop offset="1" stop-color="#1EC5E1"/>
</linearGradient>
<radialGradient id="paint31_radial_450_6233" cx="0" cy="0" r="1" gradientUnits="userSpaceOnUse" gradientTransform="translate(425.004 80.5802) rotate(101.536) scale(2.81002 2.8021)">
<stop stop-color="#20C8E0"/>
<stop offset="1" stop-color="#1CC3E4" stop-opacity="0.28"/>
</radialGradient>
<radialGradient id="paint32_radial_450_6233" cx="0" cy="0" r="1" gradientTransform="matrix(-0.843728 5.69237 -6.28567 -1.41151 500.721 108.447)" gradientUnits="userSpaceOnUse">
<stop stop-color="#20C8E0"/>
<stop offset="1" stop-color="#1CC3E4" stop-opacity="0.28"/>
</radialGradient>
<radialGradient id="paint33_radial_450_6233" cx="0" cy="0" r="1" gradientTransform="matrix(-1.42718 5.55975 -6.1262 -1.96725 275.853 98.5299)" gradientUnits="userSpaceOnUse">
<stop stop-color="#20C8E0"/>
<stop offset="1" stop-color="#1CC3E4" stop-opacity="0.28"/>
</radialGradient>
<radialGradient id="paint34_radial_450_6233" cx="0" cy="0" r="1" gradientTransform="matrix(1.61812 10.7803 -9.71568 0.602584 440.334 182.387)" gradientUnits="userSpaceOnUse">
<stop stop-color="#20C8E0"/>
<stop offset="1" stop-color="#1CC3E4" stop-opacity="0.28"/>
</radialGradient>
<radialGradient id="paint35_radial_450_6233" cx="0" cy="0" r="1" gradientTransform="matrix(-6.00069 -9.21998 8.3707 -5.16459 251.189 258.388)" gradientUnits="userSpaceOnUse">
<stop stop-color="#20C8E0"/>
<stop offset="1" stop-color="#1CC3E4" stop-opacity="0.28"/>
</radialGradient>
<linearGradient id="paint36_linear_450_6233" x1="626.664" y1="121.247" x2="675.239" y2="114.69" gradientUnits="userSpaceOnUse">
<stop stop-color="#25CDDA"/>
<stop offset="0.520833" stop-color="#01A3FF"/>
<stop offset="1" stop-color="#1EC5E1"/>
</linearGradient>
<linearGradient id="paint37_linear_450_6233" x1="626.664" y1="121.247" x2="675.239" y2="114.69" gradientUnits="userSpaceOnUse">
<stop stop-color="#25CDDA"/>
<stop offset="0.520833" stop-color="#01A3FF"/>
<stop offset="1" stop-color="#1EC5E1"/>
</linearGradient>
<linearGradient id="paint38_linear_450_6233" x1="662.792" y1="106.885" x2="663.234" y2="114.952" gradientUnits="userSpaceOnUse">
<stop stop-color="#25CDDA"/>
<stop offset="0.520833" stop-color="#01A3FF"/>
<stop offset="1" stop-color="#1EC5E1"/>
</linearGradient>
<linearGradient id="paint39_linear_450_6233" x1="669.972" y1="116.897" x2="670.228" y2="121.571" gradientUnits="userSpaceOnUse">
<stop stop-color="#25CDDA"/>
<stop offset="0.520833" stop-color="#01A3FF"/>
<stop offset="1" stop-color="#1EC5E1"/>
</linearGradient>
<linearGradient id="paint40_linear_450_6233" x1="203.907" y1="324.81" x2="192.057" y2="305.606" gradientUnits="userSpaceOnUse">
<stop stop-color="#25CDDA"/>
<stop offset="0.520833" stop-color="#01A3FF"/>
<stop offset="1" stop-color="#1EC5E1"/>
</linearGradient>
<linearGradient id="paint41_linear_450_6233" x1="232.879" y1="92.2968" x2="230.575" y2="99.4725" gradientUnits="userSpaceOnUse">
<stop stop-color="#25CDDA"/>
<stop offset="0.520833" stop-color="#01A3FF"/>
<stop offset="1" stop-color="#1EC5E1"/>
</linearGradient>
<linearGradient id="paint42_linear_450_6233" x1="357.767" y1="534.232" x2="358.022" y2="538.336" gradientUnits="userSpaceOnUse">
<stop stop-color="#25CDDA"/>
<stop offset="0.520833" stop-color="#01A3FF"/>
<stop offset="1" stop-color="#1EC5E1"/>
</linearGradient>
<linearGradient id="paint43_linear_450_6233" x1="568.718" y1="501.187" x2="569.227" y2="509.408" gradientUnits="userSpaceOnUse">
<stop stop-color="#25CDDA"/>
<stop offset="0.520833" stop-color="#01A3FF"/>
<stop offset="1" stop-color="#1EC5E1"/>
</linearGradient>
<linearGradient id="paint44_linear_450_6233" x1="557.18" y1="51.6907" x2="552.691" y2="71.6832" gradientUnits="userSpaceOnUse">
<stop stop-color="#25CDDA"/>
<stop offset="0.520833" stop-color="#01A3FF"/>
<stop offset="1" stop-color="#1EC5E1"/>
</linearGradient>
<linearGradient id="paint45_linear_450_6233" x1="224.021" y1="163.839" x2="205.068" y2="217.185" gradientUnits="userSpaceOnUse">
<stop stop-color="#25CDDA"/>
<stop offset="0.520833" stop-color="#01A3FF"/>
<stop offset="1" stop-color="#1EC5E1"/>
</linearGradient>
<linearGradient id="paint46_linear_450_6233" x1="224.021" y1="163.839" x2="205.068" y2="217.185" gradientUnits="userSpaceOnUse">
<stop stop-color="#25CDDA"/>
<stop offset="0.520833" stop-color="#01A3FF"/>
<stop offset="1" stop-color="#1EC5E1"/>
</linearGradient>
<radialGradient id="paint47_radial_450_6233" cx="0" cy="0" r="1" gradientTransform="matrix(6.06201 1.98627 -1.31767 5.27266 584.382 358.262)" gradientUnits="userSpaceOnUse">
<stop stop-color="#20C8E0"/>
<stop offset="1" stop-color="#1CC3E4" stop-opacity="0.28"/>
</radialGradient>
<linearGradient id="paint48_linear_450_6233" x1="610.769" y1="469.059" x2="623.374" y2="472.209" gradientUnits="userSpaceOnUse">
<stop stop-color="#25CDDA"/>
<stop offset="0.520833" stop-color="#01A3FF"/>
<stop offset="1" stop-color="#1EC5E1"/>
</linearGradient>
<linearGradient id="paint49_linear_450_6233" x1="612.089" y1="372.065" x2="616.155" y2="373.081" gradientUnits="userSpaceOnUse">
<stop stop-color="#25CDDA"/>
<stop offset="0.520833" stop-color="#01A3FF"/>
<stop offset="1" stop-color="#1EC5E1"/>
</linearGradient>
<radialGradient id="paint50_radial_450_6233" cx="0" cy="0" r="1" gradientTransform="matrix(-3.06083 4.82992 -5.38865 -3.54056 456.453 566.764)" gradientUnits="userSpaceOnUse">
<stop stop-color="#20C8E0"/>
<stop offset="1" stop-color="#1CC3E4" stop-opacity="0.28"/>
</radialGradient>
<radialGradient id="paint51_radial_450_6233" cx="0" cy="0" r="1" gradientTransform="matrix(-1.53283 2.41843 -2.6733 -1.75623 526.98 482.178)" gradientUnits="userSpaceOnUse">
<stop stop-color="#20C8E0"/>
<stop offset="1" stop-color="#1CC3E4" stop-opacity="0.28"/>
</radialGradient>
<linearGradient id="paint52_linear_450_6233" x1="527.033" y1="529.153" x2="522.903" y2="535.44" gradientUnits="userSpaceOnUse">
<stop stop-color="#25CDDA"/>
<stop offset="0.520833" stop-color="#01A3FF"/>
<stop offset="1" stop-color="#1EC5E1"/>
</linearGradient>
<clipPath id="clip0_450_6233">
<rect width="577.207" height="411.487" fill="white" transform="translate(0.185547 301.77) rotate(-31.521)"/>
</clipPath>
</defs>
</svg>
