<svg width="427" height="446" viewBox="0 0 427 446" fill="none" xmlns="http://www.w3.org/2000/svg">
<g id="What? - Illustration" clip-path="url(#clip0_450_5635)">
<g id="Layer 2">
<g id="Plants">
<g id="Plants_2">
<g id="Group">
<path id="Vector" d="M63.5352 277.16C64.9558 276.672 67.0458 276.819 69.4736 277.775C71.8877 278.726 74.5823 280.456 77.1777 283.041C82.3646 288.207 87.1414 296.776 88.4746 309.283C89.4253 318.197 88.7098 327.623 87.752 334.833C87.2734 338.435 86.7348 341.479 86.3164 343.621C86.1073 344.691 85.9284 345.537 85.8018 346.113C85.7384 346.402 85.6876 346.624 85.6533 346.772C85.6522 346.777 85.6505 346.782 85.6494 346.787L78.5801 350.879C79.7094 327.977 72.2296 309.807 66.0898 300.938L66.0889 300.937C60.8807 293.453 58.7979 287.963 58.7412 284.13C58.7131 282.227 59.1842 280.746 60.0059 279.619C60.8292 278.49 62.0333 277.677 63.5352 277.16Z" fill="#020111" stroke="url(#paint0_linear_450_5635)"/>
<g id="Group_2" opacity="0.65">
<path id="Vector_2" d="M63.5352 277.16C64.9558 276.672 67.0458 276.819 69.4736 277.775C71.8877 278.726 74.5823 280.456 77.1777 283.041C82.3646 288.207 87.1414 296.776 88.4746 309.283C89.4253 318.197 88.7098 327.623 87.752 334.833C87.2734 338.435 86.7348 341.479 86.3164 343.621C86.1073 344.691 85.9284 345.537 85.8018 346.113C85.7384 346.402 85.6876 346.624 85.6533 346.772C85.6522 346.777 85.6505 346.782 85.6494 346.787L78.5801 350.879C79.7094 327.977 72.2296 309.807 66.0898 300.938L66.0889 300.937C60.8807 293.453 58.7979 287.963 58.7412 284.13C58.7131 282.227 59.1842 280.746 60.0059 279.619C60.8292 278.49 62.0333 277.677 63.5352 277.16Z" fill="#020111" stroke="url(#paint1_linear_450_5635)"/>
</g>
<path id="Vector_3" d="M67.5254 280.59C67.541 280.59 67.5563 280.597 67.5674 280.607V280.608C72.594 286.062 77.1892 295.388 79.9648 306.319C82.7374 317.239 83.6805 329.707 81.457 341.426C81.4537 341.442 81.4453 341.456 81.4326 341.466C81.4198 341.476 81.403 341.481 81.3867 341.48H81.3633L81.3477 341.465L81.3379 341.443C81.3364 341.436 81.3364 341.428 81.3379 341.42L81.3389 341.416C83.5626 329.697 82.6268 317.269 79.8799 306.408C77.1352 295.556 72.5681 286.215 67.4785 280.696L67.4775 280.695L67.4648 280.674C67.4621 280.666 67.4607 280.658 67.4609 280.65C67.4615 280.634 67.4685 280.618 67.4805 280.606C67.4925 280.595 67.5089 280.589 67.5254 280.59Z" fill="#020111" stroke="url(#paint2_linear_450_5635)"/>
</g>
<g id="Group_3">
<path id="Vector_4" d="M52.0205 300.496C52.7556 300.352 53.5121 300.355 54.2461 300.505L54.2588 300.508C55.6956 300.762 57.0608 301.323 58.2607 302.153L58.2705 302.16L58.2803 302.166C60.2617 303.402 61.78 305.261 63.4072 307.146C65.011 309.003 66.7179 310.88 69.0303 311.951L69.0498 311.96L69.0703 311.968C70.8508 312.612 72.6711 313.139 74.5195 313.549C76.2576 314.105 77.8783 315.064 78.5342 316.574L78.5352 316.576C79.1986 318.082 78.8179 319.732 78.3018 321.603C77.8366 323.289 77.2545 325.169 77.6289 326.998L77.7168 327.363C78.1887 329.065 79.2196 330.264 80.2666 331.362C81.3312 332.479 82.3902 333.474 83.125 334.837C83.7059 336.005 83.8944 337.329 83.6621 338.613L83.6592 338.629L83.6572 338.646C83.3965 340.946 82.7198 343.18 81.6611 345.239C80.4594 347.358 79.1314 349.403 77.6846 351.362C77.6514 351.383 77.6084 351.411 77.5557 351.444C77.4194 351.53 77.2192 351.657 76.9648 351.817C76.4561 352.139 75.7293 352.598 74.8564 353.149C73.1104 354.252 70.7801 355.724 68.4443 357.198C66.1086 358.673 63.7672 360.151 61.998 361.266C61.1137 361.823 60.3726 362.29 59.8467 362.62C59.5837 362.785 59.3743 362.917 59.2285 363.008C59.1048 363.085 59.0417 363.123 59.0234 363.135C58.9925 363.15 58.8969 363.177 58.6943 363.16C58.4983 363.144 58.2504 363.091 57.958 363.002C57.3739 362.824 56.6749 362.521 55.9668 362.169C54.5492 361.465 53.1702 360.605 52.7354 360.29C51.3684 359.256 50.2729 357.908 49.54 356.362L49.3984 356.05C48.5839 354.151 48.3818 352.045 48.8203 350.025L48.8193 350.024C49.063 348.924 49.3845 347.843 49.7803 346.788L49.7832 346.781L49.7852 346.774L50.8838 343.577C51.3223 342.487 51.5387 341.321 51.5195 340.146V340.131L51.5186 340.115L51.4941 339.883C51.3466 338.733 50.7966 337.734 50.0967 336.868C49.3534 335.948 48.4162 335.149 47.5508 334.45H47.5518C45.6503 332.872 43.8897 330.962 44.0117 328.571C44.2372 326.622 45.1021 324.803 46.4717 323.397L46.4814 323.388L46.4902 323.378C47.161 322.61 47.8829 321.888 48.6113 321.137C49.3289 320.397 50.0473 319.635 50.6855 318.808C51.7256 317.576 52.314 316.027 52.3535 314.415L52.3545 314.388L52.3516 314.36C52.2681 313.37 51.9858 312.407 51.5205 311.528L51.5107 311.511L51.1475 310.874C50.3187 309.385 49.5956 307.84 48.9814 306.25C48.4614 304.465 48.7059 302.416 49.9814 301.332C50.6002 300.923 51.2927 300.639 52.0205 300.496Z" fill="#020111" stroke="url(#paint3_linear_450_5635)"/>
<g id="Group_4" opacity="0.3">
<path id="Vector_5" d="M52.0205 300.496C52.7556 300.352 53.5121 300.355 54.2461 300.505L54.2588 300.508C55.6956 300.762 57.0608 301.323 58.2607 302.153L58.2705 302.16L58.2803 302.166C60.2617 303.402 61.78 305.261 63.4072 307.146C65.011 309.003 66.7179 310.88 69.0303 311.951L69.0498 311.96L69.0703 311.968C70.8508 312.612 72.6711 313.139 74.5195 313.549C76.2576 314.105 77.8783 315.064 78.5342 316.574L78.5352 316.576C79.1986 318.082 78.8179 319.732 78.3018 321.603C77.8366 323.289 77.2545 325.169 77.6289 326.998L77.7168 327.363C78.1887 329.065 79.2196 330.264 80.2666 331.362C81.3312 332.479 82.3902 333.474 83.125 334.837C83.7059 336.005 83.8944 337.329 83.6621 338.613L83.6592 338.629L83.6572 338.646C83.3965 340.946 82.7198 343.18 81.6611 345.239C80.4594 347.358 79.1314 349.403 77.6846 351.362C77.6514 351.383 77.6084 351.411 77.5557 351.444C77.4194 351.53 77.2192 351.657 76.9648 351.817C76.4561 352.139 75.7293 352.598 74.8564 353.149C73.1104 354.252 70.7801 355.724 68.4443 357.198C66.1086 358.673 63.7672 360.151 61.998 361.266C61.1137 361.823 60.3726 362.29 59.8467 362.62C59.5837 362.785 59.3743 362.917 59.2285 363.008C59.1048 363.085 59.0417 363.123 59.0234 363.135C58.9925 363.15 58.8969 363.177 58.6943 363.16C58.4983 363.144 58.2504 363.091 57.958 363.002C57.3739 362.824 56.6749 362.521 55.9668 362.169C54.5492 361.465 53.1702 360.605 52.7354 360.29C51.3684 359.256 50.2729 357.908 49.54 356.362L49.3984 356.05C48.5839 354.151 48.3818 352.045 48.8203 350.025L48.8193 350.024C49.063 348.924 49.3845 347.843 49.7803 346.788L49.7832 346.781L49.7852 346.774L50.8838 343.577C51.3223 342.487 51.5387 341.321 51.5195 340.146V340.131L51.5186 340.115L51.4941 339.883C51.3466 338.733 50.7966 337.734 50.0967 336.868C49.3534 335.948 48.4162 335.149 47.5508 334.45H47.5518C45.6503 332.872 43.8897 330.962 44.0117 328.571C44.2372 326.622 45.1021 324.803 46.4717 323.397L46.4814 323.388L46.4902 323.378C47.161 322.61 47.8829 321.888 48.6113 321.137C49.3289 320.397 50.0473 319.635 50.6855 318.808C51.7256 317.576 52.314 316.027 52.3535 314.415L52.3545 314.388L52.3516 314.36C52.2681 313.37 51.9858 312.407 51.5205 311.528L51.5107 311.511L51.1475 310.874C50.3187 309.385 49.5956 307.84 48.9814 306.25C48.4614 304.465 48.7059 302.416 49.9814 301.332C50.6002 300.923 51.2927 300.639 52.0205 300.496Z" fill="#020111" stroke="url(#paint4_linear_450_5635)"/>
</g>
<path id="Vector_6" d="M55.6602 304.758C55.6675 304.758 55.6743 304.761 55.6797 304.766C59.0824 308.294 63.0198 316.016 65.8633 325.554C68.703 335.079 70.4269 346.331 69.458 356.86L69.457 356.87C69.4563 356.88 69.4517 356.89 69.4443 356.896C69.4396 356.901 69.4328 356.901 69.4268 356.902C69.4246 356.901 69.4216 356.899 69.4199 356.897C69.4176 356.895 69.4162 356.891 69.415 356.888C69.4139 356.884 69.4128 356.88 69.4131 356.876V356.875C70.4017 346.334 68.6941 335.124 65.8848 325.666C63.0809 316.227 59.1549 308.449 55.6465 304.819L55.6445 304.817L55.6328 304.789C55.6328 304.78 55.6369 304.772 55.6426 304.765C55.6477 304.761 55.6536 304.758 55.6602 304.758Z" fill="#020111" stroke="url(#paint5_linear_450_5635)"/>
<path id="Vector_7" d="M52.1182 327.834L52.1279 327.835C57.3111 328.36 62.421 329.452 67.3672 331.088H67.3682C67.3717 331.089 67.3751 331.091 67.3779 331.094C67.3801 331.096 67.3813 331.098 67.3828 331.101C67.3748 331.105 67.3664 331.108 67.3574 331.107L67.3428 331.106H67.2578C62.3458 329.496 57.2751 328.418 52.1328 327.891H52.1338C52.1262 327.89 52.1191 327.886 52.1143 327.88C52.1094 327.874 52.1068 327.866 52.1074 327.858L52.1084 327.846L52.1094 327.833L52.1182 327.834Z" fill="#020111" stroke="url(#paint6_linear_450_5635)"/>
</g>
</g>
<g id="Plants_3">
<g id="Group_5">
<path id="Vector_8" d="M351.601 277.539C355.673 276.316 359.078 276.855 360.87 279.134C362.681 281.436 363.053 285.754 360.448 292.585H360.447C359.217 295.82 357.646 298.8 355.91 301.884C354.179 304.96 352.276 308.151 350.419 311.766C346.694 319.016 343.131 328.001 341.268 341.499C340.693 345.653 340.99 351.657 341.167 355.981L329.88 349.467C328.619 337.849 328.232 323.525 330.472 310.354V310.354C332.143 300.404 335.634 292.728 339.609 287.273C343.592 281.809 348.037 278.602 351.6 277.539H351.601Z" fill="#020111" stroke="url(#paint7_linear_450_5635)"/>
<path id="Vector_9" opacity="0.65" d="M351.601 277.539C355.673 276.316 359.078 276.855 360.87 279.134C362.681 281.436 363.053 285.754 360.448 292.585H360.447C359.217 295.82 357.646 298.8 355.91 301.884C354.179 304.96 352.276 308.151 350.419 311.766C346.694 319.016 343.131 328.001 341.268 341.499C340.693 345.653 340.99 351.657 341.167 355.981L329.88 349.467C328.619 337.849 328.232 323.525 330.472 310.354V310.354C332.143 300.404 335.634 292.728 339.609 287.273C343.592 281.809 348.037 278.602 351.6 277.539H351.601Z" fill="#020111" stroke="url(#paint8_linear_450_5635)"/>
<path id="Vector_10" d="M336.647 325.312C335.438 333.976 335.241 343.433 336.53 353.312L336.39 353.231C335.173 343.405 335.416 333.969 336.647 325.312ZM336.724 324.781C336.74 324.673 336.755 324.566 336.771 324.458C336.756 324.566 336.739 324.673 336.724 324.781ZM353.653 284.153C353.658 284.153 353.664 284.154 353.669 284.156L353.682 284.165L353.686 284.169C353.688 284.172 353.691 284.175 353.692 284.179C353.694 284.182 353.694 284.187 353.694 284.19C353.694 284.194 353.694 284.198 353.692 284.202C353.691 284.206 353.688 284.209 353.686 284.212L353.679 284.218L353.673 284.225C349.843 288.279 346.007 294.391 342.864 302.011C346.007 294.334 349.829 288.189 353.626 284.163C353.629 284.16 353.634 284.158 353.639 284.156C353.643 284.154 353.648 284.153 353.653 284.153Z" fill="#020111" stroke="url(#paint9_linear_450_5635)"/>
</g>
<g id="Group_6">
<path id="Vector_11" d="M360.945 308.828C363.938 307.496 366.901 307.458 369.473 309.742L369.475 309.743C371.05 311.132 371.46 312.977 371.179 315.021C370.895 317.081 369.909 319.292 368.754 321.287C367.464 323.512 365.6 325.615 363.486 328.008C361.383 330.389 359.052 333.036 356.896 336.308C352.307 343.28 348.537 347.68 344.894 358.135L338.765 354.596C339.776 332.935 348.278 320.302 352.516 315.592L352.52 315.586C354.952 312.808 357.93 310.171 360.945 308.828Z" fill="#020111" stroke="url(#paint10_linear_450_5635)"/>
<path id="Vector_12" opacity="0.3" d="M360.945 308.828C363.938 307.496 366.901 307.458 369.473 309.742L369.475 309.743C371.05 311.132 371.46 312.977 371.179 315.021C370.895 317.081 369.909 319.292 368.754 321.287C367.464 323.512 365.6 325.615 363.486 328.008C361.383 330.389 359.052 333.036 356.896 336.308C352.307 343.28 348.537 347.68 344.894 358.135L338.765 354.596C339.776 332.935 348.278 320.302 352.516 315.592L352.52 315.586C354.952 312.808 357.93 310.171 360.945 308.828Z" fill="#020111" stroke="url(#paint11_linear_450_5635)"/>
<path id="Vector_13" d="M363.513 314.962C363.519 314.961 363.526 314.961 363.532 314.962C363.539 314.963 363.545 314.966 363.551 314.97C363.556 314.973 363.56 314.979 363.563 314.984L363.566 314.987C363.575 315 363.577 315.016 363.574 315.031C363.571 315.046 363.562 315.06 363.549 315.068C361.673 316.285 359.555 318.451 357.396 321.247C355.228 324.055 352.996 327.53 350.901 331.389C346.83 338.889 343.26 347.877 341.702 356.303L341.64 356.265C343.203 347.733 346.811 338.649 350.955 331.073C353.053 327.237 355.284 323.797 357.448 321.019C359.618 318.233 361.7 316.14 363.494 314.97L363.495 314.969C363.5 314.965 363.506 314.963 363.513 314.962Z" fill="#020111" stroke="url(#paint12_linear_450_5635)"/>
</g>
</g>
</g>
<g id="Shadows">
<path id="Shadow" d="M118.918 336.778C135.908 336.778 151.264 340.756 162.356 347.16C173.462 353.572 180.203 362.355 180.203 371.952C180.203 381.549 173.462 390.333 162.356 396.745C151.264 403.15 135.908 407.127 118.918 407.127C101.928 407.127 86.5716 403.149 75.4795 396.745C64.3742 390.333 57.6328 381.549 57.6328 371.952C57.6329 362.355 64.3743 353.572 75.4795 347.16C86.5716 340.756 101.928 336.778 118.918 336.778Z" fill="#020111" stroke="url(#paint13_linear_450_5635)"/>
<path id="Shadow_2" d="M294.206 339.83C310.464 339.83 325.159 343.637 335.771 349.767C346.397 355.903 352.842 364.307 352.842 373.483C352.842 382.66 346.397 391.063 335.771 397.2C325.159 403.329 310.464 407.136 294.206 407.136C277.948 407.136 263.253 403.329 252.641 397.2C242.015 391.063 235.571 382.66 235.57 373.483C235.57 364.307 242.015 355.903 252.641 349.767C263.253 343.637 277.948 339.83 294.206 339.83Z" fill="#020111" stroke="url(#paint14_linear_450_5635)"/>
</g>
<g id="Question Marks">
<g id="Question Mark">
<path id="Vector_14" d="M401.184 242.977C400.481 242.978 399.783 242.851 399.124 242.604C398.398 242.331 397.732 241.921 397.162 241.396C396.61 240.898 396.164 240.293 395.851 239.619C395.538 238.944 395.363 238.214 395.337 237.471C395.306 236.685 395.432 235.901 395.709 235.165C395.979 234.44 396.386 233.773 396.906 233.202C397.405 232.649 398.009 232.202 398.682 231.887C400.098 231.244 401.71 231.188 403.166 231.73C403.9 231.995 404.569 232.413 405.129 232.956C405.669 233.463 406.112 234.065 406.434 234.733C406.75 235.415 406.934 236.151 406.973 236.902C407.013 237.683 406.893 238.465 406.62 239.198C406.347 239.928 405.93 240.596 405.394 241.161C404.369 242.246 402.96 242.888 401.469 242.947L401.184 242.977ZM396.72 235.537C396.495 236.133 396.392 236.766 396.416 237.402C396.441 237.992 396.578 238.571 396.818 239.11C397.075 239.649 397.435 240.132 397.878 240.533C398.353 240.966 398.91 241.299 399.516 241.514C400.108 241.739 400.739 241.842 401.371 241.818C401.969 241.792 402.558 241.655 403.108 241.416C403.653 241.164 404.145 240.811 404.56 240.376C404.99 239.916 405.323 239.373 405.539 238.782C405.755 238.19 405.849 237.56 405.816 236.931C405.79 236.33 405.646 235.74 405.394 235.194C405.127 234.65 404.765 234.158 404.324 233.741C403.867 233.304 403.322 232.969 402.725 232.76C402.127 232.533 401.489 232.433 400.851 232.466C400.248 232.493 399.656 232.633 399.104 232.878C398.567 233.133 398.086 233.493 397.691 233.938C397.265 234.403 396.931 234.946 396.71 235.537H396.72ZM407.562 230.365L401.116 228L402.637 221.984C402.862 220.899 403.425 219.913 404.246 219.168C405.027 218.494 405.916 217.956 406.875 217.578C407.891 217.178 408.934 216.85 409.995 216.596C411.048 216.325 412.081 215.981 413.086 215.566C414.036 215.168 414.922 214.632 415.716 213.976C416.523 213.27 417.129 212.362 417.472 211.346C417.721 210.702 417.825 210.012 417.776 209.324C417.716 208.686 417.522 208.067 417.207 207.508C416.862 206.908 416.402 206.381 415.853 205.958C415.226 205.468 414.524 205.083 413.773 204.819C412.773 204.42 411.717 204.178 410.643 204.103C409.84 204.057 409.035 204.09 408.239 204.201C407.533 204.319 406.934 204.437 406.424 204.554C405.909 204.709 405.36 204.709 404.844 204.554C404.395 204.41 403.997 204.14 403.696 203.777C403.395 203.413 403.205 202.972 403.147 202.503L402.166 197.93L402.617 197.753C403.653 197.355 404.715 197.027 405.796 196.772C408.2 196.199 410.692 196.096 413.135 196.468C414.545 196.688 415.929 197.05 417.266 197.547C419.084 198.189 420.784 199.124 422.299 200.315C423.651 201.374 424.778 202.692 425.616 204.191C426.409 205.633 426.874 207.231 426.98 208.873C427.073 210.631 426.796 212.39 426.165 214.035C425.638 215.576 424.826 217.004 423.771 218.245C422.878 219.259 421.84 220.135 420.69 220.846C419.639 221.478 418.516 221.982 417.344 222.347L414.244 223.329C413.382 223.598 412.54 223.926 411.722 224.31C411.118 224.567 410.615 225.015 410.29 225.586L407.562 230.365ZM402.46 227.294L407.042 228.972L409.309 224.909C409.751 224.125 410.441 223.51 411.271 223.162C412.138 222.775 413.029 222.448 413.94 222.181L417.05 221.199C418.132 220.86 419.17 220.392 420.141 219.806C421.194 219.156 422.143 218.352 422.957 217.421C423.918 216.29 424.657 214.988 425.135 213.583C425.708 212.085 425.962 210.484 425.881 208.882C425.791 207.402 425.372 205.96 424.654 204.662C423.892 203.293 422.861 202.091 421.622 201.129C420.201 200.014 418.607 199.139 416.903 198.538C415.631 198.081 414.316 197.752 412.978 197.557C410.692 197.21 408.36 197.307 406.11 197.842C405.232 198.047 404.367 198.306 403.52 198.617L404.305 202.278C404.329 202.551 404.436 202.811 404.612 203.023C404.787 203.235 405.022 203.389 405.286 203.465C405.591 203.548 405.913 203.548 406.218 203.465C406.748 203.338 407.376 203.22 408.112 203.102C408.985 202.969 409.869 202.929 410.751 202.984C411.938 203.064 413.106 203.325 414.215 203.76C415.073 204.07 415.878 204.514 416.599 205.075C417.261 205.592 417.817 206.232 418.237 206.959C418.636 207.657 418.877 208.434 418.944 209.236C419.013 210.09 418.889 210.949 418.581 211.748C418.173 212.95 417.451 214.02 416.491 214.849C415.605 215.584 414.612 216.18 413.547 216.616C412.495 217.055 411.413 217.419 410.309 217.705C409.308 217.969 408.325 218.297 407.366 218.687C406.522 219.024 405.74 219.498 405.05 220.09C404.401 220.677 403.96 221.459 403.794 222.318L402.46 227.294Z" fill="url(#paint15_linear_450_5635)"/>
</g>
<g id="Question Mark_2">
<path id="Vector_15" d="M35.3217 228.756H34.6447C33.0818 228.702 31.5278 228.498 30.0037 228.148C28.3148 227.742 26.6712 227.166 25.0978 226.43C22.9401 225.467 20.9521 224.161 19.2107 222.563C17.6725 221.139 16.4261 219.429 15.5411 217.529C14.7162 215.698 14.3073 213.707 14.3441 211.699C14.3928 209.545 14.8943 207.425 15.8158 205.477C16.6057 203.647 17.7343 201.982 19.142 200.57C20.3274 199.422 21.6765 198.456 23.1453 197.704C24.4865 197.032 25.9028 196.521 27.3643 196.183L31.2891 195.32C32.3779 195.084 33.4498 194.776 34.4975 194.397C35.2954 194.135 35.985 193.618 36.4599 192.925L40.2276 187.243L47.7042 190.678L45.1335 197.812C44.7715 199.102 44.0001 200.238 42.9357 201.051C41.9233 201.798 40.7922 202.369 39.5898 202.739C38.3047 203.153 36.9936 203.48 35.6651 203.72C34.3352 203.954 33.0236 204.282 31.7404 204.702C30.5171 205.106 29.36 205.688 28.3063 206.429C27.2301 207.231 26.3869 208.305 25.8631 209.54C25.4884 210.322 25.2907 211.176 25.2842 212.043C25.2918 212.853 25.4725 213.653 25.8141 214.388C26.2266 215.169 26.7903 215.859 27.4723 216.42C28.2041 217.089 29.039 217.636 29.9448 218.039C31.1494 218.627 32.4364 219.027 33.7616 219.227C34.7528 219.366 35.7556 219.402 36.7542 219.335C37.6177 219.266 38.383 219.178 39.0208 219.079C39.645 218.95 40.2936 219.008 40.885 219.246C41.3896 219.463 41.8233 219.818 42.1372 220.268C42.451 220.719 42.6324 221.249 42.6609 221.798L43.4165 227.412L42.9553 227.549C41.6447 227.934 40.3108 228.236 38.9619 228.452C37.7582 228.647 36.5411 228.749 35.3217 228.756ZM40.5514 188.675L37.3135 193.582C36.7113 194.473 35.8369 195.144 34.8213 195.496C33.7263 195.899 32.6052 196.227 31.4657 196.478L27.5409 197.351C26.1806 197.667 24.863 198.145 23.6162 198.774C22.252 199.476 20.999 200.375 19.8976 201.444C18.5996 202.759 17.5552 204.303 16.8166 205.997C15.958 207.799 15.4898 209.762 15.443 211.758C15.4087 213.604 15.7841 215.434 16.5419 217.117C17.3661 218.881 18.5258 220.467 19.9564 221.788C21.6099 223.304 23.4988 224.54 25.5492 225.449C27.0631 226.161 28.6484 226.711 30.2784 227.088C33.0814 227.757 35.9888 227.867 38.8343 227.412C39.9764 227.234 41.1067 226.988 42.2194 226.675L41.5915 221.984C41.5847 221.624 41.4697 221.274 41.2614 220.98C41.0532 220.686 40.7614 220.462 40.4239 220.336C40.032 220.188 39.6049 220.16 39.1974 220.257C38.5302 220.355 37.7452 220.444 36.8524 220.522C35.7754 220.595 34.6939 220.559 33.6243 220.414C32.1686 220.177 30.7565 219.724 29.4346 219.07C28.4209 218.613 27.4868 217.996 26.6677 217.244C25.9125 216.563 25.2991 215.739 24.8623 214.82C24.4526 213.937 24.2352 212.977 24.2246 212.003C24.2323 210.984 24.4634 209.979 24.9016 209.059C25.5126 207.64 26.4874 206.408 27.7274 205.487C28.8711 204.684 30.1276 204.056 31.4559 203.622C32.7875 203.196 34.1484 202.868 35.5278 202.641C36.8003 202.43 38.0562 202.128 39.2857 201.738C40.3704 201.407 41.3919 200.896 42.3077 200.227C43.2099 199.532 43.8582 198.559 44.1523 197.459L46.2423 191.286L40.5514 188.675ZM48.705 186.408H48.5088C47.5549 186.378 46.6168 186.157 45.7492 185.759C44.8815 185.361 44.1019 184.795 43.4557 184.092C42.8511 183.427 42.3753 182.655 42.0526 181.815C41.7266 180.964 41.5732 180.057 41.6013 179.146C41.631 178.203 41.8478 177.276 42.239 176.418C42.6283 175.547 43.1966 174.768 43.907 174.131C44.5658 173.522 45.3352 173.046 46.1736 172.728C47.5073 172.282 48.9412 172.23 50.3036 172.578C51.6661 172.926 52.8994 173.66 53.8562 174.69C54.4791 175.341 54.9629 176.111 55.2784 176.955C55.5938 177.799 55.7342 178.698 55.691 179.597C55.655 180.546 55.428 181.477 55.0238 182.336C54.6394 183.193 54.0853 183.965 53.3951 184.603C52.7432 185.225 51.9722 185.709 51.1285 186.026C50.3402 186.298 49.5095 186.428 48.6756 186.408H48.705ZM48.5873 173.473C47.9184 173.476 47.2548 173.592 46.6249 173.817C45.8999 174.068 45.2326 174.461 44.6626 174.975C44.0624 175.521 43.5872 176.191 43.2693 176.938C42.9426 177.641 42.7595 178.403 42.7309 179.178C42.7023 179.953 42.8286 180.727 43.1025 181.452C43.375 182.174 43.7774 182.839 44.2897 183.415C44.8427 184.008 45.5104 184.482 46.2521 184.809C46.9861 185.146 47.78 185.332 48.5873 185.358C49.3455 185.385 50.1018 185.265 50.8146 185.005C51.5176 184.737 52.1611 184.334 52.7082 183.817C53.2829 183.272 53.749 182.623 54.0819 181.904C54.4229 181.181 54.6131 180.396 54.6412 179.597C54.6734 178.849 54.5567 178.102 54.2977 177.399C54.036 176.696 53.6318 176.054 53.1105 175.515C52.5554 174.925 51.8883 174.451 51.1482 174.121C50.4257 173.778 49.6414 173.585 48.8424 173.552L48.5873 173.473Z" fill="url(#paint16_linear_450_5635)"/>
</g>
<g id="Question Mark_3">
<g id="Vector_16">
<mask id="path-18-outside-1_450_5635" maskUnits="userSpaceOnUse" x="378.26" y="47.8223" width="49" height="71" fill="black">
<rect fill="white" x="378.26" y="47.8223" width="49" height="71"/>
<path d="M409.946 113.686C409.499 113.684 409.052 113.641 408.612 113.559C407.704 113.408 406.836 113.074 406.061 112.577C405.28 112.064 404.612 111.396 404.098 110.615C403.558 109.806 403.181 108.899 402.99 107.945C402.803 107.002 402.803 106.032 402.99 105.089C403.143 104.182 403.476 103.314 403.971 102.538C405.043 100.942 406.699 99.832 408.582 99.4462C409.553 99.2395 410.556 99.2395 411.526 99.4462C412.421 99.6207 413.278 99.953 414.057 100.428C414.831 100.95 415.498 101.616 416.02 102.39C416.847 103.572 417.297 104.976 417.309 106.418C417.321 107.86 416.896 109.272 416.088 110.467C415.565 111.24 414.899 111.906 414.126 112.43C413.325 112.977 412.42 113.355 411.467 113.539C410.966 113.638 410.457 113.687 409.946 113.686ZM404.128 107.729C404.285 108.536 404.602 109.304 405.06 109.987C405.489 110.624 406.039 111.17 406.679 111.596C407.33 112.017 408.056 112.307 408.818 112.45C409.631 112.611 410.468 112.611 411.281 112.45C412.093 112.282 412.861 111.948 413.537 111.468C414.181 111.034 414.737 110.481 415.176 109.839C415.607 109.193 415.911 108.47 416.069 107.71C416.225 106.907 416.219 106.08 416.051 105.279C415.882 104.479 415.555 103.72 415.088 103.048C414.647 102.401 414.084 101.847 413.429 101.419C412.768 101.001 412.037 100.705 411.271 100.545C410.465 100.375 409.633 100.375 408.828 100.545C408.013 100.713 407.241 101.047 406.561 101.527C405.919 101.969 405.367 102.528 404.932 103.176C404.513 103.827 404.224 104.554 404.079 105.315C403.922 106.115 403.922 106.939 404.079 107.739L404.128 107.729ZM404.128 96.4922L401.802 89.1415C401.326 87.8535 401.274 86.4469 401.655 85.1275C402.042 83.8962 402.632 82.7385 403.402 81.7024C404.205 80.5834 405.08 79.518 406.022 78.5128C406.98 77.5183 407.866 76.4556 408.671 75.3331C409.442 74.2584 410.047 73.074 410.466 71.8196C410.871 70.5017 410.922 69.1004 410.613 67.7566C410.448 66.8775 410.09 66.0462 409.564 65.3227C409.051 64.6891 408.413 64.168 407.69 63.7917C406.903 63.3631 406.039 63.0961 405.148 63.0066C404.132 62.9003 403.106 62.9533 402.107 63.1636C400.755 63.4122 399.449 63.8621 398.231 64.4984C397.325 64.9819 396.473 65.561 395.69 66.2256C395.013 66.8145 394.424 67.3542 393.963 67.8155C393.527 68.2995 392.956 68.6414 392.324 68.7969C391.775 68.9457 391.195 68.9323 390.653 68.7581C390.112 68.5839 389.632 68.2565 389.273 67.8155L385.26 63.6347L385.544 63.252C386.394 62.1369 387.315 61.0781 388.301 60.082C389.353 59.0247 390.5 58.0654 391.726 57.2163C393.052 56.3142 394.461 55.5419 395.935 54.91C397.587 54.209 399.307 53.6795 401.067 53.33C403.438 52.8182 405.877 52.6923 408.288 52.957C410.426 53.2001 412.494 53.8674 414.371 54.9198C416.152 55.897 417.699 57.2499 418.904 58.8847C420.168 60.6946 421.034 62.7516 421.446 64.9204C421.9 66.91 421.977 68.9675 421.671 70.9854C421.391 72.6547 420.862 74.2724 420.101 75.7845C419.401 77.156 418.538 78.4378 417.531 79.6022L414.823 82.6838C414.06 83.533 413.359 84.4348 412.723 85.3827C412.228 86.0842 411.976 86.9288 412.007 87.7871L412.331 94.7551L404.128 96.4922ZM404.197 61.77C404.571 61.7679 404.944 61.7908 405.315 61.8387C406.346 61.9494 407.346 62.2594 408.259 62.7514C409.161 63.2435 409.942 63.9319 410.543 64.7659C411.144 65.5999 411.55 66.5582 411.732 67.5702C412.09 69.1087 412.029 70.7151 411.555 72.222C411.095 73.5821 410.433 74.8656 409.593 76.0299C408.757 77.1992 407.836 78.3047 406.836 79.3372C405.905 80.2883 405.04 81.3015 404.246 82.3698C403.553 83.3065 403.019 84.3509 402.666 85.4612C402.356 86.5565 402.404 87.7222 402.803 88.7882L404.854 95.1967L411.163 93.9013L410.878 87.8951C410.84 86.7975 411.156 85.7167 411.781 84.8135C412.443 83.8211 413.174 82.8766 413.969 81.987L416.677 78.8956C417.625 77.8043 418.435 76.6013 419.091 75.3134C419.799 73.8998 420.292 72.388 420.553 70.8284C420.837 68.9506 420.763 67.036 420.337 65.1853C419.957 63.172 419.154 61.2621 417.982 59.5815C416.887 58.0332 415.463 56.7463 413.812 55.8129C412.071 54.8345 410.154 54.2108 408.17 53.9777C405.876 53.7228 403.556 53.8455 401.302 54.3408C399.619 54.6734 397.975 55.1799 396.396 55.8522C394.99 56.4518 393.646 57.1881 392.383 58.0505C391.205 58.8779 390.108 59.8144 389.106 60.8475C388.265 61.6922 387.475 62.5869 386.741 63.5268L390.117 67.0304C390.339 67.3254 390.645 67.5468 390.995 67.6658C391.345 67.7848 391.723 67.7959 392.079 67.6977C392.49 67.578 392.857 67.343 393.139 67.0206C393.629 66.5299 394.228 65.9803 394.924 65.3718C395.771 64.658 396.688 64.0332 397.662 63.5071C398.981 62.8151 400.397 62.3255 401.861 62.0547C402.615 61.8824 403.384 61.787 404.157 61.77H404.197Z"/>
</mask>
<path d="M409.946 113.686C409.499 113.684 409.052 113.641 408.612 113.559C407.704 113.408 406.836 113.074 406.061 112.577C405.28 112.064 404.612 111.396 404.098 110.615C403.558 109.806 403.181 108.899 402.99 107.945C402.803 107.002 402.803 106.032 402.99 105.089C403.143 104.182 403.476 103.314 403.971 102.538C405.043 100.942 406.699 99.832 408.582 99.4462C409.553 99.2395 410.556 99.2395 411.526 99.4462C412.421 99.6207 413.278 99.953 414.057 100.428C414.831 100.95 415.498 101.616 416.02 102.39C416.847 103.572 417.297 104.976 417.309 106.418C417.321 107.86 416.896 109.272 416.088 110.467C415.565 111.24 414.899 111.906 414.126 112.43C413.325 112.977 412.42 113.355 411.467 113.539C410.966 113.638 410.457 113.687 409.946 113.686ZM404.128 107.729C404.285 108.536 404.602 109.304 405.06 109.987C405.489 110.624 406.039 111.17 406.679 111.596C407.33 112.017 408.056 112.307 408.818 112.45C409.631 112.611 410.468 112.611 411.281 112.45C412.093 112.282 412.861 111.948 413.537 111.468C414.181 111.034 414.737 110.481 415.176 109.839C415.607 109.193 415.911 108.47 416.069 107.71C416.225 106.907 416.219 106.08 416.051 105.279C415.882 104.479 415.555 103.72 415.088 103.048C414.647 102.401 414.084 101.847 413.429 101.419C412.768 101.001 412.037 100.705 411.271 100.545C410.465 100.375 409.633 100.375 408.828 100.545C408.013 100.713 407.241 101.047 406.561 101.527C405.919 101.969 405.367 102.528 404.932 103.176C404.513 103.827 404.224 104.554 404.079 105.315C403.922 106.115 403.922 106.939 404.079 107.739L404.128 107.729ZM404.128 96.4922L401.802 89.1415C401.326 87.8535 401.274 86.4469 401.655 85.1275C402.042 83.8962 402.632 82.7385 403.402 81.7024C404.205 80.5834 405.08 79.518 406.022 78.5128C406.98 77.5183 407.866 76.4556 408.671 75.3331C409.442 74.2584 410.047 73.074 410.466 71.8196C410.871 70.5017 410.922 69.1004 410.613 67.7566C410.448 66.8775 410.09 66.0462 409.564 65.3227C409.051 64.6891 408.413 64.168 407.69 63.7917C406.903 63.3631 406.039 63.0961 405.148 63.0066C404.132 62.9003 403.106 62.9533 402.107 63.1636C400.755 63.4122 399.449 63.8621 398.231 64.4984C397.325 64.9819 396.473 65.561 395.69 66.2256C395.013 66.8145 394.424 67.3542 393.963 67.8155C393.527 68.2995 392.956 68.6414 392.324 68.7969C391.775 68.9457 391.195 68.9323 390.653 68.7581C390.112 68.5839 389.632 68.2565 389.273 67.8155L385.26 63.6347L385.544 63.252C386.394 62.1369 387.315 61.0781 388.301 60.082C389.353 59.0247 390.5 58.0654 391.726 57.2163C393.052 56.3142 394.461 55.5419 395.935 54.91C397.587 54.209 399.307 53.6795 401.067 53.33C403.438 52.8182 405.877 52.6923 408.288 52.957C410.426 53.2001 412.494 53.8674 414.371 54.9198C416.152 55.897 417.699 57.2499 418.904 58.8847C420.168 60.6946 421.034 62.7516 421.446 64.9204C421.9 66.91 421.977 68.9675 421.671 70.9854C421.391 72.6547 420.862 74.2724 420.101 75.7845C419.401 77.156 418.538 78.4378 417.531 79.6022L414.823 82.6838C414.06 83.533 413.359 84.4348 412.723 85.3827C412.228 86.0842 411.976 86.9288 412.007 87.7871L412.331 94.7551L404.128 96.4922ZM404.197 61.77C404.571 61.7679 404.944 61.7908 405.315 61.8387C406.346 61.9494 407.346 62.2594 408.259 62.7514C409.161 63.2435 409.942 63.9319 410.543 64.7659C411.144 65.5999 411.55 66.5582 411.732 67.5702C412.09 69.1087 412.029 70.7151 411.555 72.222C411.095 73.5821 410.433 74.8656 409.593 76.0299C408.757 77.1992 407.836 78.3047 406.836 79.3372C405.905 80.2883 405.04 81.3015 404.246 82.3698C403.553 83.3065 403.019 84.3509 402.666 85.4612C402.356 86.5565 402.404 87.7222 402.803 88.7882L404.854 95.1967L411.163 93.9013L410.878 87.8951C410.84 86.7975 411.156 85.7167 411.781 84.8135C412.443 83.8211 413.174 82.8766 413.969 81.987L416.677 78.8956C417.625 77.8043 418.435 76.6013 419.091 75.3134C419.799 73.8998 420.292 72.388 420.553 70.8284C420.837 68.9506 420.763 67.036 420.337 65.1853C419.957 63.172 419.154 61.2621 417.982 59.5815C416.887 58.0332 415.463 56.7463 413.812 55.8129C412.071 54.8345 410.154 54.2108 408.17 53.9777C405.876 53.7228 403.556 53.8455 401.302 54.3408C399.619 54.6734 397.975 55.1799 396.396 55.8522C394.99 56.4518 393.646 57.1881 392.383 58.0505C391.205 58.8779 390.108 59.8144 389.106 60.8475C388.265 61.6922 387.475 62.5869 386.741 63.5268L390.117 67.0304C390.339 67.3254 390.645 67.5468 390.995 67.6658C391.345 67.7848 391.723 67.7959 392.079 67.6977C392.49 67.578 392.857 67.343 393.139 67.0206C393.629 66.5299 394.228 65.9803 394.924 65.3718C395.771 64.658 396.688 64.0332 397.662 63.5071C398.981 62.8151 400.397 62.3255 401.861 62.0547C402.615 61.8824 403.384 61.787 404.157 61.77H404.197Z" fill="url(#paint17_linear_450_5635)"/>
<path d="M409.946 113.686C409.499 113.684 409.052 113.641 408.612 113.559C407.704 113.408 406.836 113.074 406.061 112.577C405.28 112.064 404.612 111.396 404.098 110.615C403.558 109.806 403.181 108.899 402.99 107.945C402.803 107.002 402.803 106.032 402.99 105.089C403.143 104.182 403.476 103.314 403.971 102.538C405.043 100.942 406.699 99.832 408.582 99.4462C409.553 99.2395 410.556 99.2395 411.526 99.4462C412.421 99.6207 413.278 99.953 414.057 100.428C414.831 100.95 415.498 101.616 416.02 102.39C416.847 103.572 417.297 104.976 417.309 106.418C417.321 107.86 416.896 109.272 416.088 110.467C415.565 111.24 414.899 111.906 414.126 112.43C413.325 112.977 412.42 113.355 411.467 113.539C410.966 113.638 410.457 113.687 409.946 113.686ZM404.128 107.729C404.285 108.536 404.602 109.304 405.06 109.987C405.489 110.624 406.039 111.17 406.679 111.596C407.33 112.017 408.056 112.307 408.818 112.45C409.631 112.611 410.468 112.611 411.281 112.45C412.093 112.282 412.861 111.948 413.537 111.468C414.181 111.034 414.737 110.481 415.176 109.839C415.607 109.193 415.911 108.47 416.069 107.71C416.225 106.907 416.219 106.08 416.051 105.279C415.882 104.479 415.555 103.72 415.088 103.048C414.647 102.401 414.084 101.847 413.429 101.419C412.768 101.001 412.037 100.705 411.271 100.545C410.465 100.375 409.633 100.375 408.828 100.545C408.013 100.713 407.241 101.047 406.561 101.527C405.919 101.969 405.367 102.528 404.932 103.176C404.513 103.827 404.224 104.554 404.079 105.315C403.922 106.115 403.922 106.939 404.079 107.739L404.128 107.729ZM404.128 96.4922L401.802 89.1415C401.326 87.8535 401.274 86.4469 401.655 85.1275C402.042 83.8962 402.632 82.7385 403.402 81.7024C404.205 80.5834 405.08 79.518 406.022 78.5128C406.98 77.5183 407.866 76.4556 408.671 75.3331C409.442 74.2584 410.047 73.074 410.466 71.8196C410.871 70.5017 410.922 69.1004 410.613 67.7566C410.448 66.8775 410.09 66.0462 409.564 65.3227C409.051 64.6891 408.413 64.168 407.69 63.7917C406.903 63.3631 406.039 63.0961 405.148 63.0066C404.132 62.9003 403.106 62.9533 402.107 63.1636C400.755 63.4122 399.449 63.8621 398.231 64.4984C397.325 64.9819 396.473 65.561 395.69 66.2256C395.013 66.8145 394.424 67.3542 393.963 67.8155C393.527 68.2995 392.956 68.6414 392.324 68.7969C391.775 68.9457 391.195 68.9323 390.653 68.7581C390.112 68.5839 389.632 68.2565 389.273 67.8155L385.26 63.6347L385.544 63.252C386.394 62.1369 387.315 61.0781 388.301 60.082C389.353 59.0247 390.5 58.0654 391.726 57.2163C393.052 56.3142 394.461 55.5419 395.935 54.91C397.587 54.209 399.307 53.6795 401.067 53.33C403.438 52.8182 405.877 52.6923 408.288 52.957C410.426 53.2001 412.494 53.8674 414.371 54.9198C416.152 55.897 417.699 57.2499 418.904 58.8847C420.168 60.6946 421.034 62.7516 421.446 64.9204C421.9 66.91 421.977 68.9675 421.671 70.9854C421.391 72.6547 420.862 74.2724 420.101 75.7845C419.401 77.156 418.538 78.4378 417.531 79.6022L414.823 82.6838C414.06 83.533 413.359 84.4348 412.723 85.3827C412.228 86.0842 411.976 86.9288 412.007 87.7871L412.331 94.7551L404.128 96.4922ZM404.197 61.77C404.571 61.7679 404.944 61.7908 405.315 61.8387C406.346 61.9494 407.346 62.2594 408.259 62.7514C409.161 63.2435 409.942 63.9319 410.543 64.7659C411.144 65.5999 411.55 66.5582 411.732 67.5702C412.09 69.1087 412.029 70.7151 411.555 72.222C411.095 73.5821 410.433 74.8656 409.593 76.0299C408.757 77.1992 407.836 78.3047 406.836 79.3372C405.905 80.2883 405.04 81.3015 404.246 82.3698C403.553 83.3065 403.019 84.3509 402.666 85.4612C402.356 86.5565 402.404 87.7222 402.803 88.7882L404.854 95.1967L411.163 93.9013L410.878 87.8951C410.84 86.7975 411.156 85.7167 411.781 84.8135C412.443 83.8211 413.174 82.8766 413.969 81.987L416.677 78.8956C417.625 77.8043 418.435 76.6013 419.091 75.3134C419.799 73.8998 420.292 72.388 420.553 70.8284C420.837 68.9506 420.763 67.036 420.337 65.1853C419.957 63.172 419.154 61.2621 417.982 59.5815C416.887 58.0332 415.463 56.7463 413.812 55.8129C412.071 54.8345 410.154 54.2108 408.17 53.9777C405.876 53.7228 403.556 53.8455 401.302 54.3408C399.619 54.6734 397.975 55.1799 396.396 55.8522C394.99 56.4518 393.646 57.1881 392.383 58.0505C391.205 58.8779 390.108 59.8144 389.106 60.8475C388.265 61.6922 387.475 62.5869 386.741 63.5268L390.117 67.0304C390.339 67.3254 390.645 67.5468 390.995 67.6658C391.345 67.7848 391.723 67.7959 392.079 67.6977C392.49 67.578 392.857 67.343 393.139 67.0206C393.629 66.5299 394.228 65.9803 394.924 65.3718C395.771 64.658 396.688 64.0332 397.662 63.5071C398.981 62.8151 400.397 62.3255 401.861 62.0547C402.615 61.8824 403.384 61.787 404.157 61.77H404.197Z" stroke="black" stroke-width="10" mask="url(#path-18-outside-1_450_5635)"/>
</g>
</g>
<g id="Question Mark_4">
<path id="Vector_17" d="M36.3032 78.9542C33.2289 78.9458 30.1811 78.384 27.3058 77.2956C24.9894 76.4783 22.8219 75.2882 20.8889 73.7724C19.1764 72.4298 17.746 70.7623 16.6796 68.8653C15.6834 67.0518 15.0973 65.0417 14.9625 62.9769C14.8422 60.7435 15.1933 58.5099 15.9928 56.4211C16.656 54.4526 17.6809 52.6253 19.0148 51.0332C20.1545 49.7476 21.4768 48.6366 22.9395 47.7357C24.2733 46.9311 25.6999 46.2918 27.188 45.8317L31.1716 44.605C32.2803 44.2767 33.3654 43.8734 34.4193 43.3978C35.2161 43.0485 35.8774 42.449 36.3032 41.6902L39.7373 35.5172L47.734 38.4614L45.7716 46.028C45.5123 47.3826 44.8243 48.6178 43.8092 49.5513C42.8212 50.4063 41.6969 51.0896 40.483 51.573C39.1847 52.0909 37.854 52.5237 36.4994 52.8684C35.1442 53.2123 33.8161 53.6551 32.5257 54.1933C31.2916 54.7114 30.141 55.4092 29.1111 56.2641C28.05 57.1809 27.2567 58.3678 26.8152 59.699C26.4843 60.5408 26.35 61.4472 26.4227 62.3488C26.4923 63.2014 26.7468 64.0286 27.1684 64.7729C27.6286 65.5354 28.2316 66.2018 28.9443 66.7357C29.7586 67.371 30.6697 67.8713 31.6426 68.2176C32.9424 68.7283 34.3119 69.0393 35.7047 69.1401C36.7434 69.2044 37.786 69.1584 38.815 69.0027C39.7177 68.8555 40.5027 68.7083 41.1502 68.5611C41.789 68.3606 42.4738 68.3606 43.1126 68.5611C43.6611 68.7467 44.1441 69.0875 44.5029 69.5421C44.8616 69.9968 45.0808 70.5458 45.1338 71.1226L46.3603 76.854L45.909 77.0306C44.5879 77.5397 43.234 77.9593 41.8567 78.2868C40.3849 78.6373 38.8838 78.8509 37.3727 78.9247C37.0325 78.9444 36.676 78.9542 36.3032 78.9542ZM40.2279 36.9107L37.2844 42.2005C36.7306 43.1616 35.8852 43.9213 34.8707 44.3694C33.7653 44.8697 32.6279 45.2959 31.466 45.6453L27.5413 46.8622C26.1389 47.3053 24.7974 47.9218 23.5479 48.6974C22.1839 49.5362 20.9536 50.575 19.8979 51.779C18.6499 53.244 17.691 54.9324 17.0721 56.7548C16.3229 58.6954 15.9887 60.7715 16.0909 62.8493C16.2058 64.7648 16.7418 66.6313 17.6608 68.3157C18.6536 70.0849 19.9876 71.6394 21.5855 72.8891C23.427 74.325 25.4877 75.455 27.6884 76.2357C29.3138 76.8396 30.9973 77.2738 32.7121 77.5311C34.2439 77.766 35.7952 77.8482 37.3433 77.7765C38.7851 77.7074 40.2173 77.5037 41.6212 77.168C42.8107 76.8955 43.9835 76.5548 45.1338 76.1474L44.0545 71.3188C44.0193 70.9398 43.8701 70.5804 43.6267 70.2878C43.3832 69.9953 43.0569 69.7833 42.6907 69.6799C42.2711 69.5564 41.8249 69.5564 41.4053 69.6799C40.7283 69.8369 39.9238 69.9939 39.0014 70.1412C37.8909 70.305 36.7664 70.3543 35.6458 70.2884C34.1429 70.1831 32.6644 69.8522 31.2599 69.307C30.173 68.9135 29.1536 68.354 28.2379 67.6484C27.4049 67.0004 26.7051 66.1972 26.1774 65.2832C25.685 64.4077 25.384 63.4376 25.2944 62.4371C25.2106 61.3657 25.3681 60.2892 25.7555 59.2868C26.2672 57.7676 27.175 56.4124 28.3851 55.3612C29.5037 54.4356 30.7536 53.6815 32.0939 53.1236C33.4355 52.5628 34.8161 52.1004 36.2247 51.7398C37.527 51.4114 38.8054 50.995 40.0513 50.4934C41.1504 50.0621 42.1688 49.4483 43.0635 48.6778C43.9162 47.9 44.4945 46.8672 44.7119 45.7336L46.3897 39.1385L40.2279 36.9107ZM47.9302 33.9665C47.0626 33.963 46.2024 33.8069 45.3889 33.5053C44.4574 33.1701 43.6055 32.6455 42.8869 31.9645C42.2126 31.3238 41.6606 30.5655 41.2582 29.7269C40.8523 28.8753 40.6221 27.9508 40.5811 27.0084C40.5338 26.0307 40.6805 25.0534 41.0129 24.1328C41.3504 23.184 41.8855 22.3176 42.5828 21.591C43.223 20.9083 43.9937 20.361 44.8493 19.9815C45.6957 19.5983 46.6091 19.3849 47.5377 19.3534C48.5207 19.3079 49.5026 19.4649 50.4224 19.8147C51.3695 20.1492 52.2402 20.6697 52.9833 21.3456C53.6767 21.966 54.237 22.7209 54.63 23.5644C55.023 24.4079 55.2405 25.3225 55.2694 26.2527C55.3135 27.2358 55.1566 28.2176 54.8083 29.138C54.4754 30.0532 53.9653 30.8936 53.3071 31.6112C52.6644 32.3123 51.8868 32.8764 51.0209 33.2697C50.1684 33.6581 49.2488 33.8781 48.3129 33.9175L47.9302 33.9665ZM47.8124 20.5213H47.5868C46.8004 20.5458 46.0268 20.7259 45.3104 21.0512C44.5675 21.3841 43.8999 21.8646 43.3483 22.4635C42.7968 23.0624 42.3727 23.7673 42.102 24.5352C41.8162 25.3098 41.6926 26.1349 41.7389 26.9593C41.7745 27.7539 41.9645 28.5339 42.2982 29.2558C42.6466 29.9703 43.1221 30.6154 43.7013 31.1597C44.3104 31.7074 45.0249 32.1248 45.801 32.3865C46.5919 32.6758 47.4322 32.8059 48.2736 32.7692C49.0643 32.738 49.8412 32.5512 50.5597 32.2196C51.2743 31.8902 51.9125 31.4156 52.4338 30.826C52.9917 30.2157 53.4249 29.5023 53.7093 28.7258C54.0007 27.9453 54.1341 27.1146 54.1018 26.2821C54.0737 25.5024 53.8937 24.7357 53.572 24.0249C53.2308 23.3172 52.758 22.681 52.1787 22.1504C51.5528 21.596 50.8268 21.1663 50.0397 20.8844C49.3365 20.6219 48.5925 20.4857 47.8419 20.482L47.8124 20.5213Z" fill="url(#paint18_linear_450_5635)"/>
</g>
</g>
<g id="Big Question Mark">
<g id="Question Mark_5">
<g id="Group_7">
<path id="Vector_18" d="M330.816 328.997C329.42 323.797 327.446 318.77 324.929 314.011C322.512 309.447 319.593 305.168 316.226 301.253C313.167 297.625 309.518 294.539 305.433 292.125C302.163 290.076 298.416 288.913 294.561 288.749C291.438 288.649 288.372 289.603 285.858 291.458C283.444 293.284 261.436 305.139 259.013 306.964C256.362 309.134 254.385 312.014 253.312 315.267C251.847 319.459 251.143 323.88 251.232 328.32C251.247 333.58 251.946 338.815 253.312 343.895C254.661 349.02 256.579 353.977 259.033 358.675C261.409 363.223 264.331 367.465 267.736 371.305C270.868 374.889 274.555 377.947 278.656 380.364C281.908 382.399 285.62 383.584 289.449 383.808C292.558 383.941 295.622 383.029 298.152 381.218C300.625 379.422 322.515 367.478 324.997 365.711C327.684 363.63 329.726 360.83 330.884 357.634C332.423 353.423 333.139 348.955 332.994 344.474C332.956 339.241 332.223 334.037 330.816 328.997Z" fill="url(#paint19_linear_450_5635)"/>
<path id="Vector_19" opacity="0.4" d="M330.816 328.997C329.42 323.797 327.446 318.77 324.929 314.011C322.512 309.447 319.593 305.168 316.226 301.253C313.167 297.625 309.518 294.539 305.433 292.125C302.163 290.076 298.416 288.913 294.561 288.749C291.438 288.649 288.372 289.603 285.858 291.458C283.444 293.284 261.436 305.139 259.013 306.964C256.362 309.134 254.385 312.014 253.312 315.267C251.847 319.459 251.143 323.88 251.232 328.32C251.247 333.58 251.946 338.815 253.312 343.895C254.661 349.02 256.579 353.977 259.033 358.675C261.409 363.223 264.331 367.465 267.736 371.305C270.868 374.889 274.555 377.947 278.656 380.364C281.908 382.399 285.62 383.584 289.449 383.808C292.558 383.941 295.622 383.029 298.152 381.218C300.625 379.422 322.515 367.478 324.997 365.711C327.684 363.63 329.726 360.83 330.884 357.634C332.423 353.423 333.139 348.955 332.994 344.474C332.956 339.241 332.223 334.037 330.816 328.997Z" fill="white"/>
</g>
<path id="Vector_20" d="M378.471 138.221C375.139 126.273 370.33 114.787 364.156 104.029C358.033 93.3152 350.575 83.4221 341.961 74.5867C333.463 65.8394 323.799 58.3065 313.242 52.2008C306.445 48.1535 299.201 44.9095 291.656 42.534C285.67 40.6575 279.452 39.6269 273.181 39.472C267.813 39.3768 262.464 40.1185 257.325 41.6703C252.606 43.1203 248.078 45.1266 243.833 47.6471L216.988 63.1533L228.762 94.8429C230.725 100.79 233.865 105.02 238.182 107.533C239.113 108.053 240.143 108.369 241.206 108.461C242.268 108.552 243.338 108.416 244.344 108.062C247.112 107.274 249.923 106.642 252.762 106.168C256.798 105.597 260.9 105.679 264.909 106.414C269.678 107.16 275.503 109.518 282.384 113.49C287.205 116.293 291.624 119.737 295.522 123.726C299.562 127.828 303.073 132.421 305.972 137.397C308.862 142.357 311.142 147.65 312.761 153.158C314.387 158.674 315.21 164.396 315.204 170.146C315.204 179.175 313.785 186.13 310.946 191.011C309.87 192.852 308.636 194.596 307.257 196.222C304.919 197.284 302.654 198.5 300.477 199.863C297.838 201.522 277.557 212.877 273.632 215.369C269.652 217.913 266.405 221.451 264.213 225.635C261.858 229.992 261.043 236.162 261.769 244.144L264.84 285.304L295.463 302.97L322.308 287.464L326.468 254.586C326.742 252.167 327.507 249.83 328.715 247.717L329.608 247.324C331.094 246.678 332.533 245.93 333.916 245.086C337.026 243.182 358.808 230.709 359.956 230.051C363.544 227.953 366.793 225.323 369.591 222.249C373.575 217.951 376.895 212.098 379.55 204.692C382.206 197.285 383.534 187.471 383.534 175.25C383.544 162.733 381.841 150.275 378.471 138.221Z" fill="url(#paint20_linear_450_5635)"/>
<path id="Vector_21" opacity="0.4" d="M378.471 138.221C375.139 126.273 370.33 114.787 364.156 104.029C358.033 93.3152 350.575 83.4221 341.961 74.5867C333.463 65.8394 323.799 58.3065 313.242 52.2008C306.445 48.1535 299.201 44.9095 291.656 42.534C285.67 40.6575 279.452 39.6269 273.181 39.472C267.813 39.3768 262.464 40.1185 257.325 41.6703C252.606 43.1203 248.078 45.1266 243.833 47.6471L216.988 63.1533L228.762 94.8429C230.725 100.79 233.865 105.02 238.182 107.533C239.113 108.053 240.143 108.369 241.206 108.461C242.268 108.552 243.338 108.416 244.344 108.062C247.112 107.274 249.923 106.642 252.762 106.168C256.798 105.597 260.9 105.679 264.909 106.414C269.678 107.16 275.503 109.518 282.384 113.49C287.205 116.293 291.624 119.737 295.522 123.726C299.562 127.828 303.073 132.421 305.972 137.397C308.862 142.357 311.142 147.65 312.761 153.158C314.387 158.674 315.21 164.396 315.204 170.146C315.204 179.175 313.785 186.13 310.946 191.011C309.87 192.852 308.636 194.596 307.257 196.222C304.919 197.284 302.654 198.5 300.477 199.863C297.838 201.522 277.557 212.877 273.632 215.369C269.652 217.913 266.405 221.451 264.213 225.635C261.858 229.992 261.043 236.162 261.769 244.144L264.84 285.304L295.463 302.97L322.308 287.464L326.468 254.586C326.742 252.167 327.507 249.83 328.715 247.717L329.608 247.324C331.094 246.678 332.533 245.93 333.916 245.086C337.026 243.182 358.808 230.709 359.956 230.051C363.544 227.953 366.793 225.323 369.591 222.249C373.575 217.951 376.895 212.098 379.55 204.692C382.206 197.285 383.534 187.471 383.534 175.25C383.544 162.733 381.841 150.275 378.471 138.221Z" fill="white"/>
<g id="Group_8">
<path id="Vector_22" d="M298.093 329.517C295.674 324.955 292.755 320.676 289.39 316.759C286.331 313.131 282.682 310.045 278.597 307.631C275.335 305.577 271.596 304.407 267.745 304.236C264.622 304.135 261.557 305.089 259.042 306.944C256.392 309.114 254.414 311.994 253.342 315.247C251.877 319.439 251.172 323.86 251.261 328.3C251.276 333.56 251.975 338.795 253.342 343.875C254.679 349.005 256.588 353.97 259.032 358.674C261.409 363.223 264.331 367.465 267.735 371.305C270.868 374.889 274.555 377.947 278.656 380.363C281.908 382.399 285.619 383.583 289.449 383.808C292.558 383.941 295.622 383.029 298.152 381.217C300.839 379.136 302.88 376.335 304.039 373.14C305.561 368.939 306.271 364.486 306.129 360.019C306.092 354.777 305.363 349.563 303.961 344.513C302.571 339.31 300.603 334.28 298.093 329.517Z" fill="#020111"/>
<path id="Vector_23" d="M267.637 306.984H267.726C271.107 307.153 274.389 308.19 277.253 309.997C281.067 312.261 284.474 315.15 287.33 318.545C290.557 322.306 293.357 326.414 295.679 330.793C298.102 335.374 300.001 340.213 301.341 345.22C302.685 350.039 303.384 355.016 303.421 360.019C303.534 364.14 302.869 368.246 301.459 372.12C300.483 374.829 298.766 377.21 296.504 378.99C294.541 380.394 292.175 381.121 289.763 381.061H289.449C286.085 380.84 282.83 379.78 279.98 377.979C276.147 375.706 272.702 372.833 269.776 369.47C266.523 365.796 263.729 361.739 261.456 357.389C259.11 352.869 257.27 348.103 255.971 343.178C254.679 338.324 254.019 333.323 254.009 328.3C253.921 324.189 254.566 320.095 255.912 316.209C256.812 313.442 258.475 310.986 260.71 309.123C262.717 307.643 265.164 306.882 267.657 306.964M267.657 304.236C264.57 304.156 261.545 305.11 259.062 306.945C256.411 309.114 254.434 311.994 253.361 315.247C251.896 319.44 251.192 323.86 251.281 328.3C251.296 333.56 251.995 338.796 253.361 343.875C254.692 349.005 256.595 353.969 259.032 358.675C261.409 363.223 264.331 367.465 267.735 371.305C270.868 374.889 274.555 377.947 278.656 380.364C281.908 382.399 285.619 383.584 289.449 383.808H289.812C292.798 383.865 295.723 382.957 298.152 381.218C300.839 379.136 302.88 376.336 304.039 373.141C305.561 368.939 306.271 364.486 306.129 360.019C306.092 354.777 305.363 349.564 303.961 344.513C302.565 339.31 300.59 334.28 298.073 329.517C295.654 324.955 292.735 320.676 289.37 316.759C286.311 313.131 282.663 310.045 278.577 307.632C275.321 305.581 271.589 304.411 267.745 304.236H267.657Z" fill="url(#paint21_linear_450_5635)"/>
</g>
<g id="Group_9">
<path id="Vector_24" d="M351.626 153.737C348.299 141.771 343.49 130.268 337.31 119.495C331.177 108.813 323.72 98.9467 315.116 90.1318C306.62 81.3741 296.955 73.8312 286.397 67.7165C279.6 63.6692 272.356 60.4251 264.811 58.0496C258.825 56.1732 252.606 55.1425 246.335 54.9876C240.968 54.8924 235.619 55.6341 230.48 57.186C225.761 58.6359 221.232 60.6423 216.988 63.1627L228.762 94.8523C230.725 100.8 233.865 105.03 238.182 107.542C239.113 108.062 240.143 108.379 241.206 108.47C242.268 108.562 243.338 108.426 244.344 108.072C247.112 107.284 249.923 106.652 252.762 106.178C256.798 105.606 260.9 105.689 264.909 106.423C269.678 107.169 275.503 109.528 282.384 113.499C287.205 116.303 291.624 119.746 295.522 123.735C299.562 127.835 303.072 132.424 305.972 137.396C308.862 142.357 311.142 147.649 312.761 153.158C314.387 158.674 315.21 164.395 315.204 170.146C315.204 179.175 313.785 186.13 310.946 191.011C308.363 195.625 304.734 199.568 300.349 202.522C296.127 205.314 291.563 207.551 286.77 209.176C282.16 210.712 277.75 212.791 273.632 215.369C269.652 217.912 266.405 221.451 264.213 225.635C261.858 229.992 261.043 236.162 261.769 244.144L264.84 285.304L295.463 302.969L299.623 270.092C300.232 265.29 302.073 261.724 305.147 259.395C308.543 256.898 312.225 254.819 316.117 253.202L329.608 247.314C334.605 245.072 339.079 241.813 342.746 237.745C346.73 233.447 350.049 227.594 352.705 220.188C355.361 212.781 356.689 202.967 356.689 190.746C356.699 178.236 354.996 165.784 351.626 153.737Z" fill="#020111"/>
<path id="Vector_25" d="M245.825 57.7451H246.335C252.353 57.9035 258.319 58.8943 264.065 60.6893C271.393 63.0134 278.429 66.1747 285.033 70.1108C295.371 76.0938 304.836 83.4712 313.163 92.0354C321.603 100.692 328.921 110.376 334.946 120.859C341.005 131.434 345.724 142.722 348.996 154.463C352.295 166.284 353.965 178.501 353.961 190.775C353.961 202.65 352.676 212.258 350.144 219.324C347.613 226.39 344.463 231.945 340.754 235.949C337.335 239.737 333.169 242.778 328.519 244.88L315.038 250.768C310.947 252.489 307.076 254.693 303.509 257.334C299.839 260.101 297.622 264.321 296.925 269.866L293.275 298.661L267.46 283.625L264.517 243.859C263.849 236.459 264.566 230.747 266.646 226.89C268.623 223.118 271.548 219.925 275.133 217.626C279.07 215.177 283.282 213.2 287.682 211.737C292.696 210.036 297.471 207.698 301.89 204.779C306.606 201.577 310.516 197.324 313.311 192.355C316.421 186.986 317.932 179.714 317.932 170.116C317.936 164.106 317.074 158.126 315.371 152.362C313.691 146.642 311.326 141.145 308.326 135.993C305.324 130.843 301.699 126.083 297.533 121.821C293.454 117.659 288.834 114.064 283.797 111.134C276.664 107.012 270.462 104.519 265.38 103.734C262.804 103.312 260.2 103.089 257.589 103.066C255.834 103.058 254.081 103.199 252.35 103.488C249.398 103.98 246.476 104.635 243.598 105.451C243.007 105.638 242.392 105.737 241.773 105.746C241.008 105.753 240.255 105.553 239.595 105.167C235.817 102.988 233.138 99.2782 231.402 93.9982V93.9393L220.373 64.4088C223.869 62.5456 227.536 61.0239 231.323 59.8649C236.026 58.4526 240.915 57.7546 245.825 57.7941M245.825 55.0658C240.638 55.0217 235.474 55.7629 230.509 57.2642C225.791 58.7141 221.262 60.7205 217.018 63.2409L228.792 94.9305C230.754 100.878 233.894 105.108 238.211 107.62C239.284 108.256 240.506 108.595 241.753 108.602C242.642 108.593 243.525 108.454 244.373 108.189C247.142 107.401 249.952 106.769 252.791 106.295C254.37 106.03 255.969 105.902 257.57 105.912C260.038 105.936 262.502 106.146 264.938 106.541C269.707 107.286 275.532 109.645 282.413 113.617C287.234 116.42 291.654 119.863 295.551 123.853C299.573 127.917 303.073 132.467 305.971 137.396C308.862 142.357 311.142 147.649 312.761 153.157C314.387 158.673 315.21 164.395 315.204 170.145C315.204 179.174 313.785 186.129 310.946 191.01C308.363 195.624 304.734 199.567 300.349 202.522C296.127 205.314 291.563 207.551 286.77 209.176C282.16 210.711 277.75 212.79 273.632 215.369C269.652 217.912 266.405 221.451 264.212 225.634C261.858 229.992 261.043 236.161 261.769 244.144L264.84 285.304L295.463 302.969L299.623 270.092C300.232 265.29 302.073 261.724 305.147 259.395C308.542 256.898 312.225 254.819 316.117 253.202L329.608 247.313C334.605 245.072 339.079 241.813 342.746 237.745C346.73 233.446 350.049 227.594 352.705 220.187C355.361 212.781 356.689 202.967 356.689 190.745C356.697 178.242 354.994 165.797 351.626 153.756C348.299 141.79 343.49 130.287 337.31 119.515C331.177 108.832 323.72 98.966 315.116 90.1511C306.621 81.3865 296.956 73.8369 286.397 67.7161C279.6 63.6688 272.356 60.4248 264.811 58.0493C258.825 56.1729 252.606 55.1422 246.335 54.9873L245.825 55.0658Z" fill="url(#paint22_linear_450_5635)"/>
</g>
</g>
</g>
<g id="Character">
<g id="Character_2">
<g id="Arm">
<g id="Group_10">
<path id="Vector_26" d="M200.16 167.261C199.552 166.917 198.668 167.182 197.697 167.683C198.098 167.375 198.393 166.949 198.541 166.466C198.541 165.563 198.011 165.072 196.225 165.877C194.44 166.682 190.005 168.919 186.463 168.91C185.825 168.91 184.549 169.067 184.029 168.635C183.94 168.569 183.871 168.481 183.83 168.379C183.788 168.276 183.776 168.165 183.794 168.056C183.983 167.508 184.323 167.025 184.775 166.662C185.199 166.268 185.598 165.848 185.972 165.406C186.401 164.917 186.734 164.351 186.953 163.738C187.059 163.429 187.096 163.101 187.06 162.777C187.025 162.453 186.918 162.141 186.747 161.863C186.551 161.579 186.237 161.343 185.923 161.579C184.677 162.56 183.401 163.394 182.155 164.307C180.919 165.141 179.757 166.08 178.682 167.114C177.524 168.34 176.572 170.058 174.885 171.766C172.544 174.05 169.958 176.068 167.173 177.782C164.857 179.313 158.882 183.219 158.882 183.219C158.882 183.219 150.443 169.783 147.156 164.572C141.897 156.23 139.189 154.208 133.832 153.776V176.457C133.832 176.457 141.897 187.988 146.156 193.464C151.336 200.128 154.25 201.571 156.331 201.532C162.826 201.316 168.321 193.494 178.437 182.257C179.173 181.421 180.079 180.752 181.094 180.293C182.109 179.835 183.21 179.597 184.324 179.597C185.521 179.597 186.875 179.509 187.669 179.47C188.896 179.356 190.11 179.14 191.3 178.822C193.262 178.292 193.262 178.439 196.127 176.525C196.471 176.29 197.893 175.22 197.815 174.808C197.782 174.646 197.694 174.501 197.564 174.399C197.435 174.296 197.273 174.243 197.108 174.248C196.436 174.324 195.777 174.485 195.146 174.729C196.53 174.079 197.743 173.115 198.688 171.913C198.836 171.69 198.927 171.434 198.953 171.167C198.953 170.941 198.855 170.313 198.511 170.185C198.511 170.185 199.081 169.606 199.581 169.126C200.081 168.645 200.935 167.693 200.16 167.261Z" fill="url(#paint23_linear_450_5635)"/>
<path id="Vector_27" d="M195.254 174.69C194.374 175.05 193.465 175.336 192.537 175.544C191.624 175.79 190.682 175.917 189.74 176.172C190.71 176.204 191.679 176.111 192.625 175.898C193.575 175.681 194.471 175.27 195.254 174.69Z" fill="#F28F8F"/>
<g id="Group_11">
<path id="Vector_28" d="M178.172 175.318C178.202 175.133 178.251 174.952 178.319 174.778C178.47 174.45 178.669 174.145 178.908 173.875C179.379 173.329 179.97 172.899 180.635 172.619C181.366 172.318 182.162 172.209 182.947 172.304C183.732 172.398 184.48 172.693 185.119 173.159C185.119 173.159 185.178 173.326 185.119 173.306C183.757 172.774 182.252 172.729 180.861 173.178C179.71 173.736 178.828 174.728 178.408 175.936C178.408 176.044 178.251 175.995 178.241 175.936C178.185 175.735 178.162 175.526 178.172 175.318Z" fill="#F28F8F"/>
<path id="Vector_29" d="M188.809 171.108C190.334 170.722 191.829 170.227 193.283 169.626C194.677 169.086 196.04 168.448 197.404 167.84C196.068 168.753 194.621 169.492 193.097 170.038C191.696 170.508 190.258 170.862 188.799 171.098C188.799 171.098 188.79 171.108 188.809 171.108Z" fill="#F28F8F"/>
<path id="Vector_30" d="M188.66 173.708C190.189 173.325 191.688 172.83 193.144 172.226C193.704 172.01 194.253 171.785 194.803 171.539C195.352 171.294 195.892 171.088 196.402 170.803L196.873 170.528C197.068 170.407 197.271 170.299 197.481 170.205C197.708 170.126 197.948 170.089 198.188 170.097C197.887 170.14 197.597 170.239 197.334 170.391C197.157 170.489 196.991 170.607 196.824 170.715C196.676 170.819 196.522 170.914 196.363 171C195.883 171.293 195.388 171.561 194.881 171.804C194.242 172.117 193.587 172.395 192.919 172.639C191.518 173.113 190.081 173.471 188.621 173.708C188.621 173.708 188.641 173.757 188.66 173.708Z" fill="#F28F8F"/>
</g>
</g>
<path id="Vector_31" d="M158.949 183.219C155.525 184.936 153.465 188.479 152.915 192.405C152.415 188.597 152.748 184.642 158.056 181.796L158.949 183.219Z" fill="#F28F8F"/>
</g>
<g id="Magnifying Glass">
<g id="Group_12">
<g id="Group_13">
<path id="Vector_32" d="M181.881 155.562C184.154 155.721 186.358 156.414 188.313 157.585C190.268 158.756 191.918 160.371 193.132 162.299C194.148 164.11 194.171 165.627 193.576 166.646L193.57 166.654L193.566 166.663L146.481 255.318L146.402 255.444L146.322 255.567V255.622C146.318 255.628 146.313 255.636 146.309 255.643C146.3 255.655 146.291 255.67 146.281 255.686L146.275 255.693L146.271 255.701C145.429 257.169 144.301 258.453 142.956 259.479C141.611 260.506 140.074 261.254 138.436 261.679C136.798 262.103 135.091 262.196 133.417 261.953C131.742 261.71 130.132 261.135 128.683 260.262C125.734 258.477 123.603 255.607 122.746 252.269C121.894 248.949 122.369 245.43 124.068 242.456L124.197 242.328L124.25 242.275L124.284 242.21L124.353 242.081L177.937 157.291L177.946 157.275C178.538 156.255 179.842 155.566 181.881 155.562Z" fill="#020111" stroke="url(#paint24_linear_450_5635)"/>
<path id="Vector_33" d="M181.86 155.63C184.135 155.783 186.342 156.47 188.302 157.637C190.261 158.804 191.918 160.417 193.137 162.345C194.144 164.153 194.168 165.668 193.577 166.692C192.988 167.713 191.688 168.418 189.661 168.389C187.386 168.236 185.18 167.548 183.221 166.382C181.261 165.215 179.604 163.602 178.385 161.674C177.378 159.866 177.355 158.351 177.945 157.327C178.534 156.307 179.834 155.6 181.86 155.63Z" fill="#020111" stroke="url(#paint25_linear_450_5635)"/>
<path id="Vector_34" d="M185.731 168.664C186.973 169.108 188.275 169.362 189.594 169.409H189.612C190.662 169.409 191.596 169.244 192.382 168.921L146.472 255.338L146.393 255.464L146.313 255.587V255.641C146.309 255.647 146.304 255.655 146.299 255.662C146.291 255.674 146.281 255.689 146.271 255.705L146.262 255.721C145.419 257.188 144.292 258.473 142.946 259.499C141.601 260.525 140.064 261.273 138.426 261.698C136.788 262.123 135.082 262.216 133.407 261.973C132.461 261.835 131.536 261.592 130.648 261.249C132.21 260.889 133.748 259.787 135.222 258.257C137.46 255.931 139.696 252.471 141.855 248.535L141.854 248.534L185.731 168.664Z" fill="#020111" stroke="url(#paint26_linear_450_5635)"/>
</g>
<path id="Vector_35" d="M197.7 131.676C198.085 131.504 198.508 131.437 198.927 131.484L198.948 131.486C200.296 131.579 201.602 131.989 202.761 132.684C203.919 133.378 204.897 134.337 205.613 135.482L205.621 135.495L205.629 135.506C205.878 135.858 206.029 136.269 206.067 136.698C206.106 137.122 206.032 137.549 205.854 137.936L190.328 164.722C190.085 165.058 189.758 165.324 189.379 165.493C188.993 165.666 188.568 165.731 188.147 165.684L188.138 165.683L188.127 165.682L187.624 165.632C186.456 165.48 185.329 165.088 184.315 164.48C183.157 163.786 182.179 162.828 181.46 161.685L181.452 161.673L181.445 161.662L181.356 161.527C181.16 161.207 181.04 160.845 181.006 160.47C180.968 160.047 181.04 159.621 181.217 159.234L196.75 132.451C196.993 132.113 197.321 131.846 197.7 131.676Z" fill="#020111" stroke="url(#paint27_linear_450_5635)"/>
<path id="Vector_36" opacity="0.25" d="M193.541 137.974C196.03 140.65 198.651 143.201 201.396 145.615L196.994 153.211C194.217 150.852 191.552 148.366 189.008 145.757L193.541 137.974Z" fill="#020111" stroke="url(#paint28_linear_450_5635)"/>
</g>
<g id="Group_14">
<g id="Group_15">
<path id="Vector_37" d="M192.12 4.51465C202.89 -1.74295 217.899 -0.927732 234.625 8.66699C251.329 18.27 266.515 34.8 277.538 53.7822C288.561 72.7645 295.395 94.1525 295.443 113.441C295.492 132.738 288.762 146.163 277.972 152.431L258.397 163.796C253.653 166.495 248.276 167.884 242.818 167.82H242.811C234.755 167.84 225.638 165.234 215.882 159.643H215.881C199.178 150.044 183.993 133.514 172.97 114.532C161.947 95.5501 155.113 74.1628 155.064 54.8789C155.016 35.6118 161.745 22.176 172.496 15.9082L172.497 15.9092L192.12 4.51465ZM267.224 124.832C267.154 107.639 261.204 87.9852 250.476 69.5068C239.747 51.0285 225.64 36.1274 210.731 27.5557H210.73C202.912 23.073 195.283 20.6308 188.618 20.541L188.319 20.5371L188.175 20.7979C184.981 26.5481 183.314 34.2359 183.313 43.4854V43.4873C183.353 60.6808 189.324 80.3356 200.052 98.8135C210.78 117.292 224.888 132.193 239.806 140.765C247.614 145.248 255.244 147.689 261.899 147.779L262.196 147.783L262.342 147.523C265.556 141.782 267.224 134.093 267.224 124.834V124.832Z" fill="#020111" stroke="url(#paint29_linear_450_5635)"/>
<path id="Vector_38" opacity="0.1" d="M266.869 37.877C271.466 43.8388 275.599 50.1435 279.235 56.7354L252.188 72.4971C251.617 71.4979 251.051 70.5021 250.477 69.5078V69.5068L249.852 68.4414C246.805 63.2937 243.431 58.3471 239.752 53.6309L266.869 37.877ZM252.076 21.6387C254.681 24.0161 257.181 26.5306 259.579 29.1816L232.336 45.0039C229.889 42.4056 227.317 39.929 224.63 37.5811L252.076 21.6387Z" fill="#020111" stroke="url(#paint30_linear_450_5635)"/>
<path id="Vector_39" opacity="0.25" d="M295.429 112.051C295.441 112.509 295.442 112.971 295.442 113.44V113.442C295.491 132.739 288.762 146.164 277.972 152.432L264.981 159.971C272.358 152.622 276.719 140.925 276.818 125.72L276.819 124.812V122.854L295.429 112.051Z" fill="#020111" stroke="url(#paint31_linear_450_5635)"/>
</g>
<path id="Vector_40" d="M164.719 54.8594C164.694 44.351 166.903 36.0182 170.927 30.3232C174.871 24.741 180.581 21.6586 187.764 21.5459C184.831 27.2083 183.304 34.631 183.304 43.4854V43.4873C183.373 60.68 189.323 80.335 200.051 98.8135C210.779 117.292 224.887 132.193 239.806 140.765C247.286 145.059 254.601 147.479 261.054 147.754C257.045 154.469 250.819 158.153 242.812 158.153H242.81C236.272 158.172 228.627 155.807 220.709 151.262C205.987 142.816 192.022 128.05 181.331 109.686C170.64 91.3215 164.719 71.8382 164.719 54.8604V54.8594Z" fill="#020111" stroke="url(#paint32_linear_450_5635)"/>
<path id="Vector_41" opacity="0.25" d="M164.719 54.8594C164.694 44.351 166.903 36.0182 170.927 30.3232C174.871 24.741 180.581 21.6586 187.764 21.5459C184.831 27.2083 183.304 34.631 183.304 43.4854V43.4873C183.373 60.68 189.323 80.335 200.051 98.8135C210.779 117.292 224.887 132.193 239.806 140.765C247.286 145.059 254.601 147.479 261.054 147.754C257.045 154.469 250.819 158.153 242.812 158.153H242.81C236.272 158.172 228.627 155.807 220.709 151.262C205.987 142.816 192.022 128.05 181.331 109.686C170.64 91.3215 164.719 71.8382 164.719 54.8604V54.8594Z" fill="#020111" stroke="url(#paint33_linear_450_5635)"/>
<path id="Vector_42" opacity="0.3" d="M188.129 21.541H188.605L189.212 21.5547C195.514 21.7684 202.75 24.1327 210.232 28.4229C224.955 36.8881 238.909 51.6357 249.601 70.0098C260.124 88.0956 265.98 107.248 266.207 124.038L266.213 124.836C266.232 133.986 264.564 141.49 261.459 147.035L261.458 147.037C260.422 148.912 259.14 150.639 257.649 152.177C255.78 152.653 253.858 152.896 251.928 152.894H251.926C245.592 152.903 238.21 150.683 230.564 146.421L229.824 146.002C215.102 137.547 201.138 122.779 190.446 104.415C179.923 86.3389 174.068 67.1771 173.841 50.3867L173.834 49.5889C173.805 37.1934 176.887 27.8083 182.376 22.2754C184.253 21.7815 186.187 21.5339 188.129 21.541Z" fill="#020111" stroke="url(#paint34_linear_450_5635)"/>
<g id="Group_16">
<path id="Vector_43" d="M172.532 15.9062C183.314 9.65083 198.32 10.4667 215.041 20.0615C231.759 29.6547 246.943 46.182 257.961 65.1631C268.979 84.1441 275.805 105.532 275.858 124.816C275.912 144.103 269.17 157.538 258.384 163.797C247.597 170.056 232.589 169.243 215.883 159.644C199.179 150.045 183.993 133.517 172.97 114.536C161.947 95.5552 155.113 74.1678 155.064 54.8789C155.016 35.5916 161.751 22.1617 172.532 15.9062ZM267.204 124.803C267.135 107.61 261.184 87.9559 250.456 69.4775C239.728 50.9992 225.62 36.0982 210.712 27.5264H210.711C202.893 23.0436 195.264 20.6015 188.599 20.5117H188.11C180.411 20.5318 174.267 23.7811 170.073 29.7256C165.894 35.6495 163.676 44.2115 163.7 54.8418V54.8428C163.767 71.498 169.344 90.4637 179.455 108.433L180.447 110.168C191.175 128.675 205.283 143.576 220.192 152.099V152.1C228.209 156.701 236.017 159.124 242.792 159.124H242.794C251.459 159.104 258.166 154.966 262.322 147.492C265.536 141.751 267.204 134.063 267.204 124.805V124.803Z" fill="#020111" stroke="url(#paint35_linear_450_5635)"/>
<g id="Group_17" opacity="0.3">
<path id="Vector_44" d="M172.532 15.9062C183.314 9.65083 198.32 10.4667 215.041 20.0615C231.759 29.6547 246.943 46.182 257.961 65.1631C268.979 84.1441 275.805 105.532 275.858 124.816C275.912 144.103 269.17 157.538 258.384 163.797C247.597 170.056 232.589 169.243 215.883 159.644C199.179 150.045 183.993 133.517 172.97 114.536C161.947 95.5552 155.113 74.1678 155.064 54.8789C155.016 35.5916 161.751 22.1617 172.532 15.9062ZM267.204 124.803C267.135 107.61 261.184 87.9559 250.456 69.4775C239.728 50.9992 225.62 36.0982 210.712 27.5264H210.711C202.893 23.0436 195.264 20.6015 188.599 20.5117H188.11C180.411 20.5318 174.267 23.7811 170.073 29.7256C165.894 35.6495 163.676 44.2115 163.7 54.8418V54.8428C163.767 71.498 169.344 90.4637 179.455 108.433L180.447 110.168C191.175 128.675 205.283 143.576 220.192 152.099V152.1C228.209 156.701 236.017 159.124 242.792 159.124H242.794C251.459 159.104 258.166 154.966 262.322 147.492C265.536 141.751 267.204 134.063 267.204 124.805V124.803Z" fill="#020111" stroke="url(#paint36_linear_450_5635)"/>
</g>
<g id="Group_18" opacity="0.3">
<g id="Vector_45">
<mask id="path-47-inside-2_450_5635" fill="white">
<path d="M261.474 70.4746C267.11 81.3932 271.289 93.0041 273.905 105.01C275.178 111.006 275.888 117.107 276.025 123.235C276.189 129.354 275.529 135.468 274.062 141.411C272.656 147.365 269.911 152.92 266.036 157.653C262.074 162.332 256.739 165.642 250.789 167.114C244.814 168.497 238.594 168.419 232.656 166.888C226.686 165.435 220.952 163.146 215.623 160.087C220.899 163.247 226.593 165.649 232.539 167.222C238.534 168.815 244.825 168.936 250.877 167.575C256.964 166.11 262.433 162.761 266.507 158.006C270.46 153.226 273.272 147.607 274.729 141.577C276.178 135.569 276.801 129.392 276.584 123.215C276.405 117.054 275.653 110.924 274.337 104.902C273.021 98.8966 271.277 92.993 269.117 87.237C266.913 81.4992 264.36 75.9013 261.474 70.4746Z"/>
</mask>
<path d="M261.474 70.4746C267.11 81.3932 271.289 93.0041 273.905 105.01C275.178 111.006 275.888 117.107 276.025 123.235C276.189 129.354 275.529 135.468 274.062 141.411C272.656 147.365 269.911 152.92 266.036 157.653C262.074 162.332 256.739 165.642 250.789 167.114C244.814 168.497 238.594 168.419 232.656 166.888C226.686 165.435 220.952 163.146 215.623 160.087C220.899 163.247 226.593 165.649 232.539 167.222C238.534 168.815 244.825 168.936 250.877 167.575C256.964 166.11 262.433 162.761 266.507 158.006C270.46 153.226 273.272 147.607 274.729 141.577C276.178 135.569 276.801 129.392 276.584 123.215C276.405 117.054 275.653 110.924 274.337 104.902C273.021 98.8966 271.277 92.993 269.117 87.237C266.913 81.4992 264.36 75.9013 261.474 70.4746Z" fill="#020111"/>
<path d="M261.474 70.4746L262.356 70.005L260.585 70.9333L261.474 70.4746ZM273.905 105.01L274.883 104.803L274.882 104.797L273.905 105.01ZM276.025 123.235L275.025 123.257L275.025 123.262L276.025 123.235ZM274.062 141.411L273.091 141.171L273.089 141.181L274.062 141.411ZM266.036 157.653L266.799 158.299L266.805 158.293L266.81 158.286L266.036 157.653ZM250.789 167.114L251.014 168.088L251.021 168.086L251.029 168.084L250.789 167.114ZM232.656 166.888L232.906 165.92L232.893 165.916L232.656 166.888ZM215.623 160.087L216.121 159.22L215.109 160.945L215.623 160.087ZM232.539 167.222L232.795 166.255L232.794 166.255L232.539 167.222ZM250.877 167.575L251.096 168.551L251.104 168.549L251.111 168.547L250.877 167.575ZM266.507 158.006L267.267 158.657L267.272 158.65L267.278 158.643L266.507 158.006ZM274.729 141.577L275.701 141.812L275.702 141.812L274.729 141.577ZM276.584 123.215L275.584 123.244L275.584 123.251L276.584 123.215ZM274.337 104.902L275.314 104.689L275.314 104.688L274.337 104.902ZM269.117 87.237L270.053 86.8857L270.051 86.8784L269.117 87.237ZM261.474 70.4746L260.585 70.9333C266.181 81.7741 270.331 93.3025 272.928 105.223L273.905 105.01L274.882 104.797C272.248 92.7058 268.038 81.0122 262.362 70.0159L261.474 70.4746ZM273.905 105.01L272.927 105.218C274.187 111.153 274.89 117.192 275.025 123.257L276.025 123.235L277.024 123.213C276.886 117.023 276.169 110.859 274.883 104.803L273.905 105.01ZM276.025 123.235L275.025 123.262C275.187 129.291 274.536 135.315 273.091 141.171L274.062 141.411L275.033 141.65C276.521 135.62 277.191 129.417 277.024 123.208L276.025 123.235ZM274.062 141.411L273.089 141.181C271.718 146.987 269.041 152.404 265.262 157.019L266.036 157.653L266.81 158.286C270.781 153.435 273.594 147.742 275.035 141.64L274.062 141.411ZM266.036 157.653L265.273 157.007C261.447 161.525 256.295 164.722 250.548 166.143L250.789 167.114L251.029 168.084C257.183 166.562 262.702 163.138 266.799 158.299L266.036 157.653ZM250.789 167.114L250.563 166.139C244.745 167.486 238.689 167.411 232.906 165.92L232.656 166.888L232.407 167.856C238.5 169.428 244.883 169.507 251.014 168.088L250.789 167.114ZM232.656 166.888L232.893 165.916C227.014 164.486 221.368 162.231 216.121 159.22L215.623 160.087L215.125 160.954C220.536 164.06 226.358 166.385 232.42 167.86L232.656 166.888ZM215.623 160.087L215.109 160.945C220.466 164.153 226.247 166.591 232.283 168.188L232.539 167.222L232.794 166.255C226.94 164.706 221.332 162.341 216.137 159.229L215.623 160.087ZM232.539 167.222L232.282 168.188C238.433 169.822 244.887 169.947 251.096 168.551L250.877 167.575L250.658 166.599C244.763 167.925 238.635 167.807 232.795 166.255L232.539 167.222ZM250.877 167.575L251.111 168.547C257.402 167.033 263.056 163.572 267.267 158.657L266.507 158.006L265.748 157.356C261.811 161.951 256.525 165.187 250.643 166.603L250.877 167.575ZM266.507 158.006L267.278 158.643C271.327 153.746 274.208 147.99 275.701 141.812L274.729 141.577L273.757 141.343C272.335 147.225 269.592 152.706 265.736 157.369L266.507 158.006ZM274.729 141.577L275.702 141.812C277.171 135.715 277.804 129.447 277.583 123.18L276.584 123.215L275.584 123.251C275.799 129.336 275.184 135.423 273.757 141.343L274.729 141.577ZM276.584 123.215L277.583 123.186C277.403 116.963 276.643 110.771 275.314 104.689L274.337 104.902L273.36 105.116C274.663 111.076 275.408 117.146 275.584 123.244L276.584 123.215ZM274.337 104.902L275.314 104.688C273.988 98.636 272.23 92.6865 270.053 86.8857L269.117 87.237L268.181 87.5884C270.324 93.2996 272.055 99.1573 273.36 105.116L274.337 104.902ZM269.117 87.237L270.051 86.8784C267.832 81.1025 265.262 75.4676 262.356 70.005L261.474 70.4746L260.591 70.9442C263.458 76.335 265.994 81.8958 268.184 87.5956L269.117 87.237Z" fill="url(#paint37_linear_450_5635)" mask="url(#path-47-inside-2_450_5635)"/>
</g>
</g>
<g id="Group_19" opacity="0.3">
<path id="Vector_46" d="M164.549 48.4619C164.133 53.256 164.206 58.0831 164.773 62.8682C165.456 68.8855 166.687 74.8281 168.452 80.6211C171.988 92.2419 177.061 103.338 183.536 113.614V113.615C189.907 123.926 197.746 133.254 206.806 141.304V141.305C211.333 145.307 216.26 148.832 221.509 151.825C226.712 154.862 232.416 156.946 238.352 157.979L238.358 157.979C241.321 158.453 244.343 158.426 247.297 157.899L247.302 157.898C250.246 157.342 253.026 156.127 255.435 154.345L255.438 154.342C257.832 152.534 259.832 150.258 261.317 147.651C262.848 145.054 264.008 142.256 264.766 139.338V139.335C266.155 133.824 266.756 128.144 266.55 122.468L266.498 121.333C266.269 116.492 265.667 111.678 264.702 106.933C265.744 111.671 266.419 116.485 266.716 121.332V121.337C267.143 127.423 266.645 133.538 265.238 139.475C264.546 142.263 263.503 144.951 262.133 147.474L261.854 147.975C261.097 149.308 260.209 150.563 259.204 151.721L259.199 151.727C258.203 152.905 257.076 153.965 255.839 154.887H255.838C253.355 156.74 250.487 158.011 247.446 158.604C244.415 159.155 241.313 159.197 238.268 158.729C232.216 157.725 226.396 155.638 221.085 152.568L221.08 152.565L220.087 151.997C215.141 149.127 210.484 145.783 206.185 142.01H206.186C197.1 133.864 189.251 124.436 182.888 114.023L182.885 114.021L182.286 113.049C179.31 108.177 176.636 103.126 174.281 97.9248L174.28 97.9219C171.742 92.3934 169.639 86.6755 167.988 80.8203V80.8174L167.678 79.7188C166.159 74.2189 165.117 68.5979 164.562 62.918L164.561 62.915L164.451 61.7803C164.059 57.3459 164.093 52.8863 164.549 48.4619Z" fill="#020111" stroke="url(#paint38_linear_450_5635)"/>
</g>
</g>
</g>
</g>
<g id="Bottom">
<g id="Group_20">
<path id="Vector_47" d="M128.682 345.131L127.289 331.146L144.627 329.487C144.627 329.487 143.832 340.508 143.881 345.573C143.881 347.957 145.559 352.442 145.559 352.442C145.559 352.442 138.69 355.926 135.168 354.405C131.646 352.884 129.35 347.319 129.448 346.299L128.682 345.131Z" fill="url(#paint39_linear_450_5635)"/>
<path id="Vector_48" d="M128.535 343.796C128.535 343.796 128.221 343.943 128.015 344.699C127.789 345.612 127.436 348.271 126.955 349.753C126.198 352.373 125.844 355.093 125.905 357.82C126.131 359.538 130.683 361.854 133.195 362.963C136.131 364.424 138.83 366.32 141.202 368.586C143.821 370.981 149.473 373.621 153.3 373.807C157.813 374.033 162.994 372.875 164.279 370.863C165.869 368.39 167.095 365.485 160.57 362.03C159.344 361.373 155.036 358.537 153.574 357.506C149.65 354.729 146.863 352.236 145.234 347.623C145.115 347.058 144.803 346.551 144.351 346.191C143.949 345.995 143.497 345.93 143.056 346.004C141.938 346.102 137.444 346.456 136.404 346.878C135.364 347.3 134.176 347.663 134.127 348.84C134.126 349.237 134.189 349.632 134.314 350.008C134.383 350.244 134.422 350.558 134.206 350.676C133.99 350.793 133.755 350.676 133.588 350.469C132.971 349.772 132.41 349.027 131.91 348.242C131.42 347.529 130.883 346.85 130.301 346.21C129.916 345.968 129.545 345.702 129.192 345.415C128.792 344.968 128.56 344.396 128.535 343.796Z" fill="url(#paint40_linear_450_5635)"/>
</g>
<g id="Group_21">
<path id="Vector_49" d="M99.0112 352.962L102.71 335.729L85.7358 333.305L85.6279 350.273C85.6279 350.273 84.3818 354.856 85.3629 356.407C86.3441 357.958 96.5386 359.489 97.4609 358.429C98.3832 357.369 99.0112 352.962 99.0112 352.962Z" fill="url(#paint41_linear_450_5635)"/>
<path id="Vector_50" d="M85.6281 350.273C84.4016 350.224 84.7647 353.217 84.2348 358.458C83.6657 364.091 81.1735 368.527 80.3101 373.051C79.3289 378.214 79.5448 380.598 81.5071 383.994C83.4695 387.39 90.691 391.315 94.4882 387.164C97.5887 383.788 97.8732 379.686 97.8046 374.406C97.6369 369.949 97.7188 365.487 98.0499 361.039C98.4423 357.113 100.012 353.512 99.031 352.952C98.9231 353.522 97.9223 357.486 97.2257 357.428C97.193 356.933 97.2094 356.437 97.2747 355.946C97.3192 355.72 97.3168 355.488 97.2679 355.263C97.219 355.039 97.1244 354.827 96.9902 354.64C96.4056 354.189 95.7392 353.856 95.0278 353.659C93.8308 353.315 91.6918 352.893 90.4653 352.677C89.857 352.56 89.2487 352.471 88.6305 352.413C88.1131 352.339 87.5879 352.339 87.0704 352.413C86.9293 352.435 86.7947 352.488 86.676 352.567C86.5574 352.647 86.4576 352.752 86.3836 352.874C86.3147 353.065 86.2846 353.269 86.2953 353.472C86.2842 353.834 86.218 354.191 86.0991 354.532C86.0991 354.68 85.9225 354.856 85.7458 354.797C85.6843 354.768 85.6335 354.72 85.6001 354.66C85.5668 354.6 85.5526 354.532 85.5594 354.464C85.53 353.845 85.5889 350.607 85.6281 350.273Z" fill="url(#paint42_linear_450_5635)"/>
<g id="Group_22">
<g id="Group_23">
<path id="Vector_51" d="M94.929 373.277C94.9802 373.299 95.0263 373.332 95.0643 373.372C95.1024 373.413 95.1315 373.461 95.15 373.514C95.1684 373.567 95.1758 373.622 95.1715 373.678C95.1672 373.733 95.1515 373.788 95.1252 373.837C95.0756 373.91 95.0048 373.966 94.9224 373.998C94.8399 374.029 94.7498 374.035 94.6641 374.013" fill="#263238"/>
<path id="Vector_52" d="M83.4008 371.482C83.3909 371.428 83.3928 371.372 83.4063 371.319C83.4198 371.265 83.4446 371.216 83.479 371.173C83.5135 371.13 83.5567 371.095 83.6059 371.071C83.655 371.046 83.7089 371.032 83.7638 371.03" fill="#263238"/>
</g>
</g>
</g>
<g id="Group_24">
<path id="Vector_53" d="M93.0558 201.07C90.8384 211.512 89.4353 217.754 88.8858 244.625C88.3756 269.975 87.9046 278.13 87.7575 281.32C87.6103 284.509 85.02 291.644 84.4803 307.18C84.2344 318.1 84.6177 329.024 85.6283 339.9C85.6283 339.9 87.4042 342.599 93.4189 343.139C96.5279 343.505 99.6697 342.814 102.338 341.176C102.338 341.176 109.765 311.174 111.865 301.694C113.965 292.213 119.636 260.818 119.636 260.818L121.863 286.08C121.863 286.08 120.323 294.844 122.285 309.113C124.189 322.853 127.633 336.298 127.633 336.298C127.633 336.298 129.978 338.261 136.463 337.859C139.344 337.692 142.185 337.114 144.901 336.141C144.901 336.141 147.188 295.168 147.668 279.544C148.188 262.438 147.089 224.771 144.784 201.08L93.0558 201.07Z" fill="url(#paint43_linear_450_5635)"/>
<path id="Vector_54" d="M124.611 230.749L119.705 260.809L121.932 286.07L121.785 260.465L126.21 235.803C129.978 234.9 138.554 230.376 140.928 223.928C135.041 230.003 124.611 230.749 124.611 230.749Z" fill="#203A64"/>
</g>
</g>
<g id="Top">
<path id="Vector_55" d="M89.5625 216.498C90.9165 206.086 91.9958 197.39 91.5837 193.445C90.7301 185.162 90.2591 183.631 89.5625 179.009C88.0515 168.89 92.6826 157.496 95.0375 155.455C95.0375 155.455 107.263 152.766 109.647 152.373C113.787 151.569 118.025 151.4 122.216 151.873C123.315 151.981 133.912 153.708 133.912 153.708C135.964 156.019 137.834 158.487 139.505 161.088C142.301 165.544 144.41 168.812 144.999 179.185C145.696 191.414 145.872 207.734 146.422 215.37C136.767 226.921 101.67 226.499 89.5625 216.498Z" fill="url(#paint44_linear_450_5635)"/>
<g id="Head">
<path id="Vector_56" d="M132.331 130.831C132.538 130.537 132.979 129.673 133.391 129.477C138.483 124.324 136.786 118.514 134.941 114.962C130.82 107.032 121.548 105.334 115.926 105.648C107.203 106.129 101.464 109.329 97.7056 113.931C93.7122 118.838 93.2805 125.639 93.7809 133.167C94.193 139.291 94.3107 146.229 94.8308 153.089C96.852 153.089 97.892 152.972 100.08 152.824C99.9231 150.911 99.717 146.857 99.717 146.857C99.717 146.857 100.561 151.814 100.757 152.746C109.058 152.216 115.543 151.558 122.039 150.528C122.039 149.321 122.039 147.221 122.039 146.013C122.314 147.221 122.843 150.832 122.843 150.832C122.843 150.832 131.301 149.625 134.147 148.438C133.381 144.924 132.744 139.546 132.636 138.731C132.351 136.72 132.145 135.081 131.998 133.579C131.784 132.652 131.902 131.68 132.331 130.831Z" fill="url(#paint45_linear_450_5635)"/>
<g id="Group_25">
<path id="Vector_57" d="M105.379 141.617C104.481 141.936 103.505 141.964 102.59 141.698C101.674 141.432 100.865 140.885 100.277 140.135C97.6967 137.279 97.4318 134.247 98.4424 132.284C98.9082 131.409 99.6805 130.737 100.611 130.397C101.542 130.056 102.565 130.071 103.486 130.439C104.908 131.155 105.173 131.95 105.683 133.315C105.711 133.459 105.771 133.595 105.858 133.714C105.946 133.832 106.058 133.929 106.188 133.998C106.318 134.067 106.462 134.105 106.609 134.111C106.756 134.117 106.903 134.089 107.038 134.031C107.356 133.858 107.625 133.606 107.816 133.297C108.007 132.989 108.114 132.637 108.127 132.274C108.274 131.535 108.323 130.779 108.274 130.027C108.267 129.81 108.3 129.594 108.372 129.389C108.48 129.173 108.823 129.104 109.029 128.977C110.319 128.208 111.267 126.976 111.678 125.532C111.698 126.713 111.512 127.889 111.129 129.006C113.571 128.252 115.773 126.871 117.517 125.002C119.253 123.14 120.687 121.018 121.765 118.711C122.508 117.344 122.987 115.849 123.178 114.305C127.191 115.973 131.027 119.398 131.489 123.913C131.712 125.197 132.007 126.468 132.372 127.721C134.766 138.123 133.009 142.442 130.674 145.042C129.32 146.554 127.181 147.712 123.678 148.212L123.619 152.854C125.702 157.833 127.079 163.079 127.711 168.439C127.711 168.439 125.238 166.015 115.485 159.606C112.369 157.46 109.089 155.563 105.674 153.934L107.087 139.34C107.012 139.831 106.818 140.297 106.52 140.694C106.222 141.091 105.83 141.409 105.379 141.617Z" fill="url(#paint46_linear_450_5635)"/>
<path id="Vector_58" d="M122.216 138.997C122.216 139.216 122.15 139.431 122.028 139.614C121.906 139.796 121.732 139.939 121.529 140.022C121.326 140.106 121.102 140.127 120.887 140.084C120.672 140.04 120.474 139.933 120.319 139.777C120.165 139.621 120.06 139.423 120.018 139.207C119.977 138.991 120 138.768 120.085 138.565C120.171 138.363 120.314 138.191 120.498 138.07C120.682 137.949 120.897 137.886 121.117 137.888C121.409 137.89 121.688 138.008 121.894 138.216C122.1 138.424 122.216 138.704 122.216 138.997Z" fill="#020111"/>
<g id="Group_26">
<path id="Vector_59" d="M129.869 123.657L126.219 122.951C126.253 122.711 126.335 122.48 126.461 122.273C126.587 122.066 126.754 121.887 126.951 121.747C127.149 121.606 127.372 121.508 127.609 121.456C127.846 121.405 128.091 121.403 128.328 121.449C128.818 121.551 129.25 121.837 129.537 122.247C129.823 122.658 129.942 123.162 129.869 123.657Z" fill="#020111"/>
<path id="Vector_60" d="M117.32 123.785L114.033 126.023C113.73 125.6 113.608 125.074 113.692 124.56C113.777 124.047 114.062 123.588 114.485 123.284C114.931 122.988 115.475 122.875 116.002 122.968C116.53 123.061 117.002 123.354 117.32 123.785Z" fill="#020111"/>
<path id="Vector_61" d="M115.779 128.898C115.821 129.196 115.95 129.475 116.15 129.7C116.35 129.924 116.613 130.084 116.904 130.16C117.195 130.235 117.502 130.223 117.786 130.124C118.07 130.025 118.318 129.843 118.499 129.603C118.681 129.363 118.786 129.075 118.804 128.774C118.821 128.474 118.749 128.175 118.596 127.916C118.443 127.656 118.217 127.448 117.947 127.317C117.676 127.187 117.372 127.139 117.074 127.181C116.676 127.239 116.317 127.452 116.074 127.774C115.832 128.095 115.726 128.499 115.779 128.898Z" fill="#020111"/>
<path id="Vector_62" d="M126.641 127.376C126.684 127.671 126.814 127.947 127.013 128.168C127.213 128.39 127.473 128.547 127.762 128.621C128.05 128.695 128.355 128.682 128.636 128.583C128.917 128.485 129.163 128.305 129.342 128.067C129.522 127.829 129.627 127.543 129.644 127.246C129.662 126.948 129.591 126.652 129.441 126.395C129.29 126.137 129.067 125.93 128.8 125.799C128.532 125.668 128.232 125.619 127.936 125.659C127.738 125.685 127.547 125.751 127.374 125.852C127.201 125.953 127.05 126.087 126.93 126.247C126.809 126.407 126.722 126.589 126.672 126.783C126.623 126.976 126.612 127.178 126.641 127.376Z" fill="#020111"/>
<path id="Vector_63" d="M121.588 126.022L123.256 135.199L128.142 132.941L121.588 126.022Z" fill="#FF8066"/>
<path id="Vector_64" d="M123.678 148.192C120.602 148.503 117.494 148.169 114.553 147.211C111.875 146.278 109.579 143.059 108.588 140.9C108.674 142.412 109.134 143.879 109.925 145.17C110.715 146.461 111.814 147.537 113.121 148.3C116.388 149.937 120.051 150.617 123.688 150.263L123.678 148.192Z" fill="#EB6B6B"/>
</g>
</g>
</g>
<g id="Hand">
<path id="Vector_65" d="M95.0368 155.504C88.5119 156.593 86.3239 158.615 83.6256 165.681C81.0157 172.551 74.9814 187.89 76.7574 198.215C77.8465 204.515 93.7416 188.685 93.7416 188.685L99.0203 172.198C99.0203 172.198 99.7464 158.006 95.0368 155.504Z" fill="url(#paint47_linear_450_5635)"/>
<path id="Vector_66" d="M99.4516 160.44C100.505 163.922 101.144 167.516 101.355 171.148L93.751 188.685C93.751 188.685 91.4648 190.962 88.5703 193.445L77.7773 187.851C77.9343 185.172 84.0863 177.35 87.9031 173.356C90.7093 170.392 96.5081 163.561 99.4516 160.44Z" fill="#EB6B6B"/>
<g id="Group_27">
<g id="Group_28">
<path id="Vector_67" d="M96.8516 164.16C98.4941 162.104 99.7115 159.742 100.433 157.211C101.159 154.267 103.484 151.549 104.279 150.43C105.074 149.311 106.771 147.672 108.076 146.112C109.381 144.551 109.764 144.149 111.638 143.786C114.209 143.354 116.23 142.952 117.231 143.256C118.231 143.56 118.212 144.237 117.339 145.111C116.465 145.984 114.621 146.22 114.042 146.396C113.463 146.573 112.217 147.113 112.217 147.113L109.891 150.626C111.526 150.904 113.14 151.297 114.719 151.804C115.514 152.236 116.191 154.287 115.837 155.415C116.234 155.673 116.536 156.053 116.699 156.497C116.861 156.941 116.876 157.426 116.74 157.879C116.74 157.879 117.643 159.056 117.025 160.028C116.323 161.003 115.517 161.898 114.621 162.697C113.851 163.028 113.025 163.207 112.187 163.227C111.327 164.532 110.301 165.719 109.136 166.76C107.752 167.791 106.84 167.742 105.319 169.871L96.8516 164.16Z" fill="url(#paint48_linear_450_5635)"/>
<path id="Vector_68" d="M111.658 150.989C112.639 150.577 112.826 149.929 113.728 150.273C114.631 150.616 114.278 151.647 114.278 151.647L111.658 150.989Z" fill="#F28F8F"/>
<path id="Vector_69" d="M115.779 155.503C115.184 154.995 114.524 154.57 113.816 154.237C113.159 153.914 111.775 153.423 111.775 153.423C112.738 153.508 113.683 153.733 114.582 154.09C115.039 154.269 115.479 154.49 115.896 154.748C115.899 154.973 115.87 155.198 115.808 155.415L115.779 155.503Z" fill="#EB6B6B"/>
<path id="Vector_70" d="M115.897 156.868C116.216 156.997 116.524 157.151 116.819 157.329C116.798 157.554 116.745 157.775 116.662 157.986C115.926 157.302 115.067 156.763 114.131 156.396C114.736 156.485 115.328 156.643 115.897 156.868Z" fill="#EB6B6B"/>
<path id="Vector_71" d="M111.766 163.748C112.324 162.634 112.98 161.573 113.728 160.578C113.974 160.309 114.311 160.142 114.673 160.107C115.036 160.073 115.398 160.174 115.69 160.391C115.936 160.774 114.631 160.725 114.248 160.892C113.283 161.715 112.447 162.677 111.766 163.748Z" fill="#EB6B6B"/>
<path id="Vector_72" d="M108.734 150.518C108.734 150.518 109.47 149.478 110.795 147.819C112.119 146.161 112.041 146.396 113.326 146.141C114.612 145.886 117.045 145.464 117.702 144.688C117.593 144.839 117.472 144.98 117.339 145.11C116.486 145.984 114.621 146.219 114.043 146.396C113.464 146.573 112.218 147.113 112.218 147.113L109.774 150.724L108.734 150.518Z" fill="#EB6B6B"/>
</g>
<path id="Vector_73" d="M96.8518 164.16C92.5346 169.371 80.8978 181.894 78.2094 186.88C76.3451 190.334 75.8742 198.352 77.7777 201.267C79.6811 204.182 85.1071 202.955 89.5518 199.088C93.349 195.761 96.5084 187.734 99.2655 182.022C102.023 176.31 105.319 169.872 105.319 169.872L96.8518 164.16Z" fill="url(#paint49_linear_450_5635)"/>
</g>
</g>
</g>
</g>
</g>
</g>
</g>
<defs>
<linearGradient id="paint0_linear_450_5635" x1="73.8315" y1="276.388" x2="73.8315" y2="351.774" gradientUnits="userSpaceOnUse">
<stop stop-color="#25CDDA"/>
<stop offset="0.520833" stop-color="#01A3FF"/>
<stop offset="1" stop-color="#1EC5E1"/>
</linearGradient>
<linearGradient id="paint1_linear_450_5635" x1="73.8315" y1="276.388" x2="73.8315" y2="351.774" gradientUnits="userSpaceOnUse">
<stop stop-color="#25CDDA"/>
<stop offset="0.520833" stop-color="#01A3FF"/>
<stop offset="1" stop-color="#1EC5E1"/>
</linearGradient>
<linearGradient id="paint2_linear_450_5635" x1="75.0772" y1="280.09" x2="75.0772" y2="341.981" gradientUnits="userSpaceOnUse">
<stop stop-color="#25CDDA"/>
<stop offset="0.520833" stop-color="#01A3FF"/>
<stop offset="1" stop-color="#1EC5E1"/>
</linearGradient>
<linearGradient id="paint3_linear_450_5635" x1="63.8824" y1="299.891" x2="63.8824" y2="363.666" gradientUnits="userSpaceOnUse">
<stop stop-color="#25CDDA"/>
<stop offset="0.520833" stop-color="#01A3FF"/>
<stop offset="1" stop-color="#1EC5E1"/>
</linearGradient>
<linearGradient id="paint4_linear_450_5635" x1="63.8824" y1="299.891" x2="63.8824" y2="363.666" gradientUnits="userSpaceOnUse">
<stop stop-color="#25CDDA"/>
<stop offset="0.520833" stop-color="#01A3FF"/>
<stop offset="1" stop-color="#1EC5E1"/>
</linearGradient>
<linearGradient id="paint5_linear_450_5635" x1="62.6811" y1="304.258" x2="62.6811" y2="357.407" gradientUnits="userSpaceOnUse">
<stop stop-color="#25CDDA"/>
<stop offset="0.520833" stop-color="#01A3FF"/>
<stop offset="1" stop-color="#1EC5E1"/>
</linearGradient>
<linearGradient id="paint6_linear_450_5635" x1="59.7477" y1="327.333" x2="59.7477" y2="331.608" gradientUnits="userSpaceOnUse">
<stop stop-color="#25CDDA"/>
<stop offset="0.520833" stop-color="#01A3FF"/>
<stop offset="1" stop-color="#1EC5E1"/>
</linearGradient>
<linearGradient id="paint7_linear_450_5635" x1="345.588" y1="276.402" x2="345.588" y2="356.868" gradientUnits="userSpaceOnUse">
<stop stop-color="#25CDDA"/>
<stop offset="0.520833" stop-color="#01A3FF"/>
<stop offset="1" stop-color="#1EC5E1"/>
</linearGradient>
<linearGradient id="paint8_linear_450_5635" x1="345.588" y1="276.402" x2="345.588" y2="356.868" gradientUnits="userSpaceOnUse">
<stop stop-color="#25CDDA"/>
<stop offset="0.520833" stop-color="#01A3FF"/>
<stop offset="1" stop-color="#1EC5E1"/>
</linearGradient>
<linearGradient id="paint9_linear_450_5635" x1="344.642" y1="283.653" x2="344.642" y2="354.248" gradientUnits="userSpaceOnUse">
<stop stop-color="#25CDDA"/>
<stop offset="0.520833" stop-color="#01A3FF"/>
<stop offset="1" stop-color="#1EC5E1"/>
</linearGradient>
<linearGradient id="paint10_linear_450_5635" x1="355.005" y1="307.409" x2="355.005" y2="358.871" gradientUnits="userSpaceOnUse">
<stop stop-color="#25CDDA"/>
<stop offset="0.520833" stop-color="#01A3FF"/>
<stop offset="1" stop-color="#1EC5E1"/>
</linearGradient>
<linearGradient id="paint11_linear_450_5635" x1="355.005" y1="307.409" x2="355.005" y2="358.871" gradientUnits="userSpaceOnUse">
<stop stop-color="#25CDDA"/>
<stop offset="0.520833" stop-color="#01A3FF"/>
<stop offset="1" stop-color="#1EC5E1"/>
</linearGradient>
<linearGradient id="paint12_linear_450_5635" x1="352.581" y1="314.461" x2="352.581" y2="357.104" gradientUnits="userSpaceOnUse">
<stop stop-color="#25CDDA"/>
<stop offset="0.520833" stop-color="#01A3FF"/>
<stop offset="1" stop-color="#1EC5E1"/>
</linearGradient>
<linearGradient id="paint13_linear_450_5635" x1="118.918" y1="336.278" x2="118.918" y2="407.627" gradientUnits="userSpaceOnUse">
<stop stop-color="#25CDDA"/>
<stop offset="0.520833" stop-color="#01A3FF"/>
<stop offset="1" stop-color="#1EC5E1"/>
</linearGradient>
<linearGradient id="paint14_linear_450_5635" x1="294.206" y1="339.33" x2="294.206" y2="407.636" gradientUnits="userSpaceOnUse">
<stop stop-color="#25CDDA"/>
<stop offset="0.520833" stop-color="#01A3FF"/>
<stop offset="1" stop-color="#1EC5E1"/>
</linearGradient>
<linearGradient id="paint15_linear_450_5635" x1="411.165" y1="196.249" x2="411.165" y2="242.977" gradientUnits="userSpaceOnUse">
<stop stop-color="#25CDDA"/>
<stop offset="0.520833" stop-color="#01A3FF"/>
<stop offset="1" stop-color="#1EC5E1"/>
</linearGradient>
<linearGradient id="paint16_linear_450_5635" x1="35.0202" y1="172.351" x2="35.0202" y2="228.756" gradientUnits="userSpaceOnUse">
<stop stop-color="#25CDDA"/>
<stop offset="0.520833" stop-color="#01A3FF"/>
<stop offset="1" stop-color="#1EC5E1"/>
</linearGradient>
<linearGradient id="paint17_linear_450_5635" x1="403.557" y1="52.8223" x2="403.557" y2="113.686" gradientUnits="userSpaceOnUse">
<stop stop-color="#25CDDA"/>
<stop offset="0.520833" stop-color="#01A3FF"/>
<stop offset="1" stop-color="#1EC5E1"/>
</linearGradient>
<linearGradient id="paint18_linear_450_5635" x1="35.1081" y1="19.3457" x2="35.1081" y2="78.9542" gradientUnits="userSpaceOnUse">
<stop stop-color="#25CDDA"/>
<stop offset="0.520833" stop-color="#01A3FF"/>
<stop offset="1" stop-color="#1EC5E1"/>
</linearGradient>
<linearGradient id="paint19_linear_450_5635" x1="292.118" y1="288.742" x2="292.118" y2="383.821" gradientUnits="userSpaceOnUse">
<stop stop-color="#25CDDA"/>
<stop offset="0.520833" stop-color="#01A3FF"/>
<stop offset="1" stop-color="#1EC5E1"/>
</linearGradient>
<linearGradient id="paint20_linear_450_5635" x1="300.261" y1="39.4639" x2="300.261" y2="302.97" gradientUnits="userSpaceOnUse">
<stop stop-color="#25CDDA"/>
<stop offset="0.520833" stop-color="#01A3FF"/>
<stop offset="1" stop-color="#1EC5E1"/>
</linearGradient>
<linearGradient id="paint21_linear_450_5635" x1="278.71" y1="304.231" x2="278.71" y2="383.811" gradientUnits="userSpaceOnUse">
<stop stop-color="#25CDDA"/>
<stop offset="0.520833" stop-color="#01A3FF"/>
<stop offset="1" stop-color="#1EC5E1"/>
</linearGradient>
<linearGradient id="paint22_linear_450_5635" x1="286.853" y1="54.9873" x2="286.853" y2="302.969" gradientUnits="userSpaceOnUse">
<stop stop-color="#25CDDA"/>
<stop offset="0.520833" stop-color="#01A3FF"/>
<stop offset="1" stop-color="#1EC5E1"/>
</linearGradient>
<linearGradient id="paint23_linear_450_5635" x1="167.152" y1="153.776" x2="167.152" y2="201.532" gradientUnits="userSpaceOnUse">
<stop stop-color="#FBA972"/>
<stop offset="1" stop-color="#FA7D6C"/>
</linearGradient>
<linearGradient id="paint24_linear_450_5635" x1="158.152" y1="155.062" x2="158.152" y2="262.586" gradientUnits="userSpaceOnUse">
<stop stop-color="#25CDDA"/>
<stop offset="0.520833" stop-color="#01A3FF"/>
<stop offset="1" stop-color="#1EC5E1"/>
</linearGradient>
<linearGradient id="paint25_linear_450_5635" x1="185.761" y1="155.129" x2="185.761" y2="168.89" gradientUnits="userSpaceOnUse">
<stop stop-color="#25CDDA"/>
<stop offset="0.520833" stop-color="#01A3FF"/>
<stop offset="1" stop-color="#1EC5E1"/>
</linearGradient>
<linearGradient id="paint26_linear_450_5635" x1="161.207" y1="166.946" x2="161.207" y2="262.605" gradientUnits="userSpaceOnUse">
<stop stop-color="#25CDDA"/>
<stop offset="0.520833" stop-color="#01A3FF"/>
<stop offset="1" stop-color="#1EC5E1"/>
</linearGradient>
<linearGradient id="paint27_linear_450_5635" x1="193.537" y1="130.97" x2="193.537" y2="166.199" gradientUnits="userSpaceOnUse">
<stop stop-color="#25CDDA"/>
<stop offset="0.520833" stop-color="#01A3FF"/>
<stop offset="1" stop-color="#1EC5E1"/>
</linearGradient>
<linearGradient id="paint28_linear_450_5635" x1="195.209" y1="137.141" x2="195.209" y2="153.982" gradientUnits="userSpaceOnUse">
<stop stop-color="#25CDDA"/>
<stop offset="0.520833" stop-color="#01A3FF"/>
<stop offset="1" stop-color="#1EC5E1"/>
</linearGradient>
<linearGradient id="paint29_linear_450_5635" x1="225.254" y1="-0.000976563" x2="225.254" y2="168.323" gradientUnits="userSpaceOnUse">
<stop stop-color="#25CDDA"/>
<stop offset="0.520833" stop-color="#01A3FF"/>
<stop offset="1" stop-color="#1EC5E1"/>
</linearGradient>
<linearGradient id="paint30_linear_450_5635" x1="251.844" y1="21.0215" x2="251.844" y2="73.1832" gradientUnits="userSpaceOnUse">
<stop stop-color="#25CDDA"/>
<stop offset="0.520833" stop-color="#01A3FF"/>
<stop offset="1" stop-color="#1EC5E1"/>
</linearGradient>
<linearGradient id="paint31_linear_450_5635" x1="277.335" y1="111.203" x2="277.335" y2="164.179" gradientUnits="userSpaceOnUse">
<stop stop-color="#25CDDA"/>
<stop offset="0.520833" stop-color="#01A3FF"/>
<stop offset="1" stop-color="#1EC5E1"/>
</linearGradient>
<linearGradient id="paint32_linear_450_5635" x1="213.062" y1="21.041" x2="213.062" y2="158.654" gradientUnits="userSpaceOnUse">
<stop stop-color="#25CDDA"/>
<stop offset="0.520833" stop-color="#01A3FF"/>
<stop offset="1" stop-color="#1EC5E1"/>
</linearGradient>
<linearGradient id="paint33_linear_450_5635" x1="213.062" y1="21.041" x2="213.062" y2="158.654" gradientUnits="userSpaceOnUse">
<stop stop-color="#25CDDA"/>
<stop offset="0.520833" stop-color="#01A3FF"/>
<stop offset="1" stop-color="#1EC5E1"/>
</linearGradient>
<linearGradient id="paint34_linear_450_5635" x1="220.024" y1="21.041" x2="220.024" y2="153.394" gradientUnits="userSpaceOnUse">
<stop stop-color="#25CDDA"/>
<stop offset="0.520833" stop-color="#01A3FF"/>
<stop offset="1" stop-color="#1EC5E1"/>
</linearGradient>
<linearGradient id="paint35_linear_450_5635" x1="215.462" y1="11.3926" x2="215.462" y2="168.314" gradientUnits="userSpaceOnUse">
<stop stop-color="#25CDDA"/>
<stop offset="0.520833" stop-color="#01A3FF"/>
<stop offset="1" stop-color="#1EC5E1"/>
</linearGradient>
<linearGradient id="paint36_linear_450_5635" x1="215.462" y1="11.3926" x2="215.462" y2="168.314" gradientUnits="userSpaceOnUse">
<stop stop-color="#25CDDA"/>
<stop offset="0.520833" stop-color="#01A3FF"/>
<stop offset="1" stop-color="#1EC5E1"/>
</linearGradient>
<linearGradient id="paint37_linear_450_5635" x1="246.125" y1="70.4746" x2="246.125" y2="168.513" gradientUnits="userSpaceOnUse">
<stop stop-color="#25CDDA"/>
<stop offset="0.520833" stop-color="#01A3FF"/>
<stop offset="1" stop-color="#1EC5E1"/>
</linearGradient>
<linearGradient id="paint38_linear_450_5635" x1="215.522" y1="21.0293" x2="215.522" y2="159.552" gradientUnits="userSpaceOnUse">
<stop stop-color="#25CDDA"/>
<stop offset="0.520833" stop-color="#01A3FF"/>
<stop offset="1" stop-color="#1EC5E1"/>
</linearGradient>
<linearGradient id="paint39_linear_450_5635" x1="136.424" y1="329.487" x2="136.424" y2="354.79" gradientUnits="userSpaceOnUse">
<stop stop-color="#FBA972"/>
<stop offset="1" stop-color="#FA7D6C"/>
</linearGradient>
<linearGradient id="paint40_linear_450_5635" x1="145.72" y1="343.796" x2="145.72" y2="373.835" gradientUnits="userSpaceOnUse">
<stop stop-color="#203E68"/>
<stop offset="1" stop-color="#11213E"/>
</linearGradient>
<linearGradient id="paint41_linear_450_5635" x1="93.8483" y1="333.305" x2="93.8483" y2="358.78" gradientUnits="userSpaceOnUse">
<stop stop-color="#FBA972"/>
<stop offset="1" stop-color="#FA7D6C"/>
</linearGradient>
<linearGradient id="paint42_linear_450_5635" x1="89.5444" y1="350.272" x2="89.5444" y2="388.953" gradientUnits="userSpaceOnUse">
<stop stop-color="#203E68"/>
<stop offset="1" stop-color="#11213E"/>
</linearGradient>
<linearGradient id="paint43_linear_450_5635" x1="116.102" y1="201.07" x2="116.102" y2="343.234" gradientUnits="userSpaceOnUse">
<stop stop-color="#1F99CB"/>
<stop offset="1" stop-color="#20335C"/>
</linearGradient>
<linearGradient id="paint44_linear_450_5635" x1="117.844" y1="151.611" x2="117.844" y2="224.018" gradientUnits="userSpaceOnUse">
<stop stop-color="#277EFF"/>
<stop offset="1" stop-color="#204987"/>
</linearGradient>
<linearGradient id="paint45_linear_450_5635" x1="115.191" y1="105.613" x2="115.191" y2="153.089" gradientUnits="userSpaceOnUse">
<stop stop-color="#25CDDA"/>
<stop offset="0.520833" stop-color="#01A3FF"/>
<stop offset="1" stop-color="#1EC5E1"/>
</linearGradient>
<linearGradient id="paint46_linear_450_5635" x1="115.705" y1="114.305" x2="115.705" y2="168.439" gradientUnits="userSpaceOnUse">
<stop stop-color="#FBA972"/>
<stop offset="1" stop-color="#FA7D6C"/>
</linearGradient>
<linearGradient id="paint47_linear_450_5635" x1="87.7481" y1="155.504" x2="87.7481" y2="199.697" gradientUnits="userSpaceOnUse">
<stop stop-color="#FBA972"/>
<stop offset="1" stop-color="#FA7D6C"/>
</linearGradient>
<linearGradient id="paint48_linear_450_5635" x1="107.42" y1="143.149" x2="107.42" y2="169.871" gradientUnits="userSpaceOnUse">
<stop stop-color="#FBA972"/>
<stop offset="1" stop-color="#FBA672"/>
</linearGradient>
<linearGradient id="paint49_linear_450_5635" x1="90.94" y1="164.16" x2="90.94" y2="202.878" gradientUnits="userSpaceOnUse">
<stop stop-color="#FBA972"/>
<stop offset="1" stop-color="#FA7D6C"/>
</linearGradient>
<clipPath id="clip0_450_5635">
<rect width="427" height="446" fill="white"/>
</clipPath>
</defs>
</svg>
