<svg viewBox="0 0 1392 845" fill="none" xmlns="http://www.w3.org/2000/svg" preserveAspectRatio="xMidYMid slice" width="100%" height="100%">
<path d="M280.603 -76.9617C121.562 -12.836 -80.6156 537.35 82.9969 665.518C246.609 793.687 698.778 609.713 922.938 605.033C1147.1 600.352 1335.72 646.855 1518.48 797.77" stroke="url(#paint0_linear_285_15962)" stroke-width="2.5"/>
<path d="M274.439 -66.3916C116.347 1.08052 -77.8579 555.449 87.5797 680.145C253.017 804.841 702.461 611.354 926.52 601.944C1150.58 592.533 1339.84 635.05 1524.75 782.085" stroke="url(#paint1_linear_285_15962)" stroke-width="2.5"/>
<path d="M268.427 -55.6929C111.333 15.1051 -74.841 573.488 92.3711 694.673C259.583 815.859 706.166 612.917 930.055 598.78C1153.94 584.643 1343.79 623.158 1530.8 766.269" stroke="url(#paint2_linear_285_15962)" stroke-width="2.5"/>
<path d="M286.921 -87.4C126.978 -26.6403 -83.1097 519.195 78.628 650.797C240.366 782.398 695.121 607.995 919.314 608.045C1143.51 608.096 1331.43 658.573 1511.98 813.321" stroke="url(#paint3_linear_285_15962)" stroke-width="2.5"/>
<path d="M293.389 -97.7035C132.594 -40.3284 -85.3402 500.991 74.4734 635.985C234.287 770.98 691.49 606.2 915.649 610.981C1139.81 615.762 1326.97 670.197 1505.26 828.733" stroke="url(#paint4_linear_285_15962)" stroke-width="2.5"/>
<path d="M300.005 -107.869C138.405 -53.8959 -87.3083 482.742 70.5325 621.088C228.373 759.435 687.885 604.328 911.941 613.839C1136 623.35 1322.34 681.726 1498.32 844" stroke="url(#paint5_linear_285_15962)" stroke-width="2.5"/>
<defs>
<linearGradient id="paint0_linear_285_15962" x1="1378.72" y1="737.099" x2="73.4534" y2="382.179" gradientUnits="userSpaceOnUse">
<stop stop-color="#B1FCCF"/>
<stop offset="0.124289" stop-color="#B3FCD0"/>
<stop offset="0.476206" stop-color="#2FEF5A"/>
<stop offset="1" stop-color="#44E5C7"/>
</linearGradient>
<linearGradient id="paint1_linear_285_15962" x1="1384.14" y1="724.371" x2="75.894" y2="389.45" gradientUnits="userSpaceOnUse">
<stop stop-color="#B1FCCF"/>
<stop offset="0.124289" stop-color="#B3FCD0"/>
<stop offset="0.476206" stop-color="#2FEF5A"/>
<stop offset="1" stop-color="#44E5C7"/>
</linearGradient>
<linearGradient id="paint2_linear_285_15962" x1="1389.37" y1="711.532" x2="78.3515" y2="396.528" gradientUnits="userSpaceOnUse">
<stop stop-color="#B1FCCF"/>
<stop offset="0.124289" stop-color="#B3FCD0"/>
<stop offset="0.476206" stop-color="#2FEF5A"/>
<stop offset="1" stop-color="#44E5C7"/>
</linearGradient>
<linearGradient id="paint3_linear_285_15962" x1="1373.12" y1="749.71" x2="71.0418" y2="374.709" gradientUnits="userSpaceOnUse">
<stop stop-color="#B1FCCF"/>
<stop offset="0.124289" stop-color="#B3FCD0"/>
<stop offset="0.476206" stop-color="#2FEF5A"/>
<stop offset="1" stop-color="#44E5C7"/>
</linearGradient>
<linearGradient id="paint4_linear_285_15962" x1="1367.34" y1="762.2" x2="68.6668" y2="367.03" gradientUnits="userSpaceOnUse">
<stop stop-color="#B1FCCF"/>
<stop offset="0.124289" stop-color="#B3FCD0"/>
<stop offset="0.476206" stop-color="#2FEF5A"/>
<stop offset="1" stop-color="#44E5C7"/>
</linearGradient>
<linearGradient id="paint5_linear_285_15962" x1="1361.38" y1="774.567" x2="66.3355" y2="359.138" gradientUnits="userSpaceOnUse">
<stop stop-color="#B1FCCF"/>
<stop offset="0.124289" stop-color="#B3FCD0"/>
<stop offset="0.476206" stop-color="#2FEF5A"/>
<stop offset="1" stop-color="#44E5C7"/>
</linearGradient>
</defs>
</svg>
