<svg width="2081" height="3702" viewBox="0 0 2081 3702" fill="none" xmlns="http://www.w3.org/2000/svg">
<path d="M71.1509 45.8281C82.1509 168.846 455.66 443.753 837.66 401.961C1315.16 349.721 1510.54 501.948 1541.15 729.446C1571.76 956.944 1361.66 1150.74 837.66 1056.37C313.66 961.999 164.651 1038.39 108.651 1174.33C52.6509 1310.27 120.151 1652.92 816.651 1608.54C1513.15 1564.17 1578.65 1805.15 1599.65 1941.08C1620.65 2077.02 2123.66 2163.53 1988.66 1608.54C1853.66 1053.56 1331.67 1797.28 928.66 1941.08C525.651 2084.88 192.66 1912.44 162.16 2168.58C131.66 2424.73 544.151 2495.99 816.651 2451.69C1089.15 2407.39 1583.15 2333.73 1588.15 2699.97C1593.15 3066.22 1019.65 3089.59 828.651 3029.7C637.651 2969.82 101.651 3040.38 80.6508 3655.46" stroke="url(#paint0_linear_664_5)" stroke-width="2.5"/>
<path d="M57.1685 55.4087C69.1236 178.314 444.754 449.549 826.415 404.013C1303.49 347.094 1500.05 497.399 1532.42 724.589C1564.8 951.778 1356.21 1147.63 831.498 1058.4C306.785 969.168 158.375 1047.02 103.433 1183.5C48.4909 1319.98 118.65 1661.96 814.779 1610.76C1510.91 1559.55 1578.28 1799.88 1600.33 1935.61C1622.39 2071.33 2126.05 2152.9 1986.74 1599.27C1847.44 1045.63 1331.24 1794.44 929.367 1942.19C527.49 2089.93 193.172 1920.75 164.663 2177.19C136.154 2433.62 549.182 2500.84 821.328 2453.87C1093.47 2406.9 1586.88 2328.4 1594.73 2694.58C1602.57 3060.76 1029.28 3089.75 837.817 3031.74C646.359 2973.74 110.928 3049.54 94.7063 3664.81" stroke="url(#paint1_linear_664_5)" stroke-width="2.5"/>
<path d="M43.2612 65.1265C56.1706 187.91 433.894 455.452 815.186 406.176C1291.8 344.582 1489.52 492.955 1523.66 719.818C1557.8 946.681 1350.74 1144.57 825.352 1060.48C299.966 976.403 152.166 1055.71 98.2865 1192.72C44.4067 1329.74 117.219 1671.01 812.924 1612.99C1508.63 1554.96 1577.86 1794.62 1600.97 1930.12C1624.08 2065.63 2128.36 2142.26 1984.75 1590.01C1841.15 1037.76 1330.8 1791.6 930.082 1943.28C529.368 2094.96 193.749 1929.07 167.233 2185.77C140.717 2442.48 554.252 2505.64 826.022 2456.01C1097.79 2406.37 1590.57 2323.03 1601.26 2689.12C1611.95 3055.21 1038.9 3089.82 846.999 3033.7C655.098 2977.57 120.276 3058.62 108.834 3674.03" stroke="url(#paint2_linear_664_5)" stroke-width="2.5"/>
<path d="M29.4302 74.98C43.2928 197.632 423.08 461.461 803.975 408.449C1280.09 342.184 1478.95 488.613 1514.86 715.133C1550.76 941.653 1345.24 1141.56 819.223 1062.63C293.204 983.705 146.025 1064.46 93.2121 1201.99C40.3987 1339.53 115.86 1680.08 811.087 1615.24C1506.31 1550.39 1577.41 1789.36 1601.57 1924.64C1625.73 2059.91 2130.58 2131.59 1982.69 1580.77C1834.81 1029.95 1330.33 1788.76 930.806 1944.37C531.286 2099.97 194.391 1937.37 169.87 2194.33C145.348 2451.28 559.358 2510.39 830.733 2458.09C1102.11 2405.8 1594.22 2317.63 1607.75 2683.6C1621.29 3049.57 1048.53 3089.8 856.197 3035.56C663.867 2981.31 129.694 3067.61 123.033 3683.1" stroke="url(#paint3_linear_664_5)" stroke-width="2.5"/>
<path d="M2 95.0918C17.7659 217.453 401.593 473.796 781.607 413.324C1256.62 337.734 1457.73 480.241 1497.14 706.023C1536.56 931.804 1334.18 1135.71 807.015 1067.11C279.85 998.507 133.949 1082.13 83.28 1220.68C32.6112 1359.23 113.351 1698.25 807.465 1619.79C1501.58 1541.32 1576.37 1778.86 1602.63 1913.64C1628.89 2048.42 2134.78 2110.19 1978.36 1562.35C1821.94 1014.51 1329.32 1783.11 932.279 1946.52C535.237 2109.94 195.867 1953.97 175.341 2211.37C154.816 2468.76 569.681 2519.74 840.202 2462.13C1110.72 2404.52 1601.39 2306.72 1620.61 2672.37C1639.82 3038.02 1067.78 3089.47 874.632 3039.01C681.489 2988.54 148.738 3085.3 151.64 3700.83" stroke="url(#paint4_linear_664_5)" stroke-width="2.5"/>
<path d="M85.207 36.3848C95.2511 159.505 466.611 438.064 848.921 400.019C1326.81 352.462 1521 506.598 1549.84 734.388C1578.68 962.177 1367.08 1153.9 843.838 1054.4C320.591 954.899 170.994 1029.83 113.94 1165.21C56.886 1300.6 121.722 1643.9 818.54 1606.35C1515.36 1568.8 1578.98 1810.42 1598.93 1946.55C1618.87 2082.69 2121.19 2174.12 1990.5 1617.84C1859.82 1061.55 1332.07 1800.13 927.962 1939.97C523.851 2079.82 192.213 1904.11 159.724 2159.95C127.236 2415.79 539.157 2491.09 811.991 2449.46C1084.83 2407.84 1579.38 2339.02 1581.53 2705.3C1583.69 3071.58 1010.03 3089.33 819.5 3027.57C628.973 2965.82 92.4452 3031.12 66.6682 3645.98" stroke="url(#paint5_linear_664_5)" stroke-width="2.5"/>
<path d="M15.6758 84.9688C30.4906 207.48 412.312 467.576 792.781 410.832C1268.37 339.901 1468.36 484.375 1506.02 710.535C1543.68 936.694 1339.72 1138.61 813.11 1064.84C286.498 991.074 139.953 1073.26 88.2095 1211.31C36.4665 1349.36 114.57 1689.16 809.267 1617.5C1503.96 1545.85 1576.91 1784.11 1602.12 1919.14C1627.33 2054.17 2132.72 2120.9 1980.56 1571.55C1828.4 1022.2 1329.83 1785.93 931.538 1945.45C533.242 2104.96 195.097 1945.68 172.572 2202.86C150.048 2460.05 564.501 2515.09 835.459 2460.14C1106.42 2405.18 1597.83 2312.19 1614.2 2678.02C1630.58 3043.84 1058.15 3089.68 865.407 3037.33C672.663 2984.97 139.182 3076.5 137.302 3692.03" stroke="url(#paint6_linear_664_5)" stroke-width="2.5"/>
<defs>
<linearGradient id="paint0_linear_664_5" x1="1829.24" y1="3414.65" x2="48.1824" y2="3287.89" gradientUnits="userSpaceOnUse">
<stop stop-color="#B1FCCF"/>
<stop offset="0.124289" stop-color="#B3FCD0"/>
<stop offset="0.476206" stop-color="#2FEF5A"/>
<stop offset="1" stop-color="#44E5C7"/>
</linearGradient>
<linearGradient id="paint1_linear_664_5" x1="1841.36" y1="3406.86" x2="59.6119" y2="3293.97" gradientUnits="userSpaceOnUse">
<stop stop-color="#B1FCCF"/>
<stop offset="0.124289" stop-color="#B3FCD0"/>
<stop offset="0.476206" stop-color="#2FEF5A"/>
<stop offset="1" stop-color="#44E5C7"/>
</linearGradient>
<linearGradient id="paint2_linear_664_5" x1="1853.41" y1="3398.96" x2="71.0608" y2="3299.94" gradientUnits="userSpaceOnUse">
<stop stop-color="#B1FCCF"/>
<stop offset="0.124289" stop-color="#B3FCD0"/>
<stop offset="0.476206" stop-color="#2FEF5A"/>
<stop offset="1" stop-color="#44E5C7"/>
</linearGradient>
<linearGradient id="paint3_linear_664_5" x1="1865.41" y1="3390.94" x2="82.528" y2="3305.79" gradientUnits="userSpaceOnUse">
<stop stop-color="#B1FCCF"/>
<stop offset="0.124289" stop-color="#B3FCD0"/>
<stop offset="0.476206" stop-color="#2FEF5A"/>
<stop offset="1" stop-color="#44E5C7"/>
</linearGradient>
<linearGradient id="paint4_linear_664_5" x1="1889.21" y1="3374.55" x2="105.513" y2="3317.12" gradientUnits="userSpaceOnUse">
<stop stop-color="#B1FCCF"/>
<stop offset="0.124289" stop-color="#B3FCD0"/>
<stop offset="0.476206" stop-color="#2FEF5A"/>
<stop offset="1" stop-color="#44E5C7"/>
</linearGradient>
<linearGradient id="paint5_linear_664_5" x1="1817.06" y1="3422.31" x2="36.7732" y2="3281.68" gradientUnits="userSpaceOnUse">
<stop stop-color="#B1FCCF"/>
<stop offset="0.124289" stop-color="#B3FCD0"/>
<stop offset="0.476206" stop-color="#2FEF5A"/>
<stop offset="1" stop-color="#44E5C7"/>
</linearGradient>
<linearGradient id="paint6_linear_664_5" x1="1877.34" y1="3382.81" x2="94.012" y2="3311.52" gradientUnits="userSpaceOnUse">
<stop stop-color="#B1FCCF"/>
<stop offset="0.124289" stop-color="#B3FCD0"/>
<stop offset="0.476206" stop-color="#2FEF5A"/>
<stop offset="1" stop-color="#44E5C7"/>
</linearGradient>
</defs>
</svg>
