<svg width="65" height="256" viewBox="0 0 65 256" fill="none" xmlns="http://www.w3.org/2000/svg">
<g clip-path="url(#clip0_285_19958)">
<path d="M396.028 50.4695C385.808 30.2296 363.385 15.0216 341.561 19.6809C328.496 22.4765 315.507 31.851 302.966 27.1544C293.926 23.7625 288.835 14.1457 281.255 8.10725C269.575 -1.19269 252.992 -1.08087 238.748 3.09385C224.504 7.24994 211.477 14.9098 197.402 19.6436C173.426 27.7135 146.66 26.8376 123.245 17.2208C112.969 12.9902 103.349 7.17539 92.8672 3.44796C82.4044 -0.279473 70.5378 -1.73317 60.4306 2.92612C50.3233 7.56677 43.0798 19.7368 46.5799 30.4718C47.2725 32.6151 48.3768 34.7211 48.227 36.9762C48.0024 40.5918 44.5772 43.2197 41.1333 44.0397C37.6706 44.8411 34.0769 44.3192 30.5394 44.4124C14.6486 44.8038 0.442345 59.6017 0.367477 75.8347C0.311326 89.2907 8.43454 101.125 15.3973 112.55C22.3413 123.993 28.5928 137.71 24.4563 150.477C22.0044 158.062 16.2396 163.988 12.4587 170.977C2.66968 189.093 7.91046 213.079 21.5739 228.361C35.2374 243.644 55.6951 251.117 75.8909 252.906C96.0866 254.695 116.338 251.341 136.347 248.042C156.356 244.743 176.626 241.444 196.822 243.345L195.736 242.749C235.173 252.701 276.426 255.087 316.705 249.757C325.146 248.638 334.823 246.234 338.379 238.369C341.393 231.716 338.679 223.907 339.315 216.62C340.213 206.09 347.943 197.479 356.385 191.366C364.826 185.253 374.391 180.687 381.99 173.531C396.851 159.516 401.905 137.803 404.113 117.265C406.547 94.6209 406.228 70.6908 396.028 50.4695Z" fill="url(#paint0_linear_285_19958)"/>
<path d="M23.0029 101.433C25.7287 100.539 28.9943 100.944 32.5361 102.423C36.0732 103.9 39.8361 106.428 43.5146 109.697C50.8728 116.235 57.8282 125.675 61.916 135.369C66.7148 146.756 66.8691 156.827 67.3545 165.312C67.8226 173.495 68.5963 180.323 74.4268 185.153L75.0068 185.614C79.9764 189.409 85.0478 189.368 89.6191 189.308C94.2279 189.247 98.2406 189.179 101.551 192.555L101.551 192.556C104.024 195.073 105.543 198.94 106.119 203.532C106.695 208.117 106.325 213.376 105.071 218.614C102.558 229.108 96.5308 239.387 87.6396 244.001C75.8887 250.098 60.0867 245.794 47.1406 237.138C40.6856 232.822 34.9858 227.452 30.9131 221.827C26.8349 216.196 24.4193 210.353 24.4512 205.086C24.4876 199.228 27.5276 194.922 30.3594 190.402C33.1734 185.909 35.7514 181.23 34.417 174.808L34.416 174.807C33.2547 169.266 30.0042 166.348 26.3037 163.412C22.7179 160.567 18.6993 157.694 15.4482 152.369L15.1367 151.846C10.0567 143.115 9.06733 131.452 10.8662 121.458C11.7647 116.467 13.3544 111.919 15.4531 108.386C17.5564 104.845 20.1397 102.373 23.0029 101.433Z" fill="url(#paint1_linear_285_19958)" stroke="url(#paint2_linear_285_19958)"/>
<path d="M46.7871 144.321C46.9291 144.314 47.0374 144.405 47.0566 144.542C47.1513 145.28 54.2286 202.514 78.2852 251.876L78.2881 251.882C78.3471 252 78.3091 252.131 78.1748 252.198L78.1582 252.206L78.1406 252.215C78.1293 252.218 78.1094 252.22 78.0801 252.22C78.0105 252.22 77.94 252.194 77.8818 252.131L77.8281 252.055C53.8406 202.832 46.7209 145.775 46.5713 144.593C46.5607 144.455 46.6469 144.344 46.7871 144.321Z" fill="url(#paint3_linear_285_19958)" stroke="url(#paint4_linear_285_19958)"/>
<mask id="path-4-inside-1_285_19958" fill="white">
<path d="M28.7228 159.31C28.7976 159.31 28.8725 159.292 28.9474 159.236C29.0971 159.124 29.1345 158.9 29.0035 158.751C21.4044 149.041 13.0004 134.467 16.0326 120.116C17.8294 111.581 22.9205 107.108 22.9579 107.07C23.1076 106.94 23.1264 106.716 22.9953 106.567C22.8643 106.418 22.6397 106.4 22.49 106.53C22.2654 106.716 17.1743 111.189 15.3213 119.967C13.6368 128.037 14.5352 141.381 28.442 159.18C28.5169 159.255 28.6292 159.31 28.7228 159.31Z"/>
</mask>
<path d="M28.7228 159.31C28.7976 159.31 28.8725 159.292 28.9474 159.236C29.0971 159.124 29.1345 158.9 29.0035 158.751C21.4044 149.041 13.0004 134.467 16.0326 120.116C17.8294 111.581 22.9205 107.108 22.9579 107.07C23.1076 106.94 23.1264 106.716 22.9953 106.567C22.8643 106.418 22.6397 106.4 22.49 106.53C22.2654 106.716 17.1743 111.189 15.3213 119.967C13.6368 128.037 14.5352 141.381 28.442 159.18C28.5169 159.255 28.6292 159.31 28.7228 159.31Z" fill="url(#paint5_linear_285_19958)"/>
<path d="M28.9474 159.236L28.349 158.435L28.9474 159.236ZM29.0035 158.751L28.216 159.368L28.2336 159.39L28.2523 159.411L29.0035 158.751ZM16.0326 120.116L17.011 120.323L17.0111 120.322L16.0326 120.116ZM22.9579 107.07L22.301 106.317L22.2759 106.338L22.2523 106.362L22.9579 107.07ZM22.49 106.53L23.1285 107.3L23.1378 107.292L23.1469 107.284L22.49 106.53ZM15.3213 119.967L14.3429 119.761L14.3424 119.763L15.3213 119.967ZM28.442 159.18L27.654 159.796L27.6923 159.845L27.7364 159.889L28.442 159.18ZM28.7228 159.31L28.7228 160.31C28.9857 160.31 29.2772 160.238 29.5457 160.037L28.9474 159.236L28.349 158.435C28.3995 158.397 28.4635 158.362 28.538 158.339C28.6113 158.316 28.6759 158.31 28.7228 158.31L28.7228 159.31ZM28.9474 159.236L29.5457 160.037C30.1197 159.608 30.3058 158.718 29.7547 158.091L29.0035 158.751L28.2523 159.411C27.9633 159.083 28.0745 158.64 28.349 158.435L28.9474 159.236ZM29.0035 158.751L29.791 158.135C22.2118 148.45 14.0788 134.2 17.011 120.323L16.0326 120.116L15.0542 119.91C11.922 134.734 20.597 149.632 28.216 159.368L29.0035 158.751ZM16.0326 120.116L17.0111 120.322C18.7434 112.094 23.6442 107.798 23.6635 107.779L22.9579 107.07L22.2523 106.362C22.2878 106.327 21.9042 106.671 21.375 107.249C20.837 107.837 20.111 108.703 19.3304 109.841C17.7694 112.117 15.9847 115.489 15.054 119.91L16.0326 120.116ZM22.9579 107.07L23.6148 107.824C24.1671 107.343 24.2563 106.487 23.7465 105.907L22.9953 106.567L22.2442 107.227C21.9965 106.945 22.0482 106.537 22.301 106.317L22.9579 107.07ZM22.9953 106.567L23.7465 105.907C23.2644 105.358 22.4119 105.272 21.8331 105.776L22.49 106.53L23.1469 107.284C22.8675 107.527 22.4643 107.478 22.2442 107.227L22.9953 106.567ZM22.49 106.53L21.8514 105.76C21.5204 106.035 16.2578 110.69 14.3429 119.761L15.3213 119.967L16.2998 120.174C17.1947 115.934 18.8698 112.742 20.3415 110.592C21.0774 109.516 21.7618 108.703 22.2705 108.152C22.5248 107.877 22.7349 107.667 22.8849 107.523C22.96 107.451 23.0198 107.396 23.0624 107.358C23.1068 107.318 23.1288 107.299 23.1285 107.3L22.49 106.53ZM15.3213 119.967L14.3424 119.763C12.5885 128.165 13.5959 141.803 27.654 159.796L28.442 159.18L29.23 158.564C15.4745 140.959 14.6851 127.909 16.3002 120.172L15.3213 119.967ZM28.442 159.18L27.7364 159.889C27.9432 160.094 28.2955 160.31 28.7228 160.31L28.7228 159.31L28.7228 158.31C28.8634 158.31 28.9597 158.349 29.0038 158.37C29.0533 158.393 29.1012 158.425 29.1476 158.471L28.442 159.18Z" fill="url(#paint6_linear_285_19958)" mask="url(#path-4-inside-1_285_19958)"/>
<path d="M54.9287 36.9163C105.243 34.8855 301.516 35.8919 345.878 36.5256C353.529 36.6326 360.033 42.0477 361.498 49.4905L361.563 49.8469C367.643 84.7742 367.91 157.771 367.611 194.401L367.546 201.22C367.455 209.58 360.763 216.389 352.382 216.66C302.025 218.281 116.905 218.281 63.9531 217.853L63.9541 217.853C52.2993 217.743 42.8448 208.435 42.6436 196.837L40.0605 52.5667C39.9156 44.1919 46.4956 37.2234 54.9268 36.9163L54.9287 36.9163Z" fill="url(#paint7_linear_285_19958)" stroke="url(#paint8_linear_285_19958)"/>
<path d="M58.5176 42.2471L58.5195 42.2471L346.2 42.918C350.706 42.935 354.397 46.439 354.687 50.8828L354.705 51.3154L356.671 187.162C356.76 193.76 351.444 199.161 344.815 199.179L344.814 199.179L63.8525 200.706C57.2663 200.723 51.886 195.571 51.5996 189.059L51.5898 188.748L49.1377 51.6904C49.0492 46.4929 53.2763 42.2117 58.5176 42.2471Z" fill="url(#paint9_linear_285_19958)" stroke="url(#paint10_linear_285_19958)"/>
<mask id="path-8-inside-2_285_19958" fill="white">
<path d="M51.3712 205.251C51.1841 205.251 51.0156 205.102 51.0156 204.897C51.0156 204.711 51.1654 204.543 51.3712 204.543L359.604 204.319C359.791 204.319 359.96 204.468 359.96 204.673C359.96 204.86 359.81 205.027 359.604 205.027L51.3712 205.251Z"/>
</mask>
<path d="M51.3712 205.251C51.1841 205.251 51.0156 205.102 51.0156 204.897C51.0156 204.711 51.1654 204.543 51.3712 204.543L359.604 204.319C359.791 204.319 359.96 204.468 359.96 204.673C359.96 204.86 359.81 205.027 359.604 205.027L51.3712 205.251Z" fill="url(#paint11_linear_285_19958)"/>
<path d="M51.3712 205.251L51.3712 206.251L51.372 206.251L51.3712 205.251ZM51.3712 204.543L51.3712 205.543L51.372 205.543L51.3712 204.543ZM359.604 204.319L359.604 203.319L359.603 203.319L359.604 204.319ZM359.604 205.027L359.604 204.027L359.603 204.027L359.604 205.027ZM51.3712 205.251L51.3712 204.251C51.6977 204.251 52.0156 204.512 52.0156 204.897L51.0156 204.897L50.0156 204.897C50.0156 205.692 50.6705 206.251 51.3712 206.251L51.3712 205.251ZM51.0156 204.897L52.0156 204.897C52.0156 205.232 51.7477 205.543 51.3712 205.543L51.3712 204.543L51.3712 203.543C50.5831 203.543 50.0156 204.189 50.0156 204.897L51.0156 204.897ZM51.3712 204.543L51.372 205.543L359.605 205.319L359.604 204.319L359.603 203.319L51.3705 203.543L51.3712 204.543ZM359.604 204.319L359.604 205.319C359.278 205.319 358.96 205.058 358.96 204.673L359.96 204.673L360.96 204.673C360.96 203.878 360.305 203.319 359.604 203.319L359.604 204.319ZM359.96 204.673L358.96 204.673C358.96 204.338 359.228 204.027 359.604 204.027L359.604 205.027L359.604 206.027C360.392 206.027 360.96 205.381 360.96 204.673L359.96 204.673ZM359.604 205.027L359.603 204.027L51.3705 204.251L51.3712 205.251L51.372 206.251L359.605 206.027L359.604 205.027Z" fill="url(#paint12_linear_285_19958)" mask="url(#path-8-inside-2_285_19958)"/>
<path d="M63.0886 170.959C62.3024 170.847 61.9468 170.437 61.7971 170.008C61.7971 170.008 61.7971 170.008 61.7971 170.027C61.6848 170.493 61.9468 170.959 62.4896 171.182C63.1447 171.462 63.8372 171.499 64.3987 171.481C64.979 171.462 65.5218 171.22 65.8212 170.828C65.2223 171.108 64.3987 171.145 63.0886 170.959Z" fill="url(#paint13_linear_285_19958)"/>
<path d="M66.7756 164.212L65.4654 164.212C63.4627 164.175 62.2087 168.387 61.7969 170.008C61.9466 170.437 62.3022 170.847 63.0884 170.959C64.3985 171.145 65.2221 171.108 65.821 170.81C66.9066 169.393 67.4494 167.306 67.6928 166.095C67.9922 164.734 66.7756 164.212 66.7756 164.212Z" fill="url(#paint14_linear_285_19958)"/>
<path d="M65.6345 161.491L64.9045 164.38C64.8109 164.734 64.9794 165.107 65.3163 165.274C65.7281 165.479 66.3083 165.703 66.8324 165.647C67.0757 165.61 67.2816 165.442 67.3752 165.219L68.4421 162.181L65.6345 161.491Z" fill="url(#paint15_linear_285_19958)"/>
<path d="M64.7734 162.33C65.6906 163.131 68.6479 163.243 68.6479 163.243C79.2979 137.785 83.659 134.169 83.659 134.169C82.1242 143.767 83.4156 165.051 83.4156 165.051C85.175 165.815 87.4398 165.051 87.4398 165.051C87.5896 149.321 90.004 135.604 92.8865 124.794C85.6804 124.627 81.8621 122.185 80.6081 121.198C74.5812 130.814 64.7734 162.33 64.7734 162.33Z" fill="url(#paint16_linear_285_19958)"/>
<path d="M60.8271 171.228C60.9231 171.014 61.1897 170.91 61.3955 171.001L61.4004 171.003C61.6213 171.095 61.7227 171.338 61.6377 171.575L26.3232 252.788L26.3223 252.789C26.2534 252.949 26.0884 253.047 25.916 253.048C25.8523 253.048 25.7978 253.035 25.7646 253.018L25.7578 253.014L25.75 253.011L25.6689 252.968C25.4954 252.852 25.4285 252.64 25.5088 252.447L60.8271 171.228Z" fill="url(#paint17_linear_285_19958)" stroke="url(#paint18_linear_285_19958)" stroke-width="0.5"/>
<path d="M82.6514 171.228C82.7473 171.014 83.014 170.91 83.2197 171.001L83.2246 171.003C83.4572 171.1 83.5577 171.347 83.4658 171.567L48.1475 252.788L48.1465 252.789C48.0776 252.949 47.9126 253.047 47.7402 253.048C47.6765 253.048 47.622 253.035 47.5889 253.018L47.582 253.014L47.5742 253.011L47.4932 252.968C47.3196 252.852 47.2528 252.64 47.333 252.447L82.6514 171.228Z" fill="url(#paint19_linear_285_19958)" stroke="url(#paint20_linear_285_19958)" stroke-width="0.5"/>
<path d="M59.3447 170.482L91.7061 170.482C92.1128 170.482 92.4253 170.799 92.4287 171.176C92.4133 171.563 92.0936 171.883 91.6875 171.883L59.3447 171.883C58.9358 171.883 58.6211 171.562 58.6211 171.182C58.6213 170.803 58.9359 170.482 59.3447 170.482Z" fill="url(#paint21_linear_285_19958)" stroke="url(#paint22_linear_285_19958)" stroke-width="0.5"/>
<path d="M55.8447 183.397L77.7256 183.397C77.9716 183.398 78.1679 183.594 78.168 183.818C78.168 184.043 77.9716 184.239 77.7256 184.239L55.8447 184.239C55.5985 184.239 55.4023 184.043 55.4023 183.818C55.4024 183.622 55.5525 183.447 55.7549 183.406L55.8447 183.397Z" fill="url(#paint23_linear_285_19958)" stroke="url(#paint24_linear_285_19958)" stroke-width="0.5"/>
<path d="M70.7549 198.754L70.7549 199.596L49.375 199.596L49.375 198.754L70.7549 198.754Z" fill="url(#paint25_linear_285_19958)" stroke="url(#paint26_linear_285_19958)" stroke-width="0.5"/>
<path d="M64.2412 214.111L64.2412 214.953L42.8613 214.953L42.8613 214.111L64.2412 214.111Z" fill="url(#paint27_linear_285_19958)" stroke="url(#paint28_linear_285_19958)" stroke-width="0.5"/>
<path d="M35.7979 229.487L57.6787 229.487C57.9248 229.487 58.1211 229.683 58.1211 229.908C58.1211 230.137 57.939 230.329 57.6787 230.329L35.7979 230.329C35.5516 230.329 35.3555 230.133 35.3555 229.908C35.3555 229.683 35.5517 229.487 35.7979 229.487Z" fill="url(#paint29_linear_285_19958)" stroke="url(#paint30_linear_285_19958)" stroke-width="0.5"/>
<path d="M29.21 244.844L51.0908 244.844C51.3369 244.844 51.5332 245.04 51.5332 245.265C51.5332 245.494 51.3511 245.686 51.0908 245.686L29.21 245.686C28.9638 245.686 28.7676 245.49 28.7676 245.265C28.7676 245.04 28.9638 244.844 29.21 244.844Z" fill="url(#paint31_linear_285_19958)" stroke="url(#paint32_linear_285_19958)" stroke-width="0.5"/>
<path d="M23.6377 16.0621L23.6387 16.0621L104.308 18.2975L104.308 18.2985C109.655 18.4582 113.911 22.8237 113.911 28.1422L113.911 64.5035C113.911 69.9819 109.405 74.4183 103.898 74.3473L26.5039 73.3405C21.4244 73.2693 17.2209 69.3834 16.7754 64.3483L16.7764 64.3483L13.5195 26.7389L13.5195 26.7379L13.499 26.4645C13.1512 20.7329 17.8317 15.8875 23.6377 16.0621Z" fill="url(#paint33_linear_285_19958)" stroke="url(#paint34_linear_285_19958)"/>
<path d="M107.28 30.4718C107.28 31.9814 106.063 33.1928 104.547 33.1928L28.3501 33.1928C26.8527 33.1928 25.6361 31.9814 25.6174 30.4904C25.5987 28.9808 26.834 27.7507 28.3501 27.7507L104.547 27.7507C106.063 27.7507 107.28 28.9621 107.28 30.4718Z" fill="url(#paint35_linear_285_19958)"/>
<path d="M107.28 40.2004C107.28 41.71 106.063 42.9214 104.547 42.9214L28.3501 42.9214C26.8527 42.9214 25.6361 41.71 25.6174 40.219C25.5987 38.7094 26.834 37.4794 28.3501 37.4794L104.547 37.4794C106.063 37.4794 107.28 38.6908 107.28 40.2004Z" fill="url(#paint36_linear_285_19958)"/>
<path d="M107.28 49.9289C107.28 51.4385 106.063 52.6499 104.547 52.6499L28.3501 52.6499C26.8527 52.6499 25.6361 51.4385 25.6174 49.9475C25.5987 48.4379 26.834 47.2079 28.3501 47.2079L104.547 47.2079C106.063 47.2079 107.28 48.4379 107.28 49.9289Z" fill="url(#paint37_linear_285_19958)"/>
<path d="M107.28 59.6575C107.28 61.1672 106.063 62.3786 104.547 62.3786L28.3501 62.3786C26.8527 62.3786 25.6361 61.1672 25.6174 59.6762C25.5987 58.1666 26.834 56.9365 28.3501 56.9365L104.547 56.9365C106.063 56.9365 107.28 58.1666 107.28 59.6575Z" fill="url(#paint38_linear_285_19958)"/>
</g>
<defs>
<linearGradient id="paint0_linear_285_19958" x1="-30.9985" y1="103" x2="423.895" y2="142.721" gradientUnits="userSpaceOnUse">
<stop stop-color="#153833"/>
<stop offset="1" stop-color="#071C18"/>
</linearGradient>
<linearGradient id="paint1_linear_285_19958" x1="58.2095" y1="100.461" x2="58.2095" y2="247.358" gradientUnits="userSpaceOnUse">
<stop stop-color="#051428"/>
<stop offset="1" stop-color="#09051E"/>
</linearGradient>
<linearGradient id="paint2_linear_285_19958" x1="105.093" y1="247.358" x2="11.5983" y2="245.333" gradientUnits="userSpaceOnUse">
<stop stop-color="#38EF61"/>
<stop offset="1" stop-color="#44E5C8"/>
</linearGradient>
<linearGradient id="paint3_linear_285_19958" x1="62.4429" y1="143.82" x2="62.4429" y2="252.72" gradientUnits="userSpaceOnUse">
<stop stop-color="#051428"/>
<stop offset="1" stop-color="#09051E"/>
</linearGradient>
<linearGradient id="paint4_linear_285_19958" x1="78.2132" y1="252.72" x2="46.7526" y2="252.411" gradientUnits="userSpaceOnUse">
<stop stop-color="#38EF61"/>
<stop offset="1" stop-color="#44E5C8"/>
</linearGradient>
<linearGradient id="paint5_linear_285_19958" x1="21.8895" y1="106.443" x2="21.8895" y2="159.31" gradientUnits="userSpaceOnUse">
<stop stop-color="#051428"/>
<stop offset="1" stop-color="#09051E"/>
</linearGradient>
<linearGradient id="paint6_linear_285_19958" x1="28.819" y1="159.31" x2="14.9949" y2="159.187" gradientUnits="userSpaceOnUse">
<stop stop-color="#38EF61"/>
<stop offset="1" stop-color="#44E5C8"/>
</linearGradient>
<linearGradient id="paint7_linear_285_19958" x1="203.874" y1="35.2092" x2="203.874" y2="218.595" gradientUnits="userSpaceOnUse">
<stop stop-color="#051428"/>
<stop offset="1" stop-color="#09051E"/>
</linearGradient>
<linearGradient id="paint8_linear_285_19958" x1="362.145" y1="218.595" x2="47.4554" y2="200.157" gradientUnits="userSpaceOnUse">
<stop stop-color="#38EF61"/>
<stop offset="1" stop-color="#44E5C8"/>
</linearGradient>
<linearGradient id="paint9_linear_285_19958" x1="202.904" y1="41.7471" x2="202.904" y2="201.207" gradientUnits="userSpaceOnUse">
<stop stop-color="#051428"/>
<stop offset="1" stop-color="#09051E"/>
</linearGradient>
<linearGradient id="paint10_linear_285_19958" x1="351.496" y1="201.207" x2="56.2181" y2="182.528" gradientUnits="userSpaceOnUse">
<stop stop-color="#38EF61"/>
<stop offset="1" stop-color="#44E5C8"/>
</linearGradient>
<linearGradient id="paint11_linear_285_19958" x1="205.488" y1="204.319" x2="205.488" y2="205.251" gradientUnits="userSpaceOnUse">
<stop stop-color="#051428"/>
<stop offset="1" stop-color="#09051E"/>
</linearGradient>
<linearGradient id="paint12_linear_285_19958" x1="354.277" y1="205.251" x2="351.771" y2="178.095" gradientUnits="userSpaceOnUse">
<stop stop-color="#38EF61"/>
<stop offset="1" stop-color="#44E5C8"/>
</linearGradient>
<linearGradient id="paint13_linear_285_19958" x1="61.7653" y1="170.754" x2="65.8145" y2="170.754" gradientUnits="userSpaceOnUse">
<stop stop-color="#53D8FF"/>
<stop offset="1" stop-color="#3840F7"/>
</linearGradient>
<linearGradient id="paint14_linear_285_19958" x1="61.7945" y1="167.649" x2="67.7381" y2="167.649" gradientUnits="userSpaceOnUse">
<stop stop-color="#09005D"/>
<stop offset="1" stop-color="#1A0F91"/>
</linearGradient>
<linearGradient id="paint15_linear_285_19958" x1="64.8846" y1="163.569" x2="68.4415" y2="163.569" gradientUnits="userSpaceOnUse">
<stop stop-color="#FF928E"/>
<stop offset="1" stop-color="#FEB3B1"/>
</linearGradient>
<linearGradient id="paint16_linear_285_19958" x1="66.8536" y1="166.713" x2="118.132" y2="95.5147" gradientUnits="userSpaceOnUse">
<stop stop-color="#0D362F"/>
<stop offset="1" stop-color="#14333B"/>
</linearGradient>
<linearGradient id="paint17_linear_285_19958" x1="43.5713" y1="170.718" x2="43.5713" y2="253.298" gradientUnits="userSpaceOnUse">
<stop stop-color="#051428"/>
<stop offset="1" stop-color="#09051E"/>
</linearGradient>
<linearGradient id="paint18_linear_285_19958" x1="61.2431" y1="253.298" x2="25.9932" y2="252.786" gradientUnits="userSpaceOnUse">
<stop stop-color="#38EF61"/>
<stop offset="1" stop-color="#44E5C8"/>
</linearGradient>
<linearGradient id="paint19_linear_285_19958" x1="65.3995" y1="170.718" x2="65.3995" y2="253.298" gradientUnits="userSpaceOnUse">
<stop stop-color="#051428"/>
<stop offset="1" stop-color="#09051E"/>
</linearGradient>
<linearGradient id="paint20_linear_285_19958" x1="83.075" y1="253.298" x2="47.8175" y2="252.785" gradientUnits="userSpaceOnUse">
<stop stop-color="#38EF61"/>
<stop offset="1" stop-color="#44E5C8"/>
</linearGradient>
<linearGradient id="paint21_linear_285_19958" x1="75.5253" y1="170.232" x2="75.5253" y2="172.133" gradientUnits="userSpaceOnUse">
<stop stop-color="#051428"/>
<stop offset="1" stop-color="#09051E"/>
</linearGradient>
<linearGradient id="paint22_linear_285_19958" x1="92.0484" y1="172.133" x2="67.5962" y2="157.705" gradientUnits="userSpaceOnUse">
<stop stop-color="#38EF61"/>
<stop offset="1" stop-color="#44E5C8"/>
</linearGradient>
<linearGradient id="paint23_linear_285_19958" x1="66.785" y1="183.147" x2="66.785" y2="184.489" gradientUnits="userSpaceOnUse">
<stop stop-color="#051428"/>
<stop offset="1" stop-color="#09051E"/>
</linearGradient>
<linearGradient id="paint24_linear_285_19958" x1="77.9897" y1="184.489" x2="61.0712" y2="174.899" gradientUnits="userSpaceOnUse">
<stop stop-color="#38EF61"/>
<stop offset="1" stop-color="#44E5C8"/>
</linearGradient>
<linearGradient id="paint25_linear_285_19958" x1="60.0651" y1="198.504" x2="60.0651" y2="199.846" gradientUnits="userSpaceOnUse">
<stop stop-color="#051428"/>
<stop offset="1" stop-color="#09051E"/>
</linearGradient>
<linearGradient id="paint26_linear_285_19958" x1="70.6028" y1="199.846" x2="54.2315" y2="191.119" gradientUnits="userSpaceOnUse">
<stop stop-color="#38EF61"/>
<stop offset="1" stop-color="#44E5C8"/>
</linearGradient>
<linearGradient id="paint27_linear_285_19958" x1="53.5515" y1="213.861" x2="53.5515" y2="215.203" gradientUnits="userSpaceOnUse">
<stop stop-color="#051428"/>
<stop offset="1" stop-color="#09051E"/>
</linearGradient>
<linearGradient id="paint28_linear_285_19958" x1="64.0891" y1="215.203" x2="47.7179" y2="206.476" gradientUnits="userSpaceOnUse">
<stop stop-color="#38EF61"/>
<stop offset="1" stop-color="#44E5C8"/>
</linearGradient>
<linearGradient id="paint29_linear_285_19958" x1="46.7381" y1="229.237" x2="46.7381" y2="230.579" gradientUnits="userSpaceOnUse">
<stop stop-color="#051428"/>
<stop offset="1" stop-color="#09051E"/>
</linearGradient>
<linearGradient id="paint30_linear_285_19958" x1="57.9428" y1="230.579" x2="41.0243" y2="220.989" gradientUnits="userSpaceOnUse">
<stop stop-color="#38EF61"/>
<stop offset="1" stop-color="#44E5C8"/>
</linearGradient>
<linearGradient id="paint31_linear_285_19958" x1="40.1502" y1="244.594" x2="40.1502" y2="245.936" gradientUnits="userSpaceOnUse">
<stop stop-color="#051428"/>
<stop offset="1" stop-color="#09051E"/>
</linearGradient>
<linearGradient id="paint32_linear_285_19958" x1="51.3549" y1="245.936" x2="34.4365" y2="236.346" gradientUnits="userSpaceOnUse">
<stop stop-color="#38EF61"/>
<stop offset="1" stop-color="#44E5C8"/>
</linearGradient>
<linearGradient id="paint33_linear_285_19958" x1="63.6959" y1="15.5573" x2="63.6959" y2="74.8477" gradientUnits="userSpaceOnUse">
<stop stop-color="#051428"/>
<stop offset="1" stop-color="#09051E"/>
</linearGradient>
<linearGradient id="paint34_linear_285_19958" x1="112.546" y1="74.8478" x2="15.3883" y2="69.4136" gradientUnits="userSpaceOnUse">
<stop stop-color="#38EF61"/>
<stop offset="1" stop-color="#44E5C8"/>
</linearGradient>
<linearGradient id="paint35_linear_285_19958" x1="105.778" y1="33.1928" x2="42.5336" y2="2.16479" gradientUnits="userSpaceOnUse">
<stop stop-color="#38EF61"/>
<stop offset="1" stop-color="#44E5C8"/>
</linearGradient>
<linearGradient id="paint36_linear_285_19958" x1="105.778" y1="42.9214" x2="42.5336" y2="11.8934" gradientUnits="userSpaceOnUse">
<stop stop-color="#38EF61"/>
<stop offset="1" stop-color="#44E5C8"/>
</linearGradient>
<linearGradient id="paint37_linear_285_19958" x1="105.778" y1="52.6499" x2="42.5336" y2="21.6219" gradientUnits="userSpaceOnUse">
<stop stop-color="#38EF61"/>
<stop offset="1" stop-color="#44E5C8"/>
</linearGradient>
<linearGradient id="paint38_linear_285_19958" x1="105.778" y1="62.3786" x2="42.5336" y2="31.3506" gradientUnits="userSpaceOnUse">
<stop stop-color="#38EF61"/>
<stop offset="1" stop-color="#44E5C8"/>
</linearGradient>
<clipPath id="clip0_285_19958">
<rect width="405" height="256" fill="white" transform="translate(0.367188)"/>
</clipPath>
</defs>
</svg>
